M48
; DRILL file {KiCad 9.0.7} date 2026-03-12T14:03:35-0500
; FORMAT={-:-/ absolute / metric / decimal}
; #@! TF.CreationDate,2026-03-12T14:03:35-05:00
; #@! TF.GenerationSoftware,Kicad,Pcbnew,9.0.7
; #@! TF.FileFunction,Plated,1,2,PTH
FMAT,2
METRIC
; #@! TA.AperFunction,Plated,PTH,ViaDrill
T1C0.300
; #@! TA.AperFunction,Plated,PTH,ComponentDrill
T2C0.750
; #@! TA.AperFunction,Plated,PTH,ComponentDrill
T3C0.800
; #@! TA.AperFunction,Plated,PTH,ComponentDrill
T4C1.000
%
G90
G05
T1
X97.5Y-79.5
X98.0Y-83.5
X98.5Y-79.5
X98.5Y-79.5
X99.0Y-80.5
X99.0Y-86.0
X99.5Y-76.0
X105.5Y-88.0
X105.562Y-93.062
X107.5Y-86.0
X108.0Y-117.0
X108.5Y-87.5
X108.5Y-99.0
X110.5Y-87.5
X113.5Y-117.0
X116.14Y-98.86
X116.5Y-110.0
X117.0Y-109.0
X117.657Y-111.543
X118.5Y-111.5
X119.5Y-106.5
X124.0Y-118.275
X124.5Y-103.0
X125.5Y-110.0
X128.5Y-77.5
X128.5Y-84.5
X129.5Y-75.0
X129.5Y-79.5
X131.0Y-85.5
X131.5Y-115.0
X132.5Y-96.5
X134.434Y-105.934
X134.5Y-76.5
X134.5Y-83.0
X135.0Y-106.5
X135.0Y-106.5
X146.5Y-77.0
X147.984Y-108.506
X148.307Y-92.693
X148.729Y-108.215
X149.5Y-108.0
X159.5Y-105.5
X161.0Y-97.5
X161.5Y-106.373
X162.8Y-106.8
X163.0Y-108.0
X164.0Y-112.5
X164.19Y-88.81
X164.5Y-109.0
X165.0Y-102.0
X166.0Y-119.0
X175.0Y-119.5
X175.5Y-107.5
X176.0Y-119.5
X177.5Y-105.5
X178.5Y-112.5
X179.5Y-112.5
T2
X121.73Y-98.86
X123.0Y-98.86
X124.27Y-98.86
T3
X157.86Y-84.98
X160.36Y-84.98
T4
X94.36Y-77.36
X94.36Y-79.9
X94.36Y-82.44
X94.36Y-84.98
X94.36Y-87.52
X123.96Y-76.96
X123.96Y-79.5
X123.96Y-82.04
X123.96Y-84.58
X126.5Y-76.96
X126.5Y-79.5
X126.5Y-82.04
X126.5Y-84.58
X141.46Y-76.96
X141.46Y-79.5
X141.46Y-82.04
X144.0Y-76.96
X144.0Y-79.5
X144.0Y-82.04
X150.0Y-77.0
X150.0Y-79.54
X150.0Y-82.08
X179.045Y-88.48
X179.085Y-77.48
X179.36Y-82.98
X179.36Y-93.98
X181.585Y-88.48
X181.625Y-77.48
X181.9Y-82.98
X181.9Y-93.98
M30
