%TF.GenerationSoftware,KiCad,Pcbnew,9.0.7*%
%TF.CreationDate,2026-04-05T23:58:25-05:00*%
%TF.ProjectId,audio_and_power,61756469-6f5f-4616-9e64-5f706f776572,rev?*%
%TF.SameCoordinates,Original*%
%TF.FileFunction,Paste,Top*%
%TF.FilePolarity,Positive*%
%FSLAX46Y46*%
G04 Gerber Fmt 4.6, Leading zero omitted, Abs format (unit mm)*
G04 Created by KiCad (PCBNEW 9.0.7) date 2026-04-05 23:58:25*
%MOMM*%
%LPD*%
G01*
G04 APERTURE LIST*
G04 Aperture macros list*
%AMRoundRect*
0 Rectangle with rounded corners*
0 $1 Rounding radius*
0 $2 $3 $4 $5 $6 $7 $8 $9 X,Y pos of 4 corners*
0 Add a 4 corners polygon primitive as box body*
4,1,4,$2,$3,$4,$5,$6,$7,$8,$9,$2,$3,0*
0 Add four circle primitives for the rounded corners*
1,1,$1+$1,$2,$3*
1,1,$1+$1,$4,$5*
1,1,$1+$1,$6,$7*
1,1,$1+$1,$8,$9*
0 Add four rect primitives between the rounded corners*
20,1,$1+$1,$2,$3,$4,$5,0*
20,1,$1+$1,$4,$5,$6,$7,0*
20,1,$1+$1,$6,$7,$8,$9,0*
20,1,$1+$1,$8,$9,$2,$3,0*%
G04 Aperture macros list end*
%ADD10RoundRect,0.100000X-0.712500X-0.100000X0.712500X-0.100000X0.712500X0.100000X-0.712500X0.100000X0*%
%ADD11RoundRect,0.250000X-0.310000X0.970000X-0.310000X-0.970000X0.310000X-0.970000X0.310000X0.970000X0*%
%ADD12RoundRect,0.225000X-0.250000X0.225000X-0.250000X-0.225000X0.250000X-0.225000X0.250000X0.225000X0*%
%ADD13R,1.700000X1.000000*%
%ADD14R,0.900000X1.500000*%
%ADD15R,1.500000X0.900000*%
%ADD16R,0.900000X0.900000*%
%ADD17RoundRect,0.225000X-0.225000X-0.250000X0.225000X-0.250000X0.225000X0.250000X-0.225000X0.250000X0*%
%ADD18RoundRect,0.200000X0.275000X-0.200000X0.275000X0.200000X-0.275000X0.200000X-0.275000X-0.200000X0*%
%ADD19RoundRect,0.225000X-0.375000X0.225000X-0.375000X-0.225000X0.375000X-0.225000X0.375000X0.225000X0*%
%ADD20RoundRect,0.200000X-0.275000X0.200000X-0.275000X-0.200000X0.275000X-0.200000X0.275000X0.200000X0*%
%ADD21RoundRect,0.250000X0.475000X-0.250000X0.475000X0.250000X-0.475000X0.250000X-0.475000X-0.250000X0*%
%ADD22RoundRect,0.225000X0.250000X-0.225000X0.250000X0.225000X-0.250000X0.225000X-0.250000X-0.225000X0*%
G04 APERTURE END LIST*
D10*
%TO.C,U6*%
X93961250Y-124800000D03*
X93961250Y-125450000D03*
X93961250Y-126100000D03*
X93961250Y-126750000D03*
X98186250Y-126750000D03*
X98186250Y-126100000D03*
X98186250Y-125450000D03*
X98186250Y-124800000D03*
%TD*%
D11*
%TO.C,SW1*%
X127073750Y-80195000D03*
X127073750Y-88805000D03*
%TD*%
D12*
%TO.C,C17*%
X122543750Y-105725000D03*
X122543750Y-107275000D03*
%TD*%
D13*
%TO.C,SW4*%
X47923750Y-135800000D03*
X54223750Y-135800000D03*
X47923750Y-139600000D03*
X54223750Y-139600000D03*
%TD*%
D14*
%TO.C,U2*%
X68813750Y-103120000D03*
X70083750Y-103120000D03*
X71353750Y-103120000D03*
X72623750Y-103120000D03*
X73893750Y-103120000D03*
X75163750Y-103120000D03*
X76433750Y-103120000D03*
X77703750Y-103120000D03*
X78973750Y-103120000D03*
X80243750Y-103120000D03*
X81513750Y-103120000D03*
X82783750Y-103120000D03*
X84053750Y-103120000D03*
X85323750Y-103120000D03*
D15*
X86573750Y-100080000D03*
X86573750Y-98810000D03*
X86573750Y-97540000D03*
X86573750Y-96270000D03*
X86573750Y-95000000D03*
X86573750Y-93730000D03*
X86573750Y-92460000D03*
X86573750Y-91190000D03*
X86573750Y-89920000D03*
X86573750Y-88650000D03*
D14*
X85323750Y-85620000D03*
X84053750Y-85620000D03*
X82783750Y-85620000D03*
X81513750Y-85620000D03*
X80243750Y-85620000D03*
X78973750Y-85620000D03*
X77703750Y-85620000D03*
X76433750Y-85620000D03*
X75163750Y-85620000D03*
X73893750Y-85620000D03*
X72623750Y-85620000D03*
X71353750Y-85620000D03*
X70083750Y-85620000D03*
X68813750Y-85620000D03*
D16*
X75133750Y-97270000D03*
X76533750Y-97270000D03*
X77933750Y-97270000D03*
X75133750Y-95870000D03*
X76533750Y-95870000D03*
X77933750Y-95870000D03*
X75133750Y-94470000D03*
X76533750Y-94470000D03*
X77933750Y-94470000D03*
%TD*%
D17*
%TO.C,C7*%
X66798750Y-129000000D03*
X68348750Y-129000000D03*
%TD*%
D18*
%TO.C,R6*%
X70073750Y-113325000D03*
X70073750Y-111675000D03*
%TD*%
D13*
%TO.C,SW5*%
X62423750Y-135700000D03*
X68723750Y-135700000D03*
X62423750Y-139500000D03*
X68723750Y-139500000D03*
%TD*%
D19*
%TO.C,D1*%
X127073750Y-95655000D03*
X127073750Y-98955000D03*
%TD*%
D17*
%TO.C,C39*%
X105023750Y-119275000D03*
X106573750Y-119275000D03*
%TD*%
D10*
%TO.C,U7*%
X113961250Y-124800000D03*
X113961250Y-125450000D03*
X113961250Y-126100000D03*
X113961250Y-126750000D03*
X118186250Y-126750000D03*
X118186250Y-126100000D03*
X118186250Y-125450000D03*
X118186250Y-124800000D03*
%TD*%
D17*
%TO.C,C40*%
X105073750Y-124775000D03*
X106623750Y-124775000D03*
%TD*%
D20*
%TO.C,R7*%
X87073750Y-113675000D03*
X87073750Y-115325000D03*
%TD*%
D12*
%TO.C,C4*%
X127073750Y-112225000D03*
X127073750Y-113775000D03*
%TD*%
D21*
%TO.C,C38*%
X118073750Y-119225000D03*
X118073750Y-117325000D03*
%TD*%
D12*
%TO.C,C18*%
X123043750Y-112225000D03*
X123043750Y-113775000D03*
%TD*%
%TO.C,C3*%
X127073750Y-105725000D03*
X127073750Y-107275000D03*
%TD*%
D22*
%TO.C,C37*%
X112573750Y-119050000D03*
X112573750Y-117500000D03*
%TD*%
M02*
