%TF.GenerationSoftware,KiCad,Pcbnew,9.0.7*%
%TF.CreationDate,2026-04-09T15:46:16-05:00*%
%TF.ProjectId,audio_and_power,61756469-6f5f-4616-9e64-5f706f776572,rev?*%
%TF.SameCoordinates,Original*%
%TF.FileFunction,Copper,L1,Top*%
%TF.FilePolarity,Positive*%
%FSLAX46Y46*%
G04 Gerber Fmt 4.6, Leading zero omitted, Abs format (unit mm)*
G04 Created by KiCad (PCBNEW 9.0.7) date 2026-04-09 15:46:16*
%MOMM*%
%LPD*%
G01*
G04 APERTURE LIST*
G04 Aperture macros list*
%AMRoundRect*
0 Rectangle with rounded corners*
0 $1 Rounding radius*
0 $2 $3 $4 $5 $6 $7 $8 $9 X,Y pos of 4 corners*
0 Add a 4 corners polygon primitive as box body*
4,1,4,$2,$3,$4,$5,$6,$7,$8,$9,$2,$3,0*
0 Add four circle primitives for the rounded corners*
1,1,$1+$1,$2,$3*
1,1,$1+$1,$4,$5*
1,1,$1+$1,$6,$7*
1,1,$1+$1,$8,$9*
0 Add four rect primitives between the rounded corners*
20,1,$1+$1,$2,$3,$4,$5,0*
20,1,$1+$1,$4,$5,$6,$7,0*
20,1,$1+$1,$6,$7,$8,$9,0*
20,1,$1+$1,$8,$9,$2,$3,0*%
G04 Aperture macros list end*
%TA.AperFunction,SMDPad,CuDef*%
%ADD10RoundRect,0.100000X-0.712500X-0.100000X0.712500X-0.100000X0.712500X0.100000X-0.712500X0.100000X0*%
%TD*%
%TA.AperFunction,SMDPad,CuDef*%
%ADD11RoundRect,0.250000X-0.310000X0.970000X-0.310000X-0.970000X0.310000X-0.970000X0.310000X0.970000X0*%
%TD*%
%TA.AperFunction,ComponentPad*%
%ADD12R,1.700000X1.700000*%
%TD*%
%TA.AperFunction,ComponentPad*%
%ADD13C,1.700000*%
%TD*%
%TA.AperFunction,SMDPad,CuDef*%
%ADD14RoundRect,0.225000X0.250000X-0.225000X0.250000X0.225000X-0.250000X0.225000X-0.250000X-0.225000X0*%
%TD*%
%TA.AperFunction,SMDPad,CuDef*%
%ADD15R,1.700000X1.000000*%
%TD*%
%TA.AperFunction,SMDPad,CuDef*%
%ADD16R,0.900000X1.500000*%
%TD*%
%TA.AperFunction,SMDPad,CuDef*%
%ADD17R,1.500000X0.900000*%
%TD*%
%TA.AperFunction,SMDPad,CuDef*%
%ADD18R,0.900000X0.900000*%
%TD*%
%TA.AperFunction,HeatsinkPad*%
%ADD19C,0.600000*%
%TD*%
%TA.AperFunction,HeatsinkPad*%
%ADD20R,3.800000X3.800000*%
%TD*%
%TA.AperFunction,SMDPad,CuDef*%
%ADD21RoundRect,0.200000X0.275000X-0.200000X0.275000X0.200000X-0.275000X0.200000X-0.275000X-0.200000X0*%
%TD*%
%TA.AperFunction,ComponentPad*%
%ADD22R,1.905000X2.000000*%
%TD*%
%TA.AperFunction,ComponentPad*%
%ADD23O,1.905000X2.000000*%
%TD*%
%TA.AperFunction,SMDPad,CuDef*%
%ADD24RoundRect,0.225000X-0.375000X0.225000X-0.375000X-0.225000X0.375000X-0.225000X0.375000X0.225000X0*%
%TD*%
%TA.AperFunction,SMDPad,CuDef*%
%ADD25RoundRect,0.225000X-0.225000X-0.250000X0.225000X-0.250000X0.225000X0.250000X-0.225000X0.250000X0*%
%TD*%
%TA.AperFunction,SMDPad,CuDef*%
%ADD26RoundRect,0.225000X-0.250000X0.225000X-0.250000X-0.225000X0.250000X-0.225000X0.250000X0.225000X0*%
%TD*%
%TA.AperFunction,SMDPad,CuDef*%
%ADD27RoundRect,0.250000X0.475000X-0.250000X0.475000X0.250000X-0.475000X0.250000X-0.475000X-0.250000X0*%
%TD*%
%TA.AperFunction,ViaPad*%
%ADD28C,0.600000*%
%TD*%
%TA.AperFunction,Conductor*%
%ADD29C,0.254000*%
%TD*%
%TA.AperFunction,Conductor*%
%ADD30C,1.016000*%
%TD*%
%TA.AperFunction,Conductor*%
%ADD31C,0.762000*%
%TD*%
%TA.AperFunction,Conductor*%
%ADD32C,0.508000*%
%TD*%
G04 APERTURE END LIST*
D10*
%TO.P,U6,1,Vdd*%
%TO.N,/DVDD_3V3*%
X93961250Y-115525000D03*
%TO.P,U6,2,~{CS}*%
%TO.N,/CS*%
X93961250Y-116175000D03*
%TO.P,U6,3,SCK*%
%TO.N,/SCK*%
X93961250Y-116825000D03*
%TO.P,U6,4,SDI*%
%TO.N,/SDI*%
X93961250Y-117475000D03*
%TO.P,U6,5,~{LDAC}*%
%TO.N,/DGND*%
X98186250Y-117475000D03*
%TO.P,U6,6,VB*%
%TO.N,unconnected-(U6-VB-Pad6)*%
X98186250Y-116825000D03*
%TO.P,U6,7,Vss*%
%TO.N,/DGND*%
X98186250Y-116175000D03*
%TO.P,U6,8,VA*%
%TO.N,Net-(U6-VA)*%
X98186250Y-115525000D03*
%TD*%
D11*
%TO.P,SW1,1,A*%
%TO.N,/VBAT*%
X118000000Y-83195000D03*
%TO.P,SW1,2,B*%
%TO.N,Net-(D1-K)*%
X118000000Y-91805000D03*
%TD*%
D12*
%TO.P,J6,1,Pin_1*%
%TO.N,/DVDD_3V3*%
X116540000Y-123500000D03*
D13*
%TO.P,J6,2,Pin_2*%
%TO.N,/DGND*%
X114000000Y-123500000D03*
%TO.P,J6,3,Pin_3*%
%TO.N,/TXD0*%
X111460000Y-123500000D03*
%TO.P,J6,4,Pin_4*%
%TO.N,/RXD0*%
X108920000Y-123500000D03*
%TO.P,J6,5,Pin_5*%
%TO.N,/EN*%
X106380000Y-123500000D03*
%TO.P,J6,6,Pin_6*%
%TO.N,/IO0*%
X103840000Y-123500000D03*
%TD*%
D14*
%TO.P,C17,1*%
%TO.N,/VBAT_PROT*%
X111500000Y-93000000D03*
%TO.P,C17,2*%
%TO.N,/DGND*%
X111500000Y-91450000D03*
%TD*%
D15*
%TO.P,SW4,1,1*%
%TO.N,/EN*%
X48700000Y-122000000D03*
X55000000Y-122000000D03*
%TO.P,SW4,2,2*%
%TO.N,/DGND*%
X48700000Y-125800000D03*
X55000000Y-125800000D03*
%TD*%
D12*
%TO.P,BT3,1,+*%
%TO.N,/VBAT*%
X113500000Y-74725000D03*
D13*
%TO.P,BT3,2,-*%
%TO.N,Net-(BT2-+)*%
X113500000Y-77265000D03*
%TD*%
D16*
%TO.P,U2,1,GND*%
%TO.N,/DGND*%
X68813750Y-103120000D03*
%TO.P,U2,2,VDD*%
%TO.N,/DVDD_3V3*%
X70083750Y-103120000D03*
%TO.P,U2,3,EN*%
%TO.N,/EN*%
X71353750Y-103120000D03*
%TO.P,U2,4,SENSOR_VP*%
%TO.N,unconnected-(U2-SENSOR_VP-Pad4)*%
X72623750Y-103120000D03*
%TO.P,U2,5,SENSOR_VN*%
%TO.N,unconnected-(U2-SENSOR_VN-Pad5)*%
X73893750Y-103120000D03*
%TO.P,U2,6,IO34*%
%TO.N,unconnected-(U2-IO34-Pad6)*%
X75163750Y-103120000D03*
%TO.P,U2,7,IO35*%
%TO.N,unconnected-(U2-IO35-Pad7)*%
X76433750Y-103120000D03*
%TO.P,U2,8,IO32*%
%TO.N,unconnected-(U2-IO32-Pad8)*%
X77703750Y-103120000D03*
%TO.P,U2,9,IO33*%
%TO.N,unconnected-(U2-IO33-Pad9)*%
X78973750Y-103120000D03*
%TO.P,U2,10,IO25*%
%TO.N,unconnected-(U2-IO25-Pad10)*%
X80243750Y-103120000D03*
%TO.P,U2,11,IO26*%
%TO.N,unconnected-(U2-IO26-Pad11)*%
X81513750Y-103120000D03*
%TO.P,U2,12,IO27*%
%TO.N,unconnected-(U2-IO27-Pad12)*%
X82783750Y-103120000D03*
%TO.P,U2,13,IO14*%
%TO.N,unconnected-(U2-IO14-Pad13)*%
X84053750Y-103120000D03*
%TO.P,U2,14,IO12*%
%TO.N,unconnected-(U2-IO12-Pad14)*%
X85323750Y-103120000D03*
D17*
%TO.P,U2,15,GND*%
%TO.N,/DGND*%
X86573750Y-100080000D03*
%TO.P,U2,16,IO13*%
%TO.N,unconnected-(U2-IO13-Pad16)*%
X86573750Y-98810000D03*
%TO.P,U2,17,NC*%
%TO.N,unconnected-(U2-NC-Pad17)*%
X86573750Y-97540000D03*
%TO.P,U2,18,NC*%
%TO.N,unconnected-(U2-NC-Pad18)*%
X86573750Y-96270000D03*
%TO.P,U2,19,NC*%
%TO.N,unconnected-(U2-NC-Pad19)*%
X86573750Y-95000000D03*
%TO.P,U2,20,NC*%
%TO.N,unconnected-(U2-NC-Pad20)*%
X86573750Y-93730000D03*
%TO.P,U2,21,NC*%
%TO.N,unconnected-(U2-NC-Pad21)*%
X86573750Y-92460000D03*
%TO.P,U2,22,NC*%
%TO.N,unconnected-(U2-NC-Pad22)*%
X86573750Y-91190000D03*
%TO.P,U2,23,IO15*%
%TO.N,unconnected-(U2-IO15-Pad23)*%
X86573750Y-89920000D03*
%TO.P,U2,24,IO2*%
%TO.N,unconnected-(U2-IO2-Pad24)*%
X86573750Y-88650000D03*
D16*
%TO.P,U2,25,IO0*%
%TO.N,/IO0*%
X85323750Y-85620000D03*
%TO.P,U2,26,IO4*%
%TO.N,unconnected-(U2-IO4-Pad26)*%
X84053750Y-85620000D03*
%TO.P,U2,27,IO16*%
%TO.N,/TX*%
X82783750Y-85620000D03*
%TO.P,U2,28,IO17*%
%TO.N,/RX*%
X81513750Y-85620000D03*
%TO.P,U2,29,IO5*%
%TO.N,/CS*%
X80243750Y-85620000D03*
%TO.P,U2,30,IO18*%
%TO.N,/SCK*%
X78973750Y-85620000D03*
%TO.P,U2,31,IO19*%
%TO.N,unconnected-(U2-IO19-Pad31)*%
X77703750Y-85620000D03*
%TO.P,U2,32,NC*%
%TO.N,unconnected-(U2-NC-Pad32)*%
X76433750Y-85620000D03*
%TO.P,U2,33,IO21*%
%TO.N,unconnected-(U2-IO21-Pad33)*%
X75163750Y-85620000D03*
%TO.P,U2,34,RXD0/IO3*%
%TO.N,/RXD0*%
X73893750Y-85620000D03*
%TO.P,U2,35,TXD0/IO1*%
%TO.N,/TXD0*%
X72623750Y-85620000D03*
%TO.P,U2,36,IO22*%
%TO.N,unconnected-(U2-IO22-Pad36)*%
X71353750Y-85620000D03*
%TO.P,U2,37,IO23*%
%TO.N,/SDI*%
X70083750Y-85620000D03*
%TO.P,U2,38,GND*%
%TO.N,/DGND*%
X68813750Y-85620000D03*
D18*
%TO.P,U2,39,GND*%
X75133750Y-97270000D03*
D19*
X75833750Y-97270000D03*
D18*
X76533750Y-97270000D03*
X77933750Y-97270000D03*
D19*
X77933750Y-96570000D03*
D18*
X75133750Y-95870000D03*
X76533750Y-95870000D03*
D20*
X76533750Y-95870000D03*
D19*
X76563750Y-95870000D03*
D18*
X77933750Y-95870000D03*
D19*
X75133750Y-95170000D03*
D18*
X75133750Y-94470000D03*
X76533750Y-94470000D03*
D19*
X77233750Y-94470000D03*
D18*
X77933750Y-94470000D03*
%TD*%
D14*
%TO.P,C7,1*%
%TO.N,/DGND*%
X69500000Y-125275000D03*
%TO.P,C7,2*%
%TO.N,/EN*%
X69500000Y-123725000D03*
%TD*%
D21*
%TO.P,R6,1*%
%TO.N,/EN*%
X70073750Y-113325000D03*
%TO.P,R6,2*%
%TO.N,/DVDD_3V3*%
X70073750Y-111675000D03*
%TD*%
D15*
%TO.P,SW5,1,1*%
%TO.N,/IO0*%
X59200000Y-122000000D03*
X65500000Y-122000000D03*
%TO.P,SW5,2,2*%
%TO.N,/DGND*%
X59200000Y-125800000D03*
X65500000Y-125800000D03*
%TD*%
D22*
%TO.P,U8,1,GND*%
%TO.N,/DGND*%
X95460000Y-104230000D03*
D23*
%TO.P,U8,2,VO*%
%TO.N,/DVDD_3V3*%
X98000000Y-104230000D03*
%TO.P,U8,3,VI*%
%TO.N,/VBAT_PROT*%
X100540000Y-104230000D03*
%TD*%
D24*
%TO.P,D1,1,K*%
%TO.N,Net-(D1-K)*%
X118000000Y-95350000D03*
%TO.P,D1,2,A*%
%TO.N,/VBAT_PROT*%
X118000000Y-98650000D03*
%TD*%
D12*
%TO.P,BT1,1,+*%
%TO.N,Net-(BT1-+)*%
X100500000Y-74725000D03*
D13*
%TO.P,BT1,2,-*%
%TO.N,/DGND*%
X100500000Y-77265000D03*
%TD*%
D25*
%TO.P,C39,1*%
%TO.N,/DVDD_3V3*%
X95725000Y-112000000D03*
%TO.P,C39,2*%
%TO.N,/DGND*%
X97275000Y-112000000D03*
%TD*%
D10*
%TO.P,U7,1,~{SD}*%
%TO.N,/DVDD_3V3*%
X108387500Y-114525000D03*
%TO.P,U7,2,NC*%
%TO.N,unconnected-(U7-NC-Pad2)*%
X108387500Y-115175000D03*
%TO.P,U7,3,IN+*%
%TO.N,Net-(U7-IN+)*%
X108387500Y-115825000D03*
%TO.P,U7,4,IN-*%
%TO.N,/DGND*%
X108387500Y-116475000D03*
%TO.P,U7,5,OUT+*%
%TO.N,Net-(U7-OUT+)*%
X112612500Y-116475000D03*
%TO.P,U7,6,VDD*%
%TO.N,/DVDD_3V3*%
X112612500Y-115825000D03*
%TO.P,U7,7,GND*%
%TO.N,/DGND*%
X112612500Y-115175000D03*
%TO.P,U7,8,OUT-*%
%TO.N,Net-(U7-OUT-)*%
X112612500Y-114525000D03*
%TD*%
D25*
%TO.P,C40,1*%
%TO.N,Net-(U6-VA)*%
X102225000Y-115500000D03*
%TO.P,C40,2*%
%TO.N,Net-(U7-IN+)*%
X103775000Y-115500000D03*
%TD*%
D21*
%TO.P,R7,1*%
%TO.N,/IO0*%
X85000000Y-110325000D03*
%TO.P,R7,2*%
%TO.N,/DVDD_3V3*%
X85000000Y-108675000D03*
%TD*%
D26*
%TO.P,C4,1*%
%TO.N,/DVDD_3V3*%
X113500000Y-102725000D03*
%TO.P,C4,2*%
%TO.N,/DGND*%
X113500000Y-104275000D03*
%TD*%
D27*
%TO.P,C38,1*%
%TO.N,/DVDD_3V3*%
X113000000Y-110950000D03*
%TO.P,C38,2*%
%TO.N,/DGND*%
X113000000Y-109050000D03*
%TD*%
D12*
%TO.P,BT2,1,+*%
%TO.N,Net-(BT2-+)*%
X107000000Y-77275000D03*
D13*
%TO.P,BT2,2,-*%
%TO.N,Net-(BT1-+)*%
X107000000Y-74735000D03*
%TD*%
D12*
%TO.P,J5,1,Pin_1*%
%TO.N,/DGND*%
X86580000Y-126000000D03*
D13*
%TO.P,J5,2,Pin_2*%
%TO.N,/TX*%
X84040000Y-126000000D03*
%TO.P,J5,3,Pin_3*%
%TO.N,/RX*%
X81500000Y-126000000D03*
%TD*%
D26*
%TO.P,C18,1*%
%TO.N,/DVDD_3V3*%
X109470000Y-102725000D03*
%TO.P,C18,2*%
%TO.N,/DGND*%
X109470000Y-104275000D03*
%TD*%
D14*
%TO.P,C3,1*%
%TO.N,/VBAT_PROT*%
X106970000Y-93000000D03*
%TO.P,C3,2*%
%TO.N,/DGND*%
X106970000Y-91450000D03*
%TD*%
D12*
%TO.P,LS1,1,1*%
%TO.N,Net-(U7-OUT-)*%
X121000000Y-114225000D03*
D13*
%TO.P,LS1,2,2*%
%TO.N,Net-(U7-OUT+)*%
X121000000Y-116765000D03*
%TD*%
D14*
%TO.P,C37,1*%
%TO.N,/DVDD_3V3*%
X107500000Y-110775000D03*
%TO.P,C37,2*%
%TO.N,/DGND*%
X107500000Y-109225000D03*
%TD*%
D28*
%TO.N,/DGND*%
X111033159Y-114466841D03*
X109966841Y-115533159D03*
%TO.N,/DVDD_3V3*%
X74000000Y-107000000D03*
X94500000Y-112000000D03*
X84500000Y-106500000D03*
X100045000Y-106275000D03*
X81000000Y-106500000D03*
%TO.N,/EN*%
X81491750Y-121500000D03*
X71573750Y-106000000D03*
X57000000Y-121000000D03*
X70073750Y-115000000D03*
X71573750Y-120500000D03*
%TO.N,/TX*%
X82573750Y-87500000D03*
X83500000Y-124000000D03*
%TO.N,/RX*%
X81573750Y-87500000D03*
X81500000Y-124000000D03*
%TO.N,/IO0*%
X81491750Y-122500000D03*
X85000000Y-111500000D03*
X67500000Y-121500000D03*
X84073750Y-87500000D03*
X83200750Y-122500000D03*
%TO.N,/RXD0*%
X81491750Y-120500000D03*
X72446750Y-90000000D03*
%TO.N,/TXD0*%
X73073750Y-88000000D03*
X81491750Y-119500000D03*
%TO.N,/SCK*%
X79573750Y-79500000D03*
X79073750Y-81500000D03*
%TO.N,/CS*%
X80573750Y-81500000D03*
X80573750Y-78500000D03*
%TD*%
D29*
%TO.N,/DGND*%
X109199999Y-116475000D02*
X108387500Y-116475000D01*
X112612500Y-115175000D02*
X111675000Y-115175000D01*
X109966841Y-115708158D02*
X109199999Y-116475000D01*
X98186250Y-116175000D02*
X98956804Y-116175000D01*
X109966841Y-115533159D02*
X109966841Y-115708158D01*
X98998749Y-117475000D02*
X98186250Y-117475000D01*
X111000000Y-114500000D02*
X111033159Y-114466841D01*
X99326750Y-116544946D02*
X99326750Y-117146999D01*
X98956804Y-116175000D02*
X99326750Y-116544946D01*
X111675000Y-115175000D02*
X111000000Y-114500000D01*
X99326750Y-117146999D02*
X98998749Y-117475000D01*
D30*
%TO.N,Net-(BT1-+)*%
X106990000Y-74725000D02*
X107000000Y-74735000D01*
X100500000Y-74725000D02*
X106990000Y-74725000D01*
%TO.N,Net-(BT2-+)*%
X107000000Y-77275000D02*
X113490000Y-77275000D01*
X113490000Y-77275000D02*
X113500000Y-77265000D01*
%TO.N,/VBAT*%
X118000000Y-79225000D02*
X118000000Y-83195000D01*
X113500000Y-74725000D02*
X118000000Y-79225000D01*
%TO.N,/VBAT_PROT*%
X111500000Y-98650000D02*
X107000000Y-98650000D01*
X106970000Y-98620000D02*
X107000000Y-98650000D01*
X107000000Y-98650000D02*
X106120000Y-98650000D01*
X118000000Y-98650000D02*
X111500000Y-98650000D01*
X106120000Y-98650000D02*
X100540000Y-104230000D01*
X111500000Y-93000000D02*
X111500000Y-98650000D01*
X106970000Y-93000000D02*
X106970000Y-98620000D01*
D31*
%TO.N,/DVDD_3V3*%
X100725000Y-106275000D02*
X104275000Y-102725000D01*
D32*
X115000000Y-121500000D02*
X115000000Y-121960000D01*
X110000000Y-110775000D02*
X110000000Y-114500000D01*
D31*
X95725000Y-112000000D02*
X94500000Y-112000000D01*
X107500000Y-110775000D02*
X110000000Y-110775000D01*
X84500000Y-106500000D02*
X84500000Y-108175000D01*
X110000000Y-110775000D02*
X112825000Y-110775000D01*
D32*
X110000000Y-114500000D02*
X111075625Y-115575625D01*
D31*
X98000000Y-104230000D02*
X100045000Y-106275000D01*
X70573750Y-107000000D02*
X70083750Y-106510000D01*
X84500000Y-108175000D02*
X85000000Y-108675000D01*
D32*
X70083750Y-106510000D02*
X70083750Y-103120000D01*
X70083750Y-106510000D02*
X70073750Y-106520000D01*
D29*
X112612500Y-115825000D02*
X111325000Y-115825000D01*
D31*
X104275000Y-102725000D02*
X109470000Y-102725000D01*
D32*
X115000000Y-121960000D02*
X116540000Y-123500000D01*
D29*
X109975000Y-114525000D02*
X108387500Y-114525000D01*
D31*
X74000000Y-107000000D02*
X70573750Y-107000000D01*
X112825000Y-110775000D02*
X113000000Y-110950000D01*
X109470000Y-102725000D02*
X113500000Y-102725000D01*
X100045000Y-106275000D02*
X104545000Y-110775000D01*
D32*
X111075625Y-115575625D02*
X111075625Y-117575625D01*
D31*
X100045000Y-106275000D02*
X100725000Y-106275000D01*
D32*
X111075625Y-115575625D02*
X111325000Y-115825000D01*
X70073750Y-106520000D02*
X70073750Y-111675000D01*
X111075625Y-117575625D02*
X115000000Y-121500000D01*
D29*
X93961250Y-115525000D02*
X93500000Y-115063750D01*
X93500000Y-115063750D02*
X93500000Y-114500000D01*
D31*
X93500000Y-113000000D02*
X93500000Y-114500000D01*
D29*
X110000000Y-114500000D02*
X109975000Y-114525000D01*
D31*
X84500000Y-106500000D02*
X81000000Y-106500000D01*
X104545000Y-110775000D02*
X107500000Y-110775000D01*
X94500000Y-112000000D02*
X93500000Y-113000000D01*
D29*
%TO.N,/EN*%
X57000000Y-121000000D02*
X56000000Y-121000000D01*
X71353750Y-105280000D02*
X71353750Y-103120000D01*
X81491750Y-121500000D02*
X104380000Y-121500000D01*
X55000000Y-122000000D02*
X48700000Y-122000000D01*
X56000000Y-121000000D02*
X55000000Y-122000000D01*
X104380000Y-121500000D02*
X106380000Y-123500000D01*
X69500000Y-122573750D02*
X69500000Y-123725000D01*
X71573750Y-120500000D02*
X69500000Y-122573750D01*
X70073750Y-115000000D02*
X70073750Y-113325000D01*
X71573750Y-105500000D02*
X71353750Y-105280000D01*
X71573750Y-106000000D02*
X71573750Y-105500000D01*
%TO.N,Net-(U6-VA)*%
X98186250Y-115525000D02*
X102200000Y-115525000D01*
X102200000Y-115525000D02*
X102225000Y-115500000D01*
%TO.N,Net-(U7-IN+)*%
X103775000Y-115500000D02*
X104100000Y-115825000D01*
X104100000Y-115825000D02*
X108387500Y-115825000D01*
D30*
%TO.N,Net-(D1-K)*%
X118000000Y-91805000D02*
X118000000Y-95350000D01*
D29*
%TO.N,/TX*%
X82783750Y-85620000D02*
X82783750Y-87290000D01*
X83500000Y-125460000D02*
X84040000Y-126000000D01*
X82783750Y-87290000D02*
X82573750Y-87500000D01*
X83500000Y-124000000D02*
X83500000Y-125460000D01*
%TO.N,/RX*%
X81513750Y-87440000D02*
X81573750Y-87500000D01*
X81500000Y-124000000D02*
X81500000Y-126000000D01*
X81513750Y-85620000D02*
X81513750Y-87440000D01*
%TO.N,/IO0*%
X66000000Y-121500000D02*
X65500000Y-122000000D01*
X102840000Y-122500000D02*
X83200750Y-122500000D01*
X103840000Y-123500000D02*
X102840000Y-122500000D01*
X85000000Y-111500000D02*
X85000000Y-110325000D01*
X81491750Y-122500000D02*
X83200750Y-122500000D01*
X67500000Y-121500000D02*
X66000000Y-121500000D01*
X84073750Y-87500000D02*
X85323750Y-86250000D01*
X85323750Y-86250000D02*
X85323750Y-85620000D01*
X65500000Y-122000000D02*
X59200000Y-122000000D01*
%TO.N,/RXD0*%
X72446750Y-90000000D02*
X73893750Y-88553000D01*
X105920000Y-120500000D02*
X108920000Y-123500000D01*
X73893750Y-88553000D02*
X73893750Y-85620000D01*
X81491750Y-120500000D02*
X105920000Y-120500000D01*
%TO.N,/TXD0*%
X73073750Y-87500000D02*
X72623750Y-87050000D01*
X73073750Y-88000000D02*
X73073750Y-87500000D01*
X72623750Y-87050000D02*
X72623750Y-85620000D01*
X107460000Y-119500000D02*
X111460000Y-123500000D01*
X81491750Y-119500000D02*
X107460000Y-119500000D01*
D30*
%TO.N,Net-(U7-OUT-)*%
X121000000Y-114225000D02*
X112653500Y-114225000D01*
X121000000Y-114225000D02*
X121000000Y-114000000D01*
X112653500Y-114225000D02*
X112612500Y-114266000D01*
%TO.N,Net-(U7-OUT+)*%
X112643500Y-116765000D02*
X112612500Y-116734000D01*
X121000000Y-116765000D02*
X112643500Y-116765000D01*
D29*
%TO.N,/SCK*%
X78973750Y-81600000D02*
X78973750Y-85620000D01*
X86717217Y-79500000D02*
X91073750Y-83856533D01*
X91073750Y-114743466D02*
X91073750Y-83856533D01*
X93155284Y-116825000D02*
X91073750Y-114743466D01*
X79573750Y-79500000D02*
X86717217Y-79500000D01*
X79073750Y-81500000D02*
X78973750Y-81600000D01*
X93961250Y-116825000D02*
X93155284Y-116825000D01*
%TO.N,/CS*%
X86360684Y-78500000D02*
X91573750Y-83713066D01*
X91573750Y-114599999D02*
X93148751Y-116175000D01*
X80243750Y-81830000D02*
X80243750Y-85620000D01*
X80573750Y-78500000D02*
X86360684Y-78500000D01*
X91573750Y-83713066D02*
X91573750Y-114599999D01*
X80573750Y-81500000D02*
X80243750Y-81830000D01*
X93148751Y-116175000D02*
X93961250Y-116175000D01*
%TO.N,/SDI*%
X70083750Y-84616000D02*
X70083750Y-85620000D01*
X93148751Y-117475000D02*
X93961250Y-117475000D01*
X90573750Y-84000000D02*
X90573750Y-114899999D01*
X87073750Y-80500000D02*
X74199750Y-80500000D01*
X74199750Y-80500000D02*
X70083750Y-84616000D01*
X90573750Y-84000000D02*
X87073750Y-80500000D01*
X90573750Y-114899999D02*
X93148751Y-117475000D01*
%TD*%
%TA.AperFunction,Conductor*%
%TO.N,/DGND*%
G36*
X122516289Y-70519685D02*
G01*
X122562044Y-70572489D01*
X122573250Y-70624000D01*
X122573250Y-113194629D01*
X122553565Y-113261668D01*
X122500761Y-113307423D01*
X122431603Y-113317367D01*
X122368047Y-113288342D01*
X122333068Y-113237962D01*
X122293797Y-113132671D01*
X122293793Y-113132664D01*
X122207547Y-113017455D01*
X122207544Y-113017452D01*
X122092335Y-112931206D01*
X122092328Y-112931202D01*
X121957482Y-112880908D01*
X121957483Y-112880908D01*
X121897883Y-112874501D01*
X121897881Y-112874500D01*
X121897873Y-112874500D01*
X121897864Y-112874500D01*
X120102129Y-112874500D01*
X120102123Y-112874501D01*
X120042516Y-112880908D01*
X119907671Y-112931202D01*
X119907664Y-112931206D01*
X119792455Y-113017452D01*
X119792452Y-113017455D01*
X119706206Y-113132664D01*
X119706204Y-113132668D01*
X119705026Y-113135828D01*
X119703003Y-113138529D01*
X119701953Y-113140454D01*
X119701676Y-113140302D01*
X119663157Y-113191764D01*
X119597694Y-113216184D01*
X119588842Y-113216500D01*
X112554166Y-113216500D01*
X112359338Y-113255253D01*
X112359338Y-113255254D01*
X112359335Y-113255255D01*
X112359331Y-113255256D01*
X112283309Y-113286745D01*
X112283307Y-113286745D01*
X112175794Y-113331278D01*
X112010623Y-113441642D01*
X112010615Y-113441648D01*
X111829149Y-113623115D01*
X111829146Y-113623118D01*
X111718778Y-113788297D01*
X111707537Y-113815434D01*
X111663694Y-113869836D01*
X111640432Y-113882538D01*
X111597163Y-113900461D01*
X111597158Y-113900464D01*
X111471719Y-113996716D01*
X111375463Y-114122160D01*
X111314956Y-114268237D01*
X111314955Y-114268239D01*
X111299500Y-114385638D01*
X111299500Y-114433113D01*
X111279815Y-114500152D01*
X111227011Y-114545907D01*
X111157853Y-114555851D01*
X111094297Y-114526826D01*
X111087819Y-114520794D01*
X110790819Y-114223794D01*
X110757334Y-114162471D01*
X110754500Y-114136113D01*
X110754500Y-111780500D01*
X110774185Y-111713461D01*
X110826989Y-111667706D01*
X110878500Y-111656500D01*
X111868770Y-111656500D01*
X111935809Y-111676185D01*
X111956451Y-111692819D01*
X112056344Y-111792712D01*
X112205666Y-111884814D01*
X112372203Y-111939999D01*
X112474991Y-111950500D01*
X113525008Y-111950499D01*
X113525016Y-111950498D01*
X113525019Y-111950498D01*
X113581302Y-111944748D01*
X113627797Y-111939999D01*
X113794334Y-111884814D01*
X113943656Y-111792712D01*
X114067712Y-111668656D01*
X114159814Y-111519334D01*
X114214999Y-111352797D01*
X114225500Y-111250009D01*
X114225499Y-110649992D01*
X114214999Y-110547203D01*
X114159814Y-110380666D01*
X114067712Y-110231344D01*
X113943656Y-110107288D01*
X113940342Y-110105243D01*
X113938546Y-110103248D01*
X113937989Y-110102807D01*
X113938064Y-110102711D01*
X113893618Y-110053297D01*
X113882397Y-109984334D01*
X113910240Y-109920252D01*
X113940348Y-109894165D01*
X113943342Y-109892318D01*
X114067315Y-109768345D01*
X114159356Y-109619124D01*
X114159358Y-109619119D01*
X114214505Y-109452697D01*
X114214506Y-109452690D01*
X114224999Y-109349986D01*
X114225000Y-109349973D01*
X114225000Y-109300000D01*
X111775001Y-109300000D01*
X111775001Y-109349986D01*
X111785494Y-109452697D01*
X111840641Y-109619119D01*
X111840643Y-109619124D01*
X111893244Y-109704403D01*
X111911684Y-109771796D01*
X111890761Y-109838459D01*
X111837119Y-109883229D01*
X111787705Y-109893500D01*
X108538527Y-109893500D01*
X108471488Y-109873815D01*
X108425733Y-109821011D01*
X108415789Y-109751853D01*
X108420821Y-109730496D01*
X108464855Y-109597606D01*
X108474999Y-109498322D01*
X108475000Y-109498309D01*
X108475000Y-109475000D01*
X106525001Y-109475000D01*
X106525001Y-109498322D01*
X106535144Y-109597607D01*
X106579179Y-109730496D01*
X106581581Y-109800325D01*
X106545849Y-109860366D01*
X106483329Y-109891559D01*
X106461473Y-109893500D01*
X104961492Y-109893500D01*
X104894453Y-109873815D01*
X104873811Y-109857181D01*
X103968307Y-108951677D01*
X106525000Y-108951677D01*
X106525000Y-108975000D01*
X107250000Y-108975000D01*
X107750000Y-108975000D01*
X108474999Y-108975000D01*
X108474999Y-108951692D01*
X108474998Y-108951677D01*
X108464855Y-108852392D01*
X108442812Y-108785868D01*
X108430931Y-108750013D01*
X111775000Y-108750013D01*
X111775000Y-108800000D01*
X112750000Y-108800000D01*
X113250000Y-108800000D01*
X114224999Y-108800000D01*
X114224999Y-108750028D01*
X114224998Y-108750013D01*
X114214505Y-108647302D01*
X114159358Y-108480880D01*
X114159356Y-108480875D01*
X114067315Y-108331654D01*
X113943345Y-108207684D01*
X113794124Y-108115643D01*
X113794119Y-108115641D01*
X113627697Y-108060494D01*
X113627690Y-108060493D01*
X113524986Y-108050000D01*
X113250000Y-108050000D01*
X113250000Y-108800000D01*
X112750000Y-108800000D01*
X112750000Y-108050000D01*
X112475029Y-108050000D01*
X112475012Y-108050001D01*
X112372302Y-108060494D01*
X112205880Y-108115641D01*
X112205875Y-108115643D01*
X112056654Y-108207684D01*
X111932684Y-108331654D01*
X111840643Y-108480875D01*
X111840641Y-108480880D01*
X111785494Y-108647302D01*
X111785493Y-108647309D01*
X111775000Y-108750013D01*
X108430931Y-108750013D01*
X108411547Y-108691518D01*
X108411542Y-108691507D01*
X108322575Y-108547271D01*
X108322572Y-108547267D01*
X108202732Y-108427427D01*
X108202728Y-108427424D01*
X108058492Y-108338457D01*
X108058481Y-108338452D01*
X107897606Y-108285144D01*
X107798322Y-108275000D01*
X107750000Y-108275000D01*
X107750000Y-108975000D01*
X107250000Y-108975000D01*
X107250000Y-108275000D01*
X107249999Y-108274999D01*
X107201693Y-108275000D01*
X107201675Y-108275001D01*
X107102392Y-108285144D01*
X106941518Y-108338452D01*
X106941507Y-108338457D01*
X106797271Y-108427424D01*
X106797267Y-108427427D01*
X106677427Y-108547267D01*
X106677424Y-108547271D01*
X106588457Y-108691507D01*
X106588452Y-108691518D01*
X106535144Y-108852393D01*
X106525000Y-108951677D01*
X103968307Y-108951677D01*
X101719311Y-106702681D01*
X101685826Y-106641358D01*
X101690810Y-106571666D01*
X101719311Y-106527319D01*
X103698308Y-104548322D01*
X108495001Y-104548322D01*
X108505144Y-104647607D01*
X108558452Y-104808481D01*
X108558457Y-104808492D01*
X108647424Y-104952728D01*
X108647427Y-104952732D01*
X108767267Y-105072572D01*
X108767271Y-105072575D01*
X108911507Y-105161542D01*
X108911518Y-105161547D01*
X109072393Y-105214855D01*
X109171683Y-105224999D01*
X109720000Y-105224999D01*
X109768308Y-105224999D01*
X109768322Y-105224998D01*
X109867607Y-105214855D01*
X110028481Y-105161547D01*
X110028492Y-105161542D01*
X110172728Y-105072575D01*
X110172732Y-105072572D01*
X110292572Y-104952732D01*
X110292575Y-104952728D01*
X110381542Y-104808492D01*
X110381547Y-104808481D01*
X110434855Y-104647606D01*
X110444999Y-104548322D01*
X112525001Y-104548322D01*
X112535144Y-104647607D01*
X112588452Y-104808481D01*
X112588457Y-104808492D01*
X112677424Y-104952728D01*
X112677427Y-104952732D01*
X112797267Y-105072572D01*
X112797271Y-105072575D01*
X112941507Y-105161542D01*
X112941518Y-105161547D01*
X113102393Y-105214855D01*
X113201683Y-105224999D01*
X113750000Y-105224999D01*
X113798308Y-105224999D01*
X113798322Y-105224998D01*
X113897607Y-105214855D01*
X114058481Y-105161547D01*
X114058492Y-105161542D01*
X114202728Y-105072575D01*
X114202732Y-105072572D01*
X114322572Y-104952732D01*
X114322575Y-104952728D01*
X114411542Y-104808492D01*
X114411547Y-104808481D01*
X114464855Y-104647606D01*
X114474999Y-104548322D01*
X114475000Y-104548309D01*
X114475000Y-104525000D01*
X113750000Y-104525000D01*
X113750000Y-105224999D01*
X113201683Y-105224999D01*
X113249999Y-105224998D01*
X113250000Y-105224998D01*
X113250000Y-104525000D01*
X112525001Y-104525000D01*
X112525001Y-104548322D01*
X110444999Y-104548322D01*
X110445000Y-104548309D01*
X110445000Y-104525000D01*
X109720000Y-104525000D01*
X109720000Y-105224999D01*
X109171683Y-105224999D01*
X109219999Y-105224998D01*
X109220000Y-105224998D01*
X109220000Y-104525000D01*
X108495001Y-104525000D01*
X108495001Y-104548322D01*
X103698308Y-104548322D01*
X104603811Y-103642819D01*
X104665134Y-103609334D01*
X104691492Y-103606500D01*
X108431473Y-103606500D01*
X108498512Y-103626185D01*
X108544267Y-103678989D01*
X108554211Y-103748147D01*
X108549179Y-103769504D01*
X108505144Y-103902393D01*
X108495000Y-104001677D01*
X108495000Y-104025000D01*
X110444999Y-104025000D01*
X110444999Y-104001692D01*
X110444998Y-104001677D01*
X110434855Y-103902392D01*
X110390821Y-103769504D01*
X110388419Y-103699675D01*
X110424151Y-103639634D01*
X110486671Y-103608441D01*
X110508527Y-103606500D01*
X112461473Y-103606500D01*
X112528512Y-103626185D01*
X112574267Y-103678989D01*
X112584211Y-103748147D01*
X112579179Y-103769504D01*
X112535144Y-103902393D01*
X112525000Y-104001677D01*
X112525000Y-104025000D01*
X114474999Y-104025000D01*
X114474999Y-104001692D01*
X114474998Y-104001677D01*
X114464855Y-103902392D01*
X114411547Y-103741518D01*
X114411542Y-103741507D01*
X114322575Y-103597271D01*
X114322572Y-103597267D01*
X114313339Y-103588034D01*
X114279854Y-103526711D01*
X114284838Y-103457019D01*
X114313343Y-103412668D01*
X114322968Y-103403044D01*
X114412003Y-103258697D01*
X114465349Y-103097708D01*
X114475500Y-102998345D01*
X114475499Y-102451656D01*
X114465349Y-102352292D01*
X114412003Y-102191303D01*
X114411999Y-102191297D01*
X114411998Y-102191294D01*
X114322970Y-102046959D01*
X114322967Y-102046955D01*
X114203044Y-101927032D01*
X114203040Y-101927029D01*
X114058705Y-101838001D01*
X114058699Y-101837998D01*
X114058697Y-101837997D01*
X114015898Y-101823815D01*
X113897709Y-101784651D01*
X113798346Y-101774500D01*
X113201662Y-101774500D01*
X113201644Y-101774501D01*
X113102292Y-101784650D01*
X113102288Y-101784651D01*
X112943689Y-101837206D01*
X112904685Y-101843500D01*
X110065315Y-101843500D01*
X110026311Y-101837206D01*
X109867709Y-101784651D01*
X109768346Y-101774500D01*
X109171662Y-101774500D01*
X109171644Y-101774501D01*
X109072292Y-101784650D01*
X109072288Y-101784651D01*
X108913689Y-101837206D01*
X108874685Y-101843500D01*
X104652097Y-101843500D01*
X104585058Y-101823815D01*
X104539303Y-101771011D01*
X104529359Y-101701853D01*
X104558384Y-101638297D01*
X104564416Y-101631819D01*
X106501416Y-99694819D01*
X106562739Y-99661334D01*
X106589097Y-99658500D01*
X118099330Y-99658500D01*
X118099331Y-99658499D01*
X118294169Y-99619744D01*
X118317842Y-99609937D01*
X118365295Y-99600499D01*
X118423338Y-99600499D01*
X118423344Y-99600499D01*
X118423352Y-99600498D01*
X118423355Y-99600498D01*
X118477760Y-99594940D01*
X118522708Y-99590349D01*
X118683697Y-99537003D01*
X118828044Y-99447968D01*
X118947968Y-99328044D01*
X119037003Y-99183697D01*
X119090349Y-99022708D01*
X119100500Y-98923345D01*
X119100499Y-98376656D01*
X119093907Y-98312128D01*
X119090349Y-98277292D01*
X119090348Y-98277289D01*
X119069243Y-98213598D01*
X119037003Y-98116303D01*
X119036999Y-98116297D01*
X119036998Y-98116294D01*
X118947970Y-97971959D01*
X118947967Y-97971955D01*
X118828044Y-97852032D01*
X118828040Y-97852029D01*
X118683705Y-97763001D01*
X118683699Y-97762998D01*
X118683697Y-97762997D01*
X118663420Y-97756278D01*
X118522709Y-97709651D01*
X118423352Y-97699500D01*
X118423345Y-97699500D01*
X118365293Y-97699500D01*
X118317840Y-97690061D01*
X118294169Y-97680256D01*
X118294161Y-97680254D01*
X118099333Y-97641500D01*
X118099329Y-97641500D01*
X112632500Y-97641500D01*
X112565461Y-97621815D01*
X112519706Y-97569011D01*
X112508500Y-97517500D01*
X112508500Y-95076647D01*
X116899500Y-95076647D01*
X116899500Y-95623337D01*
X116899501Y-95623355D01*
X116909650Y-95722707D01*
X116909651Y-95722710D01*
X116962996Y-95883694D01*
X116963001Y-95883705D01*
X117052029Y-96028040D01*
X117052032Y-96028044D01*
X117171955Y-96147967D01*
X117171959Y-96147970D01*
X117316294Y-96236998D01*
X117316297Y-96236999D01*
X117316303Y-96237003D01*
X117477292Y-96290349D01*
X117576655Y-96300500D01*
X117634703Y-96300499D01*
X117682157Y-96309938D01*
X117695141Y-96315316D01*
X117705831Y-96319744D01*
X117900666Y-96358499D01*
X117900670Y-96358500D01*
X117900671Y-96358500D01*
X118099330Y-96358500D01*
X118099331Y-96358499D01*
X118294169Y-96319744D01*
X118317842Y-96309937D01*
X118365295Y-96300499D01*
X118423338Y-96300499D01*
X118423344Y-96300499D01*
X118423352Y-96300498D01*
X118423355Y-96300498D01*
X118477760Y-96294940D01*
X118522708Y-96290349D01*
X118683697Y-96237003D01*
X118828044Y-96147968D01*
X118947968Y-96028044D01*
X119037003Y-95883697D01*
X119090349Y-95722708D01*
X119100500Y-95623345D01*
X119100499Y-95076656D01*
X119090349Y-94977292D01*
X119037003Y-94816303D01*
X119026961Y-94800022D01*
X119008500Y-94734926D01*
X119008500Y-93073041D01*
X119014794Y-93034037D01*
X119049999Y-92927797D01*
X119060500Y-92825009D01*
X119060499Y-90784992D01*
X119058940Y-90769735D01*
X119049999Y-90682203D01*
X119049998Y-90682200D01*
X119033535Y-90632518D01*
X118994814Y-90515666D01*
X118902712Y-90366344D01*
X118778656Y-90242288D01*
X118629334Y-90150186D01*
X118462797Y-90095001D01*
X118462795Y-90095000D01*
X118360010Y-90084500D01*
X117639998Y-90084500D01*
X117639980Y-90084501D01*
X117537203Y-90095000D01*
X117537200Y-90095001D01*
X117370668Y-90150185D01*
X117370663Y-90150187D01*
X117221342Y-90242289D01*
X117097289Y-90366342D01*
X117005187Y-90515663D01*
X117005185Y-90515668D01*
X116983417Y-90581361D01*
X116950001Y-90682203D01*
X116950001Y-90682204D01*
X116950000Y-90682204D01*
X116939500Y-90784983D01*
X116939500Y-92825001D01*
X116939501Y-92825018D01*
X116950000Y-92927797D01*
X116985206Y-93034038D01*
X116991500Y-93073042D01*
X116991500Y-94734926D01*
X116973039Y-94800022D01*
X116963000Y-94816296D01*
X116962996Y-94816305D01*
X116909651Y-94977290D01*
X116899500Y-95076647D01*
X112508500Y-95076647D01*
X112508500Y-92900670D01*
X112508499Y-92900667D01*
X112477817Y-92746416D01*
X112475594Y-92728528D01*
X112475498Y-92726645D01*
X112465349Y-92627292D01*
X112465348Y-92627289D01*
X112412003Y-92466303D01*
X112411999Y-92466297D01*
X112411998Y-92466294D01*
X112322970Y-92321959D01*
X112322967Y-92321955D01*
X112313339Y-92312327D01*
X112279854Y-92251004D01*
X112284838Y-92181312D01*
X112313345Y-92136959D01*
X112322573Y-92127731D01*
X112411542Y-91983492D01*
X112411547Y-91983481D01*
X112464855Y-91822606D01*
X112474999Y-91723322D01*
X112475000Y-91723309D01*
X112475000Y-91700000D01*
X110525001Y-91700000D01*
X110525001Y-91723322D01*
X110535144Y-91822607D01*
X110588452Y-91983481D01*
X110588457Y-91983492D01*
X110677424Y-92127728D01*
X110677427Y-92127732D01*
X110686660Y-92136965D01*
X110720145Y-92198288D01*
X110715161Y-92267980D01*
X110686663Y-92312324D01*
X110677033Y-92321953D01*
X110677029Y-92321959D01*
X110588001Y-92466294D01*
X110587996Y-92466305D01*
X110534651Y-92627290D01*
X110524499Y-92726662D01*
X110524403Y-92728548D01*
X110522181Y-92746424D01*
X110491500Y-92900666D01*
X110491500Y-97517500D01*
X110471815Y-97584539D01*
X110419011Y-97630294D01*
X110367500Y-97641500D01*
X108102500Y-97641500D01*
X108035461Y-97621815D01*
X107989706Y-97569011D01*
X107978500Y-97517500D01*
X107978500Y-92900670D01*
X107978499Y-92900667D01*
X107947817Y-92746416D01*
X107945594Y-92728528D01*
X107945498Y-92726645D01*
X107935349Y-92627292D01*
X107935348Y-92627289D01*
X107882003Y-92466303D01*
X107881999Y-92466297D01*
X107881998Y-92466294D01*
X107792970Y-92321959D01*
X107792967Y-92321955D01*
X107783339Y-92312327D01*
X107749854Y-92251004D01*
X107754838Y-92181312D01*
X107783345Y-92136959D01*
X107792573Y-92127731D01*
X107881542Y-91983492D01*
X107881547Y-91983481D01*
X107934855Y-91822606D01*
X107944999Y-91723322D01*
X107945000Y-91723309D01*
X107945000Y-91700000D01*
X105995001Y-91700000D01*
X105995001Y-91723322D01*
X106005144Y-91822607D01*
X106058452Y-91983481D01*
X106058457Y-91983492D01*
X106147424Y-92127728D01*
X106147427Y-92127732D01*
X106156660Y-92136965D01*
X106190145Y-92198288D01*
X106185161Y-92267980D01*
X106156663Y-92312324D01*
X106147033Y-92321953D01*
X106147029Y-92321959D01*
X106058001Y-92466294D01*
X106057996Y-92466305D01*
X106004651Y-92627290D01*
X105994499Y-92726662D01*
X105994403Y-92728548D01*
X105992181Y-92746424D01*
X105961500Y-92900666D01*
X105961500Y-97551505D01*
X105941815Y-97618544D01*
X105889011Y-97664299D01*
X105861693Y-97673122D01*
X105825835Y-97680254D01*
X105825826Y-97680257D01*
X105749808Y-97711744D01*
X105749809Y-97711745D01*
X105642294Y-97756278D01*
X105477123Y-97866642D01*
X105477115Y-97866648D01*
X100650585Y-102693181D01*
X100589262Y-102726666D01*
X100562904Y-102729500D01*
X100425646Y-102729500D01*
X100382063Y-102736403D01*
X100199753Y-102765278D01*
X100199750Y-102765278D01*
X99982244Y-102835950D01*
X99778461Y-102939783D01*
X99712217Y-102987913D01*
X99593434Y-103074214D01*
X99593432Y-103074216D01*
X99593431Y-103074216D01*
X99431715Y-103235932D01*
X99370318Y-103320438D01*
X99314987Y-103363103D01*
X99245374Y-103369082D01*
X99183579Y-103336476D01*
X99169682Y-103320438D01*
X99124822Y-103258694D01*
X99108286Y-103235934D01*
X98946566Y-103074214D01*
X98761538Y-102939783D01*
X98630100Y-102872812D01*
X98557755Y-102835950D01*
X98340248Y-102765278D01*
X98157925Y-102736401D01*
X98114354Y-102729500D01*
X97885646Y-102729500D01*
X97842063Y-102736403D01*
X97659753Y-102765278D01*
X97659750Y-102765278D01*
X97442244Y-102835950D01*
X97238458Y-102939785D01*
X97055339Y-103072829D01*
X96989533Y-103096309D01*
X96921479Y-103080484D01*
X96872784Y-103030378D01*
X96866272Y-103015845D01*
X96855853Y-102987911D01*
X96855850Y-102987906D01*
X96769690Y-102872812D01*
X96769687Y-102872809D01*
X96654593Y-102786649D01*
X96654586Y-102786645D01*
X96519879Y-102736403D01*
X96519872Y-102736401D01*
X96460344Y-102730000D01*
X95710000Y-102730000D01*
X95710000Y-103739252D01*
X95672292Y-103717482D01*
X95532409Y-103680000D01*
X95387591Y-103680000D01*
X95247708Y-103717482D01*
X95210000Y-103739252D01*
X95210000Y-102730000D01*
X94459655Y-102730000D01*
X94400127Y-102736401D01*
X94400120Y-102736403D01*
X94265413Y-102786645D01*
X94265406Y-102786649D01*
X94150312Y-102872809D01*
X94150309Y-102872812D01*
X94064149Y-102987906D01*
X94064145Y-102987913D01*
X94013903Y-103122620D01*
X94013901Y-103122627D01*
X94007500Y-103182155D01*
X94007500Y-103980000D01*
X94969252Y-103980000D01*
X94947482Y-104017708D01*
X94910000Y-104157591D01*
X94910000Y-104302409D01*
X94947482Y-104442292D01*
X94969252Y-104480000D01*
X94007500Y-104480000D01*
X94007500Y-105277844D01*
X94013901Y-105337372D01*
X94013903Y-105337379D01*
X94064145Y-105472086D01*
X94064149Y-105472093D01*
X94150309Y-105587187D01*
X94150312Y-105587190D01*
X94265406Y-105673350D01*
X94265413Y-105673354D01*
X94400120Y-105723596D01*
X94400127Y-105723598D01*
X94459655Y-105729999D01*
X94459672Y-105730000D01*
X95210000Y-105730000D01*
X95210000Y-104720747D01*
X95247708Y-104742518D01*
X95387591Y-104780000D01*
X95532409Y-104780000D01*
X95672292Y-104742518D01*
X95710000Y-104720747D01*
X95710000Y-105730000D01*
X96460328Y-105730000D01*
X96460344Y-105729999D01*
X96519872Y-105723598D01*
X96519879Y-105723596D01*
X96654586Y-105673354D01*
X96654593Y-105673350D01*
X96769687Y-105587190D01*
X96769690Y-105587187D01*
X96855850Y-105472093D01*
X96855854Y-105472086D01*
X96866272Y-105444155D01*
X96908143Y-105388221D01*
X96973607Y-105363804D01*
X97041880Y-105378655D01*
X97055331Y-105387164D01*
X97238462Y-105520217D01*
X97435895Y-105620814D01*
X97442244Y-105624049D01*
X97659751Y-105694721D01*
X97659752Y-105694721D01*
X97659755Y-105694722D01*
X97885646Y-105730500D01*
X97885647Y-105730500D01*
X98114353Y-105730500D01*
X98114354Y-105730500D01*
X98172391Y-105721307D01*
X98241683Y-105730261D01*
X98279470Y-105756099D01*
X99355953Y-106832582D01*
X99355974Y-106832605D01*
X103983073Y-111459704D01*
X104127456Y-111556177D01*
X104239031Y-111602392D01*
X104287876Y-111622624D01*
X104287880Y-111622624D01*
X104287881Y-111622625D01*
X104458176Y-111656500D01*
X104458179Y-111656500D01*
X104458180Y-111656500D01*
X106904685Y-111656500D01*
X106943689Y-111662794D01*
X107026108Y-111690104D01*
X107102292Y-111715349D01*
X107201655Y-111725500D01*
X107798344Y-111725499D01*
X107798352Y-111725498D01*
X107798355Y-111725498D01*
X107852760Y-111719940D01*
X107897708Y-111715349D01*
X107903406Y-111713461D01*
X108056311Y-111662794D01*
X108095315Y-111656500D01*
X109121500Y-111656500D01*
X109188539Y-111676185D01*
X109234294Y-111728989D01*
X109245500Y-111780500D01*
X109245500Y-113700500D01*
X109225815Y-113767539D01*
X109173011Y-113813294D01*
X109121500Y-113824500D01*
X107635636Y-113824500D01*
X107518246Y-113839953D01*
X107518237Y-113839956D01*
X107372160Y-113900463D01*
X107246718Y-113996718D01*
X107150463Y-114122160D01*
X107089956Y-114268237D01*
X107089955Y-114268239D01*
X107074500Y-114385638D01*
X107074500Y-114664363D01*
X107089953Y-114781753D01*
X107089957Y-114781765D01*
X107098566Y-114802550D01*
X107106634Y-114868383D01*
X107104380Y-114883413D01*
X107089956Y-114918238D01*
X107074500Y-115035639D01*
X107074500Y-115082742D01*
X107073130Y-115091883D01*
X107062158Y-115115530D01*
X107054815Y-115140539D01*
X107047691Y-115146711D01*
X107043724Y-115155263D01*
X107021708Y-115169226D01*
X107002011Y-115186294D01*
X106991031Y-115188682D01*
X106984721Y-115192685D01*
X106972958Y-115192614D01*
X106950500Y-115197500D01*
X104835995Y-115197500D01*
X104768956Y-115177815D01*
X104723201Y-115125011D01*
X104717775Y-115108620D01*
X104717479Y-115108719D01*
X104699341Y-115053983D01*
X104662003Y-114941303D01*
X104661999Y-114941297D01*
X104661998Y-114941294D01*
X104572970Y-114796959D01*
X104572967Y-114796955D01*
X104453044Y-114677032D01*
X104453040Y-114677029D01*
X104308705Y-114588001D01*
X104308699Y-114587998D01*
X104308697Y-114587997D01*
X104256685Y-114570762D01*
X104147709Y-114534651D01*
X104048346Y-114524500D01*
X103501662Y-114524500D01*
X103501644Y-114524501D01*
X103402292Y-114534650D01*
X103402289Y-114534651D01*
X103241305Y-114587996D01*
X103241294Y-114588001D01*
X103096959Y-114677029D01*
X103096955Y-114677032D01*
X103087681Y-114686307D01*
X103026358Y-114719792D01*
X102956666Y-114714808D01*
X102912319Y-114686307D01*
X102903044Y-114677032D01*
X102903040Y-114677029D01*
X102758705Y-114588001D01*
X102758699Y-114587998D01*
X102758697Y-114587997D01*
X102706685Y-114570762D01*
X102597709Y-114534651D01*
X102498346Y-114524500D01*
X101951662Y-114524500D01*
X101951644Y-114524501D01*
X101852292Y-114534650D01*
X101852289Y-114534651D01*
X101691305Y-114587996D01*
X101691294Y-114588001D01*
X101546959Y-114677029D01*
X101546955Y-114677032D01*
X101427033Y-114796954D01*
X101422184Y-114804815D01*
X101401346Y-114838598D01*
X101349400Y-114885322D01*
X101295809Y-114897500D01*
X99219100Y-114897500D01*
X99171647Y-114888061D01*
X99124140Y-114868383D01*
X99055512Y-114839956D01*
X99055510Y-114839955D01*
X98938120Y-114824501D01*
X98938117Y-114824500D01*
X98938111Y-114824500D01*
X98938104Y-114824500D01*
X97434386Y-114824500D01*
X97316996Y-114839953D01*
X97316987Y-114839956D01*
X97170910Y-114900463D01*
X97045468Y-114996718D01*
X96949213Y-115122160D01*
X96888706Y-115268237D01*
X96888705Y-115268239D01*
X96873250Y-115385638D01*
X96873250Y-115664363D01*
X96888703Y-115781753D01*
X96888706Y-115781762D01*
X96897587Y-115803203D01*
X96905054Y-115872673D01*
X96897588Y-115898103D01*
X96889193Y-115918370D01*
X96881737Y-115975000D01*
X96924250Y-115975000D01*
X96953630Y-115983627D01*
X96983568Y-115990108D01*
X96987680Y-115993625D01*
X96991289Y-115994685D01*
X97011844Y-116011231D01*
X97017638Y-116017014D01*
X97045468Y-116053282D01*
X97082290Y-116081536D01*
X97087996Y-116087231D01*
X97101054Y-116111088D01*
X97117091Y-116133052D01*
X97117581Y-116141284D01*
X97121542Y-116148521D01*
X97119628Y-116175651D01*
X97121246Y-116202798D01*
X97117207Y-116209989D01*
X97116627Y-116218217D01*
X97100349Y-116240006D01*
X97087033Y-116263719D01*
X97075896Y-116273369D01*
X97045468Y-116296718D01*
X97045467Y-116296719D01*
X97045466Y-116296720D01*
X97022625Y-116326487D01*
X96966197Y-116367690D01*
X96924250Y-116375000D01*
X96881740Y-116375000D01*
X96881738Y-116375001D01*
X96889191Y-116431622D01*
X96889195Y-116431634D01*
X96897587Y-116451895D01*
X96905054Y-116521364D01*
X96897588Y-116546794D01*
X96888706Y-116568238D01*
X96888705Y-116568239D01*
X96873250Y-116685638D01*
X96873250Y-116964363D01*
X96888703Y-117081753D01*
X96888706Y-117081762D01*
X96897587Y-117103203D01*
X96905054Y-117172673D01*
X96897588Y-117198103D01*
X96889193Y-117218370D01*
X96881737Y-117275000D01*
X96924250Y-117275000D01*
X96991289Y-117294685D01*
X97005511Y-117305338D01*
X97014989Y-117313561D01*
X97045468Y-117353282D01*
X97170909Y-117449536D01*
X97172451Y-117450175D01*
X97180708Y-117457338D01*
X97197642Y-117483724D01*
X97216136Y-117509052D01*
X97216365Y-117512896D01*
X97218446Y-117516139D01*
X97218426Y-117547496D01*
X97220291Y-117578798D01*
X97218404Y-117582157D01*
X97218402Y-117586009D01*
X97201439Y-117612367D01*
X97186079Y-117639719D01*
X97182674Y-117641525D01*
X97180591Y-117644763D01*
X97152063Y-117657770D01*
X97124361Y-117672471D01*
X97118520Y-117673063D01*
X97117018Y-117673749D01*
X97114852Y-117673436D01*
X97099447Y-117675000D01*
X96881740Y-117675000D01*
X96881738Y-117675001D01*
X96889192Y-117731627D01*
X96889194Y-117731633D01*
X96949649Y-117877585D01*
X97045825Y-118002924D01*
X97171163Y-118099100D01*
X97317115Y-118159554D01*
X97317119Y-118159555D01*
X97434426Y-118174999D01*
X97986249Y-118174999D01*
X97986250Y-118174998D01*
X97986250Y-117649499D01*
X97988800Y-117640813D01*
X97987512Y-117631852D01*
X97998490Y-117607811D01*
X98005935Y-117582460D01*
X98012775Y-117576532D01*
X98016537Y-117568296D01*
X98038771Y-117554006D01*
X98058739Y-117536705D01*
X98069253Y-117534417D01*
X98075315Y-117530522D01*
X98110246Y-117525499D01*
X98262251Y-117525499D01*
X98329289Y-117545184D01*
X98375044Y-117597988D01*
X98386250Y-117649499D01*
X98386250Y-118174999D01*
X98938074Y-118174999D01*
X99055378Y-118159557D01*
X99055383Y-118159555D01*
X99201335Y-118099100D01*
X99326674Y-118002924D01*
X99422850Y-117877586D01*
X99483305Y-117731631D01*
X99490762Y-117675000D01*
X99273053Y-117675000D01*
X99247733Y-117667565D01*
X99221612Y-117663826D01*
X99214737Y-117657876D01*
X99206014Y-117655315D01*
X99188735Y-117635374D01*
X99168779Y-117618104D01*
X99166211Y-117609380D01*
X99160259Y-117602511D01*
X99156503Y-117576393D01*
X99149053Y-117551077D01*
X99151608Y-117542352D01*
X99150315Y-117533353D01*
X99161277Y-117509348D01*
X99168696Y-117484025D01*
X99176934Y-117475064D01*
X99179340Y-117469797D01*
X99191792Y-117457338D01*
X99200048Y-117450175D01*
X99201591Y-117449536D01*
X99327032Y-117353282D01*
X99357510Y-117313561D01*
X99366989Y-117305338D01*
X99387809Y-117295813D01*
X99406303Y-117282310D01*
X99424115Y-117279205D01*
X99430527Y-117276273D01*
X99436246Y-117277091D01*
X99448250Y-117275000D01*
X99490760Y-117275000D01*
X99490761Y-117274998D01*
X99483308Y-117218377D01*
X99483304Y-117218365D01*
X99474913Y-117198106D01*
X99467444Y-117128637D01*
X99474914Y-117103199D01*
X99476612Y-117099100D01*
X99483794Y-117081762D01*
X99499250Y-116964361D01*
X99499249Y-116685640D01*
X99499249Y-116685638D01*
X99499249Y-116685636D01*
X99483796Y-116568246D01*
X99483794Y-116568239D01*
X99483794Y-116568238D01*
X99474912Y-116546794D01*
X99465979Y-116510520D01*
X99445814Y-116287675D01*
X99451918Y-116256825D01*
X99456210Y-116225660D01*
X99458648Y-116222812D01*
X99459376Y-116219134D01*
X99481197Y-116196474D01*
X99501651Y-116172585D01*
X99505241Y-116171507D01*
X99507842Y-116168807D01*
X99538445Y-116161542D01*
X99568572Y-116152502D01*
X99569309Y-116152500D01*
X101327034Y-116152500D01*
X101394073Y-116172185D01*
X101424299Y-116199588D01*
X101427031Y-116203043D01*
X101546955Y-116322967D01*
X101546959Y-116322970D01*
X101691294Y-116411998D01*
X101691297Y-116411999D01*
X101691303Y-116412003D01*
X101852292Y-116465349D01*
X101951655Y-116475500D01*
X102498344Y-116475499D01*
X102498352Y-116475498D01*
X102498355Y-116475498D01*
X102554164Y-116469797D01*
X102597708Y-116465349D01*
X102758697Y-116412003D01*
X102903044Y-116322968D01*
X102912319Y-116313693D01*
X102973642Y-116280208D01*
X103043334Y-116285192D01*
X103087681Y-116313693D01*
X103096955Y-116322967D01*
X103096959Y-116322970D01*
X103241294Y-116411998D01*
X103241297Y-116411999D01*
X103241303Y-116412003D01*
X103402292Y-116465349D01*
X103501655Y-116475500D01*
X104048344Y-116475499D01*
X104048352Y-116475498D01*
X104048355Y-116475498D01*
X104104164Y-116469797D01*
X104147708Y-116465349D01*
X104167490Y-116458793D01*
X104206494Y-116452500D01*
X107004443Y-116452500D01*
X107071482Y-116472185D01*
X107117237Y-116524989D01*
X107127181Y-116594147D01*
X107098156Y-116657703D01*
X107097670Y-116658260D01*
X107082988Y-116675000D01*
X107090442Y-116731627D01*
X107090444Y-116731633D01*
X107150899Y-116877585D01*
X107247075Y-117002924D01*
X107372413Y-117099100D01*
X107518365Y-117159554D01*
X107518369Y-117159555D01*
X107635676Y-117174999D01*
X108187499Y-117174999D01*
X108187500Y-117174998D01*
X108187500Y-116649499D01*
X108190050Y-116640813D01*
X108188762Y-116631852D01*
X108199740Y-116607811D01*
X108207185Y-116582460D01*
X108214025Y-116576532D01*
X108217787Y-116568296D01*
X108240021Y-116554006D01*
X108259989Y-116536705D01*
X108270503Y-116534417D01*
X108276565Y-116530522D01*
X108311496Y-116525499D01*
X108463501Y-116525499D01*
X108530539Y-116545184D01*
X108576294Y-116597988D01*
X108587500Y-116649499D01*
X108587500Y-117174999D01*
X109139324Y-117174999D01*
X109256628Y-117159557D01*
X109256633Y-117159555D01*
X109402585Y-117099100D01*
X109527924Y-117002924D01*
X109624100Y-116877586D01*
X109684555Y-116731631D01*
X109692012Y-116675000D01*
X109474303Y-116675000D01*
X109448983Y-116667565D01*
X109422862Y-116663826D01*
X109415987Y-116657876D01*
X109407264Y-116655315D01*
X109389985Y-116635374D01*
X109370029Y-116618104D01*
X109367461Y-116609380D01*
X109361509Y-116602511D01*
X109357753Y-116576393D01*
X109350303Y-116551077D01*
X109352858Y-116542352D01*
X109351565Y-116533353D01*
X109362527Y-116509348D01*
X109369946Y-116484025D01*
X109378184Y-116475064D01*
X109380590Y-116469797D01*
X109393042Y-116457338D01*
X109401298Y-116450175D01*
X109402841Y-116449536D01*
X109528282Y-116353282D01*
X109558760Y-116313561D01*
X109568239Y-116305338D01*
X109589059Y-116295813D01*
X109607553Y-116282310D01*
X109625365Y-116279205D01*
X109631777Y-116276273D01*
X109637496Y-116277091D01*
X109649500Y-116275000D01*
X109692010Y-116275000D01*
X109692011Y-116274998D01*
X109684558Y-116218377D01*
X109684554Y-116218365D01*
X109676163Y-116198106D01*
X109668694Y-116128637D01*
X109676164Y-116103199D01*
X109685044Y-116081762D01*
X109700500Y-115964361D01*
X109700499Y-115685640D01*
X109685044Y-115568238D01*
X109685042Y-115568235D01*
X109684788Y-115566299D01*
X109695554Y-115497264D01*
X109741934Y-115445008D01*
X109809203Y-115426123D01*
X109876003Y-115446604D01*
X109895408Y-115462433D01*
X110284806Y-115851830D01*
X110318291Y-115913153D01*
X110321125Y-115939511D01*
X110321125Y-117501307D01*
X110321124Y-117501313D01*
X110321124Y-117649937D01*
X110322872Y-117658722D01*
X110324985Y-117669349D01*
X110324986Y-117669354D01*
X110349987Y-117795041D01*
X110350118Y-117795698D01*
X110350121Y-117795708D01*
X110406991Y-117933006D01*
X110406997Y-117933017D01*
X110489567Y-118056593D01*
X110489568Y-118056594D01*
X114209181Y-121776205D01*
X114223884Y-121803132D01*
X114240477Y-121828951D01*
X114241368Y-121835151D01*
X114242666Y-121837528D01*
X114245500Y-121863886D01*
X114245500Y-121880552D01*
X114245499Y-121880578D01*
X114245499Y-122026869D01*
X114225814Y-122093908D01*
X114173010Y-122139663D01*
X114111255Y-122148542D01*
X114111111Y-122150382D01*
X114106254Y-122150000D01*
X113893754Y-122150000D01*
X113683872Y-122183242D01*
X113683869Y-122183242D01*
X113481782Y-122248904D01*
X113292439Y-122345380D01*
X113238282Y-122384727D01*
X113238282Y-122384728D01*
X113870591Y-123017037D01*
X113807007Y-123034075D01*
X113692993Y-123099901D01*
X113599901Y-123192993D01*
X113534075Y-123307007D01*
X113517037Y-123370591D01*
X112884728Y-122738282D01*
X112884727Y-122738282D01*
X112845380Y-122792440D01*
X112845376Y-122792446D01*
X112840760Y-122801505D01*
X112792781Y-122852297D01*
X112724959Y-122869087D01*
X112658826Y-122846543D01*
X112619794Y-122801493D01*
X112615051Y-122792184D01*
X112615049Y-122792181D01*
X112615048Y-122792179D01*
X112490109Y-122620213D01*
X112339786Y-122469890D01*
X112167820Y-122344951D01*
X111978414Y-122248444D01*
X111978413Y-122248443D01*
X111978412Y-122248443D01*
X111776243Y-122182754D01*
X111776241Y-122182753D01*
X111776240Y-122182753D01*
X111612863Y-122156877D01*
X111566287Y-122149500D01*
X111353713Y-122149500D01*
X111307137Y-122156877D01*
X111143755Y-122182754D01*
X111130293Y-122187128D01*
X111060451Y-122189122D01*
X111004296Y-122156877D01*
X107860011Y-119012591D01*
X107860009Y-119012589D01*
X107836487Y-118996873D01*
X107836488Y-118996873D01*
X107833271Y-118994724D01*
X107757233Y-118943917D01*
X107723784Y-118930062D01*
X107716103Y-118926880D01*
X107716099Y-118926878D01*
X107643035Y-118896614D01*
X107643027Y-118896612D01*
X107521807Y-118872500D01*
X107521803Y-118872500D01*
X82031107Y-118872500D01*
X81964068Y-118852815D01*
X81962216Y-118851602D01*
X81870935Y-118790609D01*
X81870922Y-118790602D01*
X81725251Y-118730264D01*
X81725239Y-118730261D01*
X81570595Y-118699500D01*
X81570592Y-118699500D01*
X81412908Y-118699500D01*
X81412905Y-118699500D01*
X81258260Y-118730261D01*
X81258248Y-118730264D01*
X81112577Y-118790602D01*
X81112564Y-118790609D01*
X80981461Y-118878210D01*
X80981457Y-118878213D01*
X80869963Y-118989707D01*
X80869960Y-118989711D01*
X80782359Y-119120814D01*
X80782352Y-119120827D01*
X80722014Y-119266498D01*
X80722011Y-119266510D01*
X80691250Y-119421153D01*
X80691250Y-119578846D01*
X80722011Y-119733489D01*
X80722014Y-119733501D01*
X80782352Y-119879172D01*
X80782359Y-119879185D01*
X80817054Y-119931109D01*
X80837932Y-119997786D01*
X80819448Y-120065167D01*
X80817054Y-120068891D01*
X80782359Y-120120814D01*
X80782352Y-120120827D01*
X80722014Y-120266498D01*
X80722011Y-120266510D01*
X80691250Y-120421153D01*
X80691250Y-120578846D01*
X80722011Y-120733489D01*
X80722014Y-120733501D01*
X80782352Y-120879172D01*
X80782359Y-120879185D01*
X80817054Y-120931109D01*
X80837932Y-120997786D01*
X80819448Y-121065167D01*
X80817054Y-121068891D01*
X80782359Y-121120814D01*
X80782352Y-121120827D01*
X80722014Y-121266498D01*
X80722011Y-121266510D01*
X80691250Y-121421153D01*
X80691250Y-121578846D01*
X80722011Y-121733489D01*
X80722014Y-121733501D01*
X80782352Y-121879172D01*
X80782359Y-121879185D01*
X80817054Y-121931109D01*
X80837932Y-121997786D01*
X80819448Y-122065167D01*
X80817054Y-122068891D01*
X80782359Y-122120814D01*
X80782352Y-122120827D01*
X80722014Y-122266498D01*
X80722011Y-122266510D01*
X80691250Y-122421153D01*
X80691250Y-122578846D01*
X80722011Y-122733489D01*
X80722014Y-122733501D01*
X80782352Y-122879172D01*
X80782359Y-122879185D01*
X80869960Y-123010288D01*
X80869963Y-123010292D01*
X80981457Y-123121786D01*
X80981461Y-123121789D01*
X81023163Y-123149654D01*
X81067968Y-123203266D01*
X81076675Y-123272592D01*
X81046520Y-123335619D01*
X81023164Y-123355857D01*
X80989713Y-123378208D01*
X80989707Y-123378213D01*
X80878213Y-123489707D01*
X80878210Y-123489711D01*
X80790609Y-123620814D01*
X80790602Y-123620827D01*
X80730264Y-123766498D01*
X80730261Y-123766510D01*
X80699500Y-123921153D01*
X80699500Y-124078846D01*
X80730261Y-124233489D01*
X80730264Y-124233501D01*
X80790603Y-124379174D01*
X80790604Y-124379175D01*
X80790606Y-124379179D01*
X80842927Y-124457482D01*
X80851602Y-124470465D01*
X80857252Y-124488511D01*
X80867477Y-124504421D01*
X80871928Y-124535380D01*
X80872480Y-124537142D01*
X80872500Y-124539356D01*
X80872500Y-124728038D01*
X80852815Y-124795077D01*
X80804798Y-124838521D01*
X80792182Y-124844949D01*
X80620213Y-124969890D01*
X80469890Y-125120213D01*
X80344951Y-125292179D01*
X80248444Y-125481585D01*
X80182753Y-125683760D01*
X80149500Y-125893713D01*
X80149500Y-126106286D01*
X80166695Y-126214855D01*
X80182754Y-126316243D01*
X80193016Y-126347827D01*
X80248444Y-126518414D01*
X80344951Y-126707820D01*
X80469890Y-126879786D01*
X80620213Y-127030109D01*
X80792179Y-127155048D01*
X80792181Y-127155049D01*
X80792184Y-127155051D01*
X80981588Y-127251557D01*
X81183757Y-127317246D01*
X81393713Y-127350500D01*
X81393714Y-127350500D01*
X81606286Y-127350500D01*
X81606287Y-127350500D01*
X81816243Y-127317246D01*
X82018412Y-127251557D01*
X82207816Y-127155051D01*
X82294478Y-127092088D01*
X82379786Y-127030109D01*
X82379788Y-127030106D01*
X82379792Y-127030104D01*
X82530104Y-126879792D01*
X82530106Y-126879788D01*
X82530109Y-126879786D01*
X82655048Y-126707820D01*
X82655047Y-126707820D01*
X82655051Y-126707816D01*
X82659514Y-126699054D01*
X82707488Y-126648259D01*
X82775308Y-126631463D01*
X82841444Y-126653999D01*
X82880486Y-126699056D01*
X82884951Y-126707820D01*
X83009890Y-126879786D01*
X83160213Y-127030109D01*
X83332179Y-127155048D01*
X83332181Y-127155049D01*
X83332184Y-127155051D01*
X83521588Y-127251557D01*
X83723757Y-127317246D01*
X83933713Y-127350500D01*
X83933714Y-127350500D01*
X84146286Y-127350500D01*
X84146287Y-127350500D01*
X84356243Y-127317246D01*
X84558412Y-127251557D01*
X84747816Y-127155051D01*
X84834478Y-127092088D01*
X84919784Y-127030110D01*
X84919784Y-127030109D01*
X84919792Y-127030104D01*
X85033717Y-126916178D01*
X85095036Y-126882696D01*
X85164728Y-126887680D01*
X85220662Y-126929551D01*
X85237577Y-126960528D01*
X85286646Y-127092088D01*
X85286649Y-127092093D01*
X85372809Y-127207187D01*
X85372812Y-127207190D01*
X85487906Y-127293350D01*
X85487913Y-127293354D01*
X85622620Y-127343596D01*
X85622627Y-127343598D01*
X85682155Y-127349999D01*
X85682172Y-127350000D01*
X86330000Y-127350000D01*
X86330000Y-126433012D01*
X86387007Y-126465925D01*
X86514174Y-126500000D01*
X86645826Y-126500000D01*
X86772993Y-126465925D01*
X86830000Y-126433012D01*
X86830000Y-127350000D01*
X87477828Y-127350000D01*
X87477844Y-127349999D01*
X87537372Y-127343598D01*
X87537379Y-127343596D01*
X87672086Y-127293354D01*
X87672093Y-127293350D01*
X87787187Y-127207190D01*
X87787190Y-127207187D01*
X87873350Y-127092093D01*
X87873354Y-127092086D01*
X87923596Y-126957379D01*
X87923598Y-126957372D01*
X87929999Y-126897844D01*
X87930000Y-126897827D01*
X87930000Y-126250000D01*
X87013012Y-126250000D01*
X87045925Y-126192993D01*
X87080000Y-126065826D01*
X87080000Y-125934174D01*
X87045925Y-125807007D01*
X87013012Y-125750000D01*
X87930000Y-125750000D01*
X87930000Y-125102172D01*
X87929999Y-125102155D01*
X87923598Y-125042627D01*
X87923596Y-125042620D01*
X87873354Y-124907913D01*
X87873350Y-124907906D01*
X87787190Y-124792812D01*
X87787187Y-124792809D01*
X87672093Y-124706649D01*
X87672086Y-124706645D01*
X87537379Y-124656403D01*
X87537372Y-124656401D01*
X87477844Y-124650000D01*
X86830000Y-124650000D01*
X86830000Y-125566988D01*
X86772993Y-125534075D01*
X86645826Y-125500000D01*
X86514174Y-125500000D01*
X86387007Y-125534075D01*
X86330000Y-125566988D01*
X86330000Y-124650000D01*
X85682155Y-124650000D01*
X85622627Y-124656401D01*
X85622620Y-124656403D01*
X85487913Y-124706645D01*
X85487906Y-124706649D01*
X85372812Y-124792809D01*
X85372809Y-124792812D01*
X85286649Y-124907906D01*
X85286646Y-124907912D01*
X85237577Y-125039471D01*
X85195705Y-125095404D01*
X85130241Y-125119821D01*
X85061968Y-125104969D01*
X85033714Y-125083818D01*
X84919786Y-124969890D01*
X84747820Y-124844951D01*
X84558414Y-124748444D01*
X84558413Y-124748443D01*
X84558412Y-124748443D01*
X84356243Y-124682754D01*
X84356241Y-124682753D01*
X84232101Y-124663091D01*
X84201324Y-124648500D01*
X84170297Y-124634331D01*
X84169798Y-124633555D01*
X84168967Y-124633161D01*
X84150958Y-124604239D01*
X84132523Y-124575553D01*
X84132350Y-124574355D01*
X84132036Y-124573850D01*
X84127500Y-124540618D01*
X84127500Y-124539356D01*
X84147185Y-124472317D01*
X84148398Y-124470465D01*
X84157073Y-124457482D01*
X84209394Y-124379179D01*
X84269737Y-124233497D01*
X84300500Y-124078842D01*
X84300500Y-123921158D01*
X84300500Y-123921155D01*
X84300499Y-123921153D01*
X84296311Y-123900099D01*
X84269737Y-123766503D01*
X84269735Y-123766498D01*
X84209397Y-123620827D01*
X84209390Y-123620814D01*
X84121789Y-123489711D01*
X84121786Y-123489707D01*
X84010289Y-123378210D01*
X83974956Y-123354602D01*
X83930151Y-123300990D01*
X83921444Y-123231665D01*
X83951598Y-123168638D01*
X84011041Y-123131918D01*
X84043847Y-123127500D01*
X102386479Y-123127500D01*
X102453518Y-123147185D01*
X102499273Y-123199989D01*
X102509217Y-123269147D01*
X102508952Y-123270898D01*
X102496061Y-123352289D01*
X102489500Y-123393713D01*
X102489500Y-123606287D01*
X102522754Y-123816243D01*
X102581922Y-123998344D01*
X102588444Y-124018414D01*
X102684951Y-124207820D01*
X102809890Y-124379786D01*
X102960213Y-124530109D01*
X103132179Y-124655048D01*
X103132181Y-124655049D01*
X103132184Y-124655051D01*
X103321588Y-124751557D01*
X103523757Y-124817246D01*
X103733713Y-124850500D01*
X103733714Y-124850500D01*
X103946286Y-124850500D01*
X103946287Y-124850500D01*
X104156243Y-124817246D01*
X104358412Y-124751557D01*
X104547816Y-124655051D01*
X104627344Y-124597271D01*
X104719786Y-124530109D01*
X104719788Y-124530106D01*
X104719792Y-124530104D01*
X104870104Y-124379792D01*
X104870106Y-124379788D01*
X104870109Y-124379786D01*
X104995048Y-124207820D01*
X104995047Y-124207820D01*
X104995051Y-124207816D01*
X104999514Y-124199054D01*
X105047488Y-124148259D01*
X105115308Y-124131463D01*
X105181444Y-124153999D01*
X105220486Y-124199056D01*
X105224951Y-124207820D01*
X105349890Y-124379786D01*
X105500213Y-124530109D01*
X105672179Y-124655048D01*
X105672181Y-124655049D01*
X105672184Y-124655051D01*
X105861588Y-124751557D01*
X106063757Y-124817246D01*
X106273713Y-124850500D01*
X106273714Y-124850500D01*
X106486286Y-124850500D01*
X106486287Y-124850500D01*
X106696243Y-124817246D01*
X106898412Y-124751557D01*
X107087816Y-124655051D01*
X107167344Y-124597271D01*
X107259786Y-124530109D01*
X107259788Y-124530106D01*
X107259792Y-124530104D01*
X107410104Y-124379792D01*
X107410106Y-124379788D01*
X107410109Y-124379786D01*
X107535048Y-124207820D01*
X107535047Y-124207820D01*
X107535051Y-124207816D01*
X107539514Y-124199054D01*
X107587488Y-124148259D01*
X107655308Y-124131463D01*
X107721444Y-124153999D01*
X107760486Y-124199056D01*
X107764951Y-124207820D01*
X107889890Y-124379786D01*
X108040213Y-124530109D01*
X108212179Y-124655048D01*
X108212181Y-124655049D01*
X108212184Y-124655051D01*
X108401588Y-124751557D01*
X108603757Y-124817246D01*
X108813713Y-124850500D01*
X108813714Y-124850500D01*
X109026286Y-124850500D01*
X109026287Y-124850500D01*
X109236243Y-124817246D01*
X109438412Y-124751557D01*
X109627816Y-124655051D01*
X109707344Y-124597271D01*
X109799786Y-124530109D01*
X109799788Y-124530106D01*
X109799792Y-124530104D01*
X109950104Y-124379792D01*
X109950106Y-124379788D01*
X109950109Y-124379786D01*
X110075048Y-124207820D01*
X110075047Y-124207820D01*
X110075051Y-124207816D01*
X110079514Y-124199054D01*
X110127488Y-124148259D01*
X110195308Y-124131463D01*
X110261444Y-124153999D01*
X110300486Y-124199056D01*
X110304951Y-124207820D01*
X110429890Y-124379786D01*
X110580213Y-124530109D01*
X110752179Y-124655048D01*
X110752181Y-124655049D01*
X110752184Y-124655051D01*
X110941588Y-124751557D01*
X111143757Y-124817246D01*
X111353713Y-124850500D01*
X111353714Y-124850500D01*
X111566286Y-124850500D01*
X111566287Y-124850500D01*
X111776243Y-124817246D01*
X111978412Y-124751557D01*
X112167816Y-124655051D01*
X112247344Y-124597271D01*
X112339786Y-124530109D01*
X112339788Y-124530106D01*
X112339792Y-124530104D01*
X112490104Y-124379792D01*
X112490106Y-124379788D01*
X112490109Y-124379786D01*
X112557515Y-124287007D01*
X112615051Y-124207816D01*
X112619793Y-124198508D01*
X112667763Y-124147711D01*
X112735583Y-124130911D01*
X112801719Y-124153445D01*
X112840763Y-124198500D01*
X112845373Y-124207547D01*
X112884728Y-124261716D01*
X113517037Y-123629408D01*
X113534075Y-123692993D01*
X113599901Y-123807007D01*
X113692993Y-123900099D01*
X113807007Y-123965925D01*
X113870590Y-123982962D01*
X113238282Y-124615269D01*
X113238282Y-124615270D01*
X113292449Y-124654624D01*
X113481782Y-124751095D01*
X113683870Y-124816757D01*
X113893754Y-124850000D01*
X114106246Y-124850000D01*
X114316127Y-124816757D01*
X114316130Y-124816757D01*
X114518217Y-124751095D01*
X114707554Y-124654622D01*
X114761716Y-124615270D01*
X114761717Y-124615270D01*
X114129408Y-123982962D01*
X114192993Y-123965925D01*
X114307007Y-123900099D01*
X114400099Y-123807007D01*
X114465925Y-123692993D01*
X114482962Y-123629408D01*
X115153181Y-124299628D01*
X115186666Y-124360951D01*
X115189500Y-124387300D01*
X115189500Y-124397865D01*
X115189501Y-124397876D01*
X115195908Y-124457483D01*
X115246202Y-124592328D01*
X115246206Y-124592335D01*
X115332452Y-124707544D01*
X115332455Y-124707547D01*
X115447664Y-124793793D01*
X115447671Y-124793797D01*
X115582517Y-124844091D01*
X115582516Y-124844091D01*
X115589444Y-124844835D01*
X115642127Y-124850500D01*
X117437872Y-124850499D01*
X117497483Y-124844091D01*
X117632331Y-124793796D01*
X117747546Y-124707546D01*
X117833796Y-124592331D01*
X117884091Y-124457483D01*
X117890500Y-124397873D01*
X117890499Y-122602128D01*
X117884091Y-122542517D01*
X117833796Y-122407669D01*
X117833795Y-122407668D01*
X117833793Y-122407664D01*
X117747547Y-122292455D01*
X117747544Y-122292452D01*
X117632335Y-122206206D01*
X117632328Y-122206202D01*
X117497482Y-122155908D01*
X117497483Y-122155908D01*
X117437883Y-122149501D01*
X117437881Y-122149500D01*
X117437873Y-122149500D01*
X117437865Y-122149500D01*
X116307887Y-122149500D01*
X116240848Y-122129815D01*
X116220206Y-122113181D01*
X115790819Y-121683794D01*
X115757334Y-121622471D01*
X115754500Y-121596113D01*
X115754500Y-121425687D01*
X115754499Y-121425683D01*
X115743857Y-121372184D01*
X115725505Y-121279920D01*
X115668629Y-121142610D01*
X115668525Y-121142455D01*
X115586060Y-121019035D01*
X115586054Y-121019028D01*
X115476647Y-120909621D01*
X115476624Y-120909600D01*
X112552206Y-117985181D01*
X112518721Y-117923858D01*
X112523705Y-117854166D01*
X112565577Y-117798233D01*
X112631041Y-117773816D01*
X112639887Y-117773500D01*
X112742829Y-117773500D01*
X120050182Y-117773500D01*
X120117221Y-117793185D01*
X120123067Y-117797182D01*
X120274991Y-117907559D01*
X120292184Y-117920051D01*
X120481588Y-118016557D01*
X120683757Y-118082246D01*
X120893713Y-118115500D01*
X120893714Y-118115500D01*
X121106286Y-118115500D01*
X121106287Y-118115500D01*
X121316243Y-118082246D01*
X121518412Y-118016557D01*
X121707816Y-117920051D01*
X121729789Y-117904086D01*
X121879786Y-117795109D01*
X121879788Y-117795106D01*
X121879792Y-117795104D01*
X122030104Y-117644792D01*
X122030106Y-117644788D01*
X122030109Y-117644786D01*
X122155048Y-117472820D01*
X122155047Y-117472820D01*
X122155051Y-117472816D01*
X122251557Y-117283412D01*
X122317246Y-117081243D01*
X122326777Y-117021066D01*
X122356706Y-116957932D01*
X122416017Y-116921001D01*
X122485880Y-116921999D01*
X122544113Y-116960609D01*
X122572227Y-117024572D01*
X122573250Y-117040465D01*
X122573250Y-128376000D01*
X122553565Y-128443039D01*
X122500761Y-128488794D01*
X122449250Y-128500000D01*
X46698250Y-128500000D01*
X46631211Y-128480315D01*
X46585456Y-128427511D01*
X46574250Y-128376000D01*
X46574250Y-126347844D01*
X47350000Y-126347844D01*
X47356401Y-126407372D01*
X47356403Y-126407379D01*
X47406645Y-126542086D01*
X47406649Y-126542093D01*
X47492809Y-126657187D01*
X47492812Y-126657190D01*
X47607906Y-126743350D01*
X47607913Y-126743354D01*
X47742620Y-126793596D01*
X47742627Y-126793598D01*
X47802155Y-126799999D01*
X47802172Y-126800000D01*
X48450000Y-126800000D01*
X48950000Y-126800000D01*
X49597828Y-126800000D01*
X49597844Y-126799999D01*
X49657372Y-126793598D01*
X49657379Y-126793596D01*
X49792086Y-126743354D01*
X49792093Y-126743350D01*
X49907187Y-126657190D01*
X49907190Y-126657187D01*
X49993350Y-126542093D01*
X49993354Y-126542086D01*
X50043596Y-126407379D01*
X50043598Y-126407372D01*
X50049999Y-126347844D01*
X53650000Y-126347844D01*
X53656401Y-126407372D01*
X53656403Y-126407379D01*
X53706645Y-126542086D01*
X53706649Y-126542093D01*
X53792809Y-126657187D01*
X53792812Y-126657190D01*
X53907906Y-126743350D01*
X53907913Y-126743354D01*
X54042620Y-126793596D01*
X54042627Y-126793598D01*
X54102155Y-126799999D01*
X54102172Y-126800000D01*
X54750000Y-126800000D01*
X55250000Y-126800000D01*
X55897828Y-126800000D01*
X55897844Y-126799999D01*
X55957372Y-126793598D01*
X55957379Y-126793596D01*
X56092086Y-126743354D01*
X56092093Y-126743350D01*
X56207187Y-126657190D01*
X56207190Y-126657187D01*
X56293350Y-126542093D01*
X56293354Y-126542086D01*
X56343596Y-126407379D01*
X56343598Y-126407372D01*
X56349999Y-126347844D01*
X57850000Y-126347844D01*
X57856401Y-126407372D01*
X57856403Y-126407379D01*
X57906645Y-126542086D01*
X57906649Y-126542093D01*
X57992809Y-126657187D01*
X57992812Y-126657190D01*
X58107906Y-126743350D01*
X58107913Y-126743354D01*
X58242620Y-126793596D01*
X58242627Y-126793598D01*
X58302155Y-126799999D01*
X58302172Y-126800000D01*
X58950000Y-126800000D01*
X59450000Y-126800000D01*
X60097828Y-126800000D01*
X60097844Y-126799999D01*
X60157372Y-126793598D01*
X60157379Y-126793596D01*
X60292086Y-126743354D01*
X60292093Y-126743350D01*
X60407187Y-126657190D01*
X60407190Y-126657187D01*
X60493350Y-126542093D01*
X60493354Y-126542086D01*
X60543596Y-126407379D01*
X60543598Y-126407372D01*
X60549999Y-126347844D01*
X64150000Y-126347844D01*
X64156401Y-126407372D01*
X64156403Y-126407379D01*
X64206645Y-126542086D01*
X64206649Y-126542093D01*
X64292809Y-126657187D01*
X64292812Y-126657190D01*
X64407906Y-126743350D01*
X64407913Y-126743354D01*
X64542620Y-126793596D01*
X64542627Y-126793598D01*
X64602155Y-126799999D01*
X64602172Y-126800000D01*
X65250000Y-126800000D01*
X65750000Y-126800000D01*
X66397828Y-126800000D01*
X66397844Y-126799999D01*
X66457372Y-126793598D01*
X66457379Y-126793596D01*
X66592086Y-126743354D01*
X66592093Y-126743350D01*
X66707187Y-126657190D01*
X66707190Y-126657187D01*
X66793350Y-126542093D01*
X66793354Y-126542086D01*
X66843596Y-126407379D01*
X66843598Y-126407372D01*
X66849999Y-126347844D01*
X66850000Y-126347827D01*
X66850000Y-126050000D01*
X65750000Y-126050000D01*
X65750000Y-126800000D01*
X65250000Y-126800000D01*
X65250000Y-126050000D01*
X64150000Y-126050000D01*
X64150000Y-126347844D01*
X60549999Y-126347844D01*
X60550000Y-126347827D01*
X60550000Y-126050000D01*
X59450000Y-126050000D01*
X59450000Y-126800000D01*
X58950000Y-126800000D01*
X58950000Y-126050000D01*
X57850000Y-126050000D01*
X57850000Y-126347844D01*
X56349999Y-126347844D01*
X56350000Y-126347827D01*
X56350000Y-126050000D01*
X55250000Y-126050000D01*
X55250000Y-126800000D01*
X54750000Y-126800000D01*
X54750000Y-126050000D01*
X53650000Y-126050000D01*
X53650000Y-126347844D01*
X50049999Y-126347844D01*
X50050000Y-126347827D01*
X50050000Y-126050000D01*
X48950000Y-126050000D01*
X48950000Y-126800000D01*
X48450000Y-126800000D01*
X48450000Y-126050000D01*
X47350000Y-126050000D01*
X47350000Y-126347844D01*
X46574250Y-126347844D01*
X46574250Y-125252155D01*
X47350000Y-125252155D01*
X47350000Y-125550000D01*
X48450000Y-125550000D01*
X48950000Y-125550000D01*
X50050000Y-125550000D01*
X50050000Y-125252172D01*
X50049999Y-125252155D01*
X53650000Y-125252155D01*
X53650000Y-125550000D01*
X54750000Y-125550000D01*
X55250000Y-125550000D01*
X56350000Y-125550000D01*
X56350000Y-125252172D01*
X56349999Y-125252155D01*
X57850000Y-125252155D01*
X57850000Y-125550000D01*
X58950000Y-125550000D01*
X59450000Y-125550000D01*
X60550000Y-125550000D01*
X60550000Y-125252172D01*
X60549999Y-125252155D01*
X64150000Y-125252155D01*
X64150000Y-125550000D01*
X65250000Y-125550000D01*
X65750000Y-125550000D01*
X66850000Y-125550000D01*
X66850000Y-125548322D01*
X68525001Y-125548322D01*
X68535144Y-125647607D01*
X68588452Y-125808481D01*
X68588457Y-125808492D01*
X68677424Y-125952728D01*
X68677427Y-125952732D01*
X68797267Y-126072572D01*
X68797271Y-126072575D01*
X68941507Y-126161542D01*
X68941518Y-126161547D01*
X69102393Y-126214855D01*
X69201683Y-126224999D01*
X69750000Y-126224999D01*
X69798308Y-126224999D01*
X69798322Y-126224998D01*
X69897607Y-126214855D01*
X70058481Y-126161547D01*
X70058492Y-126161542D01*
X70202728Y-126072575D01*
X70202732Y-126072572D01*
X70322572Y-125952732D01*
X70322575Y-125952728D01*
X70402132Y-125823747D01*
X70402134Y-125823744D01*
X70411545Y-125808486D01*
X70411547Y-125808481D01*
X70464855Y-125647606D01*
X70474999Y-125548322D01*
X70475000Y-125548309D01*
X70475000Y-125525000D01*
X69750000Y-125525000D01*
X69750000Y-126224999D01*
X69201683Y-126224999D01*
X69249999Y-126224998D01*
X69250000Y-126224998D01*
X69250000Y-125525000D01*
X68525001Y-125525000D01*
X68525001Y-125548322D01*
X66850000Y-125548322D01*
X66850000Y-125252172D01*
X66849999Y-125252155D01*
X66843598Y-125192627D01*
X66843596Y-125192620D01*
X66793354Y-125057913D01*
X66793350Y-125057906D01*
X66707190Y-124942812D01*
X66707187Y-124942809D01*
X66592093Y-124856649D01*
X66592086Y-124856645D01*
X66457379Y-124806403D01*
X66457372Y-124806401D01*
X66397844Y-124800000D01*
X65750000Y-124800000D01*
X65750000Y-125550000D01*
X65250000Y-125550000D01*
X65250000Y-124800000D01*
X64602155Y-124800000D01*
X64542627Y-124806401D01*
X64542620Y-124806403D01*
X64407913Y-124856645D01*
X64407906Y-124856649D01*
X64292812Y-124942809D01*
X64292809Y-124942812D01*
X64206649Y-125057906D01*
X64206645Y-125057913D01*
X64156403Y-125192620D01*
X64156401Y-125192627D01*
X64150000Y-125252155D01*
X60549999Y-125252155D01*
X60543598Y-125192627D01*
X60543596Y-125192620D01*
X60493354Y-125057913D01*
X60493350Y-125057906D01*
X60407190Y-124942812D01*
X60407187Y-124942809D01*
X60292093Y-124856649D01*
X60292086Y-124856645D01*
X60157379Y-124806403D01*
X60157372Y-124806401D01*
X60097844Y-124800000D01*
X59450000Y-124800000D01*
X59450000Y-125550000D01*
X58950000Y-125550000D01*
X58950000Y-124800000D01*
X58302155Y-124800000D01*
X58242627Y-124806401D01*
X58242620Y-124806403D01*
X58107913Y-124856645D01*
X58107906Y-124856649D01*
X57992812Y-124942809D01*
X57992809Y-124942812D01*
X57906649Y-125057906D01*
X57906645Y-125057913D01*
X57856403Y-125192620D01*
X57856401Y-125192627D01*
X57850000Y-125252155D01*
X56349999Y-125252155D01*
X56343598Y-125192627D01*
X56343596Y-125192620D01*
X56293354Y-125057913D01*
X56293350Y-125057906D01*
X56207190Y-124942812D01*
X56207187Y-124942809D01*
X56092093Y-124856649D01*
X56092086Y-124856645D01*
X55957379Y-124806403D01*
X55957372Y-124806401D01*
X55897844Y-124800000D01*
X55250000Y-124800000D01*
X55250000Y-125550000D01*
X54750000Y-125550000D01*
X54750000Y-124800000D01*
X54102155Y-124800000D01*
X54042627Y-124806401D01*
X54042620Y-124806403D01*
X53907913Y-124856645D01*
X53907906Y-124856649D01*
X53792812Y-124942809D01*
X53792809Y-124942812D01*
X53706649Y-125057906D01*
X53706645Y-125057913D01*
X53656403Y-125192620D01*
X53656401Y-125192627D01*
X53650000Y-125252155D01*
X50049999Y-125252155D01*
X50043598Y-125192627D01*
X50043596Y-125192620D01*
X49993354Y-125057913D01*
X49993350Y-125057906D01*
X49907190Y-124942812D01*
X49907187Y-124942809D01*
X49792093Y-124856649D01*
X49792086Y-124856645D01*
X49657379Y-124806403D01*
X49657372Y-124806401D01*
X49597844Y-124800000D01*
X48950000Y-124800000D01*
X48950000Y-125550000D01*
X48450000Y-125550000D01*
X48450000Y-124800000D01*
X47802155Y-124800000D01*
X47742627Y-124806401D01*
X47742620Y-124806403D01*
X47607913Y-124856645D01*
X47607906Y-124856649D01*
X47492812Y-124942809D01*
X47492809Y-124942812D01*
X47406649Y-125057906D01*
X47406645Y-125057913D01*
X47356403Y-125192620D01*
X47356401Y-125192627D01*
X47350000Y-125252155D01*
X46574250Y-125252155D01*
X46574250Y-123451647D01*
X68524500Y-123451647D01*
X68524500Y-123998337D01*
X68524501Y-123998355D01*
X68534650Y-124097707D01*
X68534651Y-124097710D01*
X68587996Y-124258694D01*
X68588001Y-124258705D01*
X68677029Y-124403040D01*
X68677032Y-124403044D01*
X68686660Y-124412672D01*
X68720145Y-124473995D01*
X68715161Y-124543687D01*
X68686663Y-124588031D01*
X68677428Y-124597265D01*
X68677424Y-124597271D01*
X68588457Y-124741507D01*
X68588452Y-124741518D01*
X68535144Y-124902393D01*
X68525000Y-125001677D01*
X68525000Y-125025000D01*
X70474999Y-125025000D01*
X70474999Y-125001692D01*
X70474998Y-125001677D01*
X70464855Y-124902392D01*
X70411547Y-124741518D01*
X70411542Y-124741507D01*
X70322575Y-124597271D01*
X70322572Y-124597267D01*
X70313339Y-124588034D01*
X70279854Y-124526711D01*
X70284838Y-124457019D01*
X70313343Y-124412668D01*
X70322968Y-124403044D01*
X70412003Y-124258697D01*
X70465349Y-124097708D01*
X70475500Y-123998345D01*
X70475499Y-123451656D01*
X70472962Y-123426824D01*
X70465349Y-123352292D01*
X70465348Y-123352289D01*
X70459824Y-123335619D01*
X70412003Y-123191303D01*
X70411999Y-123191297D01*
X70411998Y-123191294D01*
X70322970Y-123046959D01*
X70322967Y-123046955D01*
X70206271Y-122930259D01*
X70172786Y-122868936D01*
X70177770Y-122799244D01*
X70206269Y-122754899D01*
X71636078Y-121325089D01*
X71697399Y-121291606D01*
X71699398Y-121291189D01*
X71807247Y-121269737D01*
X71952929Y-121209394D01*
X72084039Y-121121789D01*
X72195539Y-121010289D01*
X72283144Y-120879179D01*
X72343487Y-120733497D01*
X72374250Y-120578842D01*
X72374250Y-120421158D01*
X72374250Y-120421155D01*
X72374249Y-120421153D01*
X72360414Y-120351602D01*
X72343487Y-120266503D01*
X72313754Y-120194720D01*
X72283147Y-120120827D01*
X72283140Y-120120814D01*
X72195539Y-119989711D01*
X72195536Y-119989707D01*
X72084042Y-119878213D01*
X72084038Y-119878210D01*
X71952935Y-119790609D01*
X71952922Y-119790602D01*
X71807251Y-119730264D01*
X71807239Y-119730261D01*
X71652595Y-119699500D01*
X71652592Y-119699500D01*
X71494908Y-119699500D01*
X71494905Y-119699500D01*
X71340260Y-119730261D01*
X71340248Y-119730264D01*
X71194577Y-119790602D01*
X71194564Y-119790609D01*
X71063461Y-119878210D01*
X71063457Y-119878213D01*
X70951963Y-119989707D01*
X70951960Y-119989711D01*
X70864359Y-120120814D01*
X70864352Y-120120827D01*
X70804014Y-120266498D01*
X70804011Y-120266508D01*
X70782593Y-120374183D01*
X70750208Y-120436094D01*
X70748657Y-120437672D01*
X69502537Y-121683794D01*
X69099992Y-122086339D01*
X69073150Y-122113181D01*
X69012586Y-122173744D01*
X69012585Y-122173746D01*
X68943233Y-122277539D01*
X68941586Y-122282143D01*
X68896614Y-122390714D01*
X68896612Y-122390722D01*
X68874975Y-122499501D01*
X68874975Y-122499503D01*
X68872500Y-122511944D01*
X68872500Y-122811228D01*
X68852815Y-122878267D01*
X68813599Y-122916765D01*
X68796958Y-122927029D01*
X68677029Y-123046959D01*
X68588001Y-123191294D01*
X68587996Y-123191305D01*
X68534651Y-123352290D01*
X68524500Y-123451647D01*
X46574250Y-123451647D01*
X46574250Y-120124000D01*
X46593935Y-120056961D01*
X46646739Y-120011206D01*
X46698250Y-120000000D01*
X56699017Y-120000000D01*
X56766056Y-120019685D01*
X56811811Y-120072489D01*
X56821755Y-120141647D01*
X56792730Y-120205203D01*
X56746469Y-120238561D01*
X56620827Y-120290602D01*
X56620814Y-120290609D01*
X56529534Y-120351602D01*
X56462857Y-120372480D01*
X56460643Y-120372500D01*
X55938192Y-120372500D01*
X55816973Y-120396612D01*
X55816965Y-120396614D01*
X55758881Y-120420673D01*
X55758874Y-120420676D01*
X55751974Y-120423535D01*
X55702767Y-120443917D01*
X55626729Y-120494724D01*
X55622811Y-120497342D01*
X55599989Y-120512590D01*
X55149398Y-120963181D01*
X55088075Y-120996666D01*
X55061717Y-120999500D01*
X54102129Y-120999500D01*
X54102123Y-120999501D01*
X54042516Y-121005908D01*
X53907671Y-121056202D01*
X53907664Y-121056206D01*
X53792455Y-121142452D01*
X53792452Y-121142455D01*
X53706206Y-121257664D01*
X53706203Y-121257669D01*
X53693461Y-121291834D01*
X53651589Y-121347767D01*
X53586125Y-121372184D01*
X53577279Y-121372500D01*
X50122721Y-121372500D01*
X50055682Y-121352815D01*
X50009927Y-121300011D01*
X50006539Y-121291834D01*
X49993796Y-121257669D01*
X49993793Y-121257664D01*
X49907547Y-121142455D01*
X49907544Y-121142452D01*
X49792335Y-121056206D01*
X49792328Y-121056202D01*
X49657482Y-121005908D01*
X49657483Y-121005908D01*
X49597883Y-120999501D01*
X49597881Y-120999500D01*
X49597873Y-120999500D01*
X49597864Y-120999500D01*
X47802129Y-120999500D01*
X47802123Y-120999501D01*
X47742516Y-121005908D01*
X47607671Y-121056202D01*
X47607664Y-121056206D01*
X47492455Y-121142452D01*
X47492452Y-121142455D01*
X47406206Y-121257664D01*
X47406202Y-121257671D01*
X47355908Y-121392517D01*
X47349501Y-121452116D01*
X47349500Y-121452135D01*
X47349500Y-122547870D01*
X47349501Y-122547876D01*
X47355908Y-122607483D01*
X47406202Y-122742328D01*
X47406206Y-122742335D01*
X47492452Y-122857544D01*
X47492455Y-122857547D01*
X47607664Y-122943793D01*
X47607671Y-122943797D01*
X47742517Y-122994091D01*
X47742516Y-122994091D01*
X47749444Y-122994835D01*
X47802127Y-123000500D01*
X49597872Y-123000499D01*
X49657483Y-122994091D01*
X49792331Y-122943796D01*
X49907546Y-122857546D01*
X49993796Y-122742331D01*
X50006539Y-122708166D01*
X50048411Y-122652233D01*
X50113875Y-122627816D01*
X50122721Y-122627500D01*
X53577279Y-122627500D01*
X53644318Y-122647185D01*
X53690073Y-122699989D01*
X53693461Y-122708166D01*
X53706203Y-122742330D01*
X53706206Y-122742335D01*
X53792452Y-122857544D01*
X53792455Y-122857547D01*
X53907664Y-122943793D01*
X53907671Y-122943797D01*
X54042517Y-122994091D01*
X54042516Y-122994091D01*
X54049444Y-122994835D01*
X54102127Y-123000500D01*
X55897872Y-123000499D01*
X55957483Y-122994091D01*
X56092331Y-122943796D01*
X56207546Y-122857546D01*
X56293796Y-122742331D01*
X56344091Y-122607483D01*
X56350500Y-122547873D01*
X56350499Y-121760757D01*
X56370183Y-121693719D01*
X56422987Y-121647964D01*
X56492146Y-121638020D01*
X56543387Y-121657654D01*
X56620821Y-121709394D01*
X56620823Y-121709395D01*
X56620827Y-121709397D01*
X56766498Y-121769735D01*
X56766503Y-121769737D01*
X56921153Y-121800499D01*
X56921156Y-121800500D01*
X56921158Y-121800500D01*
X57078844Y-121800500D01*
X57078845Y-121800499D01*
X57233497Y-121769737D01*
X57379179Y-121709394D01*
X57510289Y-121621789D01*
X57621789Y-121510289D01*
X57622392Y-121509385D01*
X57622832Y-121509017D01*
X57625653Y-121505581D01*
X57626304Y-121506115D01*
X57676001Y-121464576D01*
X57745325Y-121455863D01*
X57808355Y-121486013D01*
X57845079Y-121545453D01*
X57849500Y-121578268D01*
X57849500Y-122547870D01*
X57849501Y-122547876D01*
X57855908Y-122607483D01*
X57906202Y-122742328D01*
X57906206Y-122742335D01*
X57992452Y-122857544D01*
X57992455Y-122857547D01*
X58107664Y-122943793D01*
X58107671Y-122943797D01*
X58242517Y-122994091D01*
X58242516Y-122994091D01*
X58249444Y-122994835D01*
X58302127Y-123000500D01*
X60097872Y-123000499D01*
X60157483Y-122994091D01*
X60292331Y-122943796D01*
X60407546Y-122857546D01*
X60493796Y-122742331D01*
X60506539Y-122708166D01*
X60548411Y-122652233D01*
X60613875Y-122627816D01*
X60622721Y-122627500D01*
X64077279Y-122627500D01*
X64144318Y-122647185D01*
X64190073Y-122699989D01*
X64193461Y-122708166D01*
X64206203Y-122742330D01*
X64206206Y-122742335D01*
X64292452Y-122857544D01*
X64292455Y-122857547D01*
X64407664Y-122943793D01*
X64407671Y-122943797D01*
X64542517Y-122994091D01*
X64542516Y-122994091D01*
X64549444Y-122994835D01*
X64602127Y-123000500D01*
X66397872Y-123000499D01*
X66457483Y-122994091D01*
X66592331Y-122943796D01*
X66707546Y-122857546D01*
X66793796Y-122742331D01*
X66844091Y-122607483D01*
X66850500Y-122547873D01*
X66850500Y-122260759D01*
X66870185Y-122193720D01*
X66922989Y-122147965D01*
X66992147Y-122138021D01*
X67043391Y-122157657D01*
X67080950Y-122182753D01*
X67120821Y-122209394D01*
X67120823Y-122209395D01*
X67120827Y-122209397D01*
X67216207Y-122248904D01*
X67266503Y-122269737D01*
X67421153Y-122300499D01*
X67421156Y-122300500D01*
X67421158Y-122300500D01*
X67578844Y-122300500D01*
X67578845Y-122300499D01*
X67733497Y-122269737D01*
X67879179Y-122209394D01*
X68010289Y-122121789D01*
X68121789Y-122010289D01*
X68209394Y-121879179D01*
X68269737Y-121733497D01*
X68300500Y-121578842D01*
X68300500Y-121421158D01*
X68300500Y-121421155D01*
X68300499Y-121421153D01*
X68290758Y-121372184D01*
X68269737Y-121266503D01*
X68245573Y-121208166D01*
X68209397Y-121120827D01*
X68209390Y-121120814D01*
X68121789Y-120989711D01*
X68121786Y-120989707D01*
X68010292Y-120878213D01*
X68010288Y-120878210D01*
X67879185Y-120790609D01*
X67879172Y-120790602D01*
X67733501Y-120730264D01*
X67733489Y-120730261D01*
X67578845Y-120699500D01*
X67578842Y-120699500D01*
X67421158Y-120699500D01*
X67421155Y-120699500D01*
X67266510Y-120730261D01*
X67266498Y-120730264D01*
X67120827Y-120790602D01*
X67120814Y-120790609D01*
X67029534Y-120851602D01*
X66962857Y-120872480D01*
X66960643Y-120872500D01*
X65938192Y-120872500D01*
X65816973Y-120896612D01*
X65816965Y-120896614D01*
X65757966Y-120921052D01*
X65757958Y-120921056D01*
X65751974Y-120923535D01*
X65702767Y-120943917D01*
X65646135Y-120981756D01*
X65641121Y-120984479D01*
X65612304Y-120990673D01*
X65584178Y-120999480D01*
X65581965Y-120999500D01*
X64602129Y-120999500D01*
X64602123Y-120999501D01*
X64542516Y-121005908D01*
X64407671Y-121056202D01*
X64407664Y-121056206D01*
X64292455Y-121142452D01*
X64292452Y-121142455D01*
X64206206Y-121257664D01*
X64206203Y-121257669D01*
X64193461Y-121291834D01*
X64151589Y-121347767D01*
X64086125Y-121372184D01*
X64077279Y-121372500D01*
X60622721Y-121372500D01*
X60555682Y-121352815D01*
X60509927Y-121300011D01*
X60506539Y-121291834D01*
X60493796Y-121257669D01*
X60493793Y-121257664D01*
X60407547Y-121142455D01*
X60407544Y-121142452D01*
X60292335Y-121056206D01*
X60292328Y-121056202D01*
X60157482Y-121005908D01*
X60157483Y-121005908D01*
X60097883Y-120999501D01*
X60097881Y-120999500D01*
X60097873Y-120999500D01*
X60097864Y-120999500D01*
X58302129Y-120999500D01*
X58302123Y-120999501D01*
X58242516Y-121005908D01*
X58107671Y-121056202D01*
X58107669Y-121056204D01*
X57998811Y-121137695D01*
X57933347Y-121162112D01*
X57865074Y-121147260D01*
X57815668Y-121097855D01*
X57800500Y-121038428D01*
X57800500Y-120921155D01*
X57800499Y-120921153D01*
X57774531Y-120790606D01*
X57769737Y-120766503D01*
X57756062Y-120733489D01*
X57709397Y-120620827D01*
X57709390Y-120620814D01*
X57621789Y-120489711D01*
X57621786Y-120489707D01*
X57510292Y-120378213D01*
X57510288Y-120378210D01*
X57379185Y-120290609D01*
X57379172Y-120290602D01*
X57253531Y-120238561D01*
X57199127Y-120194720D01*
X57177062Y-120128426D01*
X57194341Y-120060727D01*
X57245478Y-120013116D01*
X57300983Y-120000000D01*
X68073750Y-120000000D01*
X68073750Y-104474076D01*
X68093435Y-104407037D01*
X68146239Y-104361282D01*
X68215397Y-104351338D01*
X68241088Y-104357896D01*
X68256371Y-104363597D01*
X68256377Y-104363598D01*
X68315905Y-104369999D01*
X68315922Y-104370000D01*
X68563750Y-104370000D01*
X68563750Y-101870000D01*
X69063750Y-101870000D01*
X69063750Y-104370000D01*
X69205250Y-104370000D01*
X69272289Y-104389685D01*
X69318044Y-104442489D01*
X69329250Y-104494000D01*
X69329250Y-106014915D01*
X69309565Y-106081954D01*
X69308355Y-106083802D01*
X69302578Y-106092448D01*
X69302573Y-106092456D01*
X69236126Y-106252875D01*
X69236124Y-106252881D01*
X69202250Y-106423176D01*
X69202250Y-106423179D01*
X69202250Y-106596821D01*
X69202250Y-106596823D01*
X69202249Y-106596823D01*
X69236124Y-106767118D01*
X69236127Y-106767128D01*
X69302571Y-106927540D01*
X69304607Y-106931348D01*
X69319250Y-106989804D01*
X69319250Y-110912480D01*
X69299565Y-110979519D01*
X69282931Y-111000161D01*
X69243281Y-111039810D01*
X69243280Y-111039811D01*
X69155272Y-111185393D01*
X69104663Y-111347807D01*
X69098250Y-111418386D01*
X69098250Y-111931613D01*
X69104663Y-112002192D01*
X69104663Y-112002194D01*
X69104664Y-112002196D01*
X69155272Y-112164606D01*
X69236120Y-112298345D01*
X69243280Y-112310188D01*
X69345411Y-112412319D01*
X69378896Y-112473642D01*
X69373912Y-112543334D01*
X69345411Y-112587681D01*
X69243281Y-112689810D01*
X69243280Y-112689811D01*
X69155272Y-112835393D01*
X69104663Y-112997807D01*
X69098250Y-113068386D01*
X69098250Y-113581613D01*
X69104663Y-113652192D01*
X69104663Y-113652194D01*
X69104664Y-113652196D01*
X69155272Y-113814606D01*
X69207173Y-113900461D01*
X69243280Y-113960188D01*
X69363561Y-114080469D01*
X69363563Y-114080470D01*
X69363565Y-114080472D01*
X69386400Y-114094276D01*
X69433587Y-114145801D01*
X69446250Y-114200392D01*
X69446250Y-114460642D01*
X69426565Y-114527681D01*
X69425352Y-114529533D01*
X69364359Y-114620814D01*
X69364352Y-114620827D01*
X69304014Y-114766498D01*
X69304011Y-114766510D01*
X69273250Y-114921153D01*
X69273250Y-115078846D01*
X69304011Y-115233489D01*
X69304014Y-115233500D01*
X69364352Y-115379172D01*
X69364359Y-115379185D01*
X69451960Y-115510288D01*
X69451963Y-115510292D01*
X69563457Y-115621786D01*
X69563461Y-115621789D01*
X69694564Y-115709390D01*
X69694577Y-115709397D01*
X69840248Y-115769735D01*
X69840253Y-115769737D01*
X69994903Y-115800499D01*
X69994906Y-115800500D01*
X69994908Y-115800500D01*
X70152594Y-115800500D01*
X70152595Y-115800499D01*
X70307247Y-115769737D01*
X70452929Y-115709394D01*
X70584039Y-115621789D01*
X70695539Y-115510289D01*
X70783144Y-115379179D01*
X70798828Y-115341314D01*
X70843486Y-115233500D01*
X70843487Y-115233497D01*
X70874250Y-115078842D01*
X70874250Y-114921158D01*
X70874250Y-114921155D01*
X70874249Y-114921153D01*
X70869544Y-114897500D01*
X70843487Y-114766503D01*
X70824139Y-114719792D01*
X70783147Y-114620827D01*
X70783140Y-114620814D01*
X70722148Y-114529533D01*
X70701270Y-114462855D01*
X70701250Y-114460642D01*
X70701250Y-114200392D01*
X70720935Y-114133353D01*
X70761099Y-114094276D01*
X70783935Y-114080472D01*
X70904222Y-113960185D01*
X70992228Y-113814606D01*
X71042836Y-113652196D01*
X71049250Y-113581616D01*
X71049250Y-113068384D01*
X71042836Y-112997804D01*
X70992228Y-112835394D01*
X70904222Y-112689815D01*
X70904220Y-112689813D01*
X70904219Y-112689811D01*
X70802089Y-112587681D01*
X70768604Y-112526358D01*
X70773588Y-112456666D01*
X70802089Y-112412319D01*
X70904218Y-112310189D01*
X70904219Y-112310188D01*
X70904222Y-112310185D01*
X70992228Y-112164606D01*
X71042836Y-112002196D01*
X71049250Y-111931616D01*
X71049250Y-111418384D01*
X71042836Y-111347804D01*
X70992228Y-111185394D01*
X70904222Y-111039815D01*
X70904220Y-111039813D01*
X70904219Y-111039811D01*
X70864569Y-111000161D01*
X70831084Y-110938838D01*
X70828250Y-110912480D01*
X70828250Y-108005500D01*
X70847935Y-107938461D01*
X70900739Y-107892706D01*
X70952250Y-107881500D01*
X74086822Y-107881500D01*
X74201394Y-107858709D01*
X74257124Y-107847624D01*
X74417547Y-107781175D01*
X74561923Y-107684706D01*
X74684706Y-107561923D01*
X74781175Y-107417547D01*
X74847624Y-107257124D01*
X74881500Y-107086820D01*
X74881500Y-106913180D01*
X74881500Y-106913177D01*
X74847625Y-106742881D01*
X74847624Y-106742880D01*
X74847624Y-106742876D01*
X74805574Y-106641358D01*
X74782985Y-106586822D01*
X80118499Y-106586822D01*
X80152374Y-106757118D01*
X80152377Y-106757128D01*
X80218821Y-106917540D01*
X80218828Y-106917553D01*
X80315293Y-107061922D01*
X80315296Y-107061926D01*
X80438073Y-107184703D01*
X80438077Y-107184706D01*
X80582446Y-107281171D01*
X80582459Y-107281178D01*
X80742871Y-107347622D01*
X80742876Y-107347624D01*
X80742880Y-107347624D01*
X80742881Y-107347625D01*
X80913177Y-107381500D01*
X80913180Y-107381500D01*
X83494500Y-107381500D01*
X83561539Y-107401185D01*
X83607294Y-107453989D01*
X83618500Y-107505500D01*
X83618500Y-108088179D01*
X83618500Y-108261821D01*
X83618500Y-108261823D01*
X83618499Y-108261823D01*
X83652374Y-108432118D01*
X83652377Y-108432128D01*
X83718822Y-108592543D01*
X83815295Y-108736926D01*
X83815296Y-108736927D01*
X83994203Y-108915833D01*
X84027688Y-108977156D01*
X84030012Y-108992284D01*
X84030912Y-109002184D01*
X84030913Y-109002190D01*
X84030914Y-109002196D01*
X84081522Y-109164606D01*
X84169530Y-109310188D01*
X84271661Y-109412319D01*
X84305146Y-109473642D01*
X84300162Y-109543334D01*
X84271661Y-109587681D01*
X84169531Y-109689810D01*
X84169530Y-109689811D01*
X84081522Y-109835393D01*
X84030913Y-109997807D01*
X84024500Y-110068386D01*
X84024500Y-110581613D01*
X84030913Y-110652192D01*
X84081522Y-110814606D01*
X84169530Y-110960188D01*
X84243605Y-111034263D01*
X84277090Y-111095586D01*
X84272106Y-111165278D01*
X84270485Y-111169396D01*
X84230264Y-111266498D01*
X84230261Y-111266510D01*
X84199500Y-111421153D01*
X84199500Y-111578846D01*
X84230261Y-111733489D01*
X84230264Y-111733501D01*
X84290602Y-111879172D01*
X84290609Y-111879185D01*
X84378210Y-112010288D01*
X84378213Y-112010292D01*
X84489707Y-112121786D01*
X84489711Y-112121789D01*
X84620814Y-112209390D01*
X84620827Y-112209397D01*
X84718853Y-112250000D01*
X84766503Y-112269737D01*
X84910143Y-112298309D01*
X84921153Y-112300499D01*
X84921156Y-112300500D01*
X84921158Y-112300500D01*
X85078844Y-112300500D01*
X85078845Y-112300499D01*
X85233497Y-112269737D01*
X85379179Y-112209394D01*
X85510289Y-112121789D01*
X85621789Y-112010289D01*
X85709394Y-111879179D01*
X85769737Y-111733497D01*
X85800500Y-111578842D01*
X85800500Y-111421158D01*
X85800500Y-111421155D01*
X85800499Y-111421153D01*
X85786902Y-111352797D01*
X85769737Y-111266503D01*
X85729513Y-111169395D01*
X85722045Y-111099926D01*
X85753320Y-111037447D01*
X85756367Y-111034289D01*
X85830472Y-110960185D01*
X85918478Y-110814606D01*
X85969086Y-110652196D01*
X85975500Y-110581616D01*
X85975500Y-110068384D01*
X85969086Y-109997804D01*
X85918478Y-109835394D01*
X85830472Y-109689815D01*
X85830470Y-109689813D01*
X85830469Y-109689811D01*
X85728339Y-109587681D01*
X85694854Y-109526358D01*
X85699838Y-109456666D01*
X85728339Y-109412319D01*
X85830468Y-109310189D01*
X85830469Y-109310188D01*
X85830472Y-109310185D01*
X85918478Y-109164606D01*
X85969086Y-109002196D01*
X85975500Y-108931616D01*
X85975500Y-108418384D01*
X85969086Y-108347804D01*
X85918478Y-108185394D01*
X85830472Y-108039815D01*
X85830470Y-108039813D01*
X85830469Y-108039811D01*
X85710188Y-107919530D01*
X85591243Y-107847625D01*
X85564606Y-107831522D01*
X85564604Y-107831521D01*
X85564602Y-107831520D01*
X85564603Y-107831520D01*
X85468610Y-107801608D01*
X85410462Y-107762871D01*
X85382488Y-107698845D01*
X85381500Y-107683223D01*
X85381500Y-106413177D01*
X85347625Y-106242881D01*
X85347624Y-106242880D01*
X85347624Y-106242876D01*
X85337660Y-106218821D01*
X85281178Y-106082459D01*
X85281171Y-106082446D01*
X85184706Y-105938077D01*
X85184703Y-105938073D01*
X85061926Y-105815296D01*
X85061922Y-105815293D01*
X84917553Y-105718828D01*
X84917540Y-105718821D01*
X84757128Y-105652377D01*
X84757118Y-105652374D01*
X84586822Y-105618500D01*
X84586820Y-105618500D01*
X80913180Y-105618500D01*
X80913178Y-105618500D01*
X80742881Y-105652374D01*
X80742871Y-105652377D01*
X80582459Y-105718821D01*
X80582446Y-105718828D01*
X80438077Y-105815293D01*
X80438073Y-105815296D01*
X80315296Y-105938073D01*
X80315293Y-105938077D01*
X80218828Y-106082446D01*
X80218821Y-106082459D01*
X80152377Y-106242871D01*
X80152374Y-106242881D01*
X80118500Y-106413177D01*
X80118500Y-106413180D01*
X80118500Y-106586820D01*
X80118500Y-106586822D01*
X80118499Y-106586822D01*
X74782985Y-106586822D01*
X74781178Y-106582459D01*
X74781171Y-106582446D01*
X74710032Y-106475979D01*
X74684706Y-106438077D01*
X74684703Y-106438073D01*
X74561926Y-106315296D01*
X74561922Y-106315293D01*
X74417553Y-106218828D01*
X74417540Y-106218821D01*
X74257128Y-106152377D01*
X74257118Y-106152374D01*
X74086822Y-106118500D01*
X74086820Y-106118500D01*
X72498250Y-106118500D01*
X72431211Y-106098815D01*
X72385456Y-106046011D01*
X72374250Y-105994500D01*
X72374250Y-105921155D01*
X72374249Y-105921153D01*
X72343487Y-105766503D01*
X72328367Y-105729999D01*
X72283147Y-105620827D01*
X72283140Y-105620814D01*
X72222148Y-105529533D01*
X72201270Y-105462855D01*
X72201250Y-105460642D01*
X72201250Y-105438200D01*
X72201250Y-105438197D01*
X72199098Y-105427376D01*
X72177136Y-105316965D01*
X72129833Y-105202768D01*
X72129833Y-105202767D01*
X72061161Y-105099992D01*
X72010941Y-105049772D01*
X72005383Y-105042220D01*
X71996515Y-105017841D01*
X71984084Y-104995076D01*
X71982342Y-104978881D01*
X71981498Y-104976559D01*
X71981901Y-104974775D01*
X71981250Y-104968718D01*
X71981250Y-104492996D01*
X72000935Y-104425957D01*
X72053739Y-104380202D01*
X72118507Y-104369707D01*
X72125877Y-104370500D01*
X73121622Y-104370499D01*
X73181233Y-104364091D01*
X73215417Y-104351340D01*
X73285108Y-104346357D01*
X73302077Y-104351338D01*
X73336267Y-104364091D01*
X73395877Y-104370500D01*
X74391622Y-104370499D01*
X74451233Y-104364091D01*
X74485417Y-104351340D01*
X74555108Y-104346357D01*
X74572077Y-104351338D01*
X74606267Y-104364091D01*
X74665877Y-104370500D01*
X75661622Y-104370499D01*
X75721233Y-104364091D01*
X75755417Y-104351340D01*
X75825108Y-104346357D01*
X75842077Y-104351338D01*
X75876267Y-104364091D01*
X75935877Y-104370500D01*
X76931622Y-104370499D01*
X76991233Y-104364091D01*
X77025417Y-104351340D01*
X77095108Y-104346357D01*
X77112077Y-104351338D01*
X77146267Y-104364091D01*
X77205877Y-104370500D01*
X78201622Y-104370499D01*
X78261233Y-104364091D01*
X78295417Y-104351340D01*
X78365108Y-104346357D01*
X78382077Y-104351338D01*
X78416267Y-104364091D01*
X78475877Y-104370500D01*
X79471622Y-104370499D01*
X79531233Y-104364091D01*
X79565417Y-104351340D01*
X79635108Y-104346357D01*
X79652077Y-104351338D01*
X79686267Y-104364091D01*
X79745877Y-104370500D01*
X80741622Y-104370499D01*
X80801233Y-104364091D01*
X80835417Y-104351340D01*
X80905108Y-104346357D01*
X80922077Y-104351338D01*
X80956267Y-104364091D01*
X81015877Y-104370500D01*
X82011622Y-104370499D01*
X82071233Y-104364091D01*
X82105417Y-104351340D01*
X82175108Y-104346357D01*
X82192077Y-104351338D01*
X82226267Y-104364091D01*
X82285877Y-104370500D01*
X83281622Y-104370499D01*
X83341233Y-104364091D01*
X83375417Y-104351340D01*
X83445108Y-104346357D01*
X83462077Y-104351338D01*
X83496267Y-104364091D01*
X83555877Y-104370500D01*
X84551622Y-104370499D01*
X84611233Y-104364091D01*
X84645417Y-104351340D01*
X84715108Y-104346357D01*
X84732077Y-104351338D01*
X84766267Y-104364091D01*
X84825877Y-104370500D01*
X85821622Y-104370499D01*
X85881233Y-104364091D01*
X86016081Y-104313796D01*
X86131296Y-104227546D01*
X86217546Y-104112331D01*
X86267841Y-103977483D01*
X86274250Y-103917873D01*
X86274249Y-102322128D01*
X86267841Y-102262517D01*
X86217546Y-102127669D01*
X86217545Y-102127668D01*
X86217543Y-102127664D01*
X86131297Y-102012455D01*
X86131294Y-102012452D01*
X86016085Y-101926206D01*
X86016078Y-101926202D01*
X85881232Y-101875908D01*
X85881233Y-101875908D01*
X85821633Y-101869501D01*
X85821631Y-101869500D01*
X85821623Y-101869500D01*
X85821614Y-101869500D01*
X84825879Y-101869500D01*
X84825873Y-101869501D01*
X84766268Y-101875908D01*
X84732081Y-101888659D01*
X84662389Y-101893642D01*
X84645419Y-101888659D01*
X84627849Y-101882106D01*
X84611233Y-101875909D01*
X84611232Y-101875908D01*
X84551633Y-101869501D01*
X84551631Y-101869500D01*
X84551623Y-101869500D01*
X84551614Y-101869500D01*
X83555879Y-101869500D01*
X83555873Y-101869501D01*
X83496268Y-101875908D01*
X83462081Y-101888659D01*
X83392389Y-101893642D01*
X83375419Y-101888659D01*
X83357849Y-101882106D01*
X83341233Y-101875909D01*
X83341232Y-101875908D01*
X83281633Y-101869501D01*
X83281631Y-101869500D01*
X83281623Y-101869500D01*
X83281614Y-101869500D01*
X82285879Y-101869500D01*
X82285873Y-101869501D01*
X82226268Y-101875908D01*
X82192081Y-101888659D01*
X82122389Y-101893642D01*
X82105419Y-101888659D01*
X82087849Y-101882106D01*
X82071233Y-101875909D01*
X82071232Y-101875908D01*
X82011633Y-101869501D01*
X82011631Y-101869500D01*
X82011623Y-101869500D01*
X82011614Y-101869500D01*
X81015879Y-101869500D01*
X81015873Y-101869501D01*
X80956268Y-101875908D01*
X80922081Y-101888659D01*
X80852389Y-101893642D01*
X80835419Y-101888659D01*
X80817849Y-101882106D01*
X80801233Y-101875909D01*
X80801232Y-101875908D01*
X80741633Y-101869501D01*
X80741631Y-101869500D01*
X80741623Y-101869500D01*
X80741614Y-101869500D01*
X79745879Y-101869500D01*
X79745873Y-101869501D01*
X79686268Y-101875908D01*
X79652081Y-101888659D01*
X79582389Y-101893642D01*
X79565419Y-101888659D01*
X79547849Y-101882106D01*
X79531233Y-101875909D01*
X79531232Y-101875908D01*
X79471633Y-101869501D01*
X79471631Y-101869500D01*
X79471623Y-101869500D01*
X79471614Y-101869500D01*
X78475879Y-101869500D01*
X78475873Y-101869501D01*
X78416268Y-101875908D01*
X78382081Y-101888659D01*
X78312389Y-101893642D01*
X78295419Y-101888659D01*
X78277849Y-101882106D01*
X78261233Y-101875909D01*
X78261232Y-101875908D01*
X78201633Y-101869501D01*
X78201631Y-101869500D01*
X78201623Y-101869500D01*
X78201614Y-101869500D01*
X77205879Y-101869500D01*
X77205873Y-101869501D01*
X77146268Y-101875908D01*
X77112081Y-101888659D01*
X77042389Y-101893642D01*
X77025419Y-101888659D01*
X77007849Y-101882106D01*
X76991233Y-101875909D01*
X76991232Y-101875908D01*
X76931633Y-101869501D01*
X76931631Y-101869500D01*
X76931623Y-101869500D01*
X76931614Y-101869500D01*
X75935879Y-101869500D01*
X75935873Y-101869501D01*
X75876268Y-101875908D01*
X75842081Y-101888659D01*
X75772389Y-101893642D01*
X75755419Y-101888659D01*
X75737849Y-101882106D01*
X75721233Y-101875909D01*
X75721232Y-101875908D01*
X75661633Y-101869501D01*
X75661631Y-101869500D01*
X75661623Y-101869500D01*
X75661614Y-101869500D01*
X74665879Y-101869500D01*
X74665873Y-101869501D01*
X74606268Y-101875908D01*
X74572081Y-101888659D01*
X74502389Y-101893642D01*
X74485419Y-101888659D01*
X74467849Y-101882106D01*
X74451233Y-101875909D01*
X74451232Y-101875908D01*
X74391633Y-101869501D01*
X74391631Y-101869500D01*
X74391623Y-101869500D01*
X74391614Y-101869500D01*
X73395879Y-101869500D01*
X73395873Y-101869501D01*
X73336268Y-101875908D01*
X73302081Y-101888659D01*
X73232389Y-101893642D01*
X73215419Y-101888659D01*
X73197849Y-101882106D01*
X73181233Y-101875909D01*
X73181232Y-101875908D01*
X73121633Y-101869501D01*
X73121631Y-101869500D01*
X73121623Y-101869500D01*
X73121614Y-101869500D01*
X72125879Y-101869500D01*
X72125873Y-101869501D01*
X72066268Y-101875908D01*
X72032081Y-101888659D01*
X71962389Y-101893642D01*
X71945419Y-101888659D01*
X71927849Y-101882106D01*
X71911233Y-101875909D01*
X71911232Y-101875908D01*
X71851633Y-101869501D01*
X71851631Y-101869500D01*
X71851623Y-101869500D01*
X71851614Y-101869500D01*
X70855879Y-101869500D01*
X70855873Y-101869501D01*
X70796268Y-101875908D01*
X70762081Y-101888659D01*
X70692389Y-101893642D01*
X70675419Y-101888659D01*
X70657849Y-101882106D01*
X70641233Y-101875909D01*
X70641232Y-101875908D01*
X70581633Y-101869501D01*
X70581631Y-101869500D01*
X70581623Y-101869500D01*
X70581614Y-101869500D01*
X69585879Y-101869500D01*
X69585873Y-101869501D01*
X69526270Y-101875908D01*
X69526267Y-101875908D01*
X69526267Y-101875909D01*
X69491370Y-101888925D01*
X69491367Y-101888926D01*
X69421675Y-101893909D01*
X69404702Y-101888925D01*
X69371129Y-101876403D01*
X69371122Y-101876401D01*
X69311594Y-101870000D01*
X69063750Y-101870000D01*
X68563750Y-101870000D01*
X68315905Y-101870000D01*
X68256377Y-101876401D01*
X68256371Y-101876402D01*
X68241079Y-101882106D01*
X68171387Y-101887087D01*
X68110065Y-101853600D01*
X68076583Y-101792275D01*
X68073750Y-101765922D01*
X68073750Y-100577844D01*
X85323750Y-100577844D01*
X85330151Y-100637372D01*
X85330153Y-100637379D01*
X85380395Y-100772086D01*
X85380399Y-100772093D01*
X85466559Y-100887187D01*
X85466562Y-100887190D01*
X85581656Y-100973350D01*
X85581663Y-100973354D01*
X85716370Y-101023596D01*
X85716377Y-101023598D01*
X85775905Y-101029999D01*
X85775922Y-101030000D01*
X86323750Y-101030000D01*
X86823750Y-101030000D01*
X87371578Y-101030000D01*
X87371594Y-101029999D01*
X87431122Y-101023598D01*
X87431129Y-101023596D01*
X87565836Y-100973354D01*
X87565843Y-100973350D01*
X87680937Y-100887190D01*
X87680940Y-100887187D01*
X87767100Y-100772093D01*
X87767104Y-100772086D01*
X87817346Y-100637379D01*
X87817348Y-100637372D01*
X87823749Y-100577844D01*
X87823750Y-100577827D01*
X87823750Y-100330000D01*
X86823750Y-100330000D01*
X86823750Y-101030000D01*
X86323750Y-101030000D01*
X86323750Y-100330000D01*
X85323750Y-100330000D01*
X85323750Y-100577844D01*
X68073750Y-100577844D01*
X68073750Y-97767844D01*
X74183750Y-97767844D01*
X74190151Y-97827372D01*
X74190153Y-97827379D01*
X74240395Y-97962086D01*
X74240399Y-97962093D01*
X74326559Y-98077187D01*
X74326562Y-98077190D01*
X74441656Y-98163350D01*
X74441663Y-98163354D01*
X74576370Y-98213596D01*
X74576377Y-98213598D01*
X74635905Y-98219999D01*
X74635922Y-98220000D01*
X74883750Y-98220000D01*
X75383750Y-98220000D01*
X75631578Y-98220000D01*
X75631594Y-98219999D01*
X75691122Y-98213598D01*
X75691126Y-98213597D01*
X75790416Y-98176564D01*
X75860108Y-98171580D01*
X75877084Y-98176564D01*
X75976373Y-98213597D01*
X75976377Y-98213598D01*
X76035905Y-98219999D01*
X76035922Y-98220000D01*
X76283750Y-98220000D01*
X76783750Y-98220000D01*
X77031578Y-98220000D01*
X77031594Y-98219999D01*
X77091122Y-98213598D01*
X77091126Y-98213597D01*
X77190416Y-98176564D01*
X77260108Y-98171580D01*
X77277084Y-98176564D01*
X77376373Y-98213597D01*
X77376377Y-98213598D01*
X77435905Y-98219999D01*
X77435922Y-98220000D01*
X77683750Y-98220000D01*
X78183750Y-98220000D01*
X78431578Y-98220000D01*
X78431594Y-98219999D01*
X78491122Y-98213598D01*
X78491129Y-98213596D01*
X78625836Y-98163354D01*
X78625843Y-98163350D01*
X78740937Y-98077190D01*
X78740940Y-98077187D01*
X78827100Y-97962093D01*
X78827104Y-97962086D01*
X78877346Y-97827379D01*
X78877348Y-97827372D01*
X78883749Y-97767844D01*
X78883750Y-97767827D01*
X78883750Y-97520000D01*
X78183750Y-97520000D01*
X78183750Y-98220000D01*
X77683750Y-98220000D01*
X77683750Y-97520000D01*
X76783750Y-97520000D01*
X76783750Y-98220000D01*
X76283750Y-98220000D01*
X76283750Y-97520000D01*
X75383750Y-97520000D01*
X75383750Y-98220000D01*
X74883750Y-98220000D01*
X74883750Y-97520000D01*
X74183750Y-97520000D01*
X74183750Y-97767844D01*
X68073750Y-97767844D01*
X68073750Y-96367844D01*
X74183750Y-96367844D01*
X74190151Y-96427372D01*
X74190153Y-96427383D01*
X74227184Y-96526668D01*
X74232168Y-96596360D01*
X74227184Y-96613332D01*
X74190153Y-96712616D01*
X74190151Y-96712627D01*
X74183750Y-96772155D01*
X74183750Y-97020000D01*
X74883750Y-97020000D01*
X75383750Y-97020000D01*
X76283750Y-97020000D01*
X76783750Y-97020000D01*
X77683750Y-97020000D01*
X78183750Y-97020000D01*
X78883750Y-97020000D01*
X78883750Y-96772172D01*
X78883749Y-96772155D01*
X78877348Y-96712627D01*
X78877347Y-96712623D01*
X78840314Y-96613334D01*
X78835330Y-96543642D01*
X78840314Y-96526666D01*
X78877347Y-96427376D01*
X78877348Y-96427372D01*
X78883749Y-96367844D01*
X78883750Y-96367827D01*
X78883750Y-96120000D01*
X78183750Y-96120000D01*
X78183750Y-97020000D01*
X77683750Y-97020000D01*
X77683750Y-96120000D01*
X76783750Y-96120000D01*
X76783750Y-97020000D01*
X76283750Y-97020000D01*
X76283750Y-96120000D01*
X75383750Y-96120000D01*
X75383750Y-97020000D01*
X74883750Y-97020000D01*
X74883750Y-96120000D01*
X74183750Y-96120000D01*
X74183750Y-96367844D01*
X68073750Y-96367844D01*
X68073750Y-94967844D01*
X74183750Y-94967844D01*
X74190151Y-95027372D01*
X74190153Y-95027383D01*
X74227184Y-95126668D01*
X74232168Y-95196360D01*
X74227184Y-95213332D01*
X74190153Y-95312616D01*
X74190151Y-95312627D01*
X74183750Y-95372155D01*
X74183750Y-95620000D01*
X74883750Y-95620000D01*
X75383750Y-95620000D01*
X76283750Y-95620000D01*
X76783750Y-95620000D01*
X77683750Y-95620000D01*
X78183750Y-95620000D01*
X78883750Y-95620000D01*
X78883750Y-95372172D01*
X78883749Y-95372155D01*
X78877348Y-95312627D01*
X78877347Y-95312623D01*
X78840314Y-95213334D01*
X78835330Y-95143642D01*
X78840314Y-95126666D01*
X78877347Y-95027376D01*
X78877348Y-95027372D01*
X78883749Y-94967844D01*
X78883750Y-94967827D01*
X78883750Y-94720000D01*
X78183750Y-94720000D01*
X78183750Y-95620000D01*
X77683750Y-95620000D01*
X77683750Y-94720000D01*
X76783750Y-94720000D01*
X76783750Y-95620000D01*
X76283750Y-95620000D01*
X76283750Y-94720000D01*
X75383750Y-94720000D01*
X75383750Y-95620000D01*
X74883750Y-95620000D01*
X74883750Y-94720000D01*
X74183750Y-94720000D01*
X74183750Y-94967844D01*
X68073750Y-94967844D01*
X68073750Y-93972155D01*
X74183750Y-93972155D01*
X74183750Y-94220000D01*
X74883750Y-94220000D01*
X75383750Y-94220000D01*
X76283750Y-94220000D01*
X76783750Y-94220000D01*
X77683750Y-94220000D01*
X78183750Y-94220000D01*
X78883750Y-94220000D01*
X78883750Y-93972172D01*
X78883749Y-93972155D01*
X78877348Y-93912627D01*
X78877346Y-93912620D01*
X78827104Y-93777913D01*
X78827100Y-93777906D01*
X78740940Y-93662812D01*
X78740937Y-93662809D01*
X78625843Y-93576649D01*
X78625836Y-93576645D01*
X78491129Y-93526403D01*
X78491122Y-93526401D01*
X78431594Y-93520000D01*
X78183750Y-93520000D01*
X78183750Y-94220000D01*
X77683750Y-94220000D01*
X77683750Y-93520000D01*
X77435905Y-93520000D01*
X77376377Y-93526401D01*
X77376366Y-93526403D01*
X77277082Y-93563434D01*
X77207390Y-93568418D01*
X77190418Y-93563434D01*
X77091133Y-93526403D01*
X77091122Y-93526401D01*
X77031594Y-93520000D01*
X76783750Y-93520000D01*
X76783750Y-94220000D01*
X76283750Y-94220000D01*
X76283750Y-93520000D01*
X76035905Y-93520000D01*
X75976377Y-93526401D01*
X75976366Y-93526403D01*
X75877082Y-93563434D01*
X75807390Y-93568418D01*
X75790418Y-93563434D01*
X75691133Y-93526403D01*
X75691122Y-93526401D01*
X75631594Y-93520000D01*
X75383750Y-93520000D01*
X75383750Y-94220000D01*
X74883750Y-94220000D01*
X74883750Y-93520000D01*
X74635905Y-93520000D01*
X74576377Y-93526401D01*
X74576370Y-93526403D01*
X74441663Y-93576645D01*
X74441656Y-93576649D01*
X74326562Y-93662809D01*
X74326559Y-93662812D01*
X74240399Y-93777906D01*
X74240395Y-93777913D01*
X74190153Y-93912620D01*
X74190151Y-93912627D01*
X74183750Y-93972155D01*
X68073750Y-93972155D01*
X68073750Y-86974076D01*
X68093435Y-86907037D01*
X68146239Y-86861282D01*
X68215397Y-86851338D01*
X68241088Y-86857896D01*
X68256371Y-86863597D01*
X68256377Y-86863598D01*
X68315905Y-86869999D01*
X68315922Y-86870000D01*
X68563750Y-86870000D01*
X68563750Y-84370000D01*
X69063750Y-84370000D01*
X69063750Y-86870000D01*
X69311578Y-86870000D01*
X69311594Y-86869999D01*
X69371122Y-86863598D01*
X69371125Y-86863597D01*
X69404699Y-86851075D01*
X69474390Y-86846089D01*
X69491369Y-86851075D01*
X69526261Y-86864089D01*
X69526262Y-86864089D01*
X69526267Y-86864091D01*
X69585877Y-86870500D01*
X70581622Y-86870499D01*
X70641233Y-86864091D01*
X70675417Y-86851340D01*
X70745108Y-86846357D01*
X70762077Y-86851338D01*
X70796267Y-86864091D01*
X70855877Y-86870500D01*
X71851622Y-86870499D01*
X71851625Y-86870498D01*
X71851635Y-86870498D01*
X71858993Y-86869707D01*
X71927752Y-86882111D01*
X71978891Y-86929720D01*
X71996250Y-86992996D01*
X71996250Y-87111807D01*
X72020362Y-87233028D01*
X72020363Y-87233032D01*
X72020364Y-87233035D01*
X72052351Y-87310256D01*
X72067667Y-87347233D01*
X72088366Y-87378211D01*
X72091839Y-87383408D01*
X72136340Y-87450010D01*
X72289014Y-87602684D01*
X72322499Y-87664007D01*
X72317515Y-87733699D01*
X72315896Y-87737814D01*
X72304012Y-87766506D01*
X72304010Y-87766511D01*
X72273250Y-87921153D01*
X72273250Y-88078846D01*
X72304011Y-88233489D01*
X72304014Y-88233501D01*
X72364352Y-88379172D01*
X72364359Y-88379185D01*
X72451960Y-88510288D01*
X72451963Y-88510292D01*
X72563460Y-88621789D01*
X72662075Y-88687681D01*
X72706880Y-88741293D01*
X72715587Y-88810618D01*
X72685433Y-88873645D01*
X72680865Y-88878464D01*
X72384422Y-89174907D01*
X72323099Y-89208392D01*
X72320933Y-89208843D01*
X72213258Y-89230261D01*
X72213248Y-89230264D01*
X72067577Y-89290602D01*
X72067564Y-89290609D01*
X71936461Y-89378210D01*
X71936457Y-89378213D01*
X71824963Y-89489707D01*
X71824960Y-89489711D01*
X71737359Y-89620814D01*
X71737352Y-89620827D01*
X71677014Y-89766498D01*
X71677011Y-89766510D01*
X71646250Y-89921153D01*
X71646250Y-90078846D01*
X71677011Y-90233489D01*
X71677014Y-90233501D01*
X71737352Y-90379172D01*
X71737359Y-90379185D01*
X71824960Y-90510288D01*
X71824963Y-90510292D01*
X71936457Y-90621786D01*
X71936461Y-90621789D01*
X72067564Y-90709390D01*
X72067577Y-90709397D01*
X72213248Y-90769735D01*
X72213253Y-90769737D01*
X72367903Y-90800499D01*
X72367906Y-90800500D01*
X72367908Y-90800500D01*
X72525594Y-90800500D01*
X72525595Y-90800499D01*
X72680247Y-90769737D01*
X72825929Y-90709394D01*
X72957039Y-90621789D01*
X73068539Y-90510289D01*
X73156144Y-90379179D01*
X73216487Y-90233497D01*
X73237906Y-90125812D01*
X73270289Y-90063906D01*
X73271784Y-90062383D01*
X74381161Y-88953008D01*
X74449833Y-88850233D01*
X74470433Y-88800500D01*
X74497136Y-88736035D01*
X74521250Y-88614803D01*
X74521250Y-88491197D01*
X74521250Y-86992996D01*
X74540935Y-86925957D01*
X74593739Y-86880202D01*
X74658507Y-86869707D01*
X74665877Y-86870500D01*
X75661622Y-86870499D01*
X75721233Y-86864091D01*
X75755417Y-86851340D01*
X75825108Y-86846357D01*
X75842077Y-86851338D01*
X75876267Y-86864091D01*
X75935877Y-86870500D01*
X76931622Y-86870499D01*
X76991233Y-86864091D01*
X77025417Y-86851340D01*
X77095108Y-86846357D01*
X77112077Y-86851338D01*
X77146267Y-86864091D01*
X77205877Y-86870500D01*
X78201622Y-86870499D01*
X78261233Y-86864091D01*
X78295417Y-86851340D01*
X78365108Y-86846357D01*
X78382077Y-86851338D01*
X78416267Y-86864091D01*
X78475877Y-86870500D01*
X79471622Y-86870499D01*
X79531233Y-86864091D01*
X79565417Y-86851340D01*
X79635108Y-86846357D01*
X79652077Y-86851338D01*
X79686267Y-86864091D01*
X79745877Y-86870500D01*
X80741622Y-86870499D01*
X80741625Y-86870498D01*
X80741635Y-86870498D01*
X80748993Y-86869707D01*
X80764399Y-86872486D01*
X80779897Y-86870258D01*
X80798081Y-86878562D01*
X80817752Y-86882111D01*
X80829210Y-86892778D01*
X80843453Y-86899283D01*
X80854259Y-86916098D01*
X80868891Y-86929720D01*
X80873268Y-86945677D01*
X80881227Y-86958061D01*
X80886250Y-86992996D01*
X80886250Y-87050439D01*
X80867170Y-87115415D01*
X80867229Y-87115447D01*
X80867078Y-87115727D01*
X80866565Y-87117478D01*
X80865354Y-87119327D01*
X80864360Y-87120814D01*
X80864352Y-87120828D01*
X80804014Y-87266498D01*
X80804011Y-87266510D01*
X80773250Y-87421153D01*
X80773250Y-87578846D01*
X80804011Y-87733489D01*
X80804014Y-87733501D01*
X80864352Y-87879172D01*
X80864359Y-87879185D01*
X80951960Y-88010288D01*
X80951963Y-88010292D01*
X81063457Y-88121786D01*
X81063461Y-88121789D01*
X81194564Y-88209390D01*
X81194577Y-88209397D01*
X81340248Y-88269735D01*
X81340253Y-88269737D01*
X81494903Y-88300499D01*
X81494906Y-88300500D01*
X81494908Y-88300500D01*
X81652594Y-88300500D01*
X81652595Y-88300499D01*
X81807247Y-88269737D01*
X81952929Y-88209394D01*
X82004860Y-88174694D01*
X82071535Y-88153816D01*
X82138915Y-88172300D01*
X82142613Y-88174676D01*
X82194571Y-88209394D01*
X82194573Y-88209395D01*
X82194575Y-88209396D01*
X82340248Y-88269735D01*
X82340253Y-88269737D01*
X82494903Y-88300499D01*
X82494906Y-88300500D01*
X82494908Y-88300500D01*
X82652594Y-88300500D01*
X82652595Y-88300499D01*
X82807247Y-88269737D01*
X82940776Y-88214428D01*
X82952922Y-88209397D01*
X82952922Y-88209396D01*
X82952929Y-88209394D01*
X83084039Y-88121789D01*
X83195539Y-88010289D01*
X83202895Y-87999279D01*
X83220648Y-87972712D01*
X83274260Y-87927906D01*
X83343585Y-87919199D01*
X83406612Y-87949353D01*
X83426852Y-87972712D01*
X83451957Y-88010284D01*
X83451963Y-88010292D01*
X83563457Y-88121786D01*
X83563461Y-88121789D01*
X83694564Y-88209390D01*
X83694577Y-88209397D01*
X83840248Y-88269735D01*
X83840253Y-88269737D01*
X83994903Y-88300499D01*
X83994906Y-88300500D01*
X83994908Y-88300500D01*
X84152594Y-88300500D01*
X84152595Y-88300499D01*
X84307247Y-88269737D01*
X84440776Y-88214428D01*
X84452922Y-88209397D01*
X84452922Y-88209396D01*
X84452929Y-88209394D01*
X84538623Y-88152135D01*
X85323250Y-88152135D01*
X85323250Y-89147870D01*
X85323251Y-89147876D01*
X85329658Y-89207481D01*
X85342409Y-89241669D01*
X85347392Y-89311361D01*
X85342409Y-89328331D01*
X85329658Y-89362518D01*
X85327971Y-89378213D01*
X85323251Y-89422123D01*
X85323250Y-89422135D01*
X85323250Y-90417870D01*
X85323251Y-90417876D01*
X85329658Y-90477481D01*
X85342409Y-90511669D01*
X85347392Y-90581361D01*
X85342409Y-90598331D01*
X85329658Y-90632518D01*
X85327518Y-90652427D01*
X85323251Y-90692123D01*
X85323250Y-90692135D01*
X85323250Y-91687870D01*
X85323251Y-91687876D01*
X85329658Y-91747481D01*
X85342409Y-91781669D01*
X85347392Y-91851361D01*
X85342409Y-91868331D01*
X85329658Y-91902518D01*
X85323251Y-91962116D01*
X85323251Y-91962123D01*
X85323250Y-91962135D01*
X85323250Y-92957870D01*
X85323251Y-92957876D01*
X85329658Y-93017481D01*
X85342409Y-93051669D01*
X85347392Y-93121361D01*
X85342409Y-93138331D01*
X85329658Y-93172518D01*
X85323251Y-93232116D01*
X85323251Y-93232123D01*
X85323250Y-93232135D01*
X85323250Y-94227870D01*
X85323251Y-94227876D01*
X85329658Y-94287481D01*
X85342409Y-94321669D01*
X85347392Y-94391361D01*
X85342409Y-94408331D01*
X85329658Y-94442518D01*
X85323251Y-94502116D01*
X85323251Y-94502123D01*
X85323250Y-94502135D01*
X85323250Y-95497870D01*
X85323251Y-95497876D01*
X85329658Y-95557481D01*
X85342409Y-95591669D01*
X85347392Y-95661361D01*
X85342409Y-95678331D01*
X85329658Y-95712518D01*
X85323251Y-95772116D01*
X85323251Y-95772123D01*
X85323250Y-95772135D01*
X85323250Y-96767870D01*
X85323251Y-96767876D01*
X85329658Y-96827481D01*
X85342409Y-96861669D01*
X85347392Y-96931361D01*
X85342409Y-96948331D01*
X85329658Y-96982518D01*
X85325629Y-97020000D01*
X85323251Y-97042123D01*
X85323250Y-97042135D01*
X85323250Y-98037870D01*
X85323251Y-98037876D01*
X85329658Y-98097481D01*
X85342409Y-98131669D01*
X85347392Y-98201361D01*
X85342409Y-98218331D01*
X85329658Y-98252518D01*
X85326995Y-98277292D01*
X85323251Y-98312123D01*
X85323250Y-98312135D01*
X85323250Y-99307870D01*
X85323251Y-99307876D01*
X85329658Y-99367483D01*
X85342675Y-99402381D01*
X85347659Y-99472072D01*
X85342675Y-99489047D01*
X85330153Y-99522619D01*
X85330151Y-99522627D01*
X85323750Y-99582155D01*
X85323750Y-99830000D01*
X87823750Y-99830000D01*
X87823750Y-99582172D01*
X87823749Y-99582155D01*
X87817347Y-99522622D01*
X87817347Y-99522620D01*
X87804825Y-99489048D01*
X87799839Y-99419356D01*
X87804821Y-99402390D01*
X87817841Y-99367483D01*
X87824250Y-99307873D01*
X87824249Y-98312128D01*
X87817841Y-98252517D01*
X87805090Y-98218332D01*
X87800107Y-98148642D01*
X87805090Y-98131669D01*
X87817841Y-98097483D01*
X87824250Y-98037873D01*
X87824249Y-97042128D01*
X87817841Y-96982517D01*
X87805090Y-96948332D01*
X87800107Y-96878642D01*
X87805090Y-96861669D01*
X87817841Y-96827483D01*
X87824250Y-96767873D01*
X87824249Y-95772128D01*
X87817841Y-95712517D01*
X87805090Y-95678332D01*
X87800107Y-95608642D01*
X87805090Y-95591669D01*
X87817841Y-95557483D01*
X87824250Y-95497873D01*
X87824249Y-94502128D01*
X87817841Y-94442517D01*
X87805090Y-94408332D01*
X87800107Y-94338642D01*
X87805090Y-94321669D01*
X87817841Y-94287483D01*
X87824250Y-94227873D01*
X87824249Y-93232128D01*
X87817841Y-93172517D01*
X87805090Y-93138332D01*
X87800107Y-93068642D01*
X87805090Y-93051669D01*
X87817841Y-93017483D01*
X87824250Y-92957873D01*
X87824249Y-91962128D01*
X87817841Y-91902517D01*
X87805090Y-91868332D01*
X87800107Y-91798642D01*
X87805090Y-91781669D01*
X87817841Y-91747483D01*
X87824250Y-91687873D01*
X87824249Y-90692128D01*
X87817841Y-90632517D01*
X87805090Y-90598332D01*
X87800107Y-90528642D01*
X87805090Y-90511669D01*
X87817841Y-90477483D01*
X87824250Y-90417873D01*
X87824249Y-89422128D01*
X87817841Y-89362517D01*
X87805090Y-89328332D01*
X87800107Y-89258642D01*
X87805090Y-89241669D01*
X87817841Y-89207483D01*
X87824250Y-89147873D01*
X87824249Y-88152128D01*
X87817841Y-88092517D01*
X87767546Y-87957669D01*
X87767545Y-87957668D01*
X87767543Y-87957664D01*
X87681297Y-87842455D01*
X87681294Y-87842452D01*
X87566085Y-87756206D01*
X87566078Y-87756202D01*
X87431232Y-87705908D01*
X87431233Y-87705908D01*
X87371633Y-87699501D01*
X87371631Y-87699500D01*
X87371623Y-87699500D01*
X87371614Y-87699500D01*
X85775879Y-87699500D01*
X85775873Y-87699501D01*
X85716266Y-87705908D01*
X85581421Y-87756202D01*
X85581414Y-87756206D01*
X85466205Y-87842452D01*
X85466202Y-87842455D01*
X85379956Y-87957664D01*
X85379952Y-87957671D01*
X85329658Y-88092517D01*
X85323251Y-88152116D01*
X85323251Y-88152123D01*
X85323250Y-88152135D01*
X84538623Y-88152135D01*
X84584039Y-88121789D01*
X84613312Y-88092516D01*
X84644704Y-88061125D01*
X84695536Y-88010292D01*
X84695539Y-88010289D01*
X84783144Y-87879179D01*
X84843487Y-87733497D01*
X84864906Y-87625812D01*
X84897289Y-87563906D01*
X84898785Y-87562382D01*
X85554350Y-86906818D01*
X85615673Y-86873333D01*
X85642031Y-86870499D01*
X85821621Y-86870499D01*
X85821622Y-86870499D01*
X85881233Y-86864091D01*
X86016081Y-86813796D01*
X86131296Y-86727546D01*
X86217546Y-86612331D01*
X86267841Y-86477483D01*
X86274250Y-86417873D01*
X86274249Y-84822128D01*
X86267841Y-84762517D01*
X86219779Y-84633657D01*
X86217547Y-84627671D01*
X86217543Y-84627664D01*
X86131297Y-84512455D01*
X86131294Y-84512452D01*
X86016085Y-84426206D01*
X86016078Y-84426202D01*
X85881232Y-84375908D01*
X85881233Y-84375908D01*
X85821633Y-84369501D01*
X85821631Y-84369500D01*
X85821623Y-84369500D01*
X85821614Y-84369500D01*
X84825879Y-84369500D01*
X84825873Y-84369501D01*
X84766268Y-84375908D01*
X84732081Y-84388659D01*
X84662389Y-84393642D01*
X84645419Y-84388659D01*
X84615807Y-84377615D01*
X84611233Y-84375909D01*
X84611232Y-84375908D01*
X84551633Y-84369501D01*
X84551631Y-84369500D01*
X84551623Y-84369500D01*
X84551614Y-84369500D01*
X83555879Y-84369500D01*
X83555873Y-84369501D01*
X83496268Y-84375908D01*
X83462081Y-84388659D01*
X83392389Y-84393642D01*
X83375419Y-84388659D01*
X83345807Y-84377615D01*
X83341233Y-84375909D01*
X83341232Y-84375908D01*
X83281633Y-84369501D01*
X83281631Y-84369500D01*
X83281623Y-84369500D01*
X83281614Y-84369500D01*
X82285879Y-84369500D01*
X82285873Y-84369501D01*
X82226268Y-84375908D01*
X82192081Y-84388659D01*
X82122389Y-84393642D01*
X82105419Y-84388659D01*
X82075807Y-84377615D01*
X82071233Y-84375909D01*
X82071232Y-84375908D01*
X82011633Y-84369501D01*
X82011631Y-84369500D01*
X82011623Y-84369500D01*
X82011614Y-84369500D01*
X81015879Y-84369500D01*
X81015855Y-84369502D01*
X81008496Y-84370293D01*
X80939737Y-84357883D01*
X80888604Y-84310269D01*
X80871250Y-84247003D01*
X80871250Y-82326080D01*
X80890935Y-82259041D01*
X80943739Y-82213286D01*
X80947771Y-82211530D01*
X80952929Y-82209394D01*
X81084039Y-82121789D01*
X81195539Y-82010289D01*
X81283144Y-81879179D01*
X81343487Y-81733497D01*
X81374250Y-81578842D01*
X81374250Y-81421158D01*
X81374250Y-81421155D01*
X81345315Y-81275692D01*
X81351542Y-81206100D01*
X81394405Y-81150923D01*
X81460295Y-81127678D01*
X81466932Y-81127500D01*
X86762469Y-81127500D01*
X86829508Y-81147185D01*
X86850150Y-81163819D01*
X89909931Y-84223600D01*
X89943416Y-84284923D01*
X89946250Y-84311281D01*
X89946250Y-114961806D01*
X89970362Y-115083026D01*
X89970364Y-115083034D01*
X89994183Y-115140539D01*
X90000622Y-115156082D01*
X90017667Y-115197232D01*
X90069296Y-115274500D01*
X90086339Y-115300007D01*
X90086340Y-115300008D01*
X90086343Y-115300012D01*
X92748739Y-117962408D01*
X92748747Y-117962414D01*
X92809375Y-118002924D01*
X92851518Y-118031083D01*
X92851524Y-118031085D01*
X92856893Y-118033956D01*
X92856544Y-118034608D01*
X92875728Y-118045685D01*
X92945907Y-118099535D01*
X92945908Y-118099535D01*
X92945909Y-118099536D01*
X93091988Y-118160044D01*
X93209389Y-118175500D01*
X94713110Y-118175499D01*
X94713113Y-118175499D01*
X94830503Y-118160046D01*
X94830507Y-118160044D01*
X94830512Y-118160044D01*
X94976591Y-118099536D01*
X95102032Y-118003282D01*
X95198286Y-117877841D01*
X95258794Y-117731762D01*
X95274250Y-117614361D01*
X95274249Y-117335640D01*
X95258794Y-117218238D01*
X95250184Y-117197454D01*
X95242715Y-117127986D01*
X95250185Y-117102545D01*
X95251612Y-117099100D01*
X95258794Y-117081762D01*
X95274250Y-116964361D01*
X95274249Y-116685640D01*
X95274248Y-116685636D01*
X95265358Y-116618104D01*
X95258794Y-116568238D01*
X95250184Y-116547454D01*
X95242715Y-116477986D01*
X95250185Y-116452545D01*
X95250454Y-116451895D01*
X95258794Y-116431762D01*
X95274250Y-116314361D01*
X95274249Y-116035640D01*
X95258794Y-115918238D01*
X95250184Y-115897454D01*
X95242715Y-115827986D01*
X95250185Y-115802545D01*
X95251032Y-115800500D01*
X95258794Y-115781762D01*
X95274250Y-115664361D01*
X95274249Y-115385640D01*
X95274249Y-115385638D01*
X95274249Y-115385636D01*
X95258796Y-115268246D01*
X95258794Y-115268239D01*
X95258794Y-115268238D01*
X95198286Y-115122159D01*
X95102032Y-114996718D01*
X94976591Y-114900464D01*
X94969435Y-114897500D01*
X94830512Y-114839956D01*
X94830510Y-114839955D01*
X94713120Y-114824501D01*
X94713117Y-114824500D01*
X94713111Y-114824500D01*
X94713104Y-114824500D01*
X94485317Y-114824500D01*
X94418278Y-114804815D01*
X94372523Y-114752011D01*
X94362579Y-114682853D01*
X94363700Y-114676309D01*
X94381499Y-114586824D01*
X94381500Y-114586822D01*
X94381500Y-113416491D01*
X94401185Y-113349452D01*
X94417819Y-113328810D01*
X94828810Y-112917819D01*
X94855737Y-112903115D01*
X94881556Y-112886523D01*
X94887756Y-112885631D01*
X94890133Y-112884334D01*
X94916491Y-112881500D01*
X95106683Y-112881500D01*
X95171779Y-112899961D01*
X95176893Y-112903115D01*
X95191303Y-112912003D01*
X95352292Y-112965349D01*
X95451655Y-112975500D01*
X95998344Y-112975499D01*
X95998352Y-112975498D01*
X95998355Y-112975498D01*
X96052760Y-112969940D01*
X96097708Y-112965349D01*
X96258697Y-112912003D01*
X96403044Y-112822968D01*
X96412668Y-112813343D01*
X96473987Y-112779856D01*
X96543679Y-112784835D01*
X96588034Y-112813339D01*
X96597267Y-112822572D01*
X96597271Y-112822575D01*
X96741507Y-112911542D01*
X96741518Y-112911547D01*
X96902393Y-112964855D01*
X97001683Y-112974999D01*
X97525000Y-112974999D01*
X97548308Y-112974999D01*
X97548322Y-112974998D01*
X97647607Y-112964855D01*
X97808481Y-112911547D01*
X97808492Y-112911542D01*
X97952728Y-112822575D01*
X97952732Y-112822572D01*
X98072572Y-112702732D01*
X98072575Y-112702728D01*
X98161542Y-112558492D01*
X98161547Y-112558481D01*
X98214855Y-112397606D01*
X98224999Y-112298322D01*
X98225000Y-112298309D01*
X98225000Y-112250000D01*
X97525000Y-112250000D01*
X97525000Y-112974999D01*
X97001683Y-112974999D01*
X97025000Y-112974998D01*
X97025000Y-111750000D01*
X97525000Y-111750000D01*
X98224999Y-111750000D01*
X98224999Y-111701692D01*
X98224998Y-111701677D01*
X98214855Y-111602392D01*
X98161547Y-111441518D01*
X98161542Y-111441507D01*
X98072575Y-111297271D01*
X98072572Y-111297267D01*
X97952732Y-111177427D01*
X97952728Y-111177424D01*
X97808492Y-111088457D01*
X97808481Y-111088452D01*
X97647606Y-111035144D01*
X97548322Y-111025000D01*
X97525000Y-111025000D01*
X97525000Y-111750000D01*
X97025000Y-111750000D01*
X97025000Y-111024999D01*
X97001693Y-111025000D01*
X97001674Y-111025001D01*
X96902392Y-111035144D01*
X96741518Y-111088452D01*
X96741507Y-111088457D01*
X96597271Y-111177424D01*
X96597265Y-111177428D01*
X96588031Y-111186663D01*
X96526707Y-111220146D01*
X96457015Y-111215159D01*
X96412672Y-111186660D01*
X96403044Y-111177032D01*
X96403040Y-111177029D01*
X96258705Y-111088001D01*
X96258699Y-111087998D01*
X96258697Y-111087997D01*
X96235988Y-111080472D01*
X96097709Y-111034651D01*
X95998346Y-111024500D01*
X95451662Y-111024500D01*
X95451644Y-111024501D01*
X95352292Y-111034650D01*
X95352289Y-111034651D01*
X95191305Y-111087996D01*
X95191296Y-111088001D01*
X95171779Y-111100039D01*
X95106683Y-111118500D01*
X94413175Y-111118500D01*
X94242883Y-111152373D01*
X94242875Y-111152375D01*
X94153632Y-111189341D01*
X94153626Y-111189343D01*
X94147521Y-111191873D01*
X94082453Y-111218825D01*
X94011098Y-111266503D01*
X94006468Y-111269596D01*
X94006458Y-111269602D01*
X93938081Y-111315290D01*
X93938073Y-111315296D01*
X92815296Y-112438072D01*
X92815295Y-112438073D01*
X92718822Y-112582456D01*
X92652377Y-112742871D01*
X92652374Y-112742883D01*
X92624802Y-112881498D01*
X92624802Y-112881501D01*
X92618500Y-112913179D01*
X92618500Y-114457968D01*
X92612261Y-114479213D01*
X92610682Y-114501302D01*
X92602609Y-114512085D01*
X92598815Y-114525007D01*
X92582081Y-114539506D01*
X92568810Y-114557235D01*
X92556189Y-114561942D01*
X92546011Y-114570762D01*
X92524093Y-114573913D01*
X92503346Y-114581652D01*
X92490185Y-114578789D01*
X92476853Y-114580706D01*
X92456709Y-114571506D01*
X92435073Y-114566800D01*
X92417347Y-114553531D01*
X92413297Y-114551681D01*
X92406819Y-114545649D01*
X92237569Y-114376399D01*
X92204084Y-114315076D01*
X92201250Y-114288718D01*
X92201250Y-91176677D01*
X105995000Y-91176677D01*
X105995000Y-91200000D01*
X106720000Y-91200000D01*
X107220000Y-91200000D01*
X107944999Y-91200000D01*
X107944999Y-91176693D01*
X107944998Y-91176677D01*
X110525000Y-91176677D01*
X110525000Y-91200000D01*
X111250000Y-91200000D01*
X111750000Y-91200000D01*
X112474999Y-91200000D01*
X112474999Y-91176692D01*
X112474998Y-91176677D01*
X112464855Y-91077392D01*
X112411547Y-90916518D01*
X112411542Y-90916507D01*
X112322575Y-90772271D01*
X112322572Y-90772267D01*
X112202732Y-90652427D01*
X112202728Y-90652424D01*
X112058492Y-90563457D01*
X112058481Y-90563452D01*
X111897606Y-90510144D01*
X111798322Y-90500000D01*
X111750000Y-90500000D01*
X111750000Y-91200000D01*
X111250000Y-91200000D01*
X111250000Y-90500000D01*
X111249999Y-90499999D01*
X111201693Y-90500000D01*
X111201675Y-90500001D01*
X111102392Y-90510144D01*
X110941518Y-90563452D01*
X110941507Y-90563457D01*
X110797271Y-90652424D01*
X110797267Y-90652427D01*
X110677427Y-90772267D01*
X110677424Y-90772271D01*
X110588457Y-90916507D01*
X110588452Y-90916518D01*
X110535144Y-91077393D01*
X110525000Y-91176677D01*
X107944998Y-91176677D01*
X107944998Y-91176676D01*
X107934855Y-91077392D01*
X107881547Y-90916518D01*
X107881542Y-90916507D01*
X107792575Y-90772271D01*
X107792572Y-90772267D01*
X107672732Y-90652427D01*
X107672728Y-90652424D01*
X107528492Y-90563457D01*
X107528481Y-90563452D01*
X107367606Y-90510144D01*
X107268322Y-90500000D01*
X107220000Y-90500000D01*
X107220000Y-91200000D01*
X106720000Y-91200000D01*
X106720000Y-90500000D01*
X106719999Y-90499999D01*
X106671693Y-90500000D01*
X106671675Y-90500001D01*
X106572392Y-90510144D01*
X106411518Y-90563452D01*
X106411507Y-90563457D01*
X106267271Y-90652424D01*
X106267267Y-90652427D01*
X106147427Y-90772267D01*
X106147424Y-90772271D01*
X106058457Y-90916507D01*
X106058452Y-90916518D01*
X106005144Y-91077393D01*
X105995000Y-91176677D01*
X92201250Y-91176677D01*
X92201250Y-87438872D01*
X95999500Y-87438872D01*
X95999500Y-87701127D01*
X96022943Y-87879185D01*
X96033730Y-87961116D01*
X96101602Y-88214418D01*
X96101605Y-88214428D01*
X96201953Y-88456690D01*
X96201958Y-88456700D01*
X96333075Y-88683803D01*
X96492718Y-88891851D01*
X96492726Y-88891860D01*
X96678140Y-89077274D01*
X96678148Y-89077281D01*
X96886196Y-89236924D01*
X97113299Y-89368041D01*
X97113309Y-89368046D01*
X97243892Y-89422135D01*
X97355581Y-89468398D01*
X97608884Y-89536270D01*
X97868880Y-89570500D01*
X97868887Y-89570500D01*
X98131113Y-89570500D01*
X98131120Y-89570500D01*
X98391116Y-89536270D01*
X98644419Y-89468398D01*
X98821340Y-89395114D01*
X98886690Y-89368046D01*
X98886691Y-89368045D01*
X98886697Y-89368043D01*
X99113803Y-89236924D01*
X99321851Y-89077282D01*
X99321855Y-89077277D01*
X99321860Y-89077274D01*
X99507274Y-88891860D01*
X99507277Y-88891855D01*
X99507282Y-88891851D01*
X99666924Y-88683803D01*
X99798043Y-88456697D01*
X99898398Y-88214419D01*
X99966270Y-87961116D01*
X100000500Y-87701120D01*
X100000500Y-87438880D01*
X99966270Y-87178884D01*
X99898398Y-86925581D01*
X99880392Y-86882111D01*
X99798046Y-86683309D01*
X99798041Y-86683299D01*
X99666924Y-86456196D01*
X99507281Y-86248148D01*
X99507274Y-86248140D01*
X99321860Y-86062726D01*
X99321851Y-86062718D01*
X99113803Y-85903075D01*
X98886700Y-85771958D01*
X98886690Y-85771953D01*
X98644428Y-85671605D01*
X98644421Y-85671603D01*
X98644419Y-85671602D01*
X98391116Y-85603730D01*
X98333339Y-85596123D01*
X98131127Y-85569500D01*
X98131120Y-85569500D01*
X97868880Y-85569500D01*
X97868872Y-85569500D01*
X97637772Y-85599926D01*
X97608884Y-85603730D01*
X97355581Y-85671602D01*
X97355571Y-85671605D01*
X97113309Y-85771953D01*
X97113299Y-85771958D01*
X96886196Y-85903075D01*
X96678148Y-86062718D01*
X96492718Y-86248148D01*
X96333075Y-86456196D01*
X96201958Y-86683299D01*
X96201953Y-86683309D01*
X96101605Y-86925571D01*
X96101602Y-86925581D01*
X96050737Y-87115415D01*
X96033730Y-87178885D01*
X95999500Y-87438872D01*
X92201250Y-87438872D01*
X92201250Y-83651262D01*
X92201249Y-83651258D01*
X92177137Y-83530039D01*
X92177136Y-83530032D01*
X92132157Y-83421445D01*
X92130513Y-83416850D01*
X92061164Y-83313062D01*
X92061163Y-83313060D01*
X92061161Y-83313058D01*
X91973758Y-83225655D01*
X89875603Y-81127500D01*
X87168796Y-78420692D01*
X86760693Y-78012589D01*
X86737171Y-77996873D01*
X86737172Y-77996873D01*
X86733955Y-77994724D01*
X86657917Y-77943917D01*
X86624468Y-77930062D01*
X86616787Y-77926880D01*
X86616783Y-77926878D01*
X86543719Y-77896614D01*
X86543711Y-77896612D01*
X86422491Y-77872500D01*
X86422487Y-77872500D01*
X81113107Y-77872500D01*
X81046068Y-77852815D01*
X81044216Y-77851602D01*
X80952935Y-77790609D01*
X80952922Y-77790602D01*
X80807251Y-77730264D01*
X80807239Y-77730261D01*
X80652595Y-77699500D01*
X80652592Y-77699500D01*
X80494908Y-77699500D01*
X80494905Y-77699500D01*
X80340260Y-77730261D01*
X80340248Y-77730264D01*
X80194577Y-77790602D01*
X80194564Y-77790609D01*
X80063461Y-77878210D01*
X80063457Y-77878213D01*
X79951963Y-77989707D01*
X79951960Y-77989711D01*
X79864359Y-78120814D01*
X79864352Y-78120827D01*
X79804014Y-78266498D01*
X79804011Y-78266510D01*
X79773250Y-78421153D01*
X79773250Y-78575500D01*
X79753565Y-78642539D01*
X79700761Y-78688294D01*
X79649250Y-78699500D01*
X79494905Y-78699500D01*
X79340260Y-78730261D01*
X79340248Y-78730264D01*
X79194577Y-78790602D01*
X79194564Y-78790609D01*
X79063461Y-78878210D01*
X79063457Y-78878213D01*
X78951963Y-78989707D01*
X78951960Y-78989711D01*
X78864359Y-79120814D01*
X78864352Y-79120827D01*
X78804014Y-79266498D01*
X78804011Y-79266510D01*
X78773250Y-79421153D01*
X78773250Y-79421158D01*
X78773250Y-79578842D01*
X78773250Y-79578844D01*
X78773249Y-79578844D01*
X78802185Y-79724308D01*
X78795958Y-79793900D01*
X78753095Y-79849077D01*
X78687205Y-79872322D01*
X78680568Y-79872500D01*
X74137942Y-79872500D01*
X74016722Y-79896612D01*
X74016714Y-79896614D01*
X73935965Y-79930062D01*
X73902517Y-79943917D01*
X73837424Y-79987411D01*
X73799739Y-80012590D01*
X73799736Y-80012593D01*
X70586676Y-83225655D01*
X69683742Y-84128589D01*
X69596339Y-84215992D01*
X69528317Y-84317795D01*
X69527662Y-84318775D01*
X69527058Y-84319905D01*
X69526586Y-84320384D01*
X69524284Y-84323831D01*
X69523629Y-84323393D01*
X69478087Y-84369740D01*
X69409946Y-84385189D01*
X69374380Y-84377615D01*
X69371132Y-84376403D01*
X69371122Y-84376401D01*
X69311594Y-84370000D01*
X69063750Y-84370000D01*
X68563750Y-84370000D01*
X68315905Y-84370000D01*
X68256377Y-84376401D01*
X68256371Y-84376402D01*
X68241079Y-84382106D01*
X68171387Y-84387087D01*
X68110065Y-84353600D01*
X68076583Y-84292275D01*
X68073750Y-84265922D01*
X68073750Y-73827135D01*
X99149500Y-73827135D01*
X99149500Y-75622870D01*
X99149501Y-75622876D01*
X99155908Y-75682483D01*
X99206202Y-75817328D01*
X99206206Y-75817335D01*
X99292452Y-75932544D01*
X99292455Y-75932547D01*
X99407664Y-76018793D01*
X99407671Y-76018797D01*
X99452618Y-76035561D01*
X99542517Y-76069091D01*
X99602127Y-76075500D01*
X99612685Y-76075499D01*
X99679723Y-76095179D01*
X99700372Y-76111818D01*
X100370591Y-76782037D01*
X100307007Y-76799075D01*
X100192993Y-76864901D01*
X100099901Y-76957993D01*
X100034075Y-77072007D01*
X100017037Y-77135591D01*
X99384728Y-76503282D01*
X99384727Y-76503282D01*
X99345380Y-76557439D01*
X99248904Y-76746782D01*
X99183242Y-76948869D01*
X99183242Y-76948872D01*
X99150000Y-77158753D01*
X99150000Y-77371246D01*
X99183242Y-77581127D01*
X99183242Y-77581130D01*
X99248904Y-77783217D01*
X99345375Y-77972550D01*
X99384728Y-78026716D01*
X100017037Y-77394408D01*
X100034075Y-77457993D01*
X100099901Y-77572007D01*
X100192993Y-77665099D01*
X100307007Y-77730925D01*
X100370590Y-77747962D01*
X99738282Y-78380269D01*
X99738282Y-78380270D01*
X99792449Y-78419624D01*
X99981782Y-78516095D01*
X100183870Y-78581757D01*
X100393754Y-78615000D01*
X100606246Y-78615000D01*
X100816127Y-78581757D01*
X100816130Y-78581757D01*
X101018217Y-78516095D01*
X101207554Y-78419622D01*
X101261716Y-78380270D01*
X101261717Y-78380270D01*
X100629408Y-77747962D01*
X100692993Y-77730925D01*
X100807007Y-77665099D01*
X100900099Y-77572007D01*
X100965925Y-77457993D01*
X100982962Y-77394408D01*
X101615270Y-78026717D01*
X101615270Y-78026716D01*
X101654622Y-77972554D01*
X101751095Y-77783217D01*
X101816757Y-77581130D01*
X101816757Y-77581127D01*
X101850000Y-77371246D01*
X101850000Y-77158753D01*
X101816757Y-76948872D01*
X101816757Y-76948869D01*
X101751095Y-76746782D01*
X101654624Y-76557449D01*
X101615270Y-76503282D01*
X101615269Y-76503282D01*
X100982962Y-77135590D01*
X100965925Y-77072007D01*
X100900099Y-76957993D01*
X100807007Y-76864901D01*
X100692993Y-76799075D01*
X100629409Y-76782037D01*
X101299627Y-76111818D01*
X101360950Y-76078333D01*
X101387307Y-76075499D01*
X101397872Y-76075499D01*
X101457483Y-76069091D01*
X101592331Y-76018796D01*
X101707546Y-75932546D01*
X101793796Y-75817331D01*
X101794974Y-75814171D01*
X101796996Y-75811470D01*
X101798047Y-75809546D01*
X101798323Y-75809697D01*
X101836843Y-75758236D01*
X101902306Y-75733816D01*
X101911158Y-75733500D01*
X105884503Y-75733500D01*
X105951542Y-75753185D01*
X105997297Y-75805989D01*
X106007241Y-75875147D01*
X105978216Y-75938703D01*
X105927835Y-75973682D01*
X105907673Y-75981201D01*
X105907664Y-75981206D01*
X105792455Y-76067452D01*
X105792452Y-76067455D01*
X105706206Y-76182664D01*
X105706202Y-76182671D01*
X105655908Y-76317517D01*
X105649501Y-76377116D01*
X105649500Y-76377135D01*
X105649500Y-78172870D01*
X105649501Y-78172876D01*
X105655908Y-78232483D01*
X105706202Y-78367328D01*
X105706206Y-78367335D01*
X105792452Y-78482544D01*
X105792455Y-78482547D01*
X105907664Y-78568793D01*
X105907671Y-78568797D01*
X106042517Y-78619091D01*
X106042516Y-78619091D01*
X106049444Y-78619835D01*
X106102127Y-78625500D01*
X107897872Y-78625499D01*
X107957483Y-78619091D01*
X108092331Y-78568796D01*
X108207546Y-78482546D01*
X108293796Y-78367331D01*
X108294974Y-78364171D01*
X108296996Y-78361470D01*
X108298047Y-78359546D01*
X108298323Y-78359697D01*
X108336843Y-78308236D01*
X108402306Y-78283816D01*
X108411158Y-78283500D01*
X112563946Y-78283500D01*
X112630985Y-78303185D01*
X112636831Y-78307182D01*
X112775271Y-78407763D01*
X112792184Y-78420051D01*
X112981588Y-78516557D01*
X113183757Y-78582246D01*
X113393713Y-78615500D01*
X113393714Y-78615500D01*
X113606286Y-78615500D01*
X113606287Y-78615500D01*
X113816243Y-78582246D01*
X114018412Y-78516557D01*
X114207816Y-78420051D01*
X114280374Y-78367335D01*
X114379786Y-78295109D01*
X114379788Y-78295106D01*
X114379792Y-78295104D01*
X114530104Y-78144792D01*
X114530106Y-78144788D01*
X114530109Y-78144786D01*
X114655048Y-77972820D01*
X114655047Y-77972820D01*
X114655051Y-77972816D01*
X114751557Y-77783412D01*
X114782371Y-77688575D01*
X114821805Y-77630903D01*
X114886164Y-77603704D01*
X114955010Y-77615618D01*
X114987981Y-77639215D01*
X116955181Y-79606415D01*
X116988666Y-79667738D01*
X116991500Y-79694096D01*
X116991500Y-81926957D01*
X116985206Y-81965960D01*
X116950002Y-82072199D01*
X116950000Y-82072209D01*
X116939500Y-82174983D01*
X116939500Y-84215001D01*
X116939501Y-84215018D01*
X116950000Y-84317796D01*
X116950001Y-84317799D01*
X116985924Y-84426206D01*
X117005186Y-84484334D01*
X117097288Y-84633656D01*
X117221344Y-84757712D01*
X117370666Y-84849814D01*
X117537203Y-84904999D01*
X117639991Y-84915500D01*
X118360008Y-84915499D01*
X118360016Y-84915498D01*
X118360019Y-84915498D01*
X118416302Y-84909748D01*
X118462797Y-84904999D01*
X118629334Y-84849814D01*
X118778656Y-84757712D01*
X118902712Y-84633656D01*
X118994814Y-84484334D01*
X119049999Y-84317797D01*
X119060500Y-84215009D01*
X119060499Y-82174992D01*
X119049999Y-82072203D01*
X119029483Y-82010289D01*
X119014794Y-81965960D01*
X119008500Y-81926956D01*
X119008500Y-79125670D01*
X119008499Y-79125666D01*
X118969745Y-78930838D01*
X118969744Y-78930831D01*
X118893721Y-78747296D01*
X118893720Y-78747295D01*
X118893717Y-78747289D01*
X118783354Y-78582120D01*
X118717329Y-78516095D01*
X118642881Y-78441647D01*
X114886818Y-74685584D01*
X114853333Y-74624261D01*
X114850499Y-74597903D01*
X114850499Y-73827129D01*
X114850498Y-73827123D01*
X114850497Y-73827116D01*
X114844091Y-73767517D01*
X114798026Y-73644011D01*
X114793797Y-73632671D01*
X114793793Y-73632664D01*
X114707547Y-73517455D01*
X114707544Y-73517452D01*
X114592335Y-73431206D01*
X114592328Y-73431202D01*
X114457482Y-73380908D01*
X114457483Y-73380908D01*
X114397883Y-73374501D01*
X114397881Y-73374500D01*
X114397873Y-73374500D01*
X114397864Y-73374500D01*
X112602129Y-73374500D01*
X112602123Y-73374501D01*
X112542516Y-73380908D01*
X112407671Y-73431202D01*
X112407664Y-73431206D01*
X112292455Y-73517452D01*
X112292452Y-73517455D01*
X112206206Y-73632664D01*
X112206202Y-73632671D01*
X112155908Y-73767517D01*
X112149501Y-73827116D01*
X112149501Y-73827123D01*
X112149500Y-73827135D01*
X112149500Y-75622870D01*
X112149501Y-75622876D01*
X112155908Y-75682483D01*
X112206202Y-75817328D01*
X112206206Y-75817335D01*
X112292452Y-75932544D01*
X112292455Y-75932547D01*
X112407664Y-76018793D01*
X112407673Y-76018798D01*
X112427835Y-76026318D01*
X112483769Y-76068188D01*
X112508187Y-76133653D01*
X112493336Y-76201926D01*
X112443931Y-76251332D01*
X112384503Y-76266500D01*
X108411158Y-76266500D01*
X108344119Y-76246815D01*
X108298364Y-76194011D01*
X108294974Y-76185828D01*
X108293796Y-76182669D01*
X108293794Y-76182666D01*
X108293793Y-76182664D01*
X108207547Y-76067455D01*
X108207544Y-76067452D01*
X108092335Y-75981206D01*
X108092328Y-75981202D01*
X107960917Y-75932189D01*
X107904983Y-75890318D01*
X107880566Y-75824853D01*
X107895418Y-75756580D01*
X107916563Y-75728332D01*
X108030104Y-75614792D01*
X108155051Y-75442816D01*
X108251557Y-75253412D01*
X108317246Y-75051243D01*
X108350500Y-74841287D01*
X108350500Y-74628713D01*
X108317246Y-74418757D01*
X108251557Y-74216588D01*
X108155051Y-74027184D01*
X108155049Y-74027181D01*
X108155048Y-74027179D01*
X108030109Y-73855213D01*
X107879786Y-73704890D01*
X107707820Y-73579951D01*
X107518414Y-73483444D01*
X107518413Y-73483443D01*
X107518412Y-73483443D01*
X107316243Y-73417754D01*
X107316241Y-73417753D01*
X107316240Y-73417753D01*
X107154957Y-73392208D01*
X107106287Y-73384500D01*
X106893713Y-73384500D01*
X106845042Y-73392208D01*
X106683760Y-73417753D01*
X106481585Y-73483444D01*
X106292180Y-73579951D01*
X106136831Y-73692818D01*
X106071025Y-73716298D01*
X106063946Y-73716500D01*
X101911158Y-73716500D01*
X101844119Y-73696815D01*
X101798364Y-73644011D01*
X101794974Y-73635828D01*
X101793796Y-73632669D01*
X101793794Y-73632666D01*
X101793793Y-73632664D01*
X101707547Y-73517455D01*
X101707544Y-73517452D01*
X101592335Y-73431206D01*
X101592328Y-73431202D01*
X101457482Y-73380908D01*
X101457483Y-73380908D01*
X101397883Y-73374501D01*
X101397881Y-73374500D01*
X101397873Y-73374500D01*
X101397864Y-73374500D01*
X99602129Y-73374500D01*
X99602123Y-73374501D01*
X99542516Y-73380908D01*
X99407671Y-73431202D01*
X99407664Y-73431206D01*
X99292455Y-73517452D01*
X99292452Y-73517455D01*
X99206206Y-73632664D01*
X99206202Y-73632671D01*
X99155908Y-73767517D01*
X99149501Y-73827116D01*
X99149501Y-73827123D01*
X99149500Y-73827135D01*
X68073750Y-73827135D01*
X68073750Y-70624000D01*
X68093435Y-70556961D01*
X68146239Y-70511206D01*
X68197750Y-70500000D01*
X122449250Y-70500000D01*
X122516289Y-70519685D01*
G37*
%TD.AperFunction*%
%TD*%
M02*
