%TF.GenerationSoftware,KiCad,Pcbnew,9.0.7*%
%TF.CreationDate,2026-04-09T15:46:16-05:00*%
%TF.ProjectId,audio_and_power,61756469-6f5f-4616-9e64-5f706f776572,rev?*%
%TF.SameCoordinates,Original*%
%TF.FileFunction,Legend,Top*%
%TF.FilePolarity,Positive*%
%FSLAX46Y46*%
G04 Gerber Fmt 4.6, Leading zero omitted, Abs format (unit mm)*
G04 Created by KiCad (PCBNEW 9.0.7) date 2026-04-09 15:46:16*
%MOMM*%
%LPD*%
G01*
G04 APERTURE LIST*
%ADD10C,0.100000*%
%ADD11C,0.150000*%
%ADD12C,0.120000*%
G04 APERTURE END LIST*
D10*
X54161027Y-63542587D02*
X54732455Y-63542587D01*
X54446741Y-64542587D02*
X54446741Y-63542587D01*
X55446741Y-64494968D02*
X55351503Y-64542587D01*
X55351503Y-64542587D02*
X55161027Y-64542587D01*
X55161027Y-64542587D02*
X55065789Y-64494968D01*
X55065789Y-64494968D02*
X55018170Y-64399729D01*
X55018170Y-64399729D02*
X55018170Y-64018777D01*
X55018170Y-64018777D02*
X55065789Y-63923539D01*
X55065789Y-63923539D02*
X55161027Y-63875920D01*
X55161027Y-63875920D02*
X55351503Y-63875920D01*
X55351503Y-63875920D02*
X55446741Y-63923539D01*
X55446741Y-63923539D02*
X55494360Y-64018777D01*
X55494360Y-64018777D02*
X55494360Y-64114015D01*
X55494360Y-64114015D02*
X55018170Y-64209253D01*
X56351503Y-64542587D02*
X56351503Y-64018777D01*
X56351503Y-64018777D02*
X56303884Y-63923539D01*
X56303884Y-63923539D02*
X56208646Y-63875920D01*
X56208646Y-63875920D02*
X56018170Y-63875920D01*
X56018170Y-63875920D02*
X55922932Y-63923539D01*
X56351503Y-64494968D02*
X56256265Y-64542587D01*
X56256265Y-64542587D02*
X56018170Y-64542587D01*
X56018170Y-64542587D02*
X55922932Y-64494968D01*
X55922932Y-64494968D02*
X55875313Y-64399729D01*
X55875313Y-64399729D02*
X55875313Y-64304491D01*
X55875313Y-64304491D02*
X55922932Y-64209253D01*
X55922932Y-64209253D02*
X56018170Y-64161634D01*
X56018170Y-64161634D02*
X56256265Y-64161634D01*
X56256265Y-64161634D02*
X56351503Y-64114015D01*
X56827694Y-64542587D02*
X56827694Y-63875920D01*
X56827694Y-63971158D02*
X56875313Y-63923539D01*
X56875313Y-63923539D02*
X56970551Y-63875920D01*
X56970551Y-63875920D02*
X57113408Y-63875920D01*
X57113408Y-63875920D02*
X57208646Y-63923539D01*
X57208646Y-63923539D02*
X57256265Y-64018777D01*
X57256265Y-64018777D02*
X57256265Y-64542587D01*
X57256265Y-64018777D02*
X57303884Y-63923539D01*
X57303884Y-63923539D02*
X57399122Y-63875920D01*
X57399122Y-63875920D02*
X57541979Y-63875920D01*
X57541979Y-63875920D02*
X57637218Y-63923539D01*
X57637218Y-63923539D02*
X57684837Y-64018777D01*
X57684837Y-64018777D02*
X57684837Y-64542587D01*
X59446741Y-64542587D02*
X58875313Y-64542587D01*
X59161027Y-64542587D02*
X59161027Y-63542587D01*
X59161027Y-63542587D02*
X59065789Y-63685444D01*
X59065789Y-63685444D02*
X58970551Y-63780682D01*
X58970551Y-63780682D02*
X58875313Y-63828301D01*
X60018170Y-63971158D02*
X59922932Y-63923539D01*
X59922932Y-63923539D02*
X59875313Y-63875920D01*
X59875313Y-63875920D02*
X59827694Y-63780682D01*
X59827694Y-63780682D02*
X59827694Y-63733063D01*
X59827694Y-63733063D02*
X59875313Y-63637825D01*
X59875313Y-63637825D02*
X59922932Y-63590206D01*
X59922932Y-63590206D02*
X60018170Y-63542587D01*
X60018170Y-63542587D02*
X60208646Y-63542587D01*
X60208646Y-63542587D02*
X60303884Y-63590206D01*
X60303884Y-63590206D02*
X60351503Y-63637825D01*
X60351503Y-63637825D02*
X60399122Y-63733063D01*
X60399122Y-63733063D02*
X60399122Y-63780682D01*
X60399122Y-63780682D02*
X60351503Y-63875920D01*
X60351503Y-63875920D02*
X60303884Y-63923539D01*
X60303884Y-63923539D02*
X60208646Y-63971158D01*
X60208646Y-63971158D02*
X60018170Y-63971158D01*
X60018170Y-63971158D02*
X59922932Y-64018777D01*
X59922932Y-64018777D02*
X59875313Y-64066396D01*
X59875313Y-64066396D02*
X59827694Y-64161634D01*
X59827694Y-64161634D02*
X59827694Y-64352110D01*
X59827694Y-64352110D02*
X59875313Y-64447348D01*
X59875313Y-64447348D02*
X59922932Y-64494968D01*
X59922932Y-64494968D02*
X60018170Y-64542587D01*
X60018170Y-64542587D02*
X60208646Y-64542587D01*
X60208646Y-64542587D02*
X60303884Y-64494968D01*
X60303884Y-64494968D02*
X60351503Y-64447348D01*
X60351503Y-64447348D02*
X60399122Y-64352110D01*
X60399122Y-64352110D02*
X60399122Y-64161634D01*
X60399122Y-64161634D02*
X60351503Y-64066396D01*
X60351503Y-64066396D02*
X60303884Y-64018777D01*
X60303884Y-64018777D02*
X60208646Y-63971158D01*
X54637217Y-65628721D02*
X54780074Y-65676340D01*
X54780074Y-65676340D02*
X54827693Y-65723959D01*
X54827693Y-65723959D02*
X54875312Y-65819197D01*
X54875312Y-65819197D02*
X54875312Y-65962054D01*
X54875312Y-65962054D02*
X54827693Y-66057292D01*
X54827693Y-66057292D02*
X54780074Y-66104912D01*
X54780074Y-66104912D02*
X54684836Y-66152531D01*
X54684836Y-66152531D02*
X54303884Y-66152531D01*
X54303884Y-66152531D02*
X54303884Y-65152531D01*
X54303884Y-65152531D02*
X54637217Y-65152531D01*
X54637217Y-65152531D02*
X54732455Y-65200150D01*
X54732455Y-65200150D02*
X54780074Y-65247769D01*
X54780074Y-65247769D02*
X54827693Y-65343007D01*
X54827693Y-65343007D02*
X54827693Y-65438245D01*
X54827693Y-65438245D02*
X54780074Y-65533483D01*
X54780074Y-65533483D02*
X54732455Y-65581102D01*
X54732455Y-65581102D02*
X54637217Y-65628721D01*
X54637217Y-65628721D02*
X54303884Y-65628721D01*
X55732455Y-66152531D02*
X55732455Y-65628721D01*
X55732455Y-65628721D02*
X55684836Y-65533483D01*
X55684836Y-65533483D02*
X55589598Y-65485864D01*
X55589598Y-65485864D02*
X55399122Y-65485864D01*
X55399122Y-65485864D02*
X55303884Y-65533483D01*
X55732455Y-66104912D02*
X55637217Y-66152531D01*
X55637217Y-66152531D02*
X55399122Y-66152531D01*
X55399122Y-66152531D02*
X55303884Y-66104912D01*
X55303884Y-66104912D02*
X55256265Y-66009673D01*
X55256265Y-66009673D02*
X55256265Y-65914435D01*
X55256265Y-65914435D02*
X55303884Y-65819197D01*
X55303884Y-65819197D02*
X55399122Y-65771578D01*
X55399122Y-65771578D02*
X55637217Y-65771578D01*
X55637217Y-65771578D02*
X55732455Y-65723959D01*
X56208646Y-66152531D02*
X56208646Y-65152531D01*
X56303884Y-65771578D02*
X56589598Y-66152531D01*
X56589598Y-65485864D02*
X56208646Y-65866816D01*
X57018170Y-66152531D02*
X57018170Y-65485864D01*
X57018170Y-65676340D02*
X57065789Y-65581102D01*
X57065789Y-65581102D02*
X57113408Y-65533483D01*
X57113408Y-65533483D02*
X57208646Y-65485864D01*
X57208646Y-65485864D02*
X57303884Y-65485864D01*
X57541980Y-65485864D02*
X57780075Y-66152531D01*
X58018170Y-65485864D02*
X57780075Y-66152531D01*
X57780075Y-66152531D02*
X57684837Y-66390626D01*
X57684837Y-66390626D02*
X57637218Y-66438245D01*
X57637218Y-66438245D02*
X57541980Y-66485864D01*
X59113409Y-65866816D02*
X59589599Y-65866816D01*
X59018171Y-66152531D02*
X59351504Y-65152531D01*
X59351504Y-65152531D02*
X59684837Y-66152531D01*
X60018171Y-66152531D02*
X60018171Y-65152531D01*
X60018171Y-65533483D02*
X60113409Y-65485864D01*
X60113409Y-65485864D02*
X60303885Y-65485864D01*
X60303885Y-65485864D02*
X60399123Y-65533483D01*
X60399123Y-65533483D02*
X60446742Y-65581102D01*
X60446742Y-65581102D02*
X60494361Y-65676340D01*
X60494361Y-65676340D02*
X60494361Y-65962054D01*
X60494361Y-65962054D02*
X60446742Y-66057292D01*
X60446742Y-66057292D02*
X60399123Y-66104912D01*
X60399123Y-66104912D02*
X60303885Y-66152531D01*
X60303885Y-66152531D02*
X60113409Y-66152531D01*
X60113409Y-66152531D02*
X60018171Y-66104912D01*
X61351504Y-66152531D02*
X61351504Y-65152531D01*
X61351504Y-66104912D02*
X61256266Y-66152531D01*
X61256266Y-66152531D02*
X61065790Y-66152531D01*
X61065790Y-66152531D02*
X60970552Y-66104912D01*
X60970552Y-66104912D02*
X60922933Y-66057292D01*
X60922933Y-66057292D02*
X60875314Y-65962054D01*
X60875314Y-65962054D02*
X60875314Y-65676340D01*
X60875314Y-65676340D02*
X60922933Y-65581102D01*
X60922933Y-65581102D02*
X60970552Y-65533483D01*
X60970552Y-65533483D02*
X61065790Y-65485864D01*
X61065790Y-65485864D02*
X61256266Y-65485864D01*
X61256266Y-65485864D02*
X61351504Y-65533483D01*
X62256266Y-66152531D02*
X62256266Y-65628721D01*
X62256266Y-65628721D02*
X62208647Y-65533483D01*
X62208647Y-65533483D02*
X62113409Y-65485864D01*
X62113409Y-65485864D02*
X61922933Y-65485864D01*
X61922933Y-65485864D02*
X61827695Y-65533483D01*
X62256266Y-66104912D02*
X62161028Y-66152531D01*
X62161028Y-66152531D02*
X61922933Y-66152531D01*
X61922933Y-66152531D02*
X61827695Y-66104912D01*
X61827695Y-66104912D02*
X61780076Y-66009673D01*
X61780076Y-66009673D02*
X61780076Y-65914435D01*
X61780076Y-65914435D02*
X61827695Y-65819197D01*
X61827695Y-65819197D02*
X61922933Y-65771578D01*
X61922933Y-65771578D02*
X62161028Y-65771578D01*
X62161028Y-65771578D02*
X62256266Y-65723959D01*
X62875314Y-66152531D02*
X62780076Y-66104912D01*
X62780076Y-66104912D02*
X62732457Y-66009673D01*
X62732457Y-66009673D02*
X62732457Y-65152531D01*
X63399124Y-66152531D02*
X63303886Y-66104912D01*
X63303886Y-66104912D02*
X63256267Y-66009673D01*
X63256267Y-66009673D02*
X63256267Y-65152531D01*
X64208648Y-66152531D02*
X64208648Y-65628721D01*
X64208648Y-65628721D02*
X64161029Y-65533483D01*
X64161029Y-65533483D02*
X64065791Y-65485864D01*
X64065791Y-65485864D02*
X63875315Y-65485864D01*
X63875315Y-65485864D02*
X63780077Y-65533483D01*
X64208648Y-66104912D02*
X64113410Y-66152531D01*
X64113410Y-66152531D02*
X63875315Y-66152531D01*
X63875315Y-66152531D02*
X63780077Y-66104912D01*
X63780077Y-66104912D02*
X63732458Y-66009673D01*
X63732458Y-66009673D02*
X63732458Y-65914435D01*
X63732458Y-65914435D02*
X63780077Y-65819197D01*
X63780077Y-65819197D02*
X63875315Y-65771578D01*
X63875315Y-65771578D02*
X64113410Y-65771578D01*
X64113410Y-65771578D02*
X64208648Y-65723959D01*
X64732458Y-66104912D02*
X64732458Y-66152531D01*
X64732458Y-66152531D02*
X64684839Y-66247769D01*
X64684839Y-66247769D02*
X64637220Y-66295388D01*
X65875315Y-66104912D02*
X66018172Y-66152531D01*
X66018172Y-66152531D02*
X66256267Y-66152531D01*
X66256267Y-66152531D02*
X66351505Y-66104912D01*
X66351505Y-66104912D02*
X66399124Y-66057292D01*
X66399124Y-66057292D02*
X66446743Y-65962054D01*
X66446743Y-65962054D02*
X66446743Y-65866816D01*
X66446743Y-65866816D02*
X66399124Y-65771578D01*
X66399124Y-65771578D02*
X66351505Y-65723959D01*
X66351505Y-65723959D02*
X66256267Y-65676340D01*
X66256267Y-65676340D02*
X66065791Y-65628721D01*
X66065791Y-65628721D02*
X65970553Y-65581102D01*
X65970553Y-65581102D02*
X65922934Y-65533483D01*
X65922934Y-65533483D02*
X65875315Y-65438245D01*
X65875315Y-65438245D02*
X65875315Y-65343007D01*
X65875315Y-65343007D02*
X65922934Y-65247769D01*
X65922934Y-65247769D02*
X65970553Y-65200150D01*
X65970553Y-65200150D02*
X66065791Y-65152531D01*
X66065791Y-65152531D02*
X66303886Y-65152531D01*
X66303886Y-65152531D02*
X66446743Y-65200150D01*
X66875315Y-66152531D02*
X66875315Y-65485864D01*
X66875315Y-65152531D02*
X66827696Y-65200150D01*
X66827696Y-65200150D02*
X66875315Y-65247769D01*
X66875315Y-65247769D02*
X66922934Y-65200150D01*
X66922934Y-65200150D02*
X66875315Y-65152531D01*
X66875315Y-65152531D02*
X66875315Y-65247769D01*
X67780076Y-66152531D02*
X67780076Y-65152531D01*
X67780076Y-66104912D02*
X67684838Y-66152531D01*
X67684838Y-66152531D02*
X67494362Y-66152531D01*
X67494362Y-66152531D02*
X67399124Y-66104912D01*
X67399124Y-66104912D02*
X67351505Y-66057292D01*
X67351505Y-66057292D02*
X67303886Y-65962054D01*
X67303886Y-65962054D02*
X67303886Y-65676340D01*
X67303886Y-65676340D02*
X67351505Y-65581102D01*
X67351505Y-65581102D02*
X67399124Y-65533483D01*
X67399124Y-65533483D02*
X67494362Y-65485864D01*
X67494362Y-65485864D02*
X67684838Y-65485864D01*
X67684838Y-65485864D02*
X67780076Y-65533483D01*
X69541981Y-65200150D02*
X69446743Y-65152531D01*
X69446743Y-65152531D02*
X69303886Y-65152531D01*
X69303886Y-65152531D02*
X69161029Y-65200150D01*
X69161029Y-65200150D02*
X69065791Y-65295388D01*
X69065791Y-65295388D02*
X69018172Y-65390626D01*
X69018172Y-65390626D02*
X68970553Y-65581102D01*
X68970553Y-65581102D02*
X68970553Y-65723959D01*
X68970553Y-65723959D02*
X69018172Y-65914435D01*
X69018172Y-65914435D02*
X69065791Y-66009673D01*
X69065791Y-66009673D02*
X69161029Y-66104912D01*
X69161029Y-66104912D02*
X69303886Y-66152531D01*
X69303886Y-66152531D02*
X69399124Y-66152531D01*
X69399124Y-66152531D02*
X69541981Y-66104912D01*
X69541981Y-66104912D02*
X69589600Y-66057292D01*
X69589600Y-66057292D02*
X69589600Y-65723959D01*
X69589600Y-65723959D02*
X69399124Y-65723959D01*
X70446743Y-65485864D02*
X70446743Y-66152531D01*
X70018172Y-65485864D02*
X70018172Y-66009673D01*
X70018172Y-66009673D02*
X70065791Y-66104912D01*
X70065791Y-66104912D02*
X70161029Y-66152531D01*
X70161029Y-66152531D02*
X70303886Y-66152531D01*
X70303886Y-66152531D02*
X70399124Y-66104912D01*
X70399124Y-66104912D02*
X70446743Y-66057292D01*
X70922934Y-66152531D02*
X70922934Y-65485864D01*
X70922934Y-65676340D02*
X70970553Y-65581102D01*
X70970553Y-65581102D02*
X71018172Y-65533483D01*
X71018172Y-65533483D02*
X71113410Y-65485864D01*
X71113410Y-65485864D02*
X71208648Y-65485864D01*
X71970553Y-65485864D02*
X71970553Y-66152531D01*
X71541982Y-65485864D02*
X71541982Y-66009673D01*
X71541982Y-66009673D02*
X71589601Y-66104912D01*
X71589601Y-66104912D02*
X71684839Y-66152531D01*
X71684839Y-66152531D02*
X71827696Y-66152531D01*
X71827696Y-66152531D02*
X71922934Y-66104912D01*
X71922934Y-66104912D02*
X71970553Y-66057292D01*
X72446744Y-66152531D02*
X72446744Y-65485864D01*
X72446744Y-65581102D02*
X72494363Y-65533483D01*
X72494363Y-65533483D02*
X72589601Y-65485864D01*
X72589601Y-65485864D02*
X72732458Y-65485864D01*
X72732458Y-65485864D02*
X72827696Y-65533483D01*
X72827696Y-65533483D02*
X72875315Y-65628721D01*
X72875315Y-65628721D02*
X72875315Y-66152531D01*
X72875315Y-65628721D02*
X72922934Y-65533483D01*
X72922934Y-65533483D02*
X73018172Y-65485864D01*
X73018172Y-65485864D02*
X73161029Y-65485864D01*
X73161029Y-65485864D02*
X73256268Y-65533483D01*
X73256268Y-65533483D02*
X73303887Y-65628721D01*
X73303887Y-65628721D02*
X73303887Y-66152531D01*
X74208648Y-65485864D02*
X74208648Y-66152531D01*
X73780077Y-65485864D02*
X73780077Y-66009673D01*
X73780077Y-66009673D02*
X73827696Y-66104912D01*
X73827696Y-66104912D02*
X73922934Y-66152531D01*
X73922934Y-66152531D02*
X74065791Y-66152531D01*
X74065791Y-66152531D02*
X74161029Y-66104912D01*
X74161029Y-66104912D02*
X74208648Y-66057292D01*
X74684839Y-66152531D02*
X74684839Y-65485864D01*
X74684839Y-65676340D02*
X74732458Y-65581102D01*
X74732458Y-65581102D02*
X74780077Y-65533483D01*
X74780077Y-65533483D02*
X74875315Y-65485864D01*
X74875315Y-65485864D02*
X74970553Y-65485864D01*
X75161030Y-65485864D02*
X75541982Y-65485864D01*
X75303887Y-65152531D02*
X75303887Y-66009673D01*
X75303887Y-66009673D02*
X75351506Y-66104912D01*
X75351506Y-66104912D02*
X75446744Y-66152531D01*
X75446744Y-66152531D02*
X75541982Y-66152531D01*
X75875316Y-66152531D02*
X75875316Y-65152531D01*
X76303887Y-66152531D02*
X76303887Y-65628721D01*
X76303887Y-65628721D02*
X76256268Y-65533483D01*
X76256268Y-65533483D02*
X76161030Y-65485864D01*
X76161030Y-65485864D02*
X76018173Y-65485864D01*
X76018173Y-65485864D02*
X75922935Y-65533483D01*
X75922935Y-65533483D02*
X75875316Y-65581102D01*
X76780078Y-66152531D02*
X76780078Y-65485864D01*
X76780078Y-65152531D02*
X76732459Y-65200150D01*
X76732459Y-65200150D02*
X76780078Y-65247769D01*
X76780078Y-65247769D02*
X76827697Y-65200150D01*
X76827697Y-65200150D02*
X76780078Y-65152531D01*
X76780078Y-65152531D02*
X76780078Y-65247769D01*
X77303887Y-66104912D02*
X77303887Y-66152531D01*
X77303887Y-66152531D02*
X77256268Y-66247769D01*
X77256268Y-66247769D02*
X77208649Y-66295388D01*
X78780077Y-65152531D02*
X78780077Y-65866816D01*
X78780077Y-65866816D02*
X78732458Y-66009673D01*
X78732458Y-66009673D02*
X78637220Y-66104912D01*
X78637220Y-66104912D02*
X78494363Y-66152531D01*
X78494363Y-66152531D02*
X78399125Y-66152531D01*
X79399125Y-66152531D02*
X79303887Y-66104912D01*
X79303887Y-66104912D02*
X79256268Y-66057292D01*
X79256268Y-66057292D02*
X79208649Y-65962054D01*
X79208649Y-65962054D02*
X79208649Y-65676340D01*
X79208649Y-65676340D02*
X79256268Y-65581102D01*
X79256268Y-65581102D02*
X79303887Y-65533483D01*
X79303887Y-65533483D02*
X79399125Y-65485864D01*
X79399125Y-65485864D02*
X79541982Y-65485864D01*
X79541982Y-65485864D02*
X79637220Y-65533483D01*
X79637220Y-65533483D02*
X79684839Y-65581102D01*
X79684839Y-65581102D02*
X79732458Y-65676340D01*
X79732458Y-65676340D02*
X79732458Y-65962054D01*
X79732458Y-65962054D02*
X79684839Y-66057292D01*
X79684839Y-66057292D02*
X79637220Y-66104912D01*
X79637220Y-66104912D02*
X79541982Y-66152531D01*
X79541982Y-66152531D02*
X79399125Y-66152531D01*
X80161030Y-66152531D02*
X80161030Y-65152531D01*
X80589601Y-66152531D02*
X80589601Y-65628721D01*
X80589601Y-65628721D02*
X80541982Y-65533483D01*
X80541982Y-65533483D02*
X80446744Y-65485864D01*
X80446744Y-65485864D02*
X80303887Y-65485864D01*
X80303887Y-65485864D02*
X80208649Y-65533483D01*
X80208649Y-65533483D02*
X80161030Y-65581102D01*
X81065792Y-65485864D02*
X81065792Y-66152531D01*
X81065792Y-65581102D02*
X81113411Y-65533483D01*
X81113411Y-65533483D02*
X81208649Y-65485864D01*
X81208649Y-65485864D02*
X81351506Y-65485864D01*
X81351506Y-65485864D02*
X81446744Y-65533483D01*
X81446744Y-65533483D02*
X81494363Y-65628721D01*
X81494363Y-65628721D02*
X81494363Y-66152531D01*
X83208649Y-66152531D02*
X82732459Y-66152531D01*
X82732459Y-66152531D02*
X82732459Y-65152531D01*
X83970554Y-65485864D02*
X83970554Y-66152531D01*
X83541983Y-65485864D02*
X83541983Y-66009673D01*
X83541983Y-66009673D02*
X83589602Y-66104912D01*
X83589602Y-66104912D02*
X83684840Y-66152531D01*
X83684840Y-66152531D02*
X83827697Y-66152531D01*
X83827697Y-66152531D02*
X83922935Y-66104912D01*
X83922935Y-66104912D02*
X83970554Y-66057292D01*
X84875316Y-66152531D02*
X84875316Y-65152531D01*
X84875316Y-66104912D02*
X84780078Y-66152531D01*
X84780078Y-66152531D02*
X84589602Y-66152531D01*
X84589602Y-66152531D02*
X84494364Y-66104912D01*
X84494364Y-66104912D02*
X84446745Y-66057292D01*
X84446745Y-66057292D02*
X84399126Y-65962054D01*
X84399126Y-65962054D02*
X84399126Y-65676340D01*
X84399126Y-65676340D02*
X84446745Y-65581102D01*
X84446745Y-65581102D02*
X84494364Y-65533483D01*
X84494364Y-65533483D02*
X84589602Y-65485864D01*
X84589602Y-65485864D02*
X84780078Y-65485864D01*
X84780078Y-65485864D02*
X84875316Y-65533483D01*
X85732459Y-66104912D02*
X85637221Y-66152531D01*
X85637221Y-66152531D02*
X85446745Y-66152531D01*
X85446745Y-66152531D02*
X85351507Y-66104912D01*
X85351507Y-66104912D02*
X85303888Y-66009673D01*
X85303888Y-66009673D02*
X85303888Y-65628721D01*
X85303888Y-65628721D02*
X85351507Y-65533483D01*
X85351507Y-65533483D02*
X85446745Y-65485864D01*
X85446745Y-65485864D02*
X85637221Y-65485864D01*
X85637221Y-65485864D02*
X85732459Y-65533483D01*
X85732459Y-65533483D02*
X85780078Y-65628721D01*
X85780078Y-65628721D02*
X85780078Y-65723959D01*
X85780078Y-65723959D02*
X85303888Y-65819197D01*
X86208650Y-66152531D02*
X86208650Y-65152531D01*
X86303888Y-65771578D02*
X86589602Y-66152531D01*
X86589602Y-65485864D02*
X86208650Y-65866816D01*
X87399126Y-66104912D02*
X87303888Y-66152531D01*
X87303888Y-66152531D02*
X87113412Y-66152531D01*
X87113412Y-66152531D02*
X87018174Y-66104912D01*
X87018174Y-66104912D02*
X86970555Y-66009673D01*
X86970555Y-66009673D02*
X86970555Y-65628721D01*
X86970555Y-65628721D02*
X87018174Y-65533483D01*
X87018174Y-65533483D02*
X87113412Y-65485864D01*
X87113412Y-65485864D02*
X87303888Y-65485864D01*
X87303888Y-65485864D02*
X87399126Y-65533483D01*
X87399126Y-65533483D02*
X87446745Y-65628721D01*
X87446745Y-65628721D02*
X87446745Y-65723959D01*
X87446745Y-65723959D02*
X86970555Y-65819197D01*
X54256265Y-67476760D02*
X54732455Y-67476760D01*
X54161027Y-67762475D02*
X54494360Y-66762475D01*
X54494360Y-66762475D02*
X54827693Y-67762475D01*
X55589598Y-67095808D02*
X55589598Y-67762475D01*
X55161027Y-67095808D02*
X55161027Y-67619617D01*
X55161027Y-67619617D02*
X55208646Y-67714856D01*
X55208646Y-67714856D02*
X55303884Y-67762475D01*
X55303884Y-67762475D02*
X55446741Y-67762475D01*
X55446741Y-67762475D02*
X55541979Y-67714856D01*
X55541979Y-67714856D02*
X55589598Y-67667236D01*
X56494360Y-67762475D02*
X56494360Y-66762475D01*
X56494360Y-67714856D02*
X56399122Y-67762475D01*
X56399122Y-67762475D02*
X56208646Y-67762475D01*
X56208646Y-67762475D02*
X56113408Y-67714856D01*
X56113408Y-67714856D02*
X56065789Y-67667236D01*
X56065789Y-67667236D02*
X56018170Y-67571998D01*
X56018170Y-67571998D02*
X56018170Y-67286284D01*
X56018170Y-67286284D02*
X56065789Y-67191046D01*
X56065789Y-67191046D02*
X56113408Y-67143427D01*
X56113408Y-67143427D02*
X56208646Y-67095808D01*
X56208646Y-67095808D02*
X56399122Y-67095808D01*
X56399122Y-67095808D02*
X56494360Y-67143427D01*
X56970551Y-67762475D02*
X56970551Y-67095808D01*
X56970551Y-66762475D02*
X56922932Y-66810094D01*
X56922932Y-66810094D02*
X56970551Y-66857713D01*
X56970551Y-66857713D02*
X57018170Y-66810094D01*
X57018170Y-66810094D02*
X56970551Y-66762475D01*
X56970551Y-66762475D02*
X56970551Y-66857713D01*
X57589598Y-67762475D02*
X57494360Y-67714856D01*
X57494360Y-67714856D02*
X57446741Y-67667236D01*
X57446741Y-67667236D02*
X57399122Y-67571998D01*
X57399122Y-67571998D02*
X57399122Y-67286284D01*
X57399122Y-67286284D02*
X57446741Y-67191046D01*
X57446741Y-67191046D02*
X57494360Y-67143427D01*
X57494360Y-67143427D02*
X57589598Y-67095808D01*
X57589598Y-67095808D02*
X57732455Y-67095808D01*
X57732455Y-67095808D02*
X57827693Y-67143427D01*
X57827693Y-67143427D02*
X57875312Y-67191046D01*
X57875312Y-67191046D02*
X57922931Y-67286284D01*
X57922931Y-67286284D02*
X57922931Y-67571998D01*
X57922931Y-67571998D02*
X57875312Y-67667236D01*
X57875312Y-67667236D02*
X57827693Y-67714856D01*
X57827693Y-67714856D02*
X57732455Y-67762475D01*
X57732455Y-67762475D02*
X57589598Y-67762475D01*
X59113408Y-67762475D02*
X59113408Y-66762475D01*
X59113408Y-66762475D02*
X59494360Y-66762475D01*
X59494360Y-66762475D02*
X59589598Y-66810094D01*
X59589598Y-66810094D02*
X59637217Y-66857713D01*
X59637217Y-66857713D02*
X59684836Y-66952951D01*
X59684836Y-66952951D02*
X59684836Y-67095808D01*
X59684836Y-67095808D02*
X59637217Y-67191046D01*
X59637217Y-67191046D02*
X59589598Y-67238665D01*
X59589598Y-67238665D02*
X59494360Y-67286284D01*
X59494360Y-67286284D02*
X59113408Y-67286284D01*
X60113408Y-67762475D02*
X60113408Y-67095808D01*
X60113408Y-67286284D02*
X60161027Y-67191046D01*
X60161027Y-67191046D02*
X60208646Y-67143427D01*
X60208646Y-67143427D02*
X60303884Y-67095808D01*
X60303884Y-67095808D02*
X60399122Y-67095808D01*
X60875313Y-67762475D02*
X60780075Y-67714856D01*
X60780075Y-67714856D02*
X60732456Y-67667236D01*
X60732456Y-67667236D02*
X60684837Y-67571998D01*
X60684837Y-67571998D02*
X60684837Y-67286284D01*
X60684837Y-67286284D02*
X60732456Y-67191046D01*
X60732456Y-67191046D02*
X60780075Y-67143427D01*
X60780075Y-67143427D02*
X60875313Y-67095808D01*
X60875313Y-67095808D02*
X61018170Y-67095808D01*
X61018170Y-67095808D02*
X61113408Y-67143427D01*
X61113408Y-67143427D02*
X61161027Y-67191046D01*
X61161027Y-67191046D02*
X61208646Y-67286284D01*
X61208646Y-67286284D02*
X61208646Y-67571998D01*
X61208646Y-67571998D02*
X61161027Y-67667236D01*
X61161027Y-67667236D02*
X61113408Y-67714856D01*
X61113408Y-67714856D02*
X61018170Y-67762475D01*
X61018170Y-67762475D02*
X60875313Y-67762475D01*
X62065789Y-67714856D02*
X61970551Y-67762475D01*
X61970551Y-67762475D02*
X61780075Y-67762475D01*
X61780075Y-67762475D02*
X61684837Y-67714856D01*
X61684837Y-67714856D02*
X61637218Y-67667236D01*
X61637218Y-67667236D02*
X61589599Y-67571998D01*
X61589599Y-67571998D02*
X61589599Y-67286284D01*
X61589599Y-67286284D02*
X61637218Y-67191046D01*
X61637218Y-67191046D02*
X61684837Y-67143427D01*
X61684837Y-67143427D02*
X61780075Y-67095808D01*
X61780075Y-67095808D02*
X61970551Y-67095808D01*
X61970551Y-67095808D02*
X62065789Y-67143427D01*
X62875313Y-67714856D02*
X62780075Y-67762475D01*
X62780075Y-67762475D02*
X62589599Y-67762475D01*
X62589599Y-67762475D02*
X62494361Y-67714856D01*
X62494361Y-67714856D02*
X62446742Y-67619617D01*
X62446742Y-67619617D02*
X62446742Y-67238665D01*
X62446742Y-67238665D02*
X62494361Y-67143427D01*
X62494361Y-67143427D02*
X62589599Y-67095808D01*
X62589599Y-67095808D02*
X62780075Y-67095808D01*
X62780075Y-67095808D02*
X62875313Y-67143427D01*
X62875313Y-67143427D02*
X62922932Y-67238665D01*
X62922932Y-67238665D02*
X62922932Y-67333903D01*
X62922932Y-67333903D02*
X62446742Y-67429141D01*
X63303885Y-67714856D02*
X63399123Y-67762475D01*
X63399123Y-67762475D02*
X63589599Y-67762475D01*
X63589599Y-67762475D02*
X63684837Y-67714856D01*
X63684837Y-67714856D02*
X63732456Y-67619617D01*
X63732456Y-67619617D02*
X63732456Y-67571998D01*
X63732456Y-67571998D02*
X63684837Y-67476760D01*
X63684837Y-67476760D02*
X63589599Y-67429141D01*
X63589599Y-67429141D02*
X63446742Y-67429141D01*
X63446742Y-67429141D02*
X63351504Y-67381522D01*
X63351504Y-67381522D02*
X63303885Y-67286284D01*
X63303885Y-67286284D02*
X63303885Y-67238665D01*
X63303885Y-67238665D02*
X63351504Y-67143427D01*
X63351504Y-67143427D02*
X63446742Y-67095808D01*
X63446742Y-67095808D02*
X63589599Y-67095808D01*
X63589599Y-67095808D02*
X63684837Y-67143427D01*
X64113409Y-67714856D02*
X64208647Y-67762475D01*
X64208647Y-67762475D02*
X64399123Y-67762475D01*
X64399123Y-67762475D02*
X64494361Y-67714856D01*
X64494361Y-67714856D02*
X64541980Y-67619617D01*
X64541980Y-67619617D02*
X64541980Y-67571998D01*
X64541980Y-67571998D02*
X64494361Y-67476760D01*
X64494361Y-67476760D02*
X64399123Y-67429141D01*
X64399123Y-67429141D02*
X64256266Y-67429141D01*
X64256266Y-67429141D02*
X64161028Y-67381522D01*
X64161028Y-67381522D02*
X64113409Y-67286284D01*
X64113409Y-67286284D02*
X64113409Y-67238665D01*
X64113409Y-67238665D02*
X64161028Y-67143427D01*
X64161028Y-67143427D02*
X64256266Y-67095808D01*
X64256266Y-67095808D02*
X64399123Y-67095808D01*
X64399123Y-67095808D02*
X64494361Y-67143427D01*
X64970552Y-67762475D02*
X64970552Y-67095808D01*
X64970552Y-66762475D02*
X64922933Y-66810094D01*
X64922933Y-66810094D02*
X64970552Y-66857713D01*
X64970552Y-66857713D02*
X65018171Y-66810094D01*
X65018171Y-66810094D02*
X64970552Y-66762475D01*
X64970552Y-66762475D02*
X64970552Y-66857713D01*
X65446742Y-67095808D02*
X65446742Y-67762475D01*
X65446742Y-67191046D02*
X65494361Y-67143427D01*
X65494361Y-67143427D02*
X65589599Y-67095808D01*
X65589599Y-67095808D02*
X65732456Y-67095808D01*
X65732456Y-67095808D02*
X65827694Y-67143427D01*
X65827694Y-67143427D02*
X65875313Y-67238665D01*
X65875313Y-67238665D02*
X65875313Y-67762475D01*
X66780075Y-67095808D02*
X66780075Y-67905332D01*
X66780075Y-67905332D02*
X66732456Y-68000570D01*
X66732456Y-68000570D02*
X66684837Y-68048189D01*
X66684837Y-68048189D02*
X66589599Y-68095808D01*
X66589599Y-68095808D02*
X66446742Y-68095808D01*
X66446742Y-68095808D02*
X66351504Y-68048189D01*
X66780075Y-67714856D02*
X66684837Y-67762475D01*
X66684837Y-67762475D02*
X66494361Y-67762475D01*
X66494361Y-67762475D02*
X66399123Y-67714856D01*
X66399123Y-67714856D02*
X66351504Y-67667236D01*
X66351504Y-67667236D02*
X66303885Y-67571998D01*
X66303885Y-67571998D02*
X66303885Y-67286284D01*
X66303885Y-67286284D02*
X66351504Y-67191046D01*
X66351504Y-67191046D02*
X66399123Y-67143427D01*
X66399123Y-67143427D02*
X66494361Y-67095808D01*
X66494361Y-67095808D02*
X66684837Y-67095808D01*
X66684837Y-67095808D02*
X66780075Y-67143427D01*
X68351504Y-67238665D02*
X68494361Y-67286284D01*
X68494361Y-67286284D02*
X68541980Y-67333903D01*
X68541980Y-67333903D02*
X68589599Y-67429141D01*
X68589599Y-67429141D02*
X68589599Y-67571998D01*
X68589599Y-67571998D02*
X68541980Y-67667236D01*
X68541980Y-67667236D02*
X68494361Y-67714856D01*
X68494361Y-67714856D02*
X68399123Y-67762475D01*
X68399123Y-67762475D02*
X68018171Y-67762475D01*
X68018171Y-67762475D02*
X68018171Y-66762475D01*
X68018171Y-66762475D02*
X68351504Y-66762475D01*
X68351504Y-66762475D02*
X68446742Y-66810094D01*
X68446742Y-66810094D02*
X68494361Y-66857713D01*
X68494361Y-66857713D02*
X68541980Y-66952951D01*
X68541980Y-66952951D02*
X68541980Y-67048189D01*
X68541980Y-67048189D02*
X68494361Y-67143427D01*
X68494361Y-67143427D02*
X68446742Y-67191046D01*
X68446742Y-67191046D02*
X68351504Y-67238665D01*
X68351504Y-67238665D02*
X68018171Y-67238665D01*
X69161028Y-67762475D02*
X69065790Y-67714856D01*
X69065790Y-67714856D02*
X69018171Y-67667236D01*
X69018171Y-67667236D02*
X68970552Y-67571998D01*
X68970552Y-67571998D02*
X68970552Y-67286284D01*
X68970552Y-67286284D02*
X69018171Y-67191046D01*
X69018171Y-67191046D02*
X69065790Y-67143427D01*
X69065790Y-67143427D02*
X69161028Y-67095808D01*
X69161028Y-67095808D02*
X69303885Y-67095808D01*
X69303885Y-67095808D02*
X69399123Y-67143427D01*
X69399123Y-67143427D02*
X69446742Y-67191046D01*
X69446742Y-67191046D02*
X69494361Y-67286284D01*
X69494361Y-67286284D02*
X69494361Y-67571998D01*
X69494361Y-67571998D02*
X69446742Y-67667236D01*
X69446742Y-67667236D02*
X69399123Y-67714856D01*
X69399123Y-67714856D02*
X69303885Y-67762475D01*
X69303885Y-67762475D02*
X69161028Y-67762475D01*
X70351504Y-67762475D02*
X70351504Y-67238665D01*
X70351504Y-67238665D02*
X70303885Y-67143427D01*
X70303885Y-67143427D02*
X70208647Y-67095808D01*
X70208647Y-67095808D02*
X70018171Y-67095808D01*
X70018171Y-67095808D02*
X69922933Y-67143427D01*
X70351504Y-67714856D02*
X70256266Y-67762475D01*
X70256266Y-67762475D02*
X70018171Y-67762475D01*
X70018171Y-67762475D02*
X69922933Y-67714856D01*
X69922933Y-67714856D02*
X69875314Y-67619617D01*
X69875314Y-67619617D02*
X69875314Y-67524379D01*
X69875314Y-67524379D02*
X69922933Y-67429141D01*
X69922933Y-67429141D02*
X70018171Y-67381522D01*
X70018171Y-67381522D02*
X70256266Y-67381522D01*
X70256266Y-67381522D02*
X70351504Y-67333903D01*
X70827695Y-67762475D02*
X70827695Y-67095808D01*
X70827695Y-67286284D02*
X70875314Y-67191046D01*
X70875314Y-67191046D02*
X70922933Y-67143427D01*
X70922933Y-67143427D02*
X71018171Y-67095808D01*
X71018171Y-67095808D02*
X71113409Y-67095808D01*
X71875314Y-67762475D02*
X71875314Y-66762475D01*
X71875314Y-67714856D02*
X71780076Y-67762475D01*
X71780076Y-67762475D02*
X71589600Y-67762475D01*
X71589600Y-67762475D02*
X71494362Y-67714856D01*
X71494362Y-67714856D02*
X71446743Y-67667236D01*
X71446743Y-67667236D02*
X71399124Y-67571998D01*
X71399124Y-67571998D02*
X71399124Y-67286284D01*
X71399124Y-67286284D02*
X71446743Y-67191046D01*
X71446743Y-67191046D02*
X71494362Y-67143427D01*
X71494362Y-67143427D02*
X71589600Y-67095808D01*
X71589600Y-67095808D02*
X71780076Y-67095808D01*
X71780076Y-67095808D02*
X71875314Y-67143427D01*
X72399124Y-67714856D02*
X72399124Y-67762475D01*
X72399124Y-67762475D02*
X72351505Y-67857713D01*
X72351505Y-67857713D02*
X72303886Y-67905332D01*
X74161028Y-67762475D02*
X73827695Y-67286284D01*
X73589600Y-67762475D02*
X73589600Y-66762475D01*
X73589600Y-66762475D02*
X73970552Y-66762475D01*
X73970552Y-66762475D02*
X74065790Y-66810094D01*
X74065790Y-66810094D02*
X74113409Y-66857713D01*
X74113409Y-66857713D02*
X74161028Y-66952951D01*
X74161028Y-66952951D02*
X74161028Y-67095808D01*
X74161028Y-67095808D02*
X74113409Y-67191046D01*
X74113409Y-67191046D02*
X74065790Y-67238665D01*
X74065790Y-67238665D02*
X73970552Y-67286284D01*
X73970552Y-67286284D02*
X73589600Y-67286284D01*
X74970552Y-67714856D02*
X74875314Y-67762475D01*
X74875314Y-67762475D02*
X74684838Y-67762475D01*
X74684838Y-67762475D02*
X74589600Y-67714856D01*
X74589600Y-67714856D02*
X74541981Y-67619617D01*
X74541981Y-67619617D02*
X74541981Y-67238665D01*
X74541981Y-67238665D02*
X74589600Y-67143427D01*
X74589600Y-67143427D02*
X74684838Y-67095808D01*
X74684838Y-67095808D02*
X74875314Y-67095808D01*
X74875314Y-67095808D02*
X74970552Y-67143427D01*
X74970552Y-67143427D02*
X75018171Y-67238665D01*
X75018171Y-67238665D02*
X75018171Y-67333903D01*
X75018171Y-67333903D02*
X74541981Y-67429141D01*
X75351505Y-67095808D02*
X75589600Y-67762475D01*
X75589600Y-67762475D02*
X75827695Y-67095808D01*
X77494362Y-67762475D02*
X76922934Y-67762475D01*
X77208648Y-67762475D02*
X77208648Y-66762475D01*
X77208648Y-66762475D02*
X77113410Y-66905332D01*
X77113410Y-66905332D02*
X77018172Y-67000570D01*
X77018172Y-67000570D02*
X76922934Y-67048189D01*
X54494360Y-68372419D02*
X54589598Y-68372419D01*
X54589598Y-68372419D02*
X54684836Y-68420038D01*
X54684836Y-68420038D02*
X54732455Y-68467657D01*
X54732455Y-68467657D02*
X54780074Y-68562895D01*
X54780074Y-68562895D02*
X54827693Y-68753371D01*
X54827693Y-68753371D02*
X54827693Y-68991466D01*
X54827693Y-68991466D02*
X54780074Y-69181942D01*
X54780074Y-69181942D02*
X54732455Y-69277180D01*
X54732455Y-69277180D02*
X54684836Y-69324800D01*
X54684836Y-69324800D02*
X54589598Y-69372419D01*
X54589598Y-69372419D02*
X54494360Y-69372419D01*
X54494360Y-69372419D02*
X54399122Y-69324800D01*
X54399122Y-69324800D02*
X54351503Y-69277180D01*
X54351503Y-69277180D02*
X54303884Y-69181942D01*
X54303884Y-69181942D02*
X54256265Y-68991466D01*
X54256265Y-68991466D02*
X54256265Y-68753371D01*
X54256265Y-68753371D02*
X54303884Y-68562895D01*
X54303884Y-68562895D02*
X54351503Y-68467657D01*
X54351503Y-68467657D02*
X54399122Y-68420038D01*
X54399122Y-68420038D02*
X54494360Y-68372419D01*
X55684836Y-68705752D02*
X55684836Y-69372419D01*
X55446741Y-68324800D02*
X55208646Y-69039085D01*
X55208646Y-69039085D02*
X55827693Y-69039085D01*
X56922931Y-68324800D02*
X56065789Y-69610514D01*
X57446741Y-68372419D02*
X57541979Y-68372419D01*
X57541979Y-68372419D02*
X57637217Y-68420038D01*
X57637217Y-68420038D02*
X57684836Y-68467657D01*
X57684836Y-68467657D02*
X57732455Y-68562895D01*
X57732455Y-68562895D02*
X57780074Y-68753371D01*
X57780074Y-68753371D02*
X57780074Y-68991466D01*
X57780074Y-68991466D02*
X57732455Y-69181942D01*
X57732455Y-69181942D02*
X57684836Y-69277180D01*
X57684836Y-69277180D02*
X57637217Y-69324800D01*
X57637217Y-69324800D02*
X57541979Y-69372419D01*
X57541979Y-69372419D02*
X57446741Y-69372419D01*
X57446741Y-69372419D02*
X57351503Y-69324800D01*
X57351503Y-69324800D02*
X57303884Y-69277180D01*
X57303884Y-69277180D02*
X57256265Y-69181942D01*
X57256265Y-69181942D02*
X57208646Y-68991466D01*
X57208646Y-68991466D02*
X57208646Y-68753371D01*
X57208646Y-68753371D02*
X57256265Y-68562895D01*
X57256265Y-68562895D02*
X57303884Y-68467657D01*
X57303884Y-68467657D02*
X57351503Y-68420038D01*
X57351503Y-68420038D02*
X57446741Y-68372419D01*
X58684836Y-68372419D02*
X58208646Y-68372419D01*
X58208646Y-68372419D02*
X58161027Y-68848609D01*
X58161027Y-68848609D02*
X58208646Y-68800990D01*
X58208646Y-68800990D02*
X58303884Y-68753371D01*
X58303884Y-68753371D02*
X58541979Y-68753371D01*
X58541979Y-68753371D02*
X58637217Y-68800990D01*
X58637217Y-68800990D02*
X58684836Y-68848609D01*
X58684836Y-68848609D02*
X58732455Y-68943847D01*
X58732455Y-68943847D02*
X58732455Y-69181942D01*
X58732455Y-69181942D02*
X58684836Y-69277180D01*
X58684836Y-69277180D02*
X58637217Y-69324800D01*
X58637217Y-69324800D02*
X58541979Y-69372419D01*
X58541979Y-69372419D02*
X58303884Y-69372419D01*
X58303884Y-69372419D02*
X58208646Y-69324800D01*
X58208646Y-69324800D02*
X58161027Y-69277180D01*
X59875312Y-68324800D02*
X59018170Y-69610514D01*
X60161027Y-68467657D02*
X60208646Y-68420038D01*
X60208646Y-68420038D02*
X60303884Y-68372419D01*
X60303884Y-68372419D02*
X60541979Y-68372419D01*
X60541979Y-68372419D02*
X60637217Y-68420038D01*
X60637217Y-68420038D02*
X60684836Y-68467657D01*
X60684836Y-68467657D02*
X60732455Y-68562895D01*
X60732455Y-68562895D02*
X60732455Y-68658133D01*
X60732455Y-68658133D02*
X60684836Y-68800990D01*
X60684836Y-68800990D02*
X60113408Y-69372419D01*
X60113408Y-69372419D02*
X60732455Y-69372419D01*
X61589598Y-68372419D02*
X61399122Y-68372419D01*
X61399122Y-68372419D02*
X61303884Y-68420038D01*
X61303884Y-68420038D02*
X61256265Y-68467657D01*
X61256265Y-68467657D02*
X61161027Y-68610514D01*
X61161027Y-68610514D02*
X61113408Y-68800990D01*
X61113408Y-68800990D02*
X61113408Y-69181942D01*
X61113408Y-69181942D02*
X61161027Y-69277180D01*
X61161027Y-69277180D02*
X61208646Y-69324800D01*
X61208646Y-69324800D02*
X61303884Y-69372419D01*
X61303884Y-69372419D02*
X61494360Y-69372419D01*
X61494360Y-69372419D02*
X61589598Y-69324800D01*
X61589598Y-69324800D02*
X61637217Y-69277180D01*
X61637217Y-69277180D02*
X61684836Y-69181942D01*
X61684836Y-69181942D02*
X61684836Y-68943847D01*
X61684836Y-68943847D02*
X61637217Y-68848609D01*
X61637217Y-68848609D02*
X61589598Y-68800990D01*
X61589598Y-68800990D02*
X61494360Y-68753371D01*
X61494360Y-68753371D02*
X61303884Y-68753371D01*
X61303884Y-68753371D02*
X61208646Y-68800990D01*
X61208646Y-68800990D02*
X61161027Y-68848609D01*
X61161027Y-68848609D02*
X61113408Y-68943847D01*
D11*
X95311845Y-113504819D02*
X95311845Y-114314342D01*
X95311845Y-114314342D02*
X95359464Y-114409580D01*
X95359464Y-114409580D02*
X95407083Y-114457200D01*
X95407083Y-114457200D02*
X95502321Y-114504819D01*
X95502321Y-114504819D02*
X95692797Y-114504819D01*
X95692797Y-114504819D02*
X95788035Y-114457200D01*
X95788035Y-114457200D02*
X95835654Y-114409580D01*
X95835654Y-114409580D02*
X95883273Y-114314342D01*
X95883273Y-114314342D02*
X95883273Y-113504819D01*
X96788035Y-113504819D02*
X96597559Y-113504819D01*
X96597559Y-113504819D02*
X96502321Y-113552438D01*
X96502321Y-113552438D02*
X96454702Y-113600057D01*
X96454702Y-113600057D02*
X96359464Y-113742914D01*
X96359464Y-113742914D02*
X96311845Y-113933390D01*
X96311845Y-113933390D02*
X96311845Y-114314342D01*
X96311845Y-114314342D02*
X96359464Y-114409580D01*
X96359464Y-114409580D02*
X96407083Y-114457200D01*
X96407083Y-114457200D02*
X96502321Y-114504819D01*
X96502321Y-114504819D02*
X96692797Y-114504819D01*
X96692797Y-114504819D02*
X96788035Y-114457200D01*
X96788035Y-114457200D02*
X96835654Y-114409580D01*
X96835654Y-114409580D02*
X96883273Y-114314342D01*
X96883273Y-114314342D02*
X96883273Y-114076247D01*
X96883273Y-114076247D02*
X96835654Y-113981009D01*
X96835654Y-113981009D02*
X96788035Y-113933390D01*
X96788035Y-113933390D02*
X96692797Y-113885771D01*
X96692797Y-113885771D02*
X96502321Y-113885771D01*
X96502321Y-113885771D02*
X96407083Y-113933390D01*
X96407083Y-113933390D02*
X96359464Y-113981009D01*
X96359464Y-113981009D02*
X96311845Y-114076247D01*
X121517200Y-88833332D02*
X121564819Y-88690475D01*
X121564819Y-88690475D02*
X121564819Y-88452380D01*
X121564819Y-88452380D02*
X121517200Y-88357142D01*
X121517200Y-88357142D02*
X121469580Y-88309523D01*
X121469580Y-88309523D02*
X121374342Y-88261904D01*
X121374342Y-88261904D02*
X121279104Y-88261904D01*
X121279104Y-88261904D02*
X121183866Y-88309523D01*
X121183866Y-88309523D02*
X121136247Y-88357142D01*
X121136247Y-88357142D02*
X121088628Y-88452380D01*
X121088628Y-88452380D02*
X121041009Y-88642856D01*
X121041009Y-88642856D02*
X120993390Y-88738094D01*
X120993390Y-88738094D02*
X120945771Y-88785713D01*
X120945771Y-88785713D02*
X120850533Y-88833332D01*
X120850533Y-88833332D02*
X120755295Y-88833332D01*
X120755295Y-88833332D02*
X120660057Y-88785713D01*
X120660057Y-88785713D02*
X120612438Y-88738094D01*
X120612438Y-88738094D02*
X120564819Y-88642856D01*
X120564819Y-88642856D02*
X120564819Y-88404761D01*
X120564819Y-88404761D02*
X120612438Y-88261904D01*
X120564819Y-87928570D02*
X121564819Y-87690475D01*
X121564819Y-87690475D02*
X120850533Y-87499999D01*
X120850533Y-87499999D02*
X121564819Y-87309523D01*
X121564819Y-87309523D02*
X120564819Y-87071428D01*
X121564819Y-86166666D02*
X121564819Y-86738094D01*
X121564819Y-86452380D02*
X120564819Y-86452380D01*
X120564819Y-86452380D02*
X120707676Y-86547618D01*
X120707676Y-86547618D02*
X120802914Y-86642856D01*
X120802914Y-86642856D02*
X120850533Y-86738094D01*
X118374819Y-123833333D02*
X119089104Y-123833333D01*
X119089104Y-123833333D02*
X119231961Y-123880952D01*
X119231961Y-123880952D02*
X119327200Y-123976190D01*
X119327200Y-123976190D02*
X119374819Y-124119047D01*
X119374819Y-124119047D02*
X119374819Y-124214285D01*
X118374819Y-122928571D02*
X118374819Y-123119047D01*
X118374819Y-123119047D02*
X118422438Y-123214285D01*
X118422438Y-123214285D02*
X118470057Y-123261904D01*
X118470057Y-123261904D02*
X118612914Y-123357142D01*
X118612914Y-123357142D02*
X118803390Y-123404761D01*
X118803390Y-123404761D02*
X119184342Y-123404761D01*
X119184342Y-123404761D02*
X119279580Y-123357142D01*
X119279580Y-123357142D02*
X119327200Y-123309523D01*
X119327200Y-123309523D02*
X119374819Y-123214285D01*
X119374819Y-123214285D02*
X119374819Y-123023809D01*
X119374819Y-123023809D02*
X119327200Y-122928571D01*
X119327200Y-122928571D02*
X119279580Y-122880952D01*
X119279580Y-122880952D02*
X119184342Y-122833333D01*
X119184342Y-122833333D02*
X118946247Y-122833333D01*
X118946247Y-122833333D02*
X118851009Y-122880952D01*
X118851009Y-122880952D02*
X118803390Y-122928571D01*
X118803390Y-122928571D02*
X118755771Y-123023809D01*
X118755771Y-123023809D02*
X118755771Y-123214285D01*
X118755771Y-123214285D02*
X118803390Y-123309523D01*
X118803390Y-123309523D02*
X118851009Y-123357142D01*
X118851009Y-123357142D02*
X118946247Y-123404761D01*
X110429580Y-92867857D02*
X110477200Y-92915476D01*
X110477200Y-92915476D02*
X110524819Y-93058333D01*
X110524819Y-93058333D02*
X110524819Y-93153571D01*
X110524819Y-93153571D02*
X110477200Y-93296428D01*
X110477200Y-93296428D02*
X110381961Y-93391666D01*
X110381961Y-93391666D02*
X110286723Y-93439285D01*
X110286723Y-93439285D02*
X110096247Y-93486904D01*
X110096247Y-93486904D02*
X109953390Y-93486904D01*
X109953390Y-93486904D02*
X109762914Y-93439285D01*
X109762914Y-93439285D02*
X109667676Y-93391666D01*
X109667676Y-93391666D02*
X109572438Y-93296428D01*
X109572438Y-93296428D02*
X109524819Y-93153571D01*
X109524819Y-93153571D02*
X109524819Y-93058333D01*
X109524819Y-93058333D02*
X109572438Y-92915476D01*
X109572438Y-92915476D02*
X109620057Y-92867857D01*
X110524819Y-91915476D02*
X110524819Y-92486904D01*
X110524819Y-92201190D02*
X109524819Y-92201190D01*
X109524819Y-92201190D02*
X109667676Y-92296428D01*
X109667676Y-92296428D02*
X109762914Y-92391666D01*
X109762914Y-92391666D02*
X109810533Y-92486904D01*
X109524819Y-91582142D02*
X109524819Y-90915476D01*
X109524819Y-90915476D02*
X110524819Y-91344047D01*
X50516667Y-120557200D02*
X50659524Y-120604819D01*
X50659524Y-120604819D02*
X50897619Y-120604819D01*
X50897619Y-120604819D02*
X50992857Y-120557200D01*
X50992857Y-120557200D02*
X51040476Y-120509580D01*
X51040476Y-120509580D02*
X51088095Y-120414342D01*
X51088095Y-120414342D02*
X51088095Y-120319104D01*
X51088095Y-120319104D02*
X51040476Y-120223866D01*
X51040476Y-120223866D02*
X50992857Y-120176247D01*
X50992857Y-120176247D02*
X50897619Y-120128628D01*
X50897619Y-120128628D02*
X50707143Y-120081009D01*
X50707143Y-120081009D02*
X50611905Y-120033390D01*
X50611905Y-120033390D02*
X50564286Y-119985771D01*
X50564286Y-119985771D02*
X50516667Y-119890533D01*
X50516667Y-119890533D02*
X50516667Y-119795295D01*
X50516667Y-119795295D02*
X50564286Y-119700057D01*
X50564286Y-119700057D02*
X50611905Y-119652438D01*
X50611905Y-119652438D02*
X50707143Y-119604819D01*
X50707143Y-119604819D02*
X50945238Y-119604819D01*
X50945238Y-119604819D02*
X51088095Y-119652438D01*
X51421429Y-119604819D02*
X51659524Y-120604819D01*
X51659524Y-120604819D02*
X51850000Y-119890533D01*
X51850000Y-119890533D02*
X52040476Y-120604819D01*
X52040476Y-120604819D02*
X52278572Y-119604819D01*
X53088095Y-119938152D02*
X53088095Y-120604819D01*
X52850000Y-119557200D02*
X52611905Y-120271485D01*
X52611905Y-120271485D02*
X53230952Y-120271485D01*
X112714285Y-72276009D02*
X112857142Y-72323628D01*
X112857142Y-72323628D02*
X112904761Y-72371247D01*
X112904761Y-72371247D02*
X112952380Y-72466485D01*
X112952380Y-72466485D02*
X112952380Y-72609342D01*
X112952380Y-72609342D02*
X112904761Y-72704580D01*
X112904761Y-72704580D02*
X112857142Y-72752200D01*
X112857142Y-72752200D02*
X112761904Y-72799819D01*
X112761904Y-72799819D02*
X112380952Y-72799819D01*
X112380952Y-72799819D02*
X112380952Y-71799819D01*
X112380952Y-71799819D02*
X112714285Y-71799819D01*
X112714285Y-71799819D02*
X112809523Y-71847438D01*
X112809523Y-71847438D02*
X112857142Y-71895057D01*
X112857142Y-71895057D02*
X112904761Y-71990295D01*
X112904761Y-71990295D02*
X112904761Y-72085533D01*
X112904761Y-72085533D02*
X112857142Y-72180771D01*
X112857142Y-72180771D02*
X112809523Y-72228390D01*
X112809523Y-72228390D02*
X112714285Y-72276009D01*
X112714285Y-72276009D02*
X112380952Y-72276009D01*
X113238095Y-71799819D02*
X113809523Y-71799819D01*
X113523809Y-72799819D02*
X113523809Y-71799819D01*
X114047619Y-71799819D02*
X114666666Y-71799819D01*
X114666666Y-71799819D02*
X114333333Y-72180771D01*
X114333333Y-72180771D02*
X114476190Y-72180771D01*
X114476190Y-72180771D02*
X114571428Y-72228390D01*
X114571428Y-72228390D02*
X114619047Y-72276009D01*
X114619047Y-72276009D02*
X114666666Y-72371247D01*
X114666666Y-72371247D02*
X114666666Y-72609342D01*
X114666666Y-72609342D02*
X114619047Y-72704580D01*
X114619047Y-72704580D02*
X114571428Y-72752200D01*
X114571428Y-72752200D02*
X114476190Y-72799819D01*
X114476190Y-72799819D02*
X114190476Y-72799819D01*
X114190476Y-72799819D02*
X114095238Y-72752200D01*
X114095238Y-72752200D02*
X114047619Y-72704580D01*
X84731845Y-104434819D02*
X84731845Y-105244342D01*
X84731845Y-105244342D02*
X84779464Y-105339580D01*
X84779464Y-105339580D02*
X84827083Y-105387200D01*
X84827083Y-105387200D02*
X84922321Y-105434819D01*
X84922321Y-105434819D02*
X85112797Y-105434819D01*
X85112797Y-105434819D02*
X85208035Y-105387200D01*
X85208035Y-105387200D02*
X85255654Y-105339580D01*
X85255654Y-105339580D02*
X85303273Y-105244342D01*
X85303273Y-105244342D02*
X85303273Y-104434819D01*
X85731845Y-104530057D02*
X85779464Y-104482438D01*
X85779464Y-104482438D02*
X85874702Y-104434819D01*
X85874702Y-104434819D02*
X86112797Y-104434819D01*
X86112797Y-104434819D02*
X86208035Y-104482438D01*
X86208035Y-104482438D02*
X86255654Y-104530057D01*
X86255654Y-104530057D02*
X86303273Y-104625295D01*
X86303273Y-104625295D02*
X86303273Y-104720533D01*
X86303273Y-104720533D02*
X86255654Y-104863390D01*
X86255654Y-104863390D02*
X85684226Y-105434819D01*
X85684226Y-105434819D02*
X86303273Y-105434819D01*
X68429580Y-124666666D02*
X68477200Y-124714285D01*
X68477200Y-124714285D02*
X68524819Y-124857142D01*
X68524819Y-124857142D02*
X68524819Y-124952380D01*
X68524819Y-124952380D02*
X68477200Y-125095237D01*
X68477200Y-125095237D02*
X68381961Y-125190475D01*
X68381961Y-125190475D02*
X68286723Y-125238094D01*
X68286723Y-125238094D02*
X68096247Y-125285713D01*
X68096247Y-125285713D02*
X67953390Y-125285713D01*
X67953390Y-125285713D02*
X67762914Y-125238094D01*
X67762914Y-125238094D02*
X67667676Y-125190475D01*
X67667676Y-125190475D02*
X67572438Y-125095237D01*
X67572438Y-125095237D02*
X67524819Y-124952380D01*
X67524819Y-124952380D02*
X67524819Y-124857142D01*
X67524819Y-124857142D02*
X67572438Y-124714285D01*
X67572438Y-124714285D02*
X67620057Y-124666666D01*
X67524819Y-124333332D02*
X67524819Y-123666666D01*
X67524819Y-123666666D02*
X68524819Y-124095237D01*
X48811845Y-62804819D02*
X48811845Y-61804819D01*
X48811845Y-62281009D02*
X49383273Y-62281009D01*
X49383273Y-62804819D02*
X49383273Y-61804819D01*
X50383273Y-62804819D02*
X49811845Y-62804819D01*
X50097559Y-62804819D02*
X50097559Y-61804819D01*
X50097559Y-61804819D02*
X50002321Y-61947676D01*
X50002321Y-61947676D02*
X49907083Y-62042914D01*
X49907083Y-62042914D02*
X49811845Y-62090533D01*
X69098569Y-112666666D02*
X68622378Y-112999999D01*
X69098569Y-113238094D02*
X68098569Y-113238094D01*
X68098569Y-113238094D02*
X68098569Y-112857142D01*
X68098569Y-112857142D02*
X68146188Y-112761904D01*
X68146188Y-112761904D02*
X68193807Y-112714285D01*
X68193807Y-112714285D02*
X68289045Y-112666666D01*
X68289045Y-112666666D02*
X68431902Y-112666666D01*
X68431902Y-112666666D02*
X68527140Y-112714285D01*
X68527140Y-112714285D02*
X68574759Y-112761904D01*
X68574759Y-112761904D02*
X68622378Y-112857142D01*
X68622378Y-112857142D02*
X68622378Y-113238094D01*
X68098569Y-111809523D02*
X68098569Y-111999999D01*
X68098569Y-111999999D02*
X68146188Y-112095237D01*
X68146188Y-112095237D02*
X68193807Y-112142856D01*
X68193807Y-112142856D02*
X68336664Y-112238094D01*
X68336664Y-112238094D02*
X68527140Y-112285713D01*
X68527140Y-112285713D02*
X68908092Y-112285713D01*
X68908092Y-112285713D02*
X69003330Y-112238094D01*
X69003330Y-112238094D02*
X69050950Y-112190475D01*
X69050950Y-112190475D02*
X69098569Y-112095237D01*
X69098569Y-112095237D02*
X69098569Y-111904761D01*
X69098569Y-111904761D02*
X69050950Y-111809523D01*
X69050950Y-111809523D02*
X69003330Y-111761904D01*
X69003330Y-111761904D02*
X68908092Y-111714285D01*
X68908092Y-111714285D02*
X68669997Y-111714285D01*
X68669997Y-111714285D02*
X68574759Y-111761904D01*
X68574759Y-111761904D02*
X68527140Y-111809523D01*
X68527140Y-111809523D02*
X68479521Y-111904761D01*
X68479521Y-111904761D02*
X68479521Y-112095237D01*
X68479521Y-112095237D02*
X68527140Y-112190475D01*
X68527140Y-112190475D02*
X68574759Y-112238094D01*
X68574759Y-112238094D02*
X68669997Y-112285713D01*
X61016667Y-120557200D02*
X61159524Y-120604819D01*
X61159524Y-120604819D02*
X61397619Y-120604819D01*
X61397619Y-120604819D02*
X61492857Y-120557200D01*
X61492857Y-120557200D02*
X61540476Y-120509580D01*
X61540476Y-120509580D02*
X61588095Y-120414342D01*
X61588095Y-120414342D02*
X61588095Y-120319104D01*
X61588095Y-120319104D02*
X61540476Y-120223866D01*
X61540476Y-120223866D02*
X61492857Y-120176247D01*
X61492857Y-120176247D02*
X61397619Y-120128628D01*
X61397619Y-120128628D02*
X61207143Y-120081009D01*
X61207143Y-120081009D02*
X61111905Y-120033390D01*
X61111905Y-120033390D02*
X61064286Y-119985771D01*
X61064286Y-119985771D02*
X61016667Y-119890533D01*
X61016667Y-119890533D02*
X61016667Y-119795295D01*
X61016667Y-119795295D02*
X61064286Y-119700057D01*
X61064286Y-119700057D02*
X61111905Y-119652438D01*
X61111905Y-119652438D02*
X61207143Y-119604819D01*
X61207143Y-119604819D02*
X61445238Y-119604819D01*
X61445238Y-119604819D02*
X61588095Y-119652438D01*
X61921429Y-119604819D02*
X62159524Y-120604819D01*
X62159524Y-120604819D02*
X62350000Y-119890533D01*
X62350000Y-119890533D02*
X62540476Y-120604819D01*
X62540476Y-120604819D02*
X62778572Y-119604819D01*
X63635714Y-119604819D02*
X63159524Y-119604819D01*
X63159524Y-119604819D02*
X63111905Y-120081009D01*
X63111905Y-120081009D02*
X63159524Y-120033390D01*
X63159524Y-120033390D02*
X63254762Y-119985771D01*
X63254762Y-119985771D02*
X63492857Y-119985771D01*
X63492857Y-119985771D02*
X63588095Y-120033390D01*
X63588095Y-120033390D02*
X63635714Y-120081009D01*
X63635714Y-120081009D02*
X63683333Y-120176247D01*
X63683333Y-120176247D02*
X63683333Y-120414342D01*
X63683333Y-120414342D02*
X63635714Y-120509580D01*
X63635714Y-120509580D02*
X63588095Y-120557200D01*
X63588095Y-120557200D02*
X63492857Y-120604819D01*
X63492857Y-120604819D02*
X63254762Y-120604819D01*
X63254762Y-120604819D02*
X63159524Y-120557200D01*
X63159524Y-120557200D02*
X63111905Y-120509580D01*
X97238095Y-83274819D02*
X97238095Y-84084342D01*
X97238095Y-84084342D02*
X97285714Y-84179580D01*
X97285714Y-84179580D02*
X97333333Y-84227200D01*
X97333333Y-84227200D02*
X97428571Y-84274819D01*
X97428571Y-84274819D02*
X97619047Y-84274819D01*
X97619047Y-84274819D02*
X97714285Y-84227200D01*
X97714285Y-84227200D02*
X97761904Y-84179580D01*
X97761904Y-84179580D02*
X97809523Y-84084342D01*
X97809523Y-84084342D02*
X97809523Y-83274819D01*
X98428571Y-83703390D02*
X98333333Y-83655771D01*
X98333333Y-83655771D02*
X98285714Y-83608152D01*
X98285714Y-83608152D02*
X98238095Y-83512914D01*
X98238095Y-83512914D02*
X98238095Y-83465295D01*
X98238095Y-83465295D02*
X98285714Y-83370057D01*
X98285714Y-83370057D02*
X98333333Y-83322438D01*
X98333333Y-83322438D02*
X98428571Y-83274819D01*
X98428571Y-83274819D02*
X98619047Y-83274819D01*
X98619047Y-83274819D02*
X98714285Y-83322438D01*
X98714285Y-83322438D02*
X98761904Y-83370057D01*
X98761904Y-83370057D02*
X98809523Y-83465295D01*
X98809523Y-83465295D02*
X98809523Y-83512914D01*
X98809523Y-83512914D02*
X98761904Y-83608152D01*
X98761904Y-83608152D02*
X98714285Y-83655771D01*
X98714285Y-83655771D02*
X98619047Y-83703390D01*
X98619047Y-83703390D02*
X98428571Y-83703390D01*
X98428571Y-83703390D02*
X98333333Y-83751009D01*
X98333333Y-83751009D02*
X98285714Y-83798628D01*
X98285714Y-83798628D02*
X98238095Y-83893866D01*
X98238095Y-83893866D02*
X98238095Y-84084342D01*
X98238095Y-84084342D02*
X98285714Y-84179580D01*
X98285714Y-84179580D02*
X98333333Y-84227200D01*
X98333333Y-84227200D02*
X98428571Y-84274819D01*
X98428571Y-84274819D02*
X98619047Y-84274819D01*
X98619047Y-84274819D02*
X98714285Y-84227200D01*
X98714285Y-84227200D02*
X98761904Y-84179580D01*
X98761904Y-84179580D02*
X98809523Y-84084342D01*
X98809523Y-84084342D02*
X98809523Y-83893866D01*
X98809523Y-83893866D02*
X98761904Y-83798628D01*
X98761904Y-83798628D02*
X98714285Y-83751009D01*
X98714285Y-83751009D02*
X98619047Y-83703390D01*
X120454819Y-97738094D02*
X119454819Y-97738094D01*
X119454819Y-97738094D02*
X119454819Y-97499999D01*
X119454819Y-97499999D02*
X119502438Y-97357142D01*
X119502438Y-97357142D02*
X119597676Y-97261904D01*
X119597676Y-97261904D02*
X119692914Y-97214285D01*
X119692914Y-97214285D02*
X119883390Y-97166666D01*
X119883390Y-97166666D02*
X120026247Y-97166666D01*
X120026247Y-97166666D02*
X120216723Y-97214285D01*
X120216723Y-97214285D02*
X120311961Y-97261904D01*
X120311961Y-97261904D02*
X120407200Y-97357142D01*
X120407200Y-97357142D02*
X120454819Y-97499999D01*
X120454819Y-97499999D02*
X120454819Y-97738094D01*
X120454819Y-96214285D02*
X120454819Y-96785713D01*
X120454819Y-96499999D02*
X119454819Y-96499999D01*
X119454819Y-96499999D02*
X119597676Y-96595237D01*
X119597676Y-96595237D02*
X119692914Y-96690475D01*
X119692914Y-96690475D02*
X119740533Y-96785713D01*
X99714285Y-72276009D02*
X99857142Y-72323628D01*
X99857142Y-72323628D02*
X99904761Y-72371247D01*
X99904761Y-72371247D02*
X99952380Y-72466485D01*
X99952380Y-72466485D02*
X99952380Y-72609342D01*
X99952380Y-72609342D02*
X99904761Y-72704580D01*
X99904761Y-72704580D02*
X99857142Y-72752200D01*
X99857142Y-72752200D02*
X99761904Y-72799819D01*
X99761904Y-72799819D02*
X99380952Y-72799819D01*
X99380952Y-72799819D02*
X99380952Y-71799819D01*
X99380952Y-71799819D02*
X99714285Y-71799819D01*
X99714285Y-71799819D02*
X99809523Y-71847438D01*
X99809523Y-71847438D02*
X99857142Y-71895057D01*
X99857142Y-71895057D02*
X99904761Y-71990295D01*
X99904761Y-71990295D02*
X99904761Y-72085533D01*
X99904761Y-72085533D02*
X99857142Y-72180771D01*
X99857142Y-72180771D02*
X99809523Y-72228390D01*
X99809523Y-72228390D02*
X99714285Y-72276009D01*
X99714285Y-72276009D02*
X99380952Y-72276009D01*
X100238095Y-71799819D02*
X100809523Y-71799819D01*
X100523809Y-72799819D02*
X100523809Y-71799819D01*
X101666666Y-72799819D02*
X101095238Y-72799819D01*
X101380952Y-72799819D02*
X101380952Y-71799819D01*
X101380952Y-71799819D02*
X101285714Y-71942676D01*
X101285714Y-71942676D02*
X101190476Y-72037914D01*
X101190476Y-72037914D02*
X101095238Y-72085533D01*
X95857142Y-110929580D02*
X95809523Y-110977200D01*
X95809523Y-110977200D02*
X95666666Y-111024819D01*
X95666666Y-111024819D02*
X95571428Y-111024819D01*
X95571428Y-111024819D02*
X95428571Y-110977200D01*
X95428571Y-110977200D02*
X95333333Y-110881961D01*
X95333333Y-110881961D02*
X95285714Y-110786723D01*
X95285714Y-110786723D02*
X95238095Y-110596247D01*
X95238095Y-110596247D02*
X95238095Y-110453390D01*
X95238095Y-110453390D02*
X95285714Y-110262914D01*
X95285714Y-110262914D02*
X95333333Y-110167676D01*
X95333333Y-110167676D02*
X95428571Y-110072438D01*
X95428571Y-110072438D02*
X95571428Y-110024819D01*
X95571428Y-110024819D02*
X95666666Y-110024819D01*
X95666666Y-110024819D02*
X95809523Y-110072438D01*
X95809523Y-110072438D02*
X95857142Y-110120057D01*
X96190476Y-110024819D02*
X96809523Y-110024819D01*
X96809523Y-110024819D02*
X96476190Y-110405771D01*
X96476190Y-110405771D02*
X96619047Y-110405771D01*
X96619047Y-110405771D02*
X96714285Y-110453390D01*
X96714285Y-110453390D02*
X96761904Y-110501009D01*
X96761904Y-110501009D02*
X96809523Y-110596247D01*
X96809523Y-110596247D02*
X96809523Y-110834342D01*
X96809523Y-110834342D02*
X96761904Y-110929580D01*
X96761904Y-110929580D02*
X96714285Y-110977200D01*
X96714285Y-110977200D02*
X96619047Y-111024819D01*
X96619047Y-111024819D02*
X96333333Y-111024819D01*
X96333333Y-111024819D02*
X96238095Y-110977200D01*
X96238095Y-110977200D02*
X96190476Y-110929580D01*
X97285714Y-111024819D02*
X97476190Y-111024819D01*
X97476190Y-111024819D02*
X97571428Y-110977200D01*
X97571428Y-110977200D02*
X97619047Y-110929580D01*
X97619047Y-110929580D02*
X97714285Y-110786723D01*
X97714285Y-110786723D02*
X97761904Y-110596247D01*
X97761904Y-110596247D02*
X97761904Y-110215295D01*
X97761904Y-110215295D02*
X97714285Y-110120057D01*
X97714285Y-110120057D02*
X97666666Y-110072438D01*
X97666666Y-110072438D02*
X97571428Y-110024819D01*
X97571428Y-110024819D02*
X97380952Y-110024819D01*
X97380952Y-110024819D02*
X97285714Y-110072438D01*
X97285714Y-110072438D02*
X97238095Y-110120057D01*
X97238095Y-110120057D02*
X97190476Y-110215295D01*
X97190476Y-110215295D02*
X97190476Y-110453390D01*
X97190476Y-110453390D02*
X97238095Y-110548628D01*
X97238095Y-110548628D02*
X97285714Y-110596247D01*
X97285714Y-110596247D02*
X97380952Y-110643866D01*
X97380952Y-110643866D02*
X97571428Y-110643866D01*
X97571428Y-110643866D02*
X97666666Y-110596247D01*
X97666666Y-110596247D02*
X97714285Y-110548628D01*
X97714285Y-110548628D02*
X97761904Y-110453390D01*
X109738095Y-112504819D02*
X109738095Y-113314342D01*
X109738095Y-113314342D02*
X109785714Y-113409580D01*
X109785714Y-113409580D02*
X109833333Y-113457200D01*
X109833333Y-113457200D02*
X109928571Y-113504819D01*
X109928571Y-113504819D02*
X110119047Y-113504819D01*
X110119047Y-113504819D02*
X110214285Y-113457200D01*
X110214285Y-113457200D02*
X110261904Y-113409580D01*
X110261904Y-113409580D02*
X110309523Y-113314342D01*
X110309523Y-113314342D02*
X110309523Y-112504819D01*
X110690476Y-112504819D02*
X111357142Y-112504819D01*
X111357142Y-112504819D02*
X110928571Y-113504819D01*
X48738095Y-128304819D02*
X48738095Y-127304819D01*
X48738095Y-127781009D02*
X49309523Y-127781009D01*
X49309523Y-128304819D02*
X49309523Y-127304819D01*
X49690476Y-127304819D02*
X50309523Y-127304819D01*
X50309523Y-127304819D02*
X49976190Y-127685771D01*
X49976190Y-127685771D02*
X50119047Y-127685771D01*
X50119047Y-127685771D02*
X50214285Y-127733390D01*
X50214285Y-127733390D02*
X50261904Y-127781009D01*
X50261904Y-127781009D02*
X50309523Y-127876247D01*
X50309523Y-127876247D02*
X50309523Y-128114342D01*
X50309523Y-128114342D02*
X50261904Y-128209580D01*
X50261904Y-128209580D02*
X50214285Y-128257200D01*
X50214285Y-128257200D02*
X50119047Y-128304819D01*
X50119047Y-128304819D02*
X49833333Y-128304819D01*
X49833333Y-128304819D02*
X49738095Y-128257200D01*
X49738095Y-128257200D02*
X49690476Y-128209580D01*
X102357142Y-114429580D02*
X102309523Y-114477200D01*
X102309523Y-114477200D02*
X102166666Y-114524819D01*
X102166666Y-114524819D02*
X102071428Y-114524819D01*
X102071428Y-114524819D02*
X101928571Y-114477200D01*
X101928571Y-114477200D02*
X101833333Y-114381961D01*
X101833333Y-114381961D02*
X101785714Y-114286723D01*
X101785714Y-114286723D02*
X101738095Y-114096247D01*
X101738095Y-114096247D02*
X101738095Y-113953390D01*
X101738095Y-113953390D02*
X101785714Y-113762914D01*
X101785714Y-113762914D02*
X101833333Y-113667676D01*
X101833333Y-113667676D02*
X101928571Y-113572438D01*
X101928571Y-113572438D02*
X102071428Y-113524819D01*
X102071428Y-113524819D02*
X102166666Y-113524819D01*
X102166666Y-113524819D02*
X102309523Y-113572438D01*
X102309523Y-113572438D02*
X102357142Y-113620057D01*
X103214285Y-113858152D02*
X103214285Y-114524819D01*
X102976190Y-113477200D02*
X102738095Y-114191485D01*
X102738095Y-114191485D02*
X103357142Y-114191485D01*
X103928571Y-113524819D02*
X104023809Y-113524819D01*
X104023809Y-113524819D02*
X104119047Y-113572438D01*
X104119047Y-113572438D02*
X104166666Y-113620057D01*
X104166666Y-113620057D02*
X104214285Y-113715295D01*
X104214285Y-113715295D02*
X104261904Y-113905771D01*
X104261904Y-113905771D02*
X104261904Y-114143866D01*
X104261904Y-114143866D02*
X104214285Y-114334342D01*
X104214285Y-114334342D02*
X104166666Y-114429580D01*
X104166666Y-114429580D02*
X104119047Y-114477200D01*
X104119047Y-114477200D02*
X104023809Y-114524819D01*
X104023809Y-114524819D02*
X103928571Y-114524819D01*
X103928571Y-114524819D02*
X103833333Y-114477200D01*
X103833333Y-114477200D02*
X103785714Y-114429580D01*
X103785714Y-114429580D02*
X103738095Y-114334342D01*
X103738095Y-114334342D02*
X103690476Y-114143866D01*
X103690476Y-114143866D02*
X103690476Y-113905771D01*
X103690476Y-113905771D02*
X103738095Y-113715295D01*
X103738095Y-113715295D02*
X103785714Y-113620057D01*
X103785714Y-113620057D02*
X103833333Y-113572438D01*
X103833333Y-113572438D02*
X103928571Y-113524819D01*
X84024819Y-109666666D02*
X83548628Y-109999999D01*
X84024819Y-110238094D02*
X83024819Y-110238094D01*
X83024819Y-110238094D02*
X83024819Y-109857142D01*
X83024819Y-109857142D02*
X83072438Y-109761904D01*
X83072438Y-109761904D02*
X83120057Y-109714285D01*
X83120057Y-109714285D02*
X83215295Y-109666666D01*
X83215295Y-109666666D02*
X83358152Y-109666666D01*
X83358152Y-109666666D02*
X83453390Y-109714285D01*
X83453390Y-109714285D02*
X83501009Y-109761904D01*
X83501009Y-109761904D02*
X83548628Y-109857142D01*
X83548628Y-109857142D02*
X83548628Y-110238094D01*
X83024819Y-109333332D02*
X83024819Y-108666666D01*
X83024819Y-108666666D02*
X84024819Y-109095237D01*
X118738095Y-62804819D02*
X118738095Y-61804819D01*
X118738095Y-62281009D02*
X119309523Y-62281009D01*
X119309523Y-62804819D02*
X119309523Y-61804819D01*
X119738095Y-61900057D02*
X119785714Y-61852438D01*
X119785714Y-61852438D02*
X119880952Y-61804819D01*
X119880952Y-61804819D02*
X120119047Y-61804819D01*
X120119047Y-61804819D02*
X120214285Y-61852438D01*
X120214285Y-61852438D02*
X120261904Y-61900057D01*
X120261904Y-61900057D02*
X120309523Y-61995295D01*
X120309523Y-61995295D02*
X120309523Y-62090533D01*
X120309523Y-62090533D02*
X120261904Y-62233390D01*
X120261904Y-62233390D02*
X119690476Y-62804819D01*
X119690476Y-62804819D02*
X120309523Y-62804819D01*
X115289580Y-103666666D02*
X115337200Y-103714285D01*
X115337200Y-103714285D02*
X115384819Y-103857142D01*
X115384819Y-103857142D02*
X115384819Y-103952380D01*
X115384819Y-103952380D02*
X115337200Y-104095237D01*
X115337200Y-104095237D02*
X115241961Y-104190475D01*
X115241961Y-104190475D02*
X115146723Y-104238094D01*
X115146723Y-104238094D02*
X114956247Y-104285713D01*
X114956247Y-104285713D02*
X114813390Y-104285713D01*
X114813390Y-104285713D02*
X114622914Y-104238094D01*
X114622914Y-104238094D02*
X114527676Y-104190475D01*
X114527676Y-104190475D02*
X114432438Y-104095237D01*
X114432438Y-104095237D02*
X114384819Y-103952380D01*
X114384819Y-103952380D02*
X114384819Y-103857142D01*
X114384819Y-103857142D02*
X114432438Y-103714285D01*
X114432438Y-103714285D02*
X114480057Y-103666666D01*
X114718152Y-102809523D02*
X115384819Y-102809523D01*
X114337200Y-103047618D02*
X115051485Y-103285713D01*
X115051485Y-103285713D02*
X115051485Y-102666666D01*
X111679580Y-110642857D02*
X111727200Y-110690476D01*
X111727200Y-110690476D02*
X111774819Y-110833333D01*
X111774819Y-110833333D02*
X111774819Y-110928571D01*
X111774819Y-110928571D02*
X111727200Y-111071428D01*
X111727200Y-111071428D02*
X111631961Y-111166666D01*
X111631961Y-111166666D02*
X111536723Y-111214285D01*
X111536723Y-111214285D02*
X111346247Y-111261904D01*
X111346247Y-111261904D02*
X111203390Y-111261904D01*
X111203390Y-111261904D02*
X111012914Y-111214285D01*
X111012914Y-111214285D02*
X110917676Y-111166666D01*
X110917676Y-111166666D02*
X110822438Y-111071428D01*
X110822438Y-111071428D02*
X110774819Y-110928571D01*
X110774819Y-110928571D02*
X110774819Y-110833333D01*
X110774819Y-110833333D02*
X110822438Y-110690476D01*
X110822438Y-110690476D02*
X110870057Y-110642857D01*
X110774819Y-110309523D02*
X110774819Y-109690476D01*
X110774819Y-109690476D02*
X111155771Y-110023809D01*
X111155771Y-110023809D02*
X111155771Y-109880952D01*
X111155771Y-109880952D02*
X111203390Y-109785714D01*
X111203390Y-109785714D02*
X111251009Y-109738095D01*
X111251009Y-109738095D02*
X111346247Y-109690476D01*
X111346247Y-109690476D02*
X111584342Y-109690476D01*
X111584342Y-109690476D02*
X111679580Y-109738095D01*
X111679580Y-109738095D02*
X111727200Y-109785714D01*
X111727200Y-109785714D02*
X111774819Y-109880952D01*
X111774819Y-109880952D02*
X111774819Y-110166666D01*
X111774819Y-110166666D02*
X111727200Y-110261904D01*
X111727200Y-110261904D02*
X111679580Y-110309523D01*
X111203390Y-109119047D02*
X111155771Y-109214285D01*
X111155771Y-109214285D02*
X111108152Y-109261904D01*
X111108152Y-109261904D02*
X111012914Y-109309523D01*
X111012914Y-109309523D02*
X110965295Y-109309523D01*
X110965295Y-109309523D02*
X110870057Y-109261904D01*
X110870057Y-109261904D02*
X110822438Y-109214285D01*
X110822438Y-109214285D02*
X110774819Y-109119047D01*
X110774819Y-109119047D02*
X110774819Y-108928571D01*
X110774819Y-108928571D02*
X110822438Y-108833333D01*
X110822438Y-108833333D02*
X110870057Y-108785714D01*
X110870057Y-108785714D02*
X110965295Y-108738095D01*
X110965295Y-108738095D02*
X111012914Y-108738095D01*
X111012914Y-108738095D02*
X111108152Y-108785714D01*
X111108152Y-108785714D02*
X111155771Y-108833333D01*
X111155771Y-108833333D02*
X111203390Y-108928571D01*
X111203390Y-108928571D02*
X111203390Y-109119047D01*
X111203390Y-109119047D02*
X111251009Y-109214285D01*
X111251009Y-109214285D02*
X111298628Y-109261904D01*
X111298628Y-109261904D02*
X111393866Y-109309523D01*
X111393866Y-109309523D02*
X111584342Y-109309523D01*
X111584342Y-109309523D02*
X111679580Y-109261904D01*
X111679580Y-109261904D02*
X111727200Y-109214285D01*
X111727200Y-109214285D02*
X111774819Y-109119047D01*
X111774819Y-109119047D02*
X111774819Y-108928571D01*
X111774819Y-108928571D02*
X111727200Y-108833333D01*
X111727200Y-108833333D02*
X111679580Y-108785714D01*
X111679580Y-108785714D02*
X111584342Y-108738095D01*
X111584342Y-108738095D02*
X111393866Y-108738095D01*
X111393866Y-108738095D02*
X111298628Y-108785714D01*
X111298628Y-108785714D02*
X111251009Y-108833333D01*
X111251009Y-108833333D02*
X111203390Y-108928571D01*
X118738095Y-128304819D02*
X118738095Y-127304819D01*
X118738095Y-127781009D02*
X119309523Y-127781009D01*
X119309523Y-128304819D02*
X119309523Y-127304819D01*
X120214285Y-127638152D02*
X120214285Y-128304819D01*
X119976190Y-127257200D02*
X119738095Y-127971485D01*
X119738095Y-127971485D02*
X120357142Y-127971485D01*
X106214285Y-79586009D02*
X106357142Y-79633628D01*
X106357142Y-79633628D02*
X106404761Y-79681247D01*
X106404761Y-79681247D02*
X106452380Y-79776485D01*
X106452380Y-79776485D02*
X106452380Y-79919342D01*
X106452380Y-79919342D02*
X106404761Y-80014580D01*
X106404761Y-80014580D02*
X106357142Y-80062200D01*
X106357142Y-80062200D02*
X106261904Y-80109819D01*
X106261904Y-80109819D02*
X105880952Y-80109819D01*
X105880952Y-80109819D02*
X105880952Y-79109819D01*
X105880952Y-79109819D02*
X106214285Y-79109819D01*
X106214285Y-79109819D02*
X106309523Y-79157438D01*
X106309523Y-79157438D02*
X106357142Y-79205057D01*
X106357142Y-79205057D02*
X106404761Y-79300295D01*
X106404761Y-79300295D02*
X106404761Y-79395533D01*
X106404761Y-79395533D02*
X106357142Y-79490771D01*
X106357142Y-79490771D02*
X106309523Y-79538390D01*
X106309523Y-79538390D02*
X106214285Y-79586009D01*
X106214285Y-79586009D02*
X105880952Y-79586009D01*
X106738095Y-79109819D02*
X107309523Y-79109819D01*
X107023809Y-80109819D02*
X107023809Y-79109819D01*
X107595238Y-79205057D02*
X107642857Y-79157438D01*
X107642857Y-79157438D02*
X107738095Y-79109819D01*
X107738095Y-79109819D02*
X107976190Y-79109819D01*
X107976190Y-79109819D02*
X108071428Y-79157438D01*
X108071428Y-79157438D02*
X108119047Y-79205057D01*
X108119047Y-79205057D02*
X108166666Y-79300295D01*
X108166666Y-79300295D02*
X108166666Y-79395533D01*
X108166666Y-79395533D02*
X108119047Y-79538390D01*
X108119047Y-79538390D02*
X107547619Y-80109819D01*
X107547619Y-80109819D02*
X108166666Y-80109819D01*
X88414819Y-126333333D02*
X89129104Y-126333333D01*
X89129104Y-126333333D02*
X89271961Y-126380952D01*
X89271961Y-126380952D02*
X89367200Y-126476190D01*
X89367200Y-126476190D02*
X89414819Y-126619047D01*
X89414819Y-126619047D02*
X89414819Y-126714285D01*
X88414819Y-125380952D02*
X88414819Y-125857142D01*
X88414819Y-125857142D02*
X88891009Y-125904761D01*
X88891009Y-125904761D02*
X88843390Y-125857142D01*
X88843390Y-125857142D02*
X88795771Y-125761904D01*
X88795771Y-125761904D02*
X88795771Y-125523809D01*
X88795771Y-125523809D02*
X88843390Y-125428571D01*
X88843390Y-125428571D02*
X88891009Y-125380952D01*
X88891009Y-125380952D02*
X88986247Y-125333333D01*
X88986247Y-125333333D02*
X89224342Y-125333333D01*
X89224342Y-125333333D02*
X89319580Y-125380952D01*
X89319580Y-125380952D02*
X89367200Y-125428571D01*
X89367200Y-125428571D02*
X89414819Y-125523809D01*
X89414819Y-125523809D02*
X89414819Y-125761904D01*
X89414819Y-125761904D02*
X89367200Y-125857142D01*
X89367200Y-125857142D02*
X89319580Y-125904761D01*
X111259580Y-104142857D02*
X111307200Y-104190476D01*
X111307200Y-104190476D02*
X111354819Y-104333333D01*
X111354819Y-104333333D02*
X111354819Y-104428571D01*
X111354819Y-104428571D02*
X111307200Y-104571428D01*
X111307200Y-104571428D02*
X111211961Y-104666666D01*
X111211961Y-104666666D02*
X111116723Y-104714285D01*
X111116723Y-104714285D02*
X110926247Y-104761904D01*
X110926247Y-104761904D02*
X110783390Y-104761904D01*
X110783390Y-104761904D02*
X110592914Y-104714285D01*
X110592914Y-104714285D02*
X110497676Y-104666666D01*
X110497676Y-104666666D02*
X110402438Y-104571428D01*
X110402438Y-104571428D02*
X110354819Y-104428571D01*
X110354819Y-104428571D02*
X110354819Y-104333333D01*
X110354819Y-104333333D02*
X110402438Y-104190476D01*
X110402438Y-104190476D02*
X110450057Y-104142857D01*
X111354819Y-103190476D02*
X111354819Y-103761904D01*
X111354819Y-103476190D02*
X110354819Y-103476190D01*
X110354819Y-103476190D02*
X110497676Y-103571428D01*
X110497676Y-103571428D02*
X110592914Y-103666666D01*
X110592914Y-103666666D02*
X110640533Y-103761904D01*
X110783390Y-102619047D02*
X110735771Y-102714285D01*
X110735771Y-102714285D02*
X110688152Y-102761904D01*
X110688152Y-102761904D02*
X110592914Y-102809523D01*
X110592914Y-102809523D02*
X110545295Y-102809523D01*
X110545295Y-102809523D02*
X110450057Y-102761904D01*
X110450057Y-102761904D02*
X110402438Y-102714285D01*
X110402438Y-102714285D02*
X110354819Y-102619047D01*
X110354819Y-102619047D02*
X110354819Y-102428571D01*
X110354819Y-102428571D02*
X110402438Y-102333333D01*
X110402438Y-102333333D02*
X110450057Y-102285714D01*
X110450057Y-102285714D02*
X110545295Y-102238095D01*
X110545295Y-102238095D02*
X110592914Y-102238095D01*
X110592914Y-102238095D02*
X110688152Y-102285714D01*
X110688152Y-102285714D02*
X110735771Y-102333333D01*
X110735771Y-102333333D02*
X110783390Y-102428571D01*
X110783390Y-102428571D02*
X110783390Y-102619047D01*
X110783390Y-102619047D02*
X110831009Y-102714285D01*
X110831009Y-102714285D02*
X110878628Y-102761904D01*
X110878628Y-102761904D02*
X110973866Y-102809523D01*
X110973866Y-102809523D02*
X111164342Y-102809523D01*
X111164342Y-102809523D02*
X111259580Y-102761904D01*
X111259580Y-102761904D02*
X111307200Y-102714285D01*
X111307200Y-102714285D02*
X111354819Y-102619047D01*
X111354819Y-102619047D02*
X111354819Y-102428571D01*
X111354819Y-102428571D02*
X111307200Y-102333333D01*
X111307200Y-102333333D02*
X111259580Y-102285714D01*
X111259580Y-102285714D02*
X111164342Y-102238095D01*
X111164342Y-102238095D02*
X110973866Y-102238095D01*
X110973866Y-102238095D02*
X110878628Y-102285714D01*
X110878628Y-102285714D02*
X110831009Y-102333333D01*
X110831009Y-102333333D02*
X110783390Y-102428571D01*
X105899580Y-92391666D02*
X105947200Y-92439285D01*
X105947200Y-92439285D02*
X105994819Y-92582142D01*
X105994819Y-92582142D02*
X105994819Y-92677380D01*
X105994819Y-92677380D02*
X105947200Y-92820237D01*
X105947200Y-92820237D02*
X105851961Y-92915475D01*
X105851961Y-92915475D02*
X105756723Y-92963094D01*
X105756723Y-92963094D02*
X105566247Y-93010713D01*
X105566247Y-93010713D02*
X105423390Y-93010713D01*
X105423390Y-93010713D02*
X105232914Y-92963094D01*
X105232914Y-92963094D02*
X105137676Y-92915475D01*
X105137676Y-92915475D02*
X105042438Y-92820237D01*
X105042438Y-92820237D02*
X104994819Y-92677380D01*
X104994819Y-92677380D02*
X104994819Y-92582142D01*
X104994819Y-92582142D02*
X105042438Y-92439285D01*
X105042438Y-92439285D02*
X105090057Y-92391666D01*
X104994819Y-92058332D02*
X104994819Y-91439285D01*
X104994819Y-91439285D02*
X105375771Y-91772618D01*
X105375771Y-91772618D02*
X105375771Y-91629761D01*
X105375771Y-91629761D02*
X105423390Y-91534523D01*
X105423390Y-91534523D02*
X105471009Y-91486904D01*
X105471009Y-91486904D02*
X105566247Y-91439285D01*
X105566247Y-91439285D02*
X105804342Y-91439285D01*
X105804342Y-91439285D02*
X105899580Y-91486904D01*
X105899580Y-91486904D02*
X105947200Y-91534523D01*
X105947200Y-91534523D02*
X105994819Y-91629761D01*
X105994819Y-91629761D02*
X105994819Y-91915475D01*
X105994819Y-91915475D02*
X105947200Y-92010713D01*
X105947200Y-92010713D02*
X105899580Y-92058332D01*
X120357142Y-112299819D02*
X119880952Y-112299819D01*
X119880952Y-112299819D02*
X119880952Y-111299819D01*
X120642857Y-112252200D02*
X120785714Y-112299819D01*
X120785714Y-112299819D02*
X121023809Y-112299819D01*
X121023809Y-112299819D02*
X121119047Y-112252200D01*
X121119047Y-112252200D02*
X121166666Y-112204580D01*
X121166666Y-112204580D02*
X121214285Y-112109342D01*
X121214285Y-112109342D02*
X121214285Y-112014104D01*
X121214285Y-112014104D02*
X121166666Y-111918866D01*
X121166666Y-111918866D02*
X121119047Y-111871247D01*
X121119047Y-111871247D02*
X121023809Y-111823628D01*
X121023809Y-111823628D02*
X120833333Y-111776009D01*
X120833333Y-111776009D02*
X120738095Y-111728390D01*
X120738095Y-111728390D02*
X120690476Y-111680771D01*
X120690476Y-111680771D02*
X120642857Y-111585533D01*
X120642857Y-111585533D02*
X120642857Y-111490295D01*
X120642857Y-111490295D02*
X120690476Y-111395057D01*
X120690476Y-111395057D02*
X120738095Y-111347438D01*
X120738095Y-111347438D02*
X120833333Y-111299819D01*
X120833333Y-111299819D02*
X121071428Y-111299819D01*
X121071428Y-111299819D02*
X121214285Y-111347438D01*
X122166666Y-112299819D02*
X121595238Y-112299819D01*
X121880952Y-112299819D02*
X121880952Y-111299819D01*
X121880952Y-111299819D02*
X121785714Y-111442676D01*
X121785714Y-111442676D02*
X121690476Y-111537914D01*
X121690476Y-111537914D02*
X121595238Y-111585533D01*
X106429580Y-110642857D02*
X106477200Y-110690476D01*
X106477200Y-110690476D02*
X106524819Y-110833333D01*
X106524819Y-110833333D02*
X106524819Y-110928571D01*
X106524819Y-110928571D02*
X106477200Y-111071428D01*
X106477200Y-111071428D02*
X106381961Y-111166666D01*
X106381961Y-111166666D02*
X106286723Y-111214285D01*
X106286723Y-111214285D02*
X106096247Y-111261904D01*
X106096247Y-111261904D02*
X105953390Y-111261904D01*
X105953390Y-111261904D02*
X105762914Y-111214285D01*
X105762914Y-111214285D02*
X105667676Y-111166666D01*
X105667676Y-111166666D02*
X105572438Y-111071428D01*
X105572438Y-111071428D02*
X105524819Y-110928571D01*
X105524819Y-110928571D02*
X105524819Y-110833333D01*
X105524819Y-110833333D02*
X105572438Y-110690476D01*
X105572438Y-110690476D02*
X105620057Y-110642857D01*
X105524819Y-110309523D02*
X105524819Y-109690476D01*
X105524819Y-109690476D02*
X105905771Y-110023809D01*
X105905771Y-110023809D02*
X105905771Y-109880952D01*
X105905771Y-109880952D02*
X105953390Y-109785714D01*
X105953390Y-109785714D02*
X106001009Y-109738095D01*
X106001009Y-109738095D02*
X106096247Y-109690476D01*
X106096247Y-109690476D02*
X106334342Y-109690476D01*
X106334342Y-109690476D02*
X106429580Y-109738095D01*
X106429580Y-109738095D02*
X106477200Y-109785714D01*
X106477200Y-109785714D02*
X106524819Y-109880952D01*
X106524819Y-109880952D02*
X106524819Y-110166666D01*
X106524819Y-110166666D02*
X106477200Y-110261904D01*
X106477200Y-110261904D02*
X106429580Y-110309523D01*
X105524819Y-109357142D02*
X105524819Y-108690476D01*
X105524819Y-108690476D02*
X106524819Y-109119047D01*
D12*
%TO.C,U6*%
X94463750Y-114890000D02*
X97683750Y-114890000D01*
X94463750Y-115065000D02*
X94463750Y-114890000D01*
X94463750Y-118110000D02*
X94463750Y-117935000D01*
X97683750Y-114890000D02*
X97683750Y-115065000D01*
X97683750Y-117935000D02*
X97683750Y-118110000D01*
X97683750Y-118110000D02*
X94463750Y-118110000D01*
X93913750Y-115060000D02*
X93673750Y-114730000D01*
X94153750Y-114730000D01*
X93913750Y-115060000D01*
G36*
X93913750Y-115060000D02*
G01*
X93673750Y-114730000D01*
X94153750Y-114730000D01*
X93913750Y-115060000D01*
G37*
%TO.C,SW1*%
X115890000Y-84090000D02*
X115890000Y-90910000D01*
X117200000Y-84090000D02*
X115890000Y-84090000D01*
X117200000Y-90910000D02*
X115890000Y-90910000D01*
X118635000Y-86896667D02*
X117365000Y-86896667D01*
X120110000Y-84090000D02*
X118800000Y-84090000D01*
X120110000Y-84090000D02*
X120110000Y-90910000D01*
X120110000Y-90910000D02*
X118800000Y-90910000D01*
X120350000Y-83850000D02*
X118967000Y-83850000D01*
X120350000Y-83850000D02*
X120350000Y-85233000D01*
X118635000Y-85690000D02*
X117365000Y-85690000D01*
X117365000Y-86896667D01*
X118635000Y-86896667D01*
X118635000Y-85690000D01*
G36*
X118635000Y-85690000D02*
G01*
X117365000Y-85690000D01*
X117365000Y-86896667D01*
X118635000Y-86896667D01*
X118635000Y-85690000D01*
G37*
X118635000Y-85690000D02*
X117365000Y-85690000D01*
X117365000Y-89310000D01*
X118635000Y-89310000D01*
X118635000Y-85690000D01*
%TO.C,J6*%
X102460000Y-122120000D02*
X102460000Y-124880000D01*
X115270000Y-122120000D02*
X102460000Y-122120000D01*
X115270000Y-122120000D02*
X115270000Y-124880000D01*
X115270000Y-124880000D02*
X102460000Y-124880000D01*
X116540000Y-122120000D02*
X117920000Y-122120000D01*
X117920000Y-122120000D02*
X117920000Y-123500000D01*
%TO.C,C17*%
X110990000Y-92365580D02*
X110990000Y-92084420D01*
X112010000Y-92365580D02*
X112010000Y-92084420D01*
%TO.C,SW4*%
X49100000Y-122900000D02*
X49100000Y-124900000D01*
X50150000Y-121600000D02*
X50600000Y-121150000D01*
X50150000Y-126200000D02*
X50600000Y-126650000D01*
X50600000Y-121150000D02*
X53100000Y-121150000D01*
X50600000Y-126650000D02*
X53100000Y-126650000D01*
X53550000Y-121600000D02*
X53100000Y-121150000D01*
X53550000Y-126200000D02*
X53100000Y-126650000D01*
X54600000Y-122900000D02*
X54600000Y-124900000D01*
%TO.C,BT3*%
X112120000Y-73345000D02*
X113500000Y-73345000D01*
X112120000Y-74725000D02*
X112120000Y-73345000D01*
X112120000Y-75995000D02*
X112120000Y-78645000D01*
X112120000Y-75995000D02*
X114880000Y-75995000D01*
X112120000Y-78645000D02*
X114880000Y-78645000D01*
X114880000Y-75995000D02*
X114880000Y-78645000D01*
%TO.C,U2*%
X61203750Y-85250000D02*
X67618750Y-85250000D01*
X61203750Y-103490000D02*
X61203750Y-85250000D01*
X61203750Y-103490000D02*
X67363750Y-103490000D01*
X86163750Y-85250000D02*
X86943750Y-85250000D01*
X86163750Y-103490000D02*
X86943750Y-103490000D01*
X86943750Y-85250000D02*
X86943750Y-86250000D01*
X86943750Y-103490000D02*
X86943750Y-102490000D01*
X68088750Y-103995000D02*
X67588750Y-103495000D01*
X68088750Y-103495000D01*
X68088750Y-103995000D01*
G36*
X68088750Y-103995000D02*
G01*
X67588750Y-103495000D01*
X68088750Y-103495000D01*
X68088750Y-103995000D01*
G37*
%TO.C,C7*%
X68990000Y-124640580D02*
X68990000Y-124359420D01*
X70010000Y-124640580D02*
X70010000Y-124359420D01*
%TO.C,R6*%
X69551250Y-112737258D02*
X69551250Y-112262742D01*
X70596250Y-112737258D02*
X70596250Y-112262742D01*
%TO.C,SW5*%
X59600000Y-122900000D02*
X59600000Y-124900000D01*
X60650000Y-121600000D02*
X61100000Y-121150000D01*
X60650000Y-126200000D02*
X61100000Y-126650000D01*
X61100000Y-121150000D02*
X63600000Y-121150000D01*
X61100000Y-126650000D02*
X63600000Y-126650000D01*
X64050000Y-121600000D02*
X63600000Y-121150000D01*
X64050000Y-126200000D02*
X63600000Y-126650000D01*
X65100000Y-122900000D02*
X65100000Y-124900000D01*
%TO.C,U8*%
X92890000Y-84660000D02*
X103110000Y-84660000D01*
X92890000Y-100530000D02*
X92890000Y-84660000D01*
X92890000Y-100530000D02*
X103110000Y-100530000D01*
X94975000Y-100530000D02*
X94975000Y-102970000D01*
X95945000Y-100530000D02*
X95945000Y-102970000D01*
X97515000Y-100530000D02*
X97515000Y-102970000D01*
X98485000Y-100530000D02*
X98485000Y-102970000D01*
X100055000Y-100530000D02*
X100055000Y-102970000D01*
X101025000Y-100530000D02*
X101025000Y-102970000D01*
X103110000Y-100530000D02*
X103110000Y-84660000D01*
%TO.C,D1*%
X117000000Y-94640000D02*
X117000000Y-98650000D01*
X119000000Y-94640000D02*
X117000000Y-94640000D01*
X119000000Y-94640000D02*
X119000000Y-98650000D01*
%TO.C,BT1*%
X99120000Y-73345000D02*
X100500000Y-73345000D01*
X99120000Y-74725000D02*
X99120000Y-73345000D01*
X99120000Y-75995000D02*
X99120000Y-78645000D01*
X99120000Y-75995000D02*
X101880000Y-75995000D01*
X99120000Y-78645000D02*
X101880000Y-78645000D01*
X101880000Y-75995000D02*
X101880000Y-78645000D01*
%TO.C,C39*%
X96359420Y-111490000D02*
X96640580Y-111490000D01*
X96359420Y-112510000D02*
X96640580Y-112510000D01*
%TO.C,U7*%
X108890000Y-113890000D02*
X112110000Y-113890000D01*
X108890000Y-114065000D02*
X108890000Y-113890000D01*
X108890000Y-117110000D02*
X108890000Y-116935000D01*
X112110000Y-113890000D02*
X112110000Y-114065000D01*
X112110000Y-116935000D02*
X112110000Y-117110000D01*
X112110000Y-117110000D02*
X108890000Y-117110000D01*
X108340000Y-114060000D02*
X108100000Y-113730000D01*
X108580000Y-113730000D01*
X108340000Y-114060000D01*
G36*
X108340000Y-114060000D02*
G01*
X108100000Y-113730000D01*
X108580000Y-113730000D01*
X108340000Y-114060000D01*
G37*
%TO.C,C40*%
X102859420Y-114990000D02*
X103140580Y-114990000D01*
X102859420Y-116010000D02*
X103140580Y-116010000D01*
%TO.C,R7*%
X84477500Y-109737258D02*
X84477500Y-109262742D01*
X85522500Y-109737258D02*
X85522500Y-109262742D01*
%TO.C,C4*%
X112990000Y-103359420D02*
X112990000Y-103640580D01*
X114010000Y-103359420D02*
X114010000Y-103640580D01*
%TO.C,C38*%
X112265000Y-110261252D02*
X112265000Y-109738748D01*
X113735000Y-110261252D02*
X113735000Y-109738748D01*
%TO.C,BT2*%
X105620000Y-76005000D02*
X105620000Y-73355000D01*
X108380000Y-73355000D02*
X105620000Y-73355000D01*
X108380000Y-76005000D02*
X105620000Y-76005000D01*
X108380000Y-76005000D02*
X108380000Y-73355000D01*
X108380000Y-77275000D02*
X108380000Y-78655000D01*
X108380000Y-78655000D02*
X107000000Y-78655000D01*
%TO.C,J5*%
X80120000Y-124620000D02*
X80120000Y-127380000D01*
X85310000Y-124620000D02*
X80120000Y-124620000D01*
X85310000Y-124620000D02*
X85310000Y-127380000D01*
X85310000Y-127380000D02*
X80120000Y-127380000D01*
X86580000Y-124620000D02*
X87960000Y-124620000D01*
X87960000Y-124620000D02*
X87960000Y-126000000D01*
%TO.C,C18*%
X108960000Y-103359420D02*
X108960000Y-103640580D01*
X109980000Y-103359420D02*
X109980000Y-103640580D01*
%TO.C,C3*%
X106460000Y-92365580D02*
X106460000Y-92084420D01*
X107480000Y-92365580D02*
X107480000Y-92084420D01*
%TO.C,LS1*%
X119620000Y-112845000D02*
X121000000Y-112845000D01*
X119620000Y-114225000D02*
X119620000Y-112845000D01*
X119620000Y-115495000D02*
X119620000Y-118145000D01*
X119620000Y-115495000D02*
X122380000Y-115495000D01*
X119620000Y-118145000D02*
X122380000Y-118145000D01*
X122380000Y-115495000D02*
X122380000Y-118145000D01*
%TO.C,C37*%
X106990000Y-110140580D02*
X106990000Y-109859420D01*
X108010000Y-110140580D02*
X108010000Y-109859420D01*
%TD*%
M02*
