%TF.GenerationSoftware,KiCad,Pcbnew,9.0.7*%
%TF.CreationDate,2026-04-05T23:26:52-05:00*%
%TF.ProjectId,audio_and_power,61756469-6f5f-4616-9e64-5f706f776572,rev?*%
%TF.SameCoordinates,Original*%
%TF.FileFunction,Legend,Top*%
%TF.FilePolarity,Positive*%
%FSLAX46Y46*%
G04 Gerber Fmt 4.6, Leading zero omitted, Abs format (unit mm)*
G04 Created by KiCad (PCBNEW 9.0.7) date 2026-04-05 23:26:52*
%MOMM*%
%LPD*%
G01*
G04 APERTURE LIST*
%ADD10C,0.100000*%
%ADD11C,0.150000*%
%ADD12C,0.120000*%
G04 APERTURE END LIST*
D10*
X48661027Y-60042587D02*
X49232455Y-60042587D01*
X48946741Y-61042587D02*
X48946741Y-60042587D01*
X49946741Y-60994968D02*
X49851503Y-61042587D01*
X49851503Y-61042587D02*
X49661027Y-61042587D01*
X49661027Y-61042587D02*
X49565789Y-60994968D01*
X49565789Y-60994968D02*
X49518170Y-60899729D01*
X49518170Y-60899729D02*
X49518170Y-60518777D01*
X49518170Y-60518777D02*
X49565789Y-60423539D01*
X49565789Y-60423539D02*
X49661027Y-60375920D01*
X49661027Y-60375920D02*
X49851503Y-60375920D01*
X49851503Y-60375920D02*
X49946741Y-60423539D01*
X49946741Y-60423539D02*
X49994360Y-60518777D01*
X49994360Y-60518777D02*
X49994360Y-60614015D01*
X49994360Y-60614015D02*
X49518170Y-60709253D01*
X50851503Y-61042587D02*
X50851503Y-60518777D01*
X50851503Y-60518777D02*
X50803884Y-60423539D01*
X50803884Y-60423539D02*
X50708646Y-60375920D01*
X50708646Y-60375920D02*
X50518170Y-60375920D01*
X50518170Y-60375920D02*
X50422932Y-60423539D01*
X50851503Y-60994968D02*
X50756265Y-61042587D01*
X50756265Y-61042587D02*
X50518170Y-61042587D01*
X50518170Y-61042587D02*
X50422932Y-60994968D01*
X50422932Y-60994968D02*
X50375313Y-60899729D01*
X50375313Y-60899729D02*
X50375313Y-60804491D01*
X50375313Y-60804491D02*
X50422932Y-60709253D01*
X50422932Y-60709253D02*
X50518170Y-60661634D01*
X50518170Y-60661634D02*
X50756265Y-60661634D01*
X50756265Y-60661634D02*
X50851503Y-60614015D01*
X51327694Y-61042587D02*
X51327694Y-60375920D01*
X51327694Y-60471158D02*
X51375313Y-60423539D01*
X51375313Y-60423539D02*
X51470551Y-60375920D01*
X51470551Y-60375920D02*
X51613408Y-60375920D01*
X51613408Y-60375920D02*
X51708646Y-60423539D01*
X51708646Y-60423539D02*
X51756265Y-60518777D01*
X51756265Y-60518777D02*
X51756265Y-61042587D01*
X51756265Y-60518777D02*
X51803884Y-60423539D01*
X51803884Y-60423539D02*
X51899122Y-60375920D01*
X51899122Y-60375920D02*
X52041979Y-60375920D01*
X52041979Y-60375920D02*
X52137218Y-60423539D01*
X52137218Y-60423539D02*
X52184837Y-60518777D01*
X52184837Y-60518777D02*
X52184837Y-61042587D01*
X53946741Y-61042587D02*
X53375313Y-61042587D01*
X53661027Y-61042587D02*
X53661027Y-60042587D01*
X53661027Y-60042587D02*
X53565789Y-60185444D01*
X53565789Y-60185444D02*
X53470551Y-60280682D01*
X53470551Y-60280682D02*
X53375313Y-60328301D01*
X54518170Y-60471158D02*
X54422932Y-60423539D01*
X54422932Y-60423539D02*
X54375313Y-60375920D01*
X54375313Y-60375920D02*
X54327694Y-60280682D01*
X54327694Y-60280682D02*
X54327694Y-60233063D01*
X54327694Y-60233063D02*
X54375313Y-60137825D01*
X54375313Y-60137825D02*
X54422932Y-60090206D01*
X54422932Y-60090206D02*
X54518170Y-60042587D01*
X54518170Y-60042587D02*
X54708646Y-60042587D01*
X54708646Y-60042587D02*
X54803884Y-60090206D01*
X54803884Y-60090206D02*
X54851503Y-60137825D01*
X54851503Y-60137825D02*
X54899122Y-60233063D01*
X54899122Y-60233063D02*
X54899122Y-60280682D01*
X54899122Y-60280682D02*
X54851503Y-60375920D01*
X54851503Y-60375920D02*
X54803884Y-60423539D01*
X54803884Y-60423539D02*
X54708646Y-60471158D01*
X54708646Y-60471158D02*
X54518170Y-60471158D01*
X54518170Y-60471158D02*
X54422932Y-60518777D01*
X54422932Y-60518777D02*
X54375313Y-60566396D01*
X54375313Y-60566396D02*
X54327694Y-60661634D01*
X54327694Y-60661634D02*
X54327694Y-60852110D01*
X54327694Y-60852110D02*
X54375313Y-60947348D01*
X54375313Y-60947348D02*
X54422932Y-60994968D01*
X54422932Y-60994968D02*
X54518170Y-61042587D01*
X54518170Y-61042587D02*
X54708646Y-61042587D01*
X54708646Y-61042587D02*
X54803884Y-60994968D01*
X54803884Y-60994968D02*
X54851503Y-60947348D01*
X54851503Y-60947348D02*
X54899122Y-60852110D01*
X54899122Y-60852110D02*
X54899122Y-60661634D01*
X54899122Y-60661634D02*
X54851503Y-60566396D01*
X54851503Y-60566396D02*
X54803884Y-60518777D01*
X54803884Y-60518777D02*
X54708646Y-60471158D01*
X49137217Y-62128721D02*
X49280074Y-62176340D01*
X49280074Y-62176340D02*
X49327693Y-62223959D01*
X49327693Y-62223959D02*
X49375312Y-62319197D01*
X49375312Y-62319197D02*
X49375312Y-62462054D01*
X49375312Y-62462054D02*
X49327693Y-62557292D01*
X49327693Y-62557292D02*
X49280074Y-62604912D01*
X49280074Y-62604912D02*
X49184836Y-62652531D01*
X49184836Y-62652531D02*
X48803884Y-62652531D01*
X48803884Y-62652531D02*
X48803884Y-61652531D01*
X48803884Y-61652531D02*
X49137217Y-61652531D01*
X49137217Y-61652531D02*
X49232455Y-61700150D01*
X49232455Y-61700150D02*
X49280074Y-61747769D01*
X49280074Y-61747769D02*
X49327693Y-61843007D01*
X49327693Y-61843007D02*
X49327693Y-61938245D01*
X49327693Y-61938245D02*
X49280074Y-62033483D01*
X49280074Y-62033483D02*
X49232455Y-62081102D01*
X49232455Y-62081102D02*
X49137217Y-62128721D01*
X49137217Y-62128721D02*
X48803884Y-62128721D01*
X50232455Y-62652531D02*
X50232455Y-62128721D01*
X50232455Y-62128721D02*
X50184836Y-62033483D01*
X50184836Y-62033483D02*
X50089598Y-61985864D01*
X50089598Y-61985864D02*
X49899122Y-61985864D01*
X49899122Y-61985864D02*
X49803884Y-62033483D01*
X50232455Y-62604912D02*
X50137217Y-62652531D01*
X50137217Y-62652531D02*
X49899122Y-62652531D01*
X49899122Y-62652531D02*
X49803884Y-62604912D01*
X49803884Y-62604912D02*
X49756265Y-62509673D01*
X49756265Y-62509673D02*
X49756265Y-62414435D01*
X49756265Y-62414435D02*
X49803884Y-62319197D01*
X49803884Y-62319197D02*
X49899122Y-62271578D01*
X49899122Y-62271578D02*
X50137217Y-62271578D01*
X50137217Y-62271578D02*
X50232455Y-62223959D01*
X50708646Y-62652531D02*
X50708646Y-61652531D01*
X50803884Y-62271578D02*
X51089598Y-62652531D01*
X51089598Y-61985864D02*
X50708646Y-62366816D01*
X51518170Y-62652531D02*
X51518170Y-61985864D01*
X51518170Y-62176340D02*
X51565789Y-62081102D01*
X51565789Y-62081102D02*
X51613408Y-62033483D01*
X51613408Y-62033483D02*
X51708646Y-61985864D01*
X51708646Y-61985864D02*
X51803884Y-61985864D01*
X52041980Y-61985864D02*
X52280075Y-62652531D01*
X52518170Y-61985864D02*
X52280075Y-62652531D01*
X52280075Y-62652531D02*
X52184837Y-62890626D01*
X52184837Y-62890626D02*
X52137218Y-62938245D01*
X52137218Y-62938245D02*
X52041980Y-62985864D01*
X53613409Y-62366816D02*
X54089599Y-62366816D01*
X53518171Y-62652531D02*
X53851504Y-61652531D01*
X53851504Y-61652531D02*
X54184837Y-62652531D01*
X54518171Y-62652531D02*
X54518171Y-61652531D01*
X54518171Y-62033483D02*
X54613409Y-61985864D01*
X54613409Y-61985864D02*
X54803885Y-61985864D01*
X54803885Y-61985864D02*
X54899123Y-62033483D01*
X54899123Y-62033483D02*
X54946742Y-62081102D01*
X54946742Y-62081102D02*
X54994361Y-62176340D01*
X54994361Y-62176340D02*
X54994361Y-62462054D01*
X54994361Y-62462054D02*
X54946742Y-62557292D01*
X54946742Y-62557292D02*
X54899123Y-62604912D01*
X54899123Y-62604912D02*
X54803885Y-62652531D01*
X54803885Y-62652531D02*
X54613409Y-62652531D01*
X54613409Y-62652531D02*
X54518171Y-62604912D01*
X55851504Y-62652531D02*
X55851504Y-61652531D01*
X55851504Y-62604912D02*
X55756266Y-62652531D01*
X55756266Y-62652531D02*
X55565790Y-62652531D01*
X55565790Y-62652531D02*
X55470552Y-62604912D01*
X55470552Y-62604912D02*
X55422933Y-62557292D01*
X55422933Y-62557292D02*
X55375314Y-62462054D01*
X55375314Y-62462054D02*
X55375314Y-62176340D01*
X55375314Y-62176340D02*
X55422933Y-62081102D01*
X55422933Y-62081102D02*
X55470552Y-62033483D01*
X55470552Y-62033483D02*
X55565790Y-61985864D01*
X55565790Y-61985864D02*
X55756266Y-61985864D01*
X55756266Y-61985864D02*
X55851504Y-62033483D01*
X56756266Y-62652531D02*
X56756266Y-62128721D01*
X56756266Y-62128721D02*
X56708647Y-62033483D01*
X56708647Y-62033483D02*
X56613409Y-61985864D01*
X56613409Y-61985864D02*
X56422933Y-61985864D01*
X56422933Y-61985864D02*
X56327695Y-62033483D01*
X56756266Y-62604912D02*
X56661028Y-62652531D01*
X56661028Y-62652531D02*
X56422933Y-62652531D01*
X56422933Y-62652531D02*
X56327695Y-62604912D01*
X56327695Y-62604912D02*
X56280076Y-62509673D01*
X56280076Y-62509673D02*
X56280076Y-62414435D01*
X56280076Y-62414435D02*
X56327695Y-62319197D01*
X56327695Y-62319197D02*
X56422933Y-62271578D01*
X56422933Y-62271578D02*
X56661028Y-62271578D01*
X56661028Y-62271578D02*
X56756266Y-62223959D01*
X57375314Y-62652531D02*
X57280076Y-62604912D01*
X57280076Y-62604912D02*
X57232457Y-62509673D01*
X57232457Y-62509673D02*
X57232457Y-61652531D01*
X57899124Y-62652531D02*
X57803886Y-62604912D01*
X57803886Y-62604912D02*
X57756267Y-62509673D01*
X57756267Y-62509673D02*
X57756267Y-61652531D01*
X58708648Y-62652531D02*
X58708648Y-62128721D01*
X58708648Y-62128721D02*
X58661029Y-62033483D01*
X58661029Y-62033483D02*
X58565791Y-61985864D01*
X58565791Y-61985864D02*
X58375315Y-61985864D01*
X58375315Y-61985864D02*
X58280077Y-62033483D01*
X58708648Y-62604912D02*
X58613410Y-62652531D01*
X58613410Y-62652531D02*
X58375315Y-62652531D01*
X58375315Y-62652531D02*
X58280077Y-62604912D01*
X58280077Y-62604912D02*
X58232458Y-62509673D01*
X58232458Y-62509673D02*
X58232458Y-62414435D01*
X58232458Y-62414435D02*
X58280077Y-62319197D01*
X58280077Y-62319197D02*
X58375315Y-62271578D01*
X58375315Y-62271578D02*
X58613410Y-62271578D01*
X58613410Y-62271578D02*
X58708648Y-62223959D01*
X59232458Y-62604912D02*
X59232458Y-62652531D01*
X59232458Y-62652531D02*
X59184839Y-62747769D01*
X59184839Y-62747769D02*
X59137220Y-62795388D01*
X60375315Y-62604912D02*
X60518172Y-62652531D01*
X60518172Y-62652531D02*
X60756267Y-62652531D01*
X60756267Y-62652531D02*
X60851505Y-62604912D01*
X60851505Y-62604912D02*
X60899124Y-62557292D01*
X60899124Y-62557292D02*
X60946743Y-62462054D01*
X60946743Y-62462054D02*
X60946743Y-62366816D01*
X60946743Y-62366816D02*
X60899124Y-62271578D01*
X60899124Y-62271578D02*
X60851505Y-62223959D01*
X60851505Y-62223959D02*
X60756267Y-62176340D01*
X60756267Y-62176340D02*
X60565791Y-62128721D01*
X60565791Y-62128721D02*
X60470553Y-62081102D01*
X60470553Y-62081102D02*
X60422934Y-62033483D01*
X60422934Y-62033483D02*
X60375315Y-61938245D01*
X60375315Y-61938245D02*
X60375315Y-61843007D01*
X60375315Y-61843007D02*
X60422934Y-61747769D01*
X60422934Y-61747769D02*
X60470553Y-61700150D01*
X60470553Y-61700150D02*
X60565791Y-61652531D01*
X60565791Y-61652531D02*
X60803886Y-61652531D01*
X60803886Y-61652531D02*
X60946743Y-61700150D01*
X61375315Y-62652531D02*
X61375315Y-61985864D01*
X61375315Y-61652531D02*
X61327696Y-61700150D01*
X61327696Y-61700150D02*
X61375315Y-61747769D01*
X61375315Y-61747769D02*
X61422934Y-61700150D01*
X61422934Y-61700150D02*
X61375315Y-61652531D01*
X61375315Y-61652531D02*
X61375315Y-61747769D01*
X62280076Y-62652531D02*
X62280076Y-61652531D01*
X62280076Y-62604912D02*
X62184838Y-62652531D01*
X62184838Y-62652531D02*
X61994362Y-62652531D01*
X61994362Y-62652531D02*
X61899124Y-62604912D01*
X61899124Y-62604912D02*
X61851505Y-62557292D01*
X61851505Y-62557292D02*
X61803886Y-62462054D01*
X61803886Y-62462054D02*
X61803886Y-62176340D01*
X61803886Y-62176340D02*
X61851505Y-62081102D01*
X61851505Y-62081102D02*
X61899124Y-62033483D01*
X61899124Y-62033483D02*
X61994362Y-61985864D01*
X61994362Y-61985864D02*
X62184838Y-61985864D01*
X62184838Y-61985864D02*
X62280076Y-62033483D01*
X64041981Y-61700150D02*
X63946743Y-61652531D01*
X63946743Y-61652531D02*
X63803886Y-61652531D01*
X63803886Y-61652531D02*
X63661029Y-61700150D01*
X63661029Y-61700150D02*
X63565791Y-61795388D01*
X63565791Y-61795388D02*
X63518172Y-61890626D01*
X63518172Y-61890626D02*
X63470553Y-62081102D01*
X63470553Y-62081102D02*
X63470553Y-62223959D01*
X63470553Y-62223959D02*
X63518172Y-62414435D01*
X63518172Y-62414435D02*
X63565791Y-62509673D01*
X63565791Y-62509673D02*
X63661029Y-62604912D01*
X63661029Y-62604912D02*
X63803886Y-62652531D01*
X63803886Y-62652531D02*
X63899124Y-62652531D01*
X63899124Y-62652531D02*
X64041981Y-62604912D01*
X64041981Y-62604912D02*
X64089600Y-62557292D01*
X64089600Y-62557292D02*
X64089600Y-62223959D01*
X64089600Y-62223959D02*
X63899124Y-62223959D01*
X64946743Y-61985864D02*
X64946743Y-62652531D01*
X64518172Y-61985864D02*
X64518172Y-62509673D01*
X64518172Y-62509673D02*
X64565791Y-62604912D01*
X64565791Y-62604912D02*
X64661029Y-62652531D01*
X64661029Y-62652531D02*
X64803886Y-62652531D01*
X64803886Y-62652531D02*
X64899124Y-62604912D01*
X64899124Y-62604912D02*
X64946743Y-62557292D01*
X65422934Y-62652531D02*
X65422934Y-61985864D01*
X65422934Y-62176340D02*
X65470553Y-62081102D01*
X65470553Y-62081102D02*
X65518172Y-62033483D01*
X65518172Y-62033483D02*
X65613410Y-61985864D01*
X65613410Y-61985864D02*
X65708648Y-61985864D01*
X66470553Y-61985864D02*
X66470553Y-62652531D01*
X66041982Y-61985864D02*
X66041982Y-62509673D01*
X66041982Y-62509673D02*
X66089601Y-62604912D01*
X66089601Y-62604912D02*
X66184839Y-62652531D01*
X66184839Y-62652531D02*
X66327696Y-62652531D01*
X66327696Y-62652531D02*
X66422934Y-62604912D01*
X66422934Y-62604912D02*
X66470553Y-62557292D01*
X66946744Y-62652531D02*
X66946744Y-61985864D01*
X66946744Y-62081102D02*
X66994363Y-62033483D01*
X66994363Y-62033483D02*
X67089601Y-61985864D01*
X67089601Y-61985864D02*
X67232458Y-61985864D01*
X67232458Y-61985864D02*
X67327696Y-62033483D01*
X67327696Y-62033483D02*
X67375315Y-62128721D01*
X67375315Y-62128721D02*
X67375315Y-62652531D01*
X67375315Y-62128721D02*
X67422934Y-62033483D01*
X67422934Y-62033483D02*
X67518172Y-61985864D01*
X67518172Y-61985864D02*
X67661029Y-61985864D01*
X67661029Y-61985864D02*
X67756268Y-62033483D01*
X67756268Y-62033483D02*
X67803887Y-62128721D01*
X67803887Y-62128721D02*
X67803887Y-62652531D01*
X68708648Y-61985864D02*
X68708648Y-62652531D01*
X68280077Y-61985864D02*
X68280077Y-62509673D01*
X68280077Y-62509673D02*
X68327696Y-62604912D01*
X68327696Y-62604912D02*
X68422934Y-62652531D01*
X68422934Y-62652531D02*
X68565791Y-62652531D01*
X68565791Y-62652531D02*
X68661029Y-62604912D01*
X68661029Y-62604912D02*
X68708648Y-62557292D01*
X69184839Y-62652531D02*
X69184839Y-61985864D01*
X69184839Y-62176340D02*
X69232458Y-62081102D01*
X69232458Y-62081102D02*
X69280077Y-62033483D01*
X69280077Y-62033483D02*
X69375315Y-61985864D01*
X69375315Y-61985864D02*
X69470553Y-61985864D01*
X69661030Y-61985864D02*
X70041982Y-61985864D01*
X69803887Y-61652531D02*
X69803887Y-62509673D01*
X69803887Y-62509673D02*
X69851506Y-62604912D01*
X69851506Y-62604912D02*
X69946744Y-62652531D01*
X69946744Y-62652531D02*
X70041982Y-62652531D01*
X70375316Y-62652531D02*
X70375316Y-61652531D01*
X70803887Y-62652531D02*
X70803887Y-62128721D01*
X70803887Y-62128721D02*
X70756268Y-62033483D01*
X70756268Y-62033483D02*
X70661030Y-61985864D01*
X70661030Y-61985864D02*
X70518173Y-61985864D01*
X70518173Y-61985864D02*
X70422935Y-62033483D01*
X70422935Y-62033483D02*
X70375316Y-62081102D01*
X71280078Y-62652531D02*
X71280078Y-61985864D01*
X71280078Y-61652531D02*
X71232459Y-61700150D01*
X71232459Y-61700150D02*
X71280078Y-61747769D01*
X71280078Y-61747769D02*
X71327697Y-61700150D01*
X71327697Y-61700150D02*
X71280078Y-61652531D01*
X71280078Y-61652531D02*
X71280078Y-61747769D01*
X71803887Y-62604912D02*
X71803887Y-62652531D01*
X71803887Y-62652531D02*
X71756268Y-62747769D01*
X71756268Y-62747769D02*
X71708649Y-62795388D01*
X73280077Y-61652531D02*
X73280077Y-62366816D01*
X73280077Y-62366816D02*
X73232458Y-62509673D01*
X73232458Y-62509673D02*
X73137220Y-62604912D01*
X73137220Y-62604912D02*
X72994363Y-62652531D01*
X72994363Y-62652531D02*
X72899125Y-62652531D01*
X73899125Y-62652531D02*
X73803887Y-62604912D01*
X73803887Y-62604912D02*
X73756268Y-62557292D01*
X73756268Y-62557292D02*
X73708649Y-62462054D01*
X73708649Y-62462054D02*
X73708649Y-62176340D01*
X73708649Y-62176340D02*
X73756268Y-62081102D01*
X73756268Y-62081102D02*
X73803887Y-62033483D01*
X73803887Y-62033483D02*
X73899125Y-61985864D01*
X73899125Y-61985864D02*
X74041982Y-61985864D01*
X74041982Y-61985864D02*
X74137220Y-62033483D01*
X74137220Y-62033483D02*
X74184839Y-62081102D01*
X74184839Y-62081102D02*
X74232458Y-62176340D01*
X74232458Y-62176340D02*
X74232458Y-62462054D01*
X74232458Y-62462054D02*
X74184839Y-62557292D01*
X74184839Y-62557292D02*
X74137220Y-62604912D01*
X74137220Y-62604912D02*
X74041982Y-62652531D01*
X74041982Y-62652531D02*
X73899125Y-62652531D01*
X74661030Y-62652531D02*
X74661030Y-61652531D01*
X75089601Y-62652531D02*
X75089601Y-62128721D01*
X75089601Y-62128721D02*
X75041982Y-62033483D01*
X75041982Y-62033483D02*
X74946744Y-61985864D01*
X74946744Y-61985864D02*
X74803887Y-61985864D01*
X74803887Y-61985864D02*
X74708649Y-62033483D01*
X74708649Y-62033483D02*
X74661030Y-62081102D01*
X75565792Y-61985864D02*
X75565792Y-62652531D01*
X75565792Y-62081102D02*
X75613411Y-62033483D01*
X75613411Y-62033483D02*
X75708649Y-61985864D01*
X75708649Y-61985864D02*
X75851506Y-61985864D01*
X75851506Y-61985864D02*
X75946744Y-62033483D01*
X75946744Y-62033483D02*
X75994363Y-62128721D01*
X75994363Y-62128721D02*
X75994363Y-62652531D01*
X77708649Y-62652531D02*
X77232459Y-62652531D01*
X77232459Y-62652531D02*
X77232459Y-61652531D01*
X78470554Y-61985864D02*
X78470554Y-62652531D01*
X78041983Y-61985864D02*
X78041983Y-62509673D01*
X78041983Y-62509673D02*
X78089602Y-62604912D01*
X78089602Y-62604912D02*
X78184840Y-62652531D01*
X78184840Y-62652531D02*
X78327697Y-62652531D01*
X78327697Y-62652531D02*
X78422935Y-62604912D01*
X78422935Y-62604912D02*
X78470554Y-62557292D01*
X79375316Y-62652531D02*
X79375316Y-61652531D01*
X79375316Y-62604912D02*
X79280078Y-62652531D01*
X79280078Y-62652531D02*
X79089602Y-62652531D01*
X79089602Y-62652531D02*
X78994364Y-62604912D01*
X78994364Y-62604912D02*
X78946745Y-62557292D01*
X78946745Y-62557292D02*
X78899126Y-62462054D01*
X78899126Y-62462054D02*
X78899126Y-62176340D01*
X78899126Y-62176340D02*
X78946745Y-62081102D01*
X78946745Y-62081102D02*
X78994364Y-62033483D01*
X78994364Y-62033483D02*
X79089602Y-61985864D01*
X79089602Y-61985864D02*
X79280078Y-61985864D01*
X79280078Y-61985864D02*
X79375316Y-62033483D01*
X80232459Y-62604912D02*
X80137221Y-62652531D01*
X80137221Y-62652531D02*
X79946745Y-62652531D01*
X79946745Y-62652531D02*
X79851507Y-62604912D01*
X79851507Y-62604912D02*
X79803888Y-62509673D01*
X79803888Y-62509673D02*
X79803888Y-62128721D01*
X79803888Y-62128721D02*
X79851507Y-62033483D01*
X79851507Y-62033483D02*
X79946745Y-61985864D01*
X79946745Y-61985864D02*
X80137221Y-61985864D01*
X80137221Y-61985864D02*
X80232459Y-62033483D01*
X80232459Y-62033483D02*
X80280078Y-62128721D01*
X80280078Y-62128721D02*
X80280078Y-62223959D01*
X80280078Y-62223959D02*
X79803888Y-62319197D01*
X80708650Y-62652531D02*
X80708650Y-61652531D01*
X80803888Y-62271578D02*
X81089602Y-62652531D01*
X81089602Y-61985864D02*
X80708650Y-62366816D01*
X81899126Y-62604912D02*
X81803888Y-62652531D01*
X81803888Y-62652531D02*
X81613412Y-62652531D01*
X81613412Y-62652531D02*
X81518174Y-62604912D01*
X81518174Y-62604912D02*
X81470555Y-62509673D01*
X81470555Y-62509673D02*
X81470555Y-62128721D01*
X81470555Y-62128721D02*
X81518174Y-62033483D01*
X81518174Y-62033483D02*
X81613412Y-61985864D01*
X81613412Y-61985864D02*
X81803888Y-61985864D01*
X81803888Y-61985864D02*
X81899126Y-62033483D01*
X81899126Y-62033483D02*
X81946745Y-62128721D01*
X81946745Y-62128721D02*
X81946745Y-62223959D01*
X81946745Y-62223959D02*
X81470555Y-62319197D01*
X48756265Y-63976760D02*
X49232455Y-63976760D01*
X48661027Y-64262475D02*
X48994360Y-63262475D01*
X48994360Y-63262475D02*
X49327693Y-64262475D01*
X50089598Y-63595808D02*
X50089598Y-64262475D01*
X49661027Y-63595808D02*
X49661027Y-64119617D01*
X49661027Y-64119617D02*
X49708646Y-64214856D01*
X49708646Y-64214856D02*
X49803884Y-64262475D01*
X49803884Y-64262475D02*
X49946741Y-64262475D01*
X49946741Y-64262475D02*
X50041979Y-64214856D01*
X50041979Y-64214856D02*
X50089598Y-64167236D01*
X50994360Y-64262475D02*
X50994360Y-63262475D01*
X50994360Y-64214856D02*
X50899122Y-64262475D01*
X50899122Y-64262475D02*
X50708646Y-64262475D01*
X50708646Y-64262475D02*
X50613408Y-64214856D01*
X50613408Y-64214856D02*
X50565789Y-64167236D01*
X50565789Y-64167236D02*
X50518170Y-64071998D01*
X50518170Y-64071998D02*
X50518170Y-63786284D01*
X50518170Y-63786284D02*
X50565789Y-63691046D01*
X50565789Y-63691046D02*
X50613408Y-63643427D01*
X50613408Y-63643427D02*
X50708646Y-63595808D01*
X50708646Y-63595808D02*
X50899122Y-63595808D01*
X50899122Y-63595808D02*
X50994360Y-63643427D01*
X51470551Y-64262475D02*
X51470551Y-63595808D01*
X51470551Y-63262475D02*
X51422932Y-63310094D01*
X51422932Y-63310094D02*
X51470551Y-63357713D01*
X51470551Y-63357713D02*
X51518170Y-63310094D01*
X51518170Y-63310094D02*
X51470551Y-63262475D01*
X51470551Y-63262475D02*
X51470551Y-63357713D01*
X52089598Y-64262475D02*
X51994360Y-64214856D01*
X51994360Y-64214856D02*
X51946741Y-64167236D01*
X51946741Y-64167236D02*
X51899122Y-64071998D01*
X51899122Y-64071998D02*
X51899122Y-63786284D01*
X51899122Y-63786284D02*
X51946741Y-63691046D01*
X51946741Y-63691046D02*
X51994360Y-63643427D01*
X51994360Y-63643427D02*
X52089598Y-63595808D01*
X52089598Y-63595808D02*
X52232455Y-63595808D01*
X52232455Y-63595808D02*
X52327693Y-63643427D01*
X52327693Y-63643427D02*
X52375312Y-63691046D01*
X52375312Y-63691046D02*
X52422931Y-63786284D01*
X52422931Y-63786284D02*
X52422931Y-64071998D01*
X52422931Y-64071998D02*
X52375312Y-64167236D01*
X52375312Y-64167236D02*
X52327693Y-64214856D01*
X52327693Y-64214856D02*
X52232455Y-64262475D01*
X52232455Y-64262475D02*
X52089598Y-64262475D01*
X53613408Y-64262475D02*
X53613408Y-63262475D01*
X53613408Y-63262475D02*
X53994360Y-63262475D01*
X53994360Y-63262475D02*
X54089598Y-63310094D01*
X54089598Y-63310094D02*
X54137217Y-63357713D01*
X54137217Y-63357713D02*
X54184836Y-63452951D01*
X54184836Y-63452951D02*
X54184836Y-63595808D01*
X54184836Y-63595808D02*
X54137217Y-63691046D01*
X54137217Y-63691046D02*
X54089598Y-63738665D01*
X54089598Y-63738665D02*
X53994360Y-63786284D01*
X53994360Y-63786284D02*
X53613408Y-63786284D01*
X54613408Y-64262475D02*
X54613408Y-63595808D01*
X54613408Y-63786284D02*
X54661027Y-63691046D01*
X54661027Y-63691046D02*
X54708646Y-63643427D01*
X54708646Y-63643427D02*
X54803884Y-63595808D01*
X54803884Y-63595808D02*
X54899122Y-63595808D01*
X55375313Y-64262475D02*
X55280075Y-64214856D01*
X55280075Y-64214856D02*
X55232456Y-64167236D01*
X55232456Y-64167236D02*
X55184837Y-64071998D01*
X55184837Y-64071998D02*
X55184837Y-63786284D01*
X55184837Y-63786284D02*
X55232456Y-63691046D01*
X55232456Y-63691046D02*
X55280075Y-63643427D01*
X55280075Y-63643427D02*
X55375313Y-63595808D01*
X55375313Y-63595808D02*
X55518170Y-63595808D01*
X55518170Y-63595808D02*
X55613408Y-63643427D01*
X55613408Y-63643427D02*
X55661027Y-63691046D01*
X55661027Y-63691046D02*
X55708646Y-63786284D01*
X55708646Y-63786284D02*
X55708646Y-64071998D01*
X55708646Y-64071998D02*
X55661027Y-64167236D01*
X55661027Y-64167236D02*
X55613408Y-64214856D01*
X55613408Y-64214856D02*
X55518170Y-64262475D01*
X55518170Y-64262475D02*
X55375313Y-64262475D01*
X56565789Y-64214856D02*
X56470551Y-64262475D01*
X56470551Y-64262475D02*
X56280075Y-64262475D01*
X56280075Y-64262475D02*
X56184837Y-64214856D01*
X56184837Y-64214856D02*
X56137218Y-64167236D01*
X56137218Y-64167236D02*
X56089599Y-64071998D01*
X56089599Y-64071998D02*
X56089599Y-63786284D01*
X56089599Y-63786284D02*
X56137218Y-63691046D01*
X56137218Y-63691046D02*
X56184837Y-63643427D01*
X56184837Y-63643427D02*
X56280075Y-63595808D01*
X56280075Y-63595808D02*
X56470551Y-63595808D01*
X56470551Y-63595808D02*
X56565789Y-63643427D01*
X57375313Y-64214856D02*
X57280075Y-64262475D01*
X57280075Y-64262475D02*
X57089599Y-64262475D01*
X57089599Y-64262475D02*
X56994361Y-64214856D01*
X56994361Y-64214856D02*
X56946742Y-64119617D01*
X56946742Y-64119617D02*
X56946742Y-63738665D01*
X56946742Y-63738665D02*
X56994361Y-63643427D01*
X56994361Y-63643427D02*
X57089599Y-63595808D01*
X57089599Y-63595808D02*
X57280075Y-63595808D01*
X57280075Y-63595808D02*
X57375313Y-63643427D01*
X57375313Y-63643427D02*
X57422932Y-63738665D01*
X57422932Y-63738665D02*
X57422932Y-63833903D01*
X57422932Y-63833903D02*
X56946742Y-63929141D01*
X57803885Y-64214856D02*
X57899123Y-64262475D01*
X57899123Y-64262475D02*
X58089599Y-64262475D01*
X58089599Y-64262475D02*
X58184837Y-64214856D01*
X58184837Y-64214856D02*
X58232456Y-64119617D01*
X58232456Y-64119617D02*
X58232456Y-64071998D01*
X58232456Y-64071998D02*
X58184837Y-63976760D01*
X58184837Y-63976760D02*
X58089599Y-63929141D01*
X58089599Y-63929141D02*
X57946742Y-63929141D01*
X57946742Y-63929141D02*
X57851504Y-63881522D01*
X57851504Y-63881522D02*
X57803885Y-63786284D01*
X57803885Y-63786284D02*
X57803885Y-63738665D01*
X57803885Y-63738665D02*
X57851504Y-63643427D01*
X57851504Y-63643427D02*
X57946742Y-63595808D01*
X57946742Y-63595808D02*
X58089599Y-63595808D01*
X58089599Y-63595808D02*
X58184837Y-63643427D01*
X58613409Y-64214856D02*
X58708647Y-64262475D01*
X58708647Y-64262475D02*
X58899123Y-64262475D01*
X58899123Y-64262475D02*
X58994361Y-64214856D01*
X58994361Y-64214856D02*
X59041980Y-64119617D01*
X59041980Y-64119617D02*
X59041980Y-64071998D01*
X59041980Y-64071998D02*
X58994361Y-63976760D01*
X58994361Y-63976760D02*
X58899123Y-63929141D01*
X58899123Y-63929141D02*
X58756266Y-63929141D01*
X58756266Y-63929141D02*
X58661028Y-63881522D01*
X58661028Y-63881522D02*
X58613409Y-63786284D01*
X58613409Y-63786284D02*
X58613409Y-63738665D01*
X58613409Y-63738665D02*
X58661028Y-63643427D01*
X58661028Y-63643427D02*
X58756266Y-63595808D01*
X58756266Y-63595808D02*
X58899123Y-63595808D01*
X58899123Y-63595808D02*
X58994361Y-63643427D01*
X59470552Y-64262475D02*
X59470552Y-63595808D01*
X59470552Y-63262475D02*
X59422933Y-63310094D01*
X59422933Y-63310094D02*
X59470552Y-63357713D01*
X59470552Y-63357713D02*
X59518171Y-63310094D01*
X59518171Y-63310094D02*
X59470552Y-63262475D01*
X59470552Y-63262475D02*
X59470552Y-63357713D01*
X59946742Y-63595808D02*
X59946742Y-64262475D01*
X59946742Y-63691046D02*
X59994361Y-63643427D01*
X59994361Y-63643427D02*
X60089599Y-63595808D01*
X60089599Y-63595808D02*
X60232456Y-63595808D01*
X60232456Y-63595808D02*
X60327694Y-63643427D01*
X60327694Y-63643427D02*
X60375313Y-63738665D01*
X60375313Y-63738665D02*
X60375313Y-64262475D01*
X61280075Y-63595808D02*
X61280075Y-64405332D01*
X61280075Y-64405332D02*
X61232456Y-64500570D01*
X61232456Y-64500570D02*
X61184837Y-64548189D01*
X61184837Y-64548189D02*
X61089599Y-64595808D01*
X61089599Y-64595808D02*
X60946742Y-64595808D01*
X60946742Y-64595808D02*
X60851504Y-64548189D01*
X61280075Y-64214856D02*
X61184837Y-64262475D01*
X61184837Y-64262475D02*
X60994361Y-64262475D01*
X60994361Y-64262475D02*
X60899123Y-64214856D01*
X60899123Y-64214856D02*
X60851504Y-64167236D01*
X60851504Y-64167236D02*
X60803885Y-64071998D01*
X60803885Y-64071998D02*
X60803885Y-63786284D01*
X60803885Y-63786284D02*
X60851504Y-63691046D01*
X60851504Y-63691046D02*
X60899123Y-63643427D01*
X60899123Y-63643427D02*
X60994361Y-63595808D01*
X60994361Y-63595808D02*
X61184837Y-63595808D01*
X61184837Y-63595808D02*
X61280075Y-63643427D01*
X62851504Y-63738665D02*
X62994361Y-63786284D01*
X62994361Y-63786284D02*
X63041980Y-63833903D01*
X63041980Y-63833903D02*
X63089599Y-63929141D01*
X63089599Y-63929141D02*
X63089599Y-64071998D01*
X63089599Y-64071998D02*
X63041980Y-64167236D01*
X63041980Y-64167236D02*
X62994361Y-64214856D01*
X62994361Y-64214856D02*
X62899123Y-64262475D01*
X62899123Y-64262475D02*
X62518171Y-64262475D01*
X62518171Y-64262475D02*
X62518171Y-63262475D01*
X62518171Y-63262475D02*
X62851504Y-63262475D01*
X62851504Y-63262475D02*
X62946742Y-63310094D01*
X62946742Y-63310094D02*
X62994361Y-63357713D01*
X62994361Y-63357713D02*
X63041980Y-63452951D01*
X63041980Y-63452951D02*
X63041980Y-63548189D01*
X63041980Y-63548189D02*
X62994361Y-63643427D01*
X62994361Y-63643427D02*
X62946742Y-63691046D01*
X62946742Y-63691046D02*
X62851504Y-63738665D01*
X62851504Y-63738665D02*
X62518171Y-63738665D01*
X63661028Y-64262475D02*
X63565790Y-64214856D01*
X63565790Y-64214856D02*
X63518171Y-64167236D01*
X63518171Y-64167236D02*
X63470552Y-64071998D01*
X63470552Y-64071998D02*
X63470552Y-63786284D01*
X63470552Y-63786284D02*
X63518171Y-63691046D01*
X63518171Y-63691046D02*
X63565790Y-63643427D01*
X63565790Y-63643427D02*
X63661028Y-63595808D01*
X63661028Y-63595808D02*
X63803885Y-63595808D01*
X63803885Y-63595808D02*
X63899123Y-63643427D01*
X63899123Y-63643427D02*
X63946742Y-63691046D01*
X63946742Y-63691046D02*
X63994361Y-63786284D01*
X63994361Y-63786284D02*
X63994361Y-64071998D01*
X63994361Y-64071998D02*
X63946742Y-64167236D01*
X63946742Y-64167236D02*
X63899123Y-64214856D01*
X63899123Y-64214856D02*
X63803885Y-64262475D01*
X63803885Y-64262475D02*
X63661028Y-64262475D01*
X64851504Y-64262475D02*
X64851504Y-63738665D01*
X64851504Y-63738665D02*
X64803885Y-63643427D01*
X64803885Y-63643427D02*
X64708647Y-63595808D01*
X64708647Y-63595808D02*
X64518171Y-63595808D01*
X64518171Y-63595808D02*
X64422933Y-63643427D01*
X64851504Y-64214856D02*
X64756266Y-64262475D01*
X64756266Y-64262475D02*
X64518171Y-64262475D01*
X64518171Y-64262475D02*
X64422933Y-64214856D01*
X64422933Y-64214856D02*
X64375314Y-64119617D01*
X64375314Y-64119617D02*
X64375314Y-64024379D01*
X64375314Y-64024379D02*
X64422933Y-63929141D01*
X64422933Y-63929141D02*
X64518171Y-63881522D01*
X64518171Y-63881522D02*
X64756266Y-63881522D01*
X64756266Y-63881522D02*
X64851504Y-63833903D01*
X65327695Y-64262475D02*
X65327695Y-63595808D01*
X65327695Y-63786284D02*
X65375314Y-63691046D01*
X65375314Y-63691046D02*
X65422933Y-63643427D01*
X65422933Y-63643427D02*
X65518171Y-63595808D01*
X65518171Y-63595808D02*
X65613409Y-63595808D01*
X66375314Y-64262475D02*
X66375314Y-63262475D01*
X66375314Y-64214856D02*
X66280076Y-64262475D01*
X66280076Y-64262475D02*
X66089600Y-64262475D01*
X66089600Y-64262475D02*
X65994362Y-64214856D01*
X65994362Y-64214856D02*
X65946743Y-64167236D01*
X65946743Y-64167236D02*
X65899124Y-64071998D01*
X65899124Y-64071998D02*
X65899124Y-63786284D01*
X65899124Y-63786284D02*
X65946743Y-63691046D01*
X65946743Y-63691046D02*
X65994362Y-63643427D01*
X65994362Y-63643427D02*
X66089600Y-63595808D01*
X66089600Y-63595808D02*
X66280076Y-63595808D01*
X66280076Y-63595808D02*
X66375314Y-63643427D01*
X66899124Y-64214856D02*
X66899124Y-64262475D01*
X66899124Y-64262475D02*
X66851505Y-64357713D01*
X66851505Y-64357713D02*
X66803886Y-64405332D01*
X68661028Y-64262475D02*
X68327695Y-63786284D01*
X68089600Y-64262475D02*
X68089600Y-63262475D01*
X68089600Y-63262475D02*
X68470552Y-63262475D01*
X68470552Y-63262475D02*
X68565790Y-63310094D01*
X68565790Y-63310094D02*
X68613409Y-63357713D01*
X68613409Y-63357713D02*
X68661028Y-63452951D01*
X68661028Y-63452951D02*
X68661028Y-63595808D01*
X68661028Y-63595808D02*
X68613409Y-63691046D01*
X68613409Y-63691046D02*
X68565790Y-63738665D01*
X68565790Y-63738665D02*
X68470552Y-63786284D01*
X68470552Y-63786284D02*
X68089600Y-63786284D01*
X69470552Y-64214856D02*
X69375314Y-64262475D01*
X69375314Y-64262475D02*
X69184838Y-64262475D01*
X69184838Y-64262475D02*
X69089600Y-64214856D01*
X69089600Y-64214856D02*
X69041981Y-64119617D01*
X69041981Y-64119617D02*
X69041981Y-63738665D01*
X69041981Y-63738665D02*
X69089600Y-63643427D01*
X69089600Y-63643427D02*
X69184838Y-63595808D01*
X69184838Y-63595808D02*
X69375314Y-63595808D01*
X69375314Y-63595808D02*
X69470552Y-63643427D01*
X69470552Y-63643427D02*
X69518171Y-63738665D01*
X69518171Y-63738665D02*
X69518171Y-63833903D01*
X69518171Y-63833903D02*
X69041981Y-63929141D01*
X69851505Y-63595808D02*
X70089600Y-64262475D01*
X70089600Y-64262475D02*
X70327695Y-63595808D01*
X71994362Y-64262475D02*
X71422934Y-64262475D01*
X71708648Y-64262475D02*
X71708648Y-63262475D01*
X71708648Y-63262475D02*
X71613410Y-63405332D01*
X71613410Y-63405332D02*
X71518172Y-63500570D01*
X71518172Y-63500570D02*
X71422934Y-63548189D01*
X48994360Y-64872419D02*
X49089598Y-64872419D01*
X49089598Y-64872419D02*
X49184836Y-64920038D01*
X49184836Y-64920038D02*
X49232455Y-64967657D01*
X49232455Y-64967657D02*
X49280074Y-65062895D01*
X49280074Y-65062895D02*
X49327693Y-65253371D01*
X49327693Y-65253371D02*
X49327693Y-65491466D01*
X49327693Y-65491466D02*
X49280074Y-65681942D01*
X49280074Y-65681942D02*
X49232455Y-65777180D01*
X49232455Y-65777180D02*
X49184836Y-65824800D01*
X49184836Y-65824800D02*
X49089598Y-65872419D01*
X49089598Y-65872419D02*
X48994360Y-65872419D01*
X48994360Y-65872419D02*
X48899122Y-65824800D01*
X48899122Y-65824800D02*
X48851503Y-65777180D01*
X48851503Y-65777180D02*
X48803884Y-65681942D01*
X48803884Y-65681942D02*
X48756265Y-65491466D01*
X48756265Y-65491466D02*
X48756265Y-65253371D01*
X48756265Y-65253371D02*
X48803884Y-65062895D01*
X48803884Y-65062895D02*
X48851503Y-64967657D01*
X48851503Y-64967657D02*
X48899122Y-64920038D01*
X48899122Y-64920038D02*
X48994360Y-64872419D01*
X50184836Y-65205752D02*
X50184836Y-65872419D01*
X49946741Y-64824800D02*
X49708646Y-65539085D01*
X49708646Y-65539085D02*
X50327693Y-65539085D01*
X51422931Y-64824800D02*
X50565789Y-66110514D01*
X51946741Y-64872419D02*
X52041979Y-64872419D01*
X52041979Y-64872419D02*
X52137217Y-64920038D01*
X52137217Y-64920038D02*
X52184836Y-64967657D01*
X52184836Y-64967657D02*
X52232455Y-65062895D01*
X52232455Y-65062895D02*
X52280074Y-65253371D01*
X52280074Y-65253371D02*
X52280074Y-65491466D01*
X52280074Y-65491466D02*
X52232455Y-65681942D01*
X52232455Y-65681942D02*
X52184836Y-65777180D01*
X52184836Y-65777180D02*
X52137217Y-65824800D01*
X52137217Y-65824800D02*
X52041979Y-65872419D01*
X52041979Y-65872419D02*
X51946741Y-65872419D01*
X51946741Y-65872419D02*
X51851503Y-65824800D01*
X51851503Y-65824800D02*
X51803884Y-65777180D01*
X51803884Y-65777180D02*
X51756265Y-65681942D01*
X51756265Y-65681942D02*
X51708646Y-65491466D01*
X51708646Y-65491466D02*
X51708646Y-65253371D01*
X51708646Y-65253371D02*
X51756265Y-65062895D01*
X51756265Y-65062895D02*
X51803884Y-64967657D01*
X51803884Y-64967657D02*
X51851503Y-64920038D01*
X51851503Y-64920038D02*
X51946741Y-64872419D01*
X53184836Y-64872419D02*
X52708646Y-64872419D01*
X52708646Y-64872419D02*
X52661027Y-65348609D01*
X52661027Y-65348609D02*
X52708646Y-65300990D01*
X52708646Y-65300990D02*
X52803884Y-65253371D01*
X52803884Y-65253371D02*
X53041979Y-65253371D01*
X53041979Y-65253371D02*
X53137217Y-65300990D01*
X53137217Y-65300990D02*
X53184836Y-65348609D01*
X53184836Y-65348609D02*
X53232455Y-65443847D01*
X53232455Y-65443847D02*
X53232455Y-65681942D01*
X53232455Y-65681942D02*
X53184836Y-65777180D01*
X53184836Y-65777180D02*
X53137217Y-65824800D01*
X53137217Y-65824800D02*
X53041979Y-65872419D01*
X53041979Y-65872419D02*
X52803884Y-65872419D01*
X52803884Y-65872419D02*
X52708646Y-65824800D01*
X52708646Y-65824800D02*
X52661027Y-65777180D01*
X54375312Y-64824800D02*
X53518170Y-66110514D01*
X54661027Y-64967657D02*
X54708646Y-64920038D01*
X54708646Y-64920038D02*
X54803884Y-64872419D01*
X54803884Y-64872419D02*
X55041979Y-64872419D01*
X55041979Y-64872419D02*
X55137217Y-64920038D01*
X55137217Y-64920038D02*
X55184836Y-64967657D01*
X55184836Y-64967657D02*
X55232455Y-65062895D01*
X55232455Y-65062895D02*
X55232455Y-65158133D01*
X55232455Y-65158133D02*
X55184836Y-65300990D01*
X55184836Y-65300990D02*
X54613408Y-65872419D01*
X54613408Y-65872419D02*
X55232455Y-65872419D01*
X56089598Y-64872419D02*
X55899122Y-64872419D01*
X55899122Y-64872419D02*
X55803884Y-64920038D01*
X55803884Y-64920038D02*
X55756265Y-64967657D01*
X55756265Y-64967657D02*
X55661027Y-65110514D01*
X55661027Y-65110514D02*
X55613408Y-65300990D01*
X55613408Y-65300990D02*
X55613408Y-65681942D01*
X55613408Y-65681942D02*
X55661027Y-65777180D01*
X55661027Y-65777180D02*
X55708646Y-65824800D01*
X55708646Y-65824800D02*
X55803884Y-65872419D01*
X55803884Y-65872419D02*
X55994360Y-65872419D01*
X55994360Y-65872419D02*
X56089598Y-65824800D01*
X56089598Y-65824800D02*
X56137217Y-65777180D01*
X56137217Y-65777180D02*
X56184836Y-65681942D01*
X56184836Y-65681942D02*
X56184836Y-65443847D01*
X56184836Y-65443847D02*
X56137217Y-65348609D01*
X56137217Y-65348609D02*
X56089598Y-65300990D01*
X56089598Y-65300990D02*
X55994360Y-65253371D01*
X55994360Y-65253371D02*
X55803884Y-65253371D01*
X55803884Y-65253371D02*
X55708646Y-65300990D01*
X55708646Y-65300990D02*
X55661027Y-65348609D01*
X55661027Y-65348609D02*
X55613408Y-65443847D01*
D11*
X110311845Y-73704819D02*
X110311845Y-74514342D01*
X110311845Y-74514342D02*
X110359464Y-74609580D01*
X110359464Y-74609580D02*
X110407083Y-74657200D01*
X110407083Y-74657200D02*
X110502321Y-74704819D01*
X110502321Y-74704819D02*
X110692797Y-74704819D01*
X110692797Y-74704819D02*
X110788035Y-74657200D01*
X110788035Y-74657200D02*
X110835654Y-74609580D01*
X110835654Y-74609580D02*
X110883273Y-74514342D01*
X110883273Y-74514342D02*
X110883273Y-73704819D01*
X111502321Y-74133390D02*
X111407083Y-74085771D01*
X111407083Y-74085771D02*
X111359464Y-74038152D01*
X111359464Y-74038152D02*
X111311845Y-73942914D01*
X111311845Y-73942914D02*
X111311845Y-73895295D01*
X111311845Y-73895295D02*
X111359464Y-73800057D01*
X111359464Y-73800057D02*
X111407083Y-73752438D01*
X111407083Y-73752438D02*
X111502321Y-73704819D01*
X111502321Y-73704819D02*
X111692797Y-73704819D01*
X111692797Y-73704819D02*
X111788035Y-73752438D01*
X111788035Y-73752438D02*
X111835654Y-73800057D01*
X111835654Y-73800057D02*
X111883273Y-73895295D01*
X111883273Y-73895295D02*
X111883273Y-73942914D01*
X111883273Y-73942914D02*
X111835654Y-74038152D01*
X111835654Y-74038152D02*
X111788035Y-74085771D01*
X111788035Y-74085771D02*
X111692797Y-74133390D01*
X111692797Y-74133390D02*
X111502321Y-74133390D01*
X111502321Y-74133390D02*
X111407083Y-74181009D01*
X111407083Y-74181009D02*
X111359464Y-74228628D01*
X111359464Y-74228628D02*
X111311845Y-74323866D01*
X111311845Y-74323866D02*
X111311845Y-74514342D01*
X111311845Y-74514342D02*
X111359464Y-74609580D01*
X111359464Y-74609580D02*
X111407083Y-74657200D01*
X111407083Y-74657200D02*
X111502321Y-74704819D01*
X111502321Y-74704819D02*
X111692797Y-74704819D01*
X111692797Y-74704819D02*
X111788035Y-74657200D01*
X111788035Y-74657200D02*
X111835654Y-74609580D01*
X111835654Y-74609580D02*
X111883273Y-74514342D01*
X111883273Y-74514342D02*
X111883273Y-74323866D01*
X111883273Y-74323866D02*
X111835654Y-74228628D01*
X111835654Y-74228628D02*
X111788035Y-74181009D01*
X111788035Y-74181009D02*
X111692797Y-74133390D01*
X115311845Y-122779819D02*
X115311845Y-123589342D01*
X115311845Y-123589342D02*
X115359464Y-123684580D01*
X115359464Y-123684580D02*
X115407083Y-123732200D01*
X115407083Y-123732200D02*
X115502321Y-123779819D01*
X115502321Y-123779819D02*
X115692797Y-123779819D01*
X115692797Y-123779819D02*
X115788035Y-123732200D01*
X115788035Y-123732200D02*
X115835654Y-123684580D01*
X115835654Y-123684580D02*
X115883273Y-123589342D01*
X115883273Y-123589342D02*
X115883273Y-122779819D01*
X116264226Y-122779819D02*
X116930892Y-122779819D01*
X116930892Y-122779819D02*
X116502321Y-123779819D01*
X95311845Y-122779819D02*
X95311845Y-123589342D01*
X95311845Y-123589342D02*
X95359464Y-123684580D01*
X95359464Y-123684580D02*
X95407083Y-123732200D01*
X95407083Y-123732200D02*
X95502321Y-123779819D01*
X95502321Y-123779819D02*
X95692797Y-123779819D01*
X95692797Y-123779819D02*
X95788035Y-123732200D01*
X95788035Y-123732200D02*
X95835654Y-123684580D01*
X95835654Y-123684580D02*
X95883273Y-123589342D01*
X95883273Y-123589342D02*
X95883273Y-122779819D01*
X96788035Y-122779819D02*
X96597559Y-122779819D01*
X96597559Y-122779819D02*
X96502321Y-122827438D01*
X96502321Y-122827438D02*
X96454702Y-122875057D01*
X96454702Y-122875057D02*
X96359464Y-123017914D01*
X96359464Y-123017914D02*
X96311845Y-123208390D01*
X96311845Y-123208390D02*
X96311845Y-123589342D01*
X96311845Y-123589342D02*
X96359464Y-123684580D01*
X96359464Y-123684580D02*
X96407083Y-123732200D01*
X96407083Y-123732200D02*
X96502321Y-123779819D01*
X96502321Y-123779819D02*
X96692797Y-123779819D01*
X96692797Y-123779819D02*
X96788035Y-123732200D01*
X96788035Y-123732200D02*
X96835654Y-123684580D01*
X96835654Y-123684580D02*
X96883273Y-123589342D01*
X96883273Y-123589342D02*
X96883273Y-123351247D01*
X96883273Y-123351247D02*
X96835654Y-123256009D01*
X96835654Y-123256009D02*
X96788035Y-123208390D01*
X96788035Y-123208390D02*
X96692797Y-123160771D01*
X96692797Y-123160771D02*
X96502321Y-123160771D01*
X96502321Y-123160771D02*
X96407083Y-123208390D01*
X96407083Y-123208390D02*
X96359464Y-123256009D01*
X96359464Y-123256009D02*
X96311845Y-123351247D01*
X84731845Y-104434819D02*
X84731845Y-105244342D01*
X84731845Y-105244342D02*
X84779464Y-105339580D01*
X84779464Y-105339580D02*
X84827083Y-105387200D01*
X84827083Y-105387200D02*
X84922321Y-105434819D01*
X84922321Y-105434819D02*
X85112797Y-105434819D01*
X85112797Y-105434819D02*
X85208035Y-105387200D01*
X85208035Y-105387200D02*
X85255654Y-105339580D01*
X85255654Y-105339580D02*
X85303273Y-105244342D01*
X85303273Y-105244342D02*
X85303273Y-104434819D01*
X85731845Y-104530057D02*
X85779464Y-104482438D01*
X85779464Y-104482438D02*
X85874702Y-104434819D01*
X85874702Y-104434819D02*
X86112797Y-104434819D01*
X86112797Y-104434819D02*
X86208035Y-104482438D01*
X86208035Y-104482438D02*
X86255654Y-104530057D01*
X86255654Y-104530057D02*
X86303273Y-104625295D01*
X86303273Y-104625295D02*
X86303273Y-104720533D01*
X86303273Y-104720533D02*
X86255654Y-104863390D01*
X86255654Y-104863390D02*
X85684226Y-105434819D01*
X85684226Y-105434819D02*
X86303273Y-105434819D01*
X64240417Y-134257200D02*
X64383274Y-134304819D01*
X64383274Y-134304819D02*
X64621369Y-134304819D01*
X64621369Y-134304819D02*
X64716607Y-134257200D01*
X64716607Y-134257200D02*
X64764226Y-134209580D01*
X64764226Y-134209580D02*
X64811845Y-134114342D01*
X64811845Y-134114342D02*
X64811845Y-134019104D01*
X64811845Y-134019104D02*
X64764226Y-133923866D01*
X64764226Y-133923866D02*
X64716607Y-133876247D01*
X64716607Y-133876247D02*
X64621369Y-133828628D01*
X64621369Y-133828628D02*
X64430893Y-133781009D01*
X64430893Y-133781009D02*
X64335655Y-133733390D01*
X64335655Y-133733390D02*
X64288036Y-133685771D01*
X64288036Y-133685771D02*
X64240417Y-133590533D01*
X64240417Y-133590533D02*
X64240417Y-133495295D01*
X64240417Y-133495295D02*
X64288036Y-133400057D01*
X64288036Y-133400057D02*
X64335655Y-133352438D01*
X64335655Y-133352438D02*
X64430893Y-133304819D01*
X64430893Y-133304819D02*
X64668988Y-133304819D01*
X64668988Y-133304819D02*
X64811845Y-133352438D01*
X65145179Y-133304819D02*
X65383274Y-134304819D01*
X65383274Y-134304819D02*
X65573750Y-133590533D01*
X65573750Y-133590533D02*
X65764226Y-134304819D01*
X65764226Y-134304819D02*
X66002322Y-133304819D01*
X66859464Y-133304819D02*
X66383274Y-133304819D01*
X66383274Y-133304819D02*
X66335655Y-133781009D01*
X66335655Y-133781009D02*
X66383274Y-133733390D01*
X66383274Y-133733390D02*
X66478512Y-133685771D01*
X66478512Y-133685771D02*
X66716607Y-133685771D01*
X66716607Y-133685771D02*
X66811845Y-133733390D01*
X66811845Y-133733390D02*
X66859464Y-133781009D01*
X66859464Y-133781009D02*
X66907083Y-133876247D01*
X66907083Y-133876247D02*
X66907083Y-134114342D01*
X66907083Y-134114342D02*
X66859464Y-134209580D01*
X66859464Y-134209580D02*
X66811845Y-134257200D01*
X66811845Y-134257200D02*
X66716607Y-134304819D01*
X66716607Y-134304819D02*
X66478512Y-134304819D01*
X66478512Y-134304819D02*
X66383274Y-134257200D01*
X66383274Y-134257200D02*
X66335655Y-134209580D01*
X49740417Y-134357200D02*
X49883274Y-134404819D01*
X49883274Y-134404819D02*
X50121369Y-134404819D01*
X50121369Y-134404819D02*
X50216607Y-134357200D01*
X50216607Y-134357200D02*
X50264226Y-134309580D01*
X50264226Y-134309580D02*
X50311845Y-134214342D01*
X50311845Y-134214342D02*
X50311845Y-134119104D01*
X50311845Y-134119104D02*
X50264226Y-134023866D01*
X50264226Y-134023866D02*
X50216607Y-133976247D01*
X50216607Y-133976247D02*
X50121369Y-133928628D01*
X50121369Y-133928628D02*
X49930893Y-133881009D01*
X49930893Y-133881009D02*
X49835655Y-133833390D01*
X49835655Y-133833390D02*
X49788036Y-133785771D01*
X49788036Y-133785771D02*
X49740417Y-133690533D01*
X49740417Y-133690533D02*
X49740417Y-133595295D01*
X49740417Y-133595295D02*
X49788036Y-133500057D01*
X49788036Y-133500057D02*
X49835655Y-133452438D01*
X49835655Y-133452438D02*
X49930893Y-133404819D01*
X49930893Y-133404819D02*
X50168988Y-133404819D01*
X50168988Y-133404819D02*
X50311845Y-133452438D01*
X50645179Y-133404819D02*
X50883274Y-134404819D01*
X50883274Y-134404819D02*
X51073750Y-133690533D01*
X51073750Y-133690533D02*
X51264226Y-134404819D01*
X51264226Y-134404819D02*
X51502322Y-133404819D01*
X52311845Y-133738152D02*
X52311845Y-134404819D01*
X52073750Y-133357200D02*
X51835655Y-134071485D01*
X51835655Y-134071485D02*
X52454702Y-134071485D01*
X130590950Y-75958332D02*
X130638569Y-75815475D01*
X130638569Y-75815475D02*
X130638569Y-75577380D01*
X130638569Y-75577380D02*
X130590950Y-75482142D01*
X130590950Y-75482142D02*
X130543330Y-75434523D01*
X130543330Y-75434523D02*
X130448092Y-75386904D01*
X130448092Y-75386904D02*
X130352854Y-75386904D01*
X130352854Y-75386904D02*
X130257616Y-75434523D01*
X130257616Y-75434523D02*
X130209997Y-75482142D01*
X130209997Y-75482142D02*
X130162378Y-75577380D01*
X130162378Y-75577380D02*
X130114759Y-75767856D01*
X130114759Y-75767856D02*
X130067140Y-75863094D01*
X130067140Y-75863094D02*
X130019521Y-75910713D01*
X130019521Y-75910713D02*
X129924283Y-75958332D01*
X129924283Y-75958332D02*
X129829045Y-75958332D01*
X129829045Y-75958332D02*
X129733807Y-75910713D01*
X129733807Y-75910713D02*
X129686188Y-75863094D01*
X129686188Y-75863094D02*
X129638569Y-75767856D01*
X129638569Y-75767856D02*
X129638569Y-75529761D01*
X129638569Y-75529761D02*
X129686188Y-75386904D01*
X129638569Y-75053570D02*
X130638569Y-74815475D01*
X130638569Y-74815475D02*
X129924283Y-74624999D01*
X129924283Y-74624999D02*
X130638569Y-74434523D01*
X130638569Y-74434523D02*
X129638569Y-74196428D01*
X130638569Y-73291666D02*
X130638569Y-73863094D01*
X130638569Y-73577380D02*
X129638569Y-73577380D01*
X129638569Y-73577380D02*
X129781426Y-73672618D01*
X129781426Y-73672618D02*
X129876664Y-73767856D01*
X129876664Y-73767856D02*
X129924283Y-73863094D01*
X88958569Y-114666666D02*
X88482378Y-114999999D01*
X88958569Y-115238094D02*
X87958569Y-115238094D01*
X87958569Y-115238094D02*
X87958569Y-114857142D01*
X87958569Y-114857142D02*
X88006188Y-114761904D01*
X88006188Y-114761904D02*
X88053807Y-114714285D01*
X88053807Y-114714285D02*
X88149045Y-114666666D01*
X88149045Y-114666666D02*
X88291902Y-114666666D01*
X88291902Y-114666666D02*
X88387140Y-114714285D01*
X88387140Y-114714285D02*
X88434759Y-114761904D01*
X88434759Y-114761904D02*
X88482378Y-114857142D01*
X88482378Y-114857142D02*
X88482378Y-115238094D01*
X87958569Y-114333332D02*
X87958569Y-113666666D01*
X87958569Y-113666666D02*
X88958569Y-114095237D01*
X69098569Y-112666666D02*
X68622378Y-112999999D01*
X69098569Y-113238094D02*
X68098569Y-113238094D01*
X68098569Y-113238094D02*
X68098569Y-112857142D01*
X68098569Y-112857142D02*
X68146188Y-112761904D01*
X68146188Y-112761904D02*
X68193807Y-112714285D01*
X68193807Y-112714285D02*
X68289045Y-112666666D01*
X68289045Y-112666666D02*
X68431902Y-112666666D01*
X68431902Y-112666666D02*
X68527140Y-112714285D01*
X68527140Y-112714285D02*
X68574759Y-112761904D01*
X68574759Y-112761904D02*
X68622378Y-112857142D01*
X68622378Y-112857142D02*
X68622378Y-113238094D01*
X68098569Y-111809523D02*
X68098569Y-111999999D01*
X68098569Y-111999999D02*
X68146188Y-112095237D01*
X68146188Y-112095237D02*
X68193807Y-112142856D01*
X68193807Y-112142856D02*
X68336664Y-112238094D01*
X68336664Y-112238094D02*
X68527140Y-112285713D01*
X68527140Y-112285713D02*
X68908092Y-112285713D01*
X68908092Y-112285713D02*
X69003330Y-112238094D01*
X69003330Y-112238094D02*
X69050950Y-112190475D01*
X69050950Y-112190475D02*
X69098569Y-112095237D01*
X69098569Y-112095237D02*
X69098569Y-111904761D01*
X69098569Y-111904761D02*
X69050950Y-111809523D01*
X69050950Y-111809523D02*
X69003330Y-111761904D01*
X69003330Y-111761904D02*
X68908092Y-111714285D01*
X68908092Y-111714285D02*
X68669997Y-111714285D01*
X68669997Y-111714285D02*
X68574759Y-111761904D01*
X68574759Y-111761904D02*
X68527140Y-111809523D01*
X68527140Y-111809523D02*
X68479521Y-111904761D01*
X68479521Y-111904761D02*
X68479521Y-112095237D01*
X68479521Y-112095237D02*
X68527140Y-112190475D01*
X68527140Y-112190475D02*
X68574759Y-112238094D01*
X68574759Y-112238094D02*
X68669997Y-112285713D01*
X125930892Y-122574819D02*
X125454702Y-122574819D01*
X125454702Y-122574819D02*
X125454702Y-121574819D01*
X126216607Y-122527200D02*
X126359464Y-122574819D01*
X126359464Y-122574819D02*
X126597559Y-122574819D01*
X126597559Y-122574819D02*
X126692797Y-122527200D01*
X126692797Y-122527200D02*
X126740416Y-122479580D01*
X126740416Y-122479580D02*
X126788035Y-122384342D01*
X126788035Y-122384342D02*
X126788035Y-122289104D01*
X126788035Y-122289104D02*
X126740416Y-122193866D01*
X126740416Y-122193866D02*
X126692797Y-122146247D01*
X126692797Y-122146247D02*
X126597559Y-122098628D01*
X126597559Y-122098628D02*
X126407083Y-122051009D01*
X126407083Y-122051009D02*
X126311845Y-122003390D01*
X126311845Y-122003390D02*
X126264226Y-121955771D01*
X126264226Y-121955771D02*
X126216607Y-121860533D01*
X126216607Y-121860533D02*
X126216607Y-121765295D01*
X126216607Y-121765295D02*
X126264226Y-121670057D01*
X126264226Y-121670057D02*
X126311845Y-121622438D01*
X126311845Y-121622438D02*
X126407083Y-121574819D01*
X126407083Y-121574819D02*
X126645178Y-121574819D01*
X126645178Y-121574819D02*
X126788035Y-121622438D01*
X127740416Y-122574819D02*
X127168988Y-122574819D01*
X127454702Y-122574819D02*
X127454702Y-121574819D01*
X127454702Y-121574819D02*
X127359464Y-121717676D01*
X127359464Y-121717676D02*
X127264226Y-121812914D01*
X127264226Y-121812914D02*
X127168988Y-121860533D01*
X110258569Y-138833333D02*
X110972854Y-138833333D01*
X110972854Y-138833333D02*
X111115711Y-138880952D01*
X111115711Y-138880952D02*
X111210950Y-138976190D01*
X111210950Y-138976190D02*
X111258569Y-139119047D01*
X111258569Y-139119047D02*
X111258569Y-139214285D01*
X110258569Y-137928571D02*
X110258569Y-138119047D01*
X110258569Y-138119047D02*
X110306188Y-138214285D01*
X110306188Y-138214285D02*
X110353807Y-138261904D01*
X110353807Y-138261904D02*
X110496664Y-138357142D01*
X110496664Y-138357142D02*
X110687140Y-138404761D01*
X110687140Y-138404761D02*
X111068092Y-138404761D01*
X111068092Y-138404761D02*
X111163330Y-138357142D01*
X111163330Y-138357142D02*
X111210950Y-138309523D01*
X111210950Y-138309523D02*
X111258569Y-138214285D01*
X111258569Y-138214285D02*
X111258569Y-138023809D01*
X111258569Y-138023809D02*
X111210950Y-137928571D01*
X111210950Y-137928571D02*
X111163330Y-137880952D01*
X111163330Y-137880952D02*
X111068092Y-137833333D01*
X111068092Y-137833333D02*
X110829997Y-137833333D01*
X110829997Y-137833333D02*
X110734759Y-137880952D01*
X110734759Y-137880952D02*
X110687140Y-137928571D01*
X110687140Y-137928571D02*
X110639521Y-138023809D01*
X110639521Y-138023809D02*
X110639521Y-138214285D01*
X110639521Y-138214285D02*
X110687140Y-138309523D01*
X110687140Y-138309523D02*
X110734759Y-138357142D01*
X110734759Y-138357142D02*
X110829997Y-138404761D01*
X89218569Y-138833333D02*
X89932854Y-138833333D01*
X89932854Y-138833333D02*
X90075711Y-138880952D01*
X90075711Y-138880952D02*
X90170950Y-138976190D01*
X90170950Y-138976190D02*
X90218569Y-139119047D01*
X90218569Y-139119047D02*
X90218569Y-139214285D01*
X89218569Y-137880952D02*
X89218569Y-138357142D01*
X89218569Y-138357142D02*
X89694759Y-138404761D01*
X89694759Y-138404761D02*
X89647140Y-138357142D01*
X89647140Y-138357142D02*
X89599521Y-138261904D01*
X89599521Y-138261904D02*
X89599521Y-138023809D01*
X89599521Y-138023809D02*
X89647140Y-137928571D01*
X89647140Y-137928571D02*
X89694759Y-137880952D01*
X89694759Y-137880952D02*
X89789997Y-137833333D01*
X89789997Y-137833333D02*
X90028092Y-137833333D01*
X90028092Y-137833333D02*
X90123330Y-137880952D01*
X90123330Y-137880952D02*
X90170950Y-137928571D01*
X90170950Y-137928571D02*
X90218569Y-138023809D01*
X90218569Y-138023809D02*
X90218569Y-138261904D01*
X90218569Y-138261904D02*
X90170950Y-138357142D01*
X90170950Y-138357142D02*
X90123330Y-138404761D01*
X127311845Y-144304819D02*
X127311845Y-143304819D01*
X127311845Y-143781009D02*
X127883273Y-143781009D01*
X127883273Y-144304819D02*
X127883273Y-143304819D01*
X128788035Y-143638152D02*
X128788035Y-144304819D01*
X128549940Y-143257200D02*
X128311845Y-143971485D01*
X128311845Y-143971485D02*
X128930892Y-143971485D01*
X48811845Y-144304819D02*
X48811845Y-143304819D01*
X48811845Y-143781009D02*
X49383273Y-143781009D01*
X49383273Y-144304819D02*
X49383273Y-143304819D01*
X49764226Y-143304819D02*
X50383273Y-143304819D01*
X50383273Y-143304819D02*
X50049940Y-143685771D01*
X50049940Y-143685771D02*
X50192797Y-143685771D01*
X50192797Y-143685771D02*
X50288035Y-143733390D01*
X50288035Y-143733390D02*
X50335654Y-143781009D01*
X50335654Y-143781009D02*
X50383273Y-143876247D01*
X50383273Y-143876247D02*
X50383273Y-144114342D01*
X50383273Y-144114342D02*
X50335654Y-144209580D01*
X50335654Y-144209580D02*
X50288035Y-144257200D01*
X50288035Y-144257200D02*
X50192797Y-144304819D01*
X50192797Y-144304819D02*
X49907083Y-144304819D01*
X49907083Y-144304819D02*
X49811845Y-144257200D01*
X49811845Y-144257200D02*
X49764226Y-144209580D01*
X127311845Y-49804819D02*
X127311845Y-48804819D01*
X127311845Y-49281009D02*
X127883273Y-49281009D01*
X127883273Y-49804819D02*
X127883273Y-48804819D01*
X128311845Y-48900057D02*
X128359464Y-48852438D01*
X128359464Y-48852438D02*
X128454702Y-48804819D01*
X128454702Y-48804819D02*
X128692797Y-48804819D01*
X128692797Y-48804819D02*
X128788035Y-48852438D01*
X128788035Y-48852438D02*
X128835654Y-48900057D01*
X128835654Y-48900057D02*
X128883273Y-48995295D01*
X128883273Y-48995295D02*
X128883273Y-49090533D01*
X128883273Y-49090533D02*
X128835654Y-49233390D01*
X128835654Y-49233390D02*
X128264226Y-49804819D01*
X128264226Y-49804819D02*
X128883273Y-49804819D01*
X48811845Y-49804819D02*
X48811845Y-48804819D01*
X48811845Y-49281009D02*
X49383273Y-49281009D01*
X49383273Y-49804819D02*
X49383273Y-48804819D01*
X50383273Y-49804819D02*
X49811845Y-49804819D01*
X50097559Y-49804819D02*
X50097559Y-48804819D01*
X50097559Y-48804819D02*
X50002321Y-48947676D01*
X50002321Y-48947676D02*
X49907083Y-49042914D01*
X49907083Y-49042914D02*
X49811845Y-49090533D01*
X129528569Y-88168094D02*
X128528569Y-88168094D01*
X128528569Y-88168094D02*
X128528569Y-87929999D01*
X128528569Y-87929999D02*
X128576188Y-87787142D01*
X128576188Y-87787142D02*
X128671426Y-87691904D01*
X128671426Y-87691904D02*
X128766664Y-87644285D01*
X128766664Y-87644285D02*
X128957140Y-87596666D01*
X128957140Y-87596666D02*
X129099997Y-87596666D01*
X129099997Y-87596666D02*
X129290473Y-87644285D01*
X129290473Y-87644285D02*
X129385711Y-87691904D01*
X129385711Y-87691904D02*
X129480950Y-87787142D01*
X129480950Y-87787142D02*
X129528569Y-87929999D01*
X129528569Y-87929999D02*
X129528569Y-88168094D01*
X129528569Y-86644285D02*
X129528569Y-87215713D01*
X129528569Y-86929999D02*
X128528569Y-86929999D01*
X128528569Y-86929999D02*
X128671426Y-87025237D01*
X128671426Y-87025237D02*
X128766664Y-87120475D01*
X128766664Y-87120475D02*
X128814283Y-87215713D01*
X105205892Y-123704580D02*
X105158273Y-123752200D01*
X105158273Y-123752200D02*
X105015416Y-123799819D01*
X105015416Y-123799819D02*
X104920178Y-123799819D01*
X104920178Y-123799819D02*
X104777321Y-123752200D01*
X104777321Y-123752200D02*
X104682083Y-123656961D01*
X104682083Y-123656961D02*
X104634464Y-123561723D01*
X104634464Y-123561723D02*
X104586845Y-123371247D01*
X104586845Y-123371247D02*
X104586845Y-123228390D01*
X104586845Y-123228390D02*
X104634464Y-123037914D01*
X104634464Y-123037914D02*
X104682083Y-122942676D01*
X104682083Y-122942676D02*
X104777321Y-122847438D01*
X104777321Y-122847438D02*
X104920178Y-122799819D01*
X104920178Y-122799819D02*
X105015416Y-122799819D01*
X105015416Y-122799819D02*
X105158273Y-122847438D01*
X105158273Y-122847438D02*
X105205892Y-122895057D01*
X106063035Y-123133152D02*
X106063035Y-123799819D01*
X105824940Y-122752200D02*
X105586845Y-123466485D01*
X105586845Y-123466485D02*
X106205892Y-123466485D01*
X106777321Y-122799819D02*
X106872559Y-122799819D01*
X106872559Y-122799819D02*
X106967797Y-122847438D01*
X106967797Y-122847438D02*
X107015416Y-122895057D01*
X107015416Y-122895057D02*
X107063035Y-122990295D01*
X107063035Y-122990295D02*
X107110654Y-123180771D01*
X107110654Y-123180771D02*
X107110654Y-123418866D01*
X107110654Y-123418866D02*
X107063035Y-123609342D01*
X107063035Y-123609342D02*
X107015416Y-123704580D01*
X107015416Y-123704580D02*
X106967797Y-123752200D01*
X106967797Y-123752200D02*
X106872559Y-123799819D01*
X106872559Y-123799819D02*
X106777321Y-123799819D01*
X106777321Y-123799819D02*
X106682083Y-123752200D01*
X106682083Y-123752200D02*
X106634464Y-123704580D01*
X106634464Y-123704580D02*
X106586845Y-123609342D01*
X106586845Y-123609342D02*
X106539226Y-123418866D01*
X106539226Y-123418866D02*
X106539226Y-123180771D01*
X106539226Y-123180771D02*
X106586845Y-122990295D01*
X106586845Y-122990295D02*
X106634464Y-122895057D01*
X106634464Y-122895057D02*
X106682083Y-122847438D01*
X106682083Y-122847438D02*
X106777321Y-122799819D01*
X116753330Y-118917857D02*
X116800950Y-118965476D01*
X116800950Y-118965476D02*
X116848569Y-119108333D01*
X116848569Y-119108333D02*
X116848569Y-119203571D01*
X116848569Y-119203571D02*
X116800950Y-119346428D01*
X116800950Y-119346428D02*
X116705711Y-119441666D01*
X116705711Y-119441666D02*
X116610473Y-119489285D01*
X116610473Y-119489285D02*
X116419997Y-119536904D01*
X116419997Y-119536904D02*
X116277140Y-119536904D01*
X116277140Y-119536904D02*
X116086664Y-119489285D01*
X116086664Y-119489285D02*
X115991426Y-119441666D01*
X115991426Y-119441666D02*
X115896188Y-119346428D01*
X115896188Y-119346428D02*
X115848569Y-119203571D01*
X115848569Y-119203571D02*
X115848569Y-119108333D01*
X115848569Y-119108333D02*
X115896188Y-118965476D01*
X115896188Y-118965476D02*
X115943807Y-118917857D01*
X115848569Y-118584523D02*
X115848569Y-117965476D01*
X115848569Y-117965476D02*
X116229521Y-118298809D01*
X116229521Y-118298809D02*
X116229521Y-118155952D01*
X116229521Y-118155952D02*
X116277140Y-118060714D01*
X116277140Y-118060714D02*
X116324759Y-118013095D01*
X116324759Y-118013095D02*
X116419997Y-117965476D01*
X116419997Y-117965476D02*
X116658092Y-117965476D01*
X116658092Y-117965476D02*
X116753330Y-118013095D01*
X116753330Y-118013095D02*
X116800950Y-118060714D01*
X116800950Y-118060714D02*
X116848569Y-118155952D01*
X116848569Y-118155952D02*
X116848569Y-118441666D01*
X116848569Y-118441666D02*
X116800950Y-118536904D01*
X116800950Y-118536904D02*
X116753330Y-118584523D01*
X116277140Y-117394047D02*
X116229521Y-117489285D01*
X116229521Y-117489285D02*
X116181902Y-117536904D01*
X116181902Y-117536904D02*
X116086664Y-117584523D01*
X116086664Y-117584523D02*
X116039045Y-117584523D01*
X116039045Y-117584523D02*
X115943807Y-117536904D01*
X115943807Y-117536904D02*
X115896188Y-117489285D01*
X115896188Y-117489285D02*
X115848569Y-117394047D01*
X115848569Y-117394047D02*
X115848569Y-117203571D01*
X115848569Y-117203571D02*
X115896188Y-117108333D01*
X115896188Y-117108333D02*
X115943807Y-117060714D01*
X115943807Y-117060714D02*
X116039045Y-117013095D01*
X116039045Y-117013095D02*
X116086664Y-117013095D01*
X116086664Y-117013095D02*
X116181902Y-117060714D01*
X116181902Y-117060714D02*
X116229521Y-117108333D01*
X116229521Y-117108333D02*
X116277140Y-117203571D01*
X116277140Y-117203571D02*
X116277140Y-117394047D01*
X116277140Y-117394047D02*
X116324759Y-117489285D01*
X116324759Y-117489285D02*
X116372378Y-117536904D01*
X116372378Y-117536904D02*
X116467616Y-117584523D01*
X116467616Y-117584523D02*
X116658092Y-117584523D01*
X116658092Y-117584523D02*
X116753330Y-117536904D01*
X116753330Y-117536904D02*
X116800950Y-117489285D01*
X116800950Y-117489285D02*
X116848569Y-117394047D01*
X116848569Y-117394047D02*
X116848569Y-117203571D01*
X116848569Y-117203571D02*
X116800950Y-117108333D01*
X116800950Y-117108333D02*
X116753330Y-117060714D01*
X116753330Y-117060714D02*
X116658092Y-117013095D01*
X116658092Y-117013095D02*
X116467616Y-117013095D01*
X116467616Y-117013095D02*
X116372378Y-117060714D01*
X116372378Y-117060714D02*
X116324759Y-117108333D01*
X116324759Y-117108333D02*
X116277140Y-117203571D01*
X111503330Y-118917857D02*
X111550950Y-118965476D01*
X111550950Y-118965476D02*
X111598569Y-119108333D01*
X111598569Y-119108333D02*
X111598569Y-119203571D01*
X111598569Y-119203571D02*
X111550950Y-119346428D01*
X111550950Y-119346428D02*
X111455711Y-119441666D01*
X111455711Y-119441666D02*
X111360473Y-119489285D01*
X111360473Y-119489285D02*
X111169997Y-119536904D01*
X111169997Y-119536904D02*
X111027140Y-119536904D01*
X111027140Y-119536904D02*
X110836664Y-119489285D01*
X110836664Y-119489285D02*
X110741426Y-119441666D01*
X110741426Y-119441666D02*
X110646188Y-119346428D01*
X110646188Y-119346428D02*
X110598569Y-119203571D01*
X110598569Y-119203571D02*
X110598569Y-119108333D01*
X110598569Y-119108333D02*
X110646188Y-118965476D01*
X110646188Y-118965476D02*
X110693807Y-118917857D01*
X110598569Y-118584523D02*
X110598569Y-117965476D01*
X110598569Y-117965476D02*
X110979521Y-118298809D01*
X110979521Y-118298809D02*
X110979521Y-118155952D01*
X110979521Y-118155952D02*
X111027140Y-118060714D01*
X111027140Y-118060714D02*
X111074759Y-118013095D01*
X111074759Y-118013095D02*
X111169997Y-117965476D01*
X111169997Y-117965476D02*
X111408092Y-117965476D01*
X111408092Y-117965476D02*
X111503330Y-118013095D01*
X111503330Y-118013095D02*
X111550950Y-118060714D01*
X111550950Y-118060714D02*
X111598569Y-118155952D01*
X111598569Y-118155952D02*
X111598569Y-118441666D01*
X111598569Y-118441666D02*
X111550950Y-118536904D01*
X111550950Y-118536904D02*
X111503330Y-118584523D01*
X110598569Y-117632142D02*
X110598569Y-116965476D01*
X110598569Y-116965476D02*
X111598569Y-117394047D01*
X124833330Y-109072857D02*
X124880950Y-109120476D01*
X124880950Y-109120476D02*
X124928569Y-109263333D01*
X124928569Y-109263333D02*
X124928569Y-109358571D01*
X124928569Y-109358571D02*
X124880950Y-109501428D01*
X124880950Y-109501428D02*
X124785711Y-109596666D01*
X124785711Y-109596666D02*
X124690473Y-109644285D01*
X124690473Y-109644285D02*
X124499997Y-109691904D01*
X124499997Y-109691904D02*
X124357140Y-109691904D01*
X124357140Y-109691904D02*
X124166664Y-109644285D01*
X124166664Y-109644285D02*
X124071426Y-109596666D01*
X124071426Y-109596666D02*
X123976188Y-109501428D01*
X123976188Y-109501428D02*
X123928569Y-109358571D01*
X123928569Y-109358571D02*
X123928569Y-109263333D01*
X123928569Y-109263333D02*
X123976188Y-109120476D01*
X123976188Y-109120476D02*
X124023807Y-109072857D01*
X124928569Y-108120476D02*
X124928569Y-108691904D01*
X124928569Y-108406190D02*
X123928569Y-108406190D01*
X123928569Y-108406190D02*
X124071426Y-108501428D01*
X124071426Y-108501428D02*
X124166664Y-108596666D01*
X124166664Y-108596666D02*
X124214283Y-108691904D01*
X124357140Y-107549047D02*
X124309521Y-107644285D01*
X124309521Y-107644285D02*
X124261902Y-107691904D01*
X124261902Y-107691904D02*
X124166664Y-107739523D01*
X124166664Y-107739523D02*
X124119045Y-107739523D01*
X124119045Y-107739523D02*
X124023807Y-107691904D01*
X124023807Y-107691904D02*
X123976188Y-107644285D01*
X123976188Y-107644285D02*
X123928569Y-107549047D01*
X123928569Y-107549047D02*
X123928569Y-107358571D01*
X123928569Y-107358571D02*
X123976188Y-107263333D01*
X123976188Y-107263333D02*
X124023807Y-107215714D01*
X124023807Y-107215714D02*
X124119045Y-107168095D01*
X124119045Y-107168095D02*
X124166664Y-107168095D01*
X124166664Y-107168095D02*
X124261902Y-107215714D01*
X124261902Y-107215714D02*
X124309521Y-107263333D01*
X124309521Y-107263333D02*
X124357140Y-107358571D01*
X124357140Y-107358571D02*
X124357140Y-107549047D01*
X124357140Y-107549047D02*
X124404759Y-107644285D01*
X124404759Y-107644285D02*
X124452378Y-107691904D01*
X124452378Y-107691904D02*
X124547616Y-107739523D01*
X124547616Y-107739523D02*
X124738092Y-107739523D01*
X124738092Y-107739523D02*
X124833330Y-107691904D01*
X124833330Y-107691904D02*
X124880950Y-107644285D01*
X124880950Y-107644285D02*
X124928569Y-107549047D01*
X124928569Y-107549047D02*
X124928569Y-107358571D01*
X124928569Y-107358571D02*
X124880950Y-107263333D01*
X124880950Y-107263333D02*
X124833330Y-107215714D01*
X124833330Y-107215714D02*
X124738092Y-107168095D01*
X124738092Y-107168095D02*
X124547616Y-107168095D01*
X124547616Y-107168095D02*
X124452378Y-107215714D01*
X124452378Y-107215714D02*
X124404759Y-107263333D01*
X124404759Y-107263333D02*
X124357140Y-107358571D01*
X124333330Y-102572857D02*
X124380950Y-102620476D01*
X124380950Y-102620476D02*
X124428569Y-102763333D01*
X124428569Y-102763333D02*
X124428569Y-102858571D01*
X124428569Y-102858571D02*
X124380950Y-103001428D01*
X124380950Y-103001428D02*
X124285711Y-103096666D01*
X124285711Y-103096666D02*
X124190473Y-103144285D01*
X124190473Y-103144285D02*
X123999997Y-103191904D01*
X123999997Y-103191904D02*
X123857140Y-103191904D01*
X123857140Y-103191904D02*
X123666664Y-103144285D01*
X123666664Y-103144285D02*
X123571426Y-103096666D01*
X123571426Y-103096666D02*
X123476188Y-103001428D01*
X123476188Y-103001428D02*
X123428569Y-102858571D01*
X123428569Y-102858571D02*
X123428569Y-102763333D01*
X123428569Y-102763333D02*
X123476188Y-102620476D01*
X123476188Y-102620476D02*
X123523807Y-102572857D01*
X124428569Y-101620476D02*
X124428569Y-102191904D01*
X124428569Y-101906190D02*
X123428569Y-101906190D01*
X123428569Y-101906190D02*
X123571426Y-102001428D01*
X123571426Y-102001428D02*
X123666664Y-102096666D01*
X123666664Y-102096666D02*
X123714283Y-102191904D01*
X123428569Y-101287142D02*
X123428569Y-100620476D01*
X123428569Y-100620476D02*
X124428569Y-101049047D01*
X67407083Y-127929580D02*
X67359464Y-127977200D01*
X67359464Y-127977200D02*
X67216607Y-128024819D01*
X67216607Y-128024819D02*
X67121369Y-128024819D01*
X67121369Y-128024819D02*
X66978512Y-127977200D01*
X66978512Y-127977200D02*
X66883274Y-127881961D01*
X66883274Y-127881961D02*
X66835655Y-127786723D01*
X66835655Y-127786723D02*
X66788036Y-127596247D01*
X66788036Y-127596247D02*
X66788036Y-127453390D01*
X66788036Y-127453390D02*
X66835655Y-127262914D01*
X66835655Y-127262914D02*
X66883274Y-127167676D01*
X66883274Y-127167676D02*
X66978512Y-127072438D01*
X66978512Y-127072438D02*
X67121369Y-127024819D01*
X67121369Y-127024819D02*
X67216607Y-127024819D01*
X67216607Y-127024819D02*
X67359464Y-127072438D01*
X67359464Y-127072438D02*
X67407083Y-127120057D01*
X67740417Y-127024819D02*
X68407083Y-127024819D01*
X68407083Y-127024819D02*
X67978512Y-128024819D01*
X128863330Y-108596666D02*
X128910950Y-108644285D01*
X128910950Y-108644285D02*
X128958569Y-108787142D01*
X128958569Y-108787142D02*
X128958569Y-108882380D01*
X128958569Y-108882380D02*
X128910950Y-109025237D01*
X128910950Y-109025237D02*
X128815711Y-109120475D01*
X128815711Y-109120475D02*
X128720473Y-109168094D01*
X128720473Y-109168094D02*
X128529997Y-109215713D01*
X128529997Y-109215713D02*
X128387140Y-109215713D01*
X128387140Y-109215713D02*
X128196664Y-109168094D01*
X128196664Y-109168094D02*
X128101426Y-109120475D01*
X128101426Y-109120475D02*
X128006188Y-109025237D01*
X128006188Y-109025237D02*
X127958569Y-108882380D01*
X127958569Y-108882380D02*
X127958569Y-108787142D01*
X127958569Y-108787142D02*
X128006188Y-108644285D01*
X128006188Y-108644285D02*
X128053807Y-108596666D01*
X128291902Y-107739523D02*
X128958569Y-107739523D01*
X127910950Y-107977618D02*
X128625235Y-108215713D01*
X128625235Y-108215713D02*
X128625235Y-107596666D01*
X128863330Y-102096666D02*
X128910950Y-102144285D01*
X128910950Y-102144285D02*
X128958569Y-102287142D01*
X128958569Y-102287142D02*
X128958569Y-102382380D01*
X128958569Y-102382380D02*
X128910950Y-102525237D01*
X128910950Y-102525237D02*
X128815711Y-102620475D01*
X128815711Y-102620475D02*
X128720473Y-102668094D01*
X128720473Y-102668094D02*
X128529997Y-102715713D01*
X128529997Y-102715713D02*
X128387140Y-102715713D01*
X128387140Y-102715713D02*
X128196664Y-102668094D01*
X128196664Y-102668094D02*
X128101426Y-102620475D01*
X128101426Y-102620475D02*
X128006188Y-102525237D01*
X128006188Y-102525237D02*
X127958569Y-102382380D01*
X127958569Y-102382380D02*
X127958569Y-102287142D01*
X127958569Y-102287142D02*
X128006188Y-102144285D01*
X128006188Y-102144285D02*
X128053807Y-102096666D01*
X127958569Y-101763332D02*
X127958569Y-101144285D01*
X127958569Y-101144285D02*
X128339521Y-101477618D01*
X128339521Y-101477618D02*
X128339521Y-101334761D01*
X128339521Y-101334761D02*
X128387140Y-101239523D01*
X128387140Y-101239523D02*
X128434759Y-101191904D01*
X128434759Y-101191904D02*
X128529997Y-101144285D01*
X128529997Y-101144285D02*
X128768092Y-101144285D01*
X128768092Y-101144285D02*
X128863330Y-101191904D01*
X128863330Y-101191904D02*
X128910950Y-101239523D01*
X128910950Y-101239523D02*
X128958569Y-101334761D01*
X128958569Y-101334761D02*
X128958569Y-101620475D01*
X128958569Y-101620475D02*
X128910950Y-101715713D01*
X128910950Y-101715713D02*
X128863330Y-101763332D01*
X110788035Y-59706009D02*
X110930892Y-59753628D01*
X110930892Y-59753628D02*
X110978511Y-59801247D01*
X110978511Y-59801247D02*
X111026130Y-59896485D01*
X111026130Y-59896485D02*
X111026130Y-60039342D01*
X111026130Y-60039342D02*
X110978511Y-60134580D01*
X110978511Y-60134580D02*
X110930892Y-60182200D01*
X110930892Y-60182200D02*
X110835654Y-60229819D01*
X110835654Y-60229819D02*
X110454702Y-60229819D01*
X110454702Y-60229819D02*
X110454702Y-59229819D01*
X110454702Y-59229819D02*
X110788035Y-59229819D01*
X110788035Y-59229819D02*
X110883273Y-59277438D01*
X110883273Y-59277438D02*
X110930892Y-59325057D01*
X110930892Y-59325057D02*
X110978511Y-59420295D01*
X110978511Y-59420295D02*
X110978511Y-59515533D01*
X110978511Y-59515533D02*
X110930892Y-59610771D01*
X110930892Y-59610771D02*
X110883273Y-59658390D01*
X110883273Y-59658390D02*
X110788035Y-59706009D01*
X110788035Y-59706009D02*
X110454702Y-59706009D01*
X111311845Y-59229819D02*
X111883273Y-59229819D01*
X111597559Y-60229819D02*
X111597559Y-59229819D01*
X112121369Y-59229819D02*
X112740416Y-59229819D01*
X112740416Y-59229819D02*
X112407083Y-59610771D01*
X112407083Y-59610771D02*
X112549940Y-59610771D01*
X112549940Y-59610771D02*
X112645178Y-59658390D01*
X112645178Y-59658390D02*
X112692797Y-59706009D01*
X112692797Y-59706009D02*
X112740416Y-59801247D01*
X112740416Y-59801247D02*
X112740416Y-60039342D01*
X112740416Y-60039342D02*
X112692797Y-60134580D01*
X112692797Y-60134580D02*
X112645178Y-60182200D01*
X112645178Y-60182200D02*
X112549940Y-60229819D01*
X112549940Y-60229819D02*
X112264226Y-60229819D01*
X112264226Y-60229819D02*
X112168988Y-60182200D01*
X112168988Y-60182200D02*
X112121369Y-60134580D01*
X100788035Y-67016009D02*
X100930892Y-67063628D01*
X100930892Y-67063628D02*
X100978511Y-67111247D01*
X100978511Y-67111247D02*
X101026130Y-67206485D01*
X101026130Y-67206485D02*
X101026130Y-67349342D01*
X101026130Y-67349342D02*
X100978511Y-67444580D01*
X100978511Y-67444580D02*
X100930892Y-67492200D01*
X100930892Y-67492200D02*
X100835654Y-67539819D01*
X100835654Y-67539819D02*
X100454702Y-67539819D01*
X100454702Y-67539819D02*
X100454702Y-66539819D01*
X100454702Y-66539819D02*
X100788035Y-66539819D01*
X100788035Y-66539819D02*
X100883273Y-66587438D01*
X100883273Y-66587438D02*
X100930892Y-66635057D01*
X100930892Y-66635057D02*
X100978511Y-66730295D01*
X100978511Y-66730295D02*
X100978511Y-66825533D01*
X100978511Y-66825533D02*
X100930892Y-66920771D01*
X100930892Y-66920771D02*
X100883273Y-66968390D01*
X100883273Y-66968390D02*
X100788035Y-67016009D01*
X100788035Y-67016009D02*
X100454702Y-67016009D01*
X101311845Y-66539819D02*
X101883273Y-66539819D01*
X101597559Y-67539819D02*
X101597559Y-66539819D01*
X102168988Y-66635057D02*
X102216607Y-66587438D01*
X102216607Y-66587438D02*
X102311845Y-66539819D01*
X102311845Y-66539819D02*
X102549940Y-66539819D01*
X102549940Y-66539819D02*
X102645178Y-66587438D01*
X102645178Y-66587438D02*
X102692797Y-66635057D01*
X102692797Y-66635057D02*
X102740416Y-66730295D01*
X102740416Y-66730295D02*
X102740416Y-66825533D01*
X102740416Y-66825533D02*
X102692797Y-66968390D01*
X102692797Y-66968390D02*
X102121369Y-67539819D01*
X102121369Y-67539819D02*
X102740416Y-67539819D01*
X90788035Y-59706009D02*
X90930892Y-59753628D01*
X90930892Y-59753628D02*
X90978511Y-59801247D01*
X90978511Y-59801247D02*
X91026130Y-59896485D01*
X91026130Y-59896485D02*
X91026130Y-60039342D01*
X91026130Y-60039342D02*
X90978511Y-60134580D01*
X90978511Y-60134580D02*
X90930892Y-60182200D01*
X90930892Y-60182200D02*
X90835654Y-60229819D01*
X90835654Y-60229819D02*
X90454702Y-60229819D01*
X90454702Y-60229819D02*
X90454702Y-59229819D01*
X90454702Y-59229819D02*
X90788035Y-59229819D01*
X90788035Y-59229819D02*
X90883273Y-59277438D01*
X90883273Y-59277438D02*
X90930892Y-59325057D01*
X90930892Y-59325057D02*
X90978511Y-59420295D01*
X90978511Y-59420295D02*
X90978511Y-59515533D01*
X90978511Y-59515533D02*
X90930892Y-59610771D01*
X90930892Y-59610771D02*
X90883273Y-59658390D01*
X90883273Y-59658390D02*
X90788035Y-59706009D01*
X90788035Y-59706009D02*
X90454702Y-59706009D01*
X91311845Y-59229819D02*
X91883273Y-59229819D01*
X91597559Y-60229819D02*
X91597559Y-59229819D01*
X92740416Y-60229819D02*
X92168988Y-60229819D01*
X92454702Y-60229819D02*
X92454702Y-59229819D01*
X92454702Y-59229819D02*
X92359464Y-59372676D01*
X92359464Y-59372676D02*
X92264226Y-59467914D01*
X92264226Y-59467914D02*
X92168988Y-59515533D01*
X105155892Y-118204580D02*
X105108273Y-118252200D01*
X105108273Y-118252200D02*
X104965416Y-118299819D01*
X104965416Y-118299819D02*
X104870178Y-118299819D01*
X104870178Y-118299819D02*
X104727321Y-118252200D01*
X104727321Y-118252200D02*
X104632083Y-118156961D01*
X104632083Y-118156961D02*
X104584464Y-118061723D01*
X104584464Y-118061723D02*
X104536845Y-117871247D01*
X104536845Y-117871247D02*
X104536845Y-117728390D01*
X104536845Y-117728390D02*
X104584464Y-117537914D01*
X104584464Y-117537914D02*
X104632083Y-117442676D01*
X104632083Y-117442676D02*
X104727321Y-117347438D01*
X104727321Y-117347438D02*
X104870178Y-117299819D01*
X104870178Y-117299819D02*
X104965416Y-117299819D01*
X104965416Y-117299819D02*
X105108273Y-117347438D01*
X105108273Y-117347438D02*
X105155892Y-117395057D01*
X105489226Y-117299819D02*
X106108273Y-117299819D01*
X106108273Y-117299819D02*
X105774940Y-117680771D01*
X105774940Y-117680771D02*
X105917797Y-117680771D01*
X105917797Y-117680771D02*
X106013035Y-117728390D01*
X106013035Y-117728390D02*
X106060654Y-117776009D01*
X106060654Y-117776009D02*
X106108273Y-117871247D01*
X106108273Y-117871247D02*
X106108273Y-118109342D01*
X106108273Y-118109342D02*
X106060654Y-118204580D01*
X106060654Y-118204580D02*
X106013035Y-118252200D01*
X106013035Y-118252200D02*
X105917797Y-118299819D01*
X105917797Y-118299819D02*
X105632083Y-118299819D01*
X105632083Y-118299819D02*
X105536845Y-118252200D01*
X105536845Y-118252200D02*
X105489226Y-118204580D01*
X106584464Y-118299819D02*
X106774940Y-118299819D01*
X106774940Y-118299819D02*
X106870178Y-118252200D01*
X106870178Y-118252200D02*
X106917797Y-118204580D01*
X106917797Y-118204580D02*
X107013035Y-118061723D01*
X107013035Y-118061723D02*
X107060654Y-117871247D01*
X107060654Y-117871247D02*
X107060654Y-117490295D01*
X107060654Y-117490295D02*
X107013035Y-117395057D01*
X107013035Y-117395057D02*
X106965416Y-117347438D01*
X106965416Y-117347438D02*
X106870178Y-117299819D01*
X106870178Y-117299819D02*
X106679702Y-117299819D01*
X106679702Y-117299819D02*
X106584464Y-117347438D01*
X106584464Y-117347438D02*
X106536845Y-117395057D01*
X106536845Y-117395057D02*
X106489226Y-117490295D01*
X106489226Y-117490295D02*
X106489226Y-117728390D01*
X106489226Y-117728390D02*
X106536845Y-117823628D01*
X106536845Y-117823628D02*
X106584464Y-117871247D01*
X106584464Y-117871247D02*
X106679702Y-117918866D01*
X106679702Y-117918866D02*
X106870178Y-117918866D01*
X106870178Y-117918866D02*
X106965416Y-117871247D01*
X106965416Y-117871247D02*
X107013035Y-117823628D01*
X107013035Y-117823628D02*
X107060654Y-117728390D01*
D12*
%TO.C,U8*%
X105963750Y-75090000D02*
X116183750Y-75090000D01*
X105963750Y-90960000D02*
X105963750Y-75090000D01*
X105963750Y-90960000D02*
X116183750Y-90960000D01*
X108048750Y-90960000D02*
X108048750Y-93400000D01*
X109018750Y-90960000D02*
X109018750Y-93400000D01*
X110588750Y-90960000D02*
X110588750Y-93400000D01*
X111558750Y-90960000D02*
X111558750Y-93400000D01*
X113128750Y-90960000D02*
X113128750Y-93400000D01*
X114098750Y-90960000D02*
X114098750Y-93400000D01*
X116183750Y-90960000D02*
X116183750Y-75090000D01*
%TO.C,U7*%
X114463750Y-124165000D02*
X117683750Y-124165000D01*
X114463750Y-124340000D02*
X114463750Y-124165000D01*
X114463750Y-127385000D02*
X114463750Y-127210000D01*
X117683750Y-124165000D02*
X117683750Y-124340000D01*
X117683750Y-127210000D02*
X117683750Y-127385000D01*
X117683750Y-127385000D02*
X114463750Y-127385000D01*
X113913750Y-124335000D02*
X113673750Y-124005000D01*
X114153750Y-124005000D01*
X113913750Y-124335000D01*
G36*
X113913750Y-124335000D02*
G01*
X113673750Y-124005000D01*
X114153750Y-124005000D01*
X113913750Y-124335000D01*
G37*
%TO.C,U6*%
X94463750Y-124165000D02*
X97683750Y-124165000D01*
X94463750Y-124340000D02*
X94463750Y-124165000D01*
X94463750Y-127385000D02*
X94463750Y-127210000D01*
X97683750Y-124165000D02*
X97683750Y-124340000D01*
X97683750Y-127210000D02*
X97683750Y-127385000D01*
X97683750Y-127385000D02*
X94463750Y-127385000D01*
X93913750Y-124335000D02*
X93673750Y-124005000D01*
X94153750Y-124005000D01*
X93913750Y-124335000D01*
G36*
X93913750Y-124335000D02*
G01*
X93673750Y-124005000D01*
X94153750Y-124005000D01*
X93913750Y-124335000D01*
G37*
%TO.C,U2*%
X61203750Y-103490000D02*
X67363750Y-103490000D01*
X61203750Y-103490000D02*
X61203750Y-85250000D01*
X86163750Y-103490000D02*
X86943750Y-103490000D01*
X86943750Y-103490000D02*
X86943750Y-102490000D01*
X61203750Y-85250000D02*
X67618750Y-85250000D01*
X86163750Y-85250000D02*
X86943750Y-85250000D01*
X86943750Y-85250000D02*
X86943750Y-86250000D01*
X68088750Y-103995000D02*
X67588750Y-103495000D01*
X68088750Y-103495000D01*
X68088750Y-103995000D01*
G36*
X68088750Y-103995000D02*
G01*
X67588750Y-103495000D01*
X68088750Y-103495000D01*
X68088750Y-103995000D01*
G37*
%TO.C,SW5*%
X62823750Y-136600000D02*
X62823750Y-138600000D01*
X63873750Y-135300000D02*
X64323750Y-134850000D01*
X63873750Y-139900000D02*
X64323750Y-140350000D01*
X64323750Y-134850000D02*
X66823750Y-134850000D01*
X64323750Y-140350000D02*
X66823750Y-140350000D01*
X67273750Y-135300000D02*
X66823750Y-134850000D01*
X67273750Y-139900000D02*
X66823750Y-140350000D01*
X68323750Y-136600000D02*
X68323750Y-138600000D01*
%TO.C,SW4*%
X48323750Y-136700000D02*
X48323750Y-138700000D01*
X49373750Y-135400000D02*
X49823750Y-134950000D01*
X49373750Y-140000000D02*
X49823750Y-140450000D01*
X49823750Y-134950000D02*
X52323750Y-134950000D01*
X49823750Y-140450000D02*
X52323750Y-140450000D01*
X52773750Y-135400000D02*
X52323750Y-134950000D01*
X52773750Y-140000000D02*
X52323750Y-140450000D01*
X53823750Y-136700000D02*
X53823750Y-138700000D01*
%TO.C,SW1*%
X129423750Y-70975000D02*
X128040750Y-70975000D01*
X129423750Y-70975000D02*
X129423750Y-72358000D01*
X129183750Y-71215000D02*
X127873750Y-71215000D01*
X129183750Y-71215000D02*
X129183750Y-78035000D01*
X126273750Y-71215000D02*
X124963750Y-71215000D01*
X124963750Y-71215000D02*
X124963750Y-78035000D01*
X127708750Y-74021667D02*
X126438750Y-74021667D01*
X129183750Y-78035000D02*
X127873750Y-78035000D01*
X126273750Y-78035000D02*
X124963750Y-78035000D01*
X127708750Y-72815000D02*
X126438750Y-72815000D01*
X126438750Y-74021667D01*
X127708750Y-74021667D01*
X127708750Y-72815000D01*
G36*
X127708750Y-72815000D02*
G01*
X126438750Y-72815000D01*
X126438750Y-74021667D01*
X127708750Y-74021667D01*
X127708750Y-72815000D01*
G37*
X127708750Y-72815000D02*
X126438750Y-72815000D01*
X126438750Y-76435000D01*
X127708750Y-76435000D01*
X127708750Y-72815000D01*
%TO.C,R7*%
X87596250Y-114262742D02*
X87596250Y-114737258D01*
X86551250Y-114262742D02*
X86551250Y-114737258D01*
%TO.C,R6*%
X69551250Y-112737258D02*
X69551250Y-112262742D01*
X70596250Y-112737258D02*
X70596250Y-112262742D01*
%TO.C,LS1*%
X125193750Y-123120000D02*
X126573750Y-123120000D01*
X125193750Y-124500000D02*
X125193750Y-123120000D01*
X125193750Y-125770000D02*
X125193750Y-128420000D01*
X125193750Y-125770000D02*
X127953750Y-125770000D01*
X125193750Y-128420000D02*
X127953750Y-128420000D01*
X127953750Y-125770000D02*
X127953750Y-128420000D01*
%TO.C,J6*%
X109803750Y-137120000D02*
X109803750Y-138500000D01*
X108423750Y-137120000D02*
X109803750Y-137120000D01*
X107153750Y-137120000D02*
X94343750Y-137120000D01*
X107153750Y-137120000D02*
X107153750Y-139880000D01*
X94343750Y-137120000D02*
X94343750Y-139880000D01*
X107153750Y-139880000D02*
X94343750Y-139880000D01*
%TO.C,J5*%
X88763750Y-137120000D02*
X88763750Y-138500000D01*
X87383750Y-137120000D02*
X88763750Y-137120000D01*
X86113750Y-137120000D02*
X80923750Y-137120000D01*
X86113750Y-137120000D02*
X86113750Y-139880000D01*
X80923750Y-137120000D02*
X80923750Y-139880000D01*
X86113750Y-139880000D02*
X80923750Y-139880000D01*
%TO.C,D1*%
X128073750Y-85070000D02*
X126073750Y-85070000D01*
X128073750Y-85070000D02*
X128073750Y-89080000D01*
X126073750Y-85070000D02*
X126073750Y-89080000D01*
%TO.C,C40*%
X105708170Y-124265000D02*
X105989330Y-124265000D01*
X105708170Y-125285000D02*
X105989330Y-125285000D01*
%TO.C,C38*%
X117338750Y-118536252D02*
X117338750Y-118013748D01*
X118808750Y-118536252D02*
X118808750Y-118013748D01*
%TO.C,C37*%
X112063750Y-118415580D02*
X112063750Y-118134420D01*
X113083750Y-118415580D02*
X113083750Y-118134420D01*
%TO.C,C18*%
X123553750Y-108289420D02*
X123553750Y-108570580D01*
X122533750Y-108289420D02*
X122533750Y-108570580D01*
%TO.C,C17*%
X123053750Y-101789420D02*
X123053750Y-102070580D01*
X122033750Y-101789420D02*
X122033750Y-102070580D01*
%TO.C,C7*%
X67433170Y-128490000D02*
X67714330Y-128490000D01*
X67433170Y-129510000D02*
X67714330Y-129510000D01*
%TO.C,C4*%
X127583750Y-108289420D02*
X127583750Y-108570580D01*
X126563750Y-108289420D02*
X126563750Y-108570580D01*
%TO.C,C3*%
X127583750Y-101789420D02*
X127583750Y-102070580D01*
X126563750Y-101789420D02*
X126563750Y-102070580D01*
%TO.C,BT3*%
X110193750Y-60775000D02*
X111573750Y-60775000D01*
X110193750Y-62155000D02*
X110193750Y-60775000D01*
X110193750Y-63425000D02*
X110193750Y-66075000D01*
X110193750Y-63425000D02*
X112953750Y-63425000D01*
X110193750Y-66075000D02*
X112953750Y-66075000D01*
X112953750Y-63425000D02*
X112953750Y-66075000D01*
%TO.C,BT2*%
X102953750Y-66085000D02*
X101573750Y-66085000D01*
X102953750Y-64705000D02*
X102953750Y-66085000D01*
X102953750Y-63435000D02*
X102953750Y-60785000D01*
X102953750Y-63435000D02*
X100193750Y-63435000D01*
X102953750Y-60785000D02*
X100193750Y-60785000D01*
X100193750Y-63435000D02*
X100193750Y-60785000D01*
%TO.C,BT1*%
X90193750Y-60775000D02*
X91573750Y-60775000D01*
X90193750Y-62155000D02*
X90193750Y-60775000D01*
X90193750Y-63425000D02*
X90193750Y-66075000D01*
X90193750Y-63425000D02*
X92953750Y-63425000D01*
X90193750Y-66075000D02*
X92953750Y-66075000D01*
X92953750Y-63425000D02*
X92953750Y-66075000D01*
%TO.C,C39*%
X105658170Y-118765000D02*
X105939330Y-118765000D01*
X105658170Y-119785000D02*
X105939330Y-119785000D01*
%TD*%
M02*
