%TF.GenerationSoftware,KiCad,Pcbnew,9.0.7*%
%TF.CreationDate,2026-04-05T23:26:52-05:00*%
%TF.ProjectId,audio_and_power,61756469-6f5f-4616-9e64-5f706f776572,rev?*%
%TF.SameCoordinates,Original*%
%TF.FileFunction,Copper,L1,Top*%
%TF.FilePolarity,Positive*%
%FSLAX46Y46*%
G04 Gerber Fmt 4.6, Leading zero omitted, Abs format (unit mm)*
G04 Created by KiCad (PCBNEW 9.0.7) date 2026-04-05 23:26:52*
%MOMM*%
%LPD*%
G01*
G04 APERTURE LIST*
G04 Aperture macros list*
%AMRoundRect*
0 Rectangle with rounded corners*
0 $1 Rounding radius*
0 $2 $3 $4 $5 $6 $7 $8 $9 X,Y pos of 4 corners*
0 Add a 4 corners polygon primitive as box body*
4,1,4,$2,$3,$4,$5,$6,$7,$8,$9,$2,$3,0*
0 Add four circle primitives for the rounded corners*
1,1,$1+$1,$2,$3*
1,1,$1+$1,$4,$5*
1,1,$1+$1,$6,$7*
1,1,$1+$1,$8,$9*
0 Add four rect primitives between the rounded corners*
20,1,$1+$1,$2,$3,$4,$5,0*
20,1,$1+$1,$4,$5,$6,$7,0*
20,1,$1+$1,$6,$7,$8,$9,0*
20,1,$1+$1,$8,$9,$2,$3,0*%
G04 Aperture macros list end*
%TA.AperFunction,ComponentPad*%
%ADD10R,1.905000X2.000000*%
%TD*%
%TA.AperFunction,ComponentPad*%
%ADD11O,1.905000X2.000000*%
%TD*%
%TA.AperFunction,SMDPad,CuDef*%
%ADD12RoundRect,0.100000X-0.712500X-0.100000X0.712500X-0.100000X0.712500X0.100000X-0.712500X0.100000X0*%
%TD*%
%TA.AperFunction,SMDPad,CuDef*%
%ADD13R,0.900000X1.500000*%
%TD*%
%TA.AperFunction,SMDPad,CuDef*%
%ADD14R,1.500000X0.900000*%
%TD*%
%TA.AperFunction,SMDPad,CuDef*%
%ADD15R,0.900000X0.900000*%
%TD*%
%TA.AperFunction,HeatsinkPad*%
%ADD16C,0.600000*%
%TD*%
%TA.AperFunction,HeatsinkPad*%
%ADD17R,3.800000X3.800000*%
%TD*%
%TA.AperFunction,SMDPad,CuDef*%
%ADD18R,1.700000X1.000000*%
%TD*%
%TA.AperFunction,SMDPad,CuDef*%
%ADD19RoundRect,0.250000X-0.310000X0.970000X-0.310000X-0.970000X0.310000X-0.970000X0.310000X0.970000X0*%
%TD*%
%TA.AperFunction,SMDPad,CuDef*%
%ADD20RoundRect,0.200000X-0.275000X0.200000X-0.275000X-0.200000X0.275000X-0.200000X0.275000X0.200000X0*%
%TD*%
%TA.AperFunction,SMDPad,CuDef*%
%ADD21RoundRect,0.200000X0.275000X-0.200000X0.275000X0.200000X-0.275000X0.200000X-0.275000X-0.200000X0*%
%TD*%
%TA.AperFunction,ComponentPad*%
%ADD22R,1.700000X1.700000*%
%TD*%
%TA.AperFunction,ComponentPad*%
%ADD23C,1.700000*%
%TD*%
%TA.AperFunction,SMDPad,CuDef*%
%ADD24RoundRect,0.225000X-0.375000X0.225000X-0.375000X-0.225000X0.375000X-0.225000X0.375000X0.225000X0*%
%TD*%
%TA.AperFunction,SMDPad,CuDef*%
%ADD25RoundRect,0.225000X-0.225000X-0.250000X0.225000X-0.250000X0.225000X0.250000X-0.225000X0.250000X0*%
%TD*%
%TA.AperFunction,SMDPad,CuDef*%
%ADD26RoundRect,0.250000X0.475000X-0.250000X0.475000X0.250000X-0.475000X0.250000X-0.475000X-0.250000X0*%
%TD*%
%TA.AperFunction,SMDPad,CuDef*%
%ADD27RoundRect,0.225000X0.250000X-0.225000X0.250000X0.225000X-0.250000X0.225000X-0.250000X-0.225000X0*%
%TD*%
%TA.AperFunction,SMDPad,CuDef*%
%ADD28RoundRect,0.225000X-0.250000X0.225000X-0.250000X-0.225000X0.250000X-0.225000X0.250000X0.225000X0*%
%TD*%
%TA.AperFunction,ViaPad*%
%ADD29C,0.600000*%
%TD*%
%TA.AperFunction,Conductor*%
%ADD30C,0.254000*%
%TD*%
%TA.AperFunction,Conductor*%
%ADD31C,0.508000*%
%TD*%
%TA.AperFunction,Conductor*%
%ADD32C,0.762000*%
%TD*%
%TA.AperFunction,Conductor*%
%ADD33C,1.016000*%
%TD*%
G04 APERTURE END LIST*
D10*
%TO.P,U8,1,GND*%
%TO.N,/DGND*%
X108533750Y-94660000D03*
D11*
%TO.P,U8,2,VO*%
%TO.N,/DVDD_3V3*%
X111073750Y-94660000D03*
%TO.P,U8,3,VI*%
%TO.N,/VBAT_PROT*%
X113613750Y-94660000D03*
%TD*%
D12*
%TO.P,U7,1,~{SD}*%
%TO.N,/DVDD_3V3*%
X113961250Y-124800000D03*
%TO.P,U7,2,NC*%
%TO.N,unconnected-(U7-NC-Pad2)*%
X113961250Y-125450000D03*
%TO.P,U7,3,IN+*%
%TO.N,Net-(U7-IN+)*%
X113961250Y-126100000D03*
%TO.P,U7,4,IN-*%
%TO.N,/DGND*%
X113961250Y-126750000D03*
%TO.P,U7,5,OUT+*%
%TO.N,Net-(U7-OUT+)*%
X118186250Y-126750000D03*
%TO.P,U7,6,VDD*%
%TO.N,/DVDD_3V3*%
X118186250Y-126100000D03*
%TO.P,U7,7,GND*%
%TO.N,/DGND*%
X118186250Y-125450000D03*
%TO.P,U7,8,OUT-*%
%TO.N,Net-(U7-OUT-)*%
X118186250Y-124800000D03*
%TD*%
%TO.P,U6,1,Vdd*%
%TO.N,/DVDD_3V3*%
X93961250Y-124800000D03*
%TO.P,U6,2,~{CS}*%
%TO.N,/CS*%
X93961250Y-125450000D03*
%TO.P,U6,3,SCK*%
%TO.N,/SCK*%
X93961250Y-126100000D03*
%TO.P,U6,4,SDI*%
%TO.N,/SDI*%
X93961250Y-126750000D03*
%TO.P,U6,5,~{LDAC}*%
%TO.N,/DGND*%
X98186250Y-126750000D03*
%TO.P,U6,6,VB*%
%TO.N,unconnected-(U6-VB-Pad6)*%
X98186250Y-126100000D03*
%TO.P,U6,7,Vss*%
%TO.N,/DGND*%
X98186250Y-125450000D03*
%TO.P,U6,8,VA*%
%TO.N,Net-(U6-VA)*%
X98186250Y-124800000D03*
%TD*%
D13*
%TO.P,U2,1,GND*%
%TO.N,/DGND*%
X68813750Y-103120000D03*
%TO.P,U2,2,VDD*%
%TO.N,/DVDD_3V3*%
X70083750Y-103120000D03*
%TO.P,U2,3,EN*%
%TO.N,/EN*%
X71353750Y-103120000D03*
%TO.P,U2,4,SENSOR_VP*%
%TO.N,unconnected-(U2-SENSOR_VP-Pad4)*%
X72623750Y-103120000D03*
%TO.P,U2,5,SENSOR_VN*%
%TO.N,unconnected-(U2-SENSOR_VN-Pad5)*%
X73893750Y-103120000D03*
%TO.P,U2,6,IO34*%
%TO.N,unconnected-(U2-IO34-Pad6)*%
X75163750Y-103120000D03*
%TO.P,U2,7,IO35*%
%TO.N,unconnected-(U2-IO35-Pad7)*%
X76433750Y-103120000D03*
%TO.P,U2,8,IO32*%
%TO.N,unconnected-(U2-IO32-Pad8)*%
X77703750Y-103120000D03*
%TO.P,U2,9,IO33*%
%TO.N,unconnected-(U2-IO33-Pad9)*%
X78973750Y-103120000D03*
%TO.P,U2,10,IO25*%
%TO.N,unconnected-(U2-IO25-Pad10)*%
X80243750Y-103120000D03*
%TO.P,U2,11,IO26*%
%TO.N,unconnected-(U2-IO26-Pad11)*%
X81513750Y-103120000D03*
%TO.P,U2,12,IO27*%
%TO.N,unconnected-(U2-IO27-Pad12)*%
X82783750Y-103120000D03*
%TO.P,U2,13,IO14*%
%TO.N,unconnected-(U2-IO14-Pad13)*%
X84053750Y-103120000D03*
%TO.P,U2,14,IO12*%
%TO.N,unconnected-(U2-IO12-Pad14)*%
X85323750Y-103120000D03*
D14*
%TO.P,U2,15,GND*%
%TO.N,/DGND*%
X86573750Y-100080000D03*
%TO.P,U2,16,IO13*%
%TO.N,unconnected-(U2-IO13-Pad16)*%
X86573750Y-98810000D03*
%TO.P,U2,17,NC*%
%TO.N,unconnected-(U2-NC-Pad17)*%
X86573750Y-97540000D03*
%TO.P,U2,18,NC*%
%TO.N,unconnected-(U2-NC-Pad18)*%
X86573750Y-96270000D03*
%TO.P,U2,19,NC*%
%TO.N,unconnected-(U2-NC-Pad19)*%
X86573750Y-95000000D03*
%TO.P,U2,20,NC*%
%TO.N,unconnected-(U2-NC-Pad20)*%
X86573750Y-93730000D03*
%TO.P,U2,21,NC*%
%TO.N,unconnected-(U2-NC-Pad21)*%
X86573750Y-92460000D03*
%TO.P,U2,22,NC*%
%TO.N,unconnected-(U2-NC-Pad22)*%
X86573750Y-91190000D03*
%TO.P,U2,23,IO15*%
%TO.N,unconnected-(U2-IO15-Pad23)*%
X86573750Y-89920000D03*
%TO.P,U2,24,IO2*%
%TO.N,unconnected-(U2-IO2-Pad24)*%
X86573750Y-88650000D03*
D13*
%TO.P,U2,25,IO0*%
%TO.N,/IO0*%
X85323750Y-85620000D03*
%TO.P,U2,26,IO4*%
%TO.N,unconnected-(U2-IO4-Pad26)*%
X84053750Y-85620000D03*
%TO.P,U2,27,IO16*%
%TO.N,/TX*%
X82783750Y-85620000D03*
%TO.P,U2,28,IO17*%
%TO.N,/RX*%
X81513750Y-85620000D03*
%TO.P,U2,29,IO5*%
%TO.N,/CS*%
X80243750Y-85620000D03*
%TO.P,U2,30,IO18*%
%TO.N,/SCK*%
X78973750Y-85620000D03*
%TO.P,U2,31,IO19*%
%TO.N,unconnected-(U2-IO19-Pad31)*%
X77703750Y-85620000D03*
%TO.P,U2,32,NC*%
%TO.N,unconnected-(U2-NC-Pad32)*%
X76433750Y-85620000D03*
%TO.P,U2,33,IO21*%
%TO.N,unconnected-(U2-IO21-Pad33)*%
X75163750Y-85620000D03*
%TO.P,U2,34,RXD0/IO3*%
%TO.N,/RXD0*%
X73893750Y-85620000D03*
%TO.P,U2,35,TXD0/IO1*%
%TO.N,/TXD0*%
X72623750Y-85620000D03*
%TO.P,U2,36,IO22*%
%TO.N,unconnected-(U2-IO22-Pad36)*%
X71353750Y-85620000D03*
%TO.P,U2,37,IO23*%
%TO.N,/SDI*%
X70083750Y-85620000D03*
%TO.P,U2,38,GND*%
%TO.N,/DGND*%
X68813750Y-85620000D03*
D15*
%TO.P,U2,39,GND*%
X75133750Y-97270000D03*
D16*
X75833750Y-97270000D03*
D15*
X76533750Y-97270000D03*
D16*
X77233750Y-97270000D03*
D15*
X77933750Y-97270000D03*
D16*
X75133750Y-96570000D03*
X76533750Y-96570000D03*
X77933750Y-96570000D03*
X75833750Y-95895000D03*
X77233750Y-95895000D03*
D15*
X75133750Y-95870000D03*
X76533750Y-95870000D03*
D17*
X76533750Y-95870000D03*
D15*
X77933750Y-95870000D03*
D16*
X75133750Y-95170000D03*
X76533750Y-95170000D03*
X77933750Y-95170000D03*
D15*
X75133750Y-94470000D03*
D16*
X75833750Y-94470000D03*
D15*
X76533750Y-94470000D03*
D16*
X77233750Y-94470000D03*
D15*
X77933750Y-94470000D03*
%TD*%
D18*
%TO.P,SW5,1,1*%
%TO.N,/IO0*%
X62423750Y-135700000D03*
X68723750Y-135700000D03*
%TO.P,SW5,2,2*%
%TO.N,/DGND*%
X62423750Y-139500000D03*
X68723750Y-139500000D03*
%TD*%
%TO.P,SW4,1,1*%
%TO.N,/EN*%
X47923750Y-135800000D03*
X54223750Y-135800000D03*
%TO.P,SW4,2,2*%
%TO.N,/DGND*%
X47923750Y-139600000D03*
X54223750Y-139600000D03*
%TD*%
D19*
%TO.P,SW1,1,A*%
%TO.N,/VBAT*%
X127073750Y-70320000D03*
%TO.P,SW1,2,B*%
%TO.N,Net-(D1-K)*%
X127073750Y-78930000D03*
%TD*%
D20*
%TO.P,R7,1*%
%TO.N,/IO0*%
X87073750Y-113675000D03*
%TO.P,R7,2*%
%TO.N,/DVDD_3V3*%
X87073750Y-115325000D03*
%TD*%
D21*
%TO.P,R6,1*%
%TO.N,/EN*%
X70073750Y-113325000D03*
%TO.P,R6,2*%
%TO.N,/DVDD_3V3*%
X70073750Y-111675000D03*
%TD*%
D22*
%TO.P,LS1,1,1*%
%TO.N,Net-(U7-OUT-)*%
X126573750Y-124500000D03*
D23*
%TO.P,LS1,2,2*%
%TO.N,Net-(U7-OUT+)*%
X126573750Y-127040000D03*
%TD*%
D22*
%TO.P,J6,1,Pin_1*%
%TO.N,/DVDD_3V3*%
X108423750Y-138500000D03*
D23*
%TO.P,J6,2,Pin_2*%
%TO.N,/DGND*%
X105883750Y-138500000D03*
%TO.P,J6,3,Pin_3*%
%TO.N,/TXD0*%
X103343750Y-138500000D03*
%TO.P,J6,4,Pin_4*%
%TO.N,/RXD0*%
X100803750Y-138500000D03*
%TO.P,J6,5,Pin_5*%
%TO.N,/EN*%
X98263750Y-138500000D03*
%TO.P,J6,6,Pin_6*%
%TO.N,/IO0*%
X95723750Y-138500000D03*
%TD*%
D22*
%TO.P,J5,1,Pin_1*%
%TO.N,/DGND*%
X87383750Y-138500000D03*
D23*
%TO.P,J5,2,Pin_2*%
%TO.N,/TX*%
X84843750Y-138500000D03*
%TO.P,J5,3,Pin_3*%
%TO.N,/RX*%
X82303750Y-138500000D03*
%TD*%
D24*
%TO.P,D1,1,K*%
%TO.N,Net-(D1-K)*%
X127073750Y-85780000D03*
%TO.P,D1,2,A*%
%TO.N,/VBAT_PROT*%
X127073750Y-89080000D03*
%TD*%
D25*
%TO.P,C40,1*%
%TO.N,Net-(U6-VA)*%
X105073750Y-124775000D03*
%TO.P,C40,2*%
%TO.N,Net-(U7-IN+)*%
X106623750Y-124775000D03*
%TD*%
D26*
%TO.P,C38,1*%
%TO.N,/DVDD_3V3*%
X118073750Y-119225000D03*
%TO.P,C38,2*%
%TO.N,/DGND*%
X118073750Y-117325000D03*
%TD*%
D27*
%TO.P,C37,1*%
%TO.N,/DVDD_3V3*%
X112573750Y-119050000D03*
%TO.P,C37,2*%
%TO.N,/DGND*%
X112573750Y-117500000D03*
%TD*%
D28*
%TO.P,C18,1*%
%TO.N,/DVDD_3V3*%
X123043750Y-107655000D03*
%TO.P,C18,2*%
%TO.N,/DGND*%
X123043750Y-109205000D03*
%TD*%
%TO.P,C17,1*%
%TO.N,/VBAT_PROT*%
X122543750Y-101155000D03*
%TO.P,C17,2*%
%TO.N,/DGND*%
X122543750Y-102705000D03*
%TD*%
D25*
%TO.P,C7,1*%
%TO.N,/DGND*%
X66798750Y-129000000D03*
%TO.P,C7,2*%
%TO.N,/EN*%
X68348750Y-129000000D03*
%TD*%
D28*
%TO.P,C4,1*%
%TO.N,/DVDD_3V3*%
X127073750Y-107655000D03*
%TO.P,C4,2*%
%TO.N,/DGND*%
X127073750Y-109205000D03*
%TD*%
%TO.P,C3,1*%
%TO.N,/VBAT_PROT*%
X127073750Y-101155000D03*
%TO.P,C3,2*%
%TO.N,/DGND*%
X127073750Y-102705000D03*
%TD*%
D22*
%TO.P,BT3,1,+*%
%TO.N,/VBAT*%
X111573750Y-62155000D03*
D23*
%TO.P,BT3,2,-*%
%TO.N,Net-(BT2-+)*%
X111573750Y-64695000D03*
%TD*%
D22*
%TO.P,BT2,1,+*%
%TO.N,Net-(BT2-+)*%
X101573750Y-64705000D03*
D23*
%TO.P,BT2,2,-*%
%TO.N,Net-(BT1-+)*%
X101573750Y-62165000D03*
%TD*%
D22*
%TO.P,BT1,1,+*%
%TO.N,Net-(BT1-+)*%
X91573750Y-62155000D03*
D23*
%TO.P,BT1,2,-*%
%TO.N,/DGND*%
X91573750Y-64695000D03*
%TD*%
D25*
%TO.P,C39,1*%
%TO.N,/DVDD_3V3*%
X105023750Y-119275000D03*
%TO.P,C39,2*%
%TO.N,/DGND*%
X106573750Y-119275000D03*
%TD*%
D29*
%TO.N,/EN*%
X70073750Y-115000000D03*
%TO.N,/IO0*%
X87073750Y-112000000D03*
%TO.N,/DVDD_3V3*%
X74073750Y-110500000D03*
X81073750Y-117500000D03*
X87073750Y-118000000D03*
X99481250Y-119275000D03*
%TO.N,/IO0*%
X84073750Y-87500000D03*
%TO.N,/RXD0*%
X72446750Y-90000000D03*
%TO.N,/TXD0*%
X73073750Y-88000000D03*
%TO.N,/EN*%
X71573750Y-106000000D03*
%TO.N,/IO0*%
X83573750Y-130000000D03*
%TO.N,/EN*%
X80073750Y-129000000D03*
%TO.N,/RXD0*%
X80073750Y-128000000D03*
%TO.N,/TXD0*%
X80073750Y-127000000D03*
%TO.N,/RX*%
X81573750Y-87500000D03*
%TO.N,/TX*%
X82573750Y-87500000D03*
%TO.N,/RX*%
X81073750Y-131000000D03*
%TO.N,/TX*%
X82073750Y-131000000D03*
%TO.N,/CS*%
X80573750Y-81500000D03*
%TO.N,/SCK*%
X79073750Y-81500000D03*
%TO.N,/CS*%
X80573750Y-78500000D03*
%TO.N,/SCK*%
X79573750Y-79500000D03*
%TO.N,/DGND*%
X115540591Y-125808159D03*
X116606909Y-124741841D03*
%TD*%
D30*
%TO.N,/DGND*%
X98186250Y-125450000D02*
X98956804Y-125450000D01*
X98956804Y-125450000D02*
X99326750Y-125819946D01*
X99326750Y-125819946D02*
X99326750Y-126421999D01*
X99326750Y-126421999D02*
X98998749Y-126750000D01*
X98998749Y-126750000D02*
X98186250Y-126750000D01*
%TO.N,/EN*%
X70073750Y-115000000D02*
X70073750Y-113325000D01*
D31*
%TO.N,/DVDD_3V3*%
X70083750Y-106510000D02*
X70073750Y-106520000D01*
X70073750Y-106520000D02*
X70073750Y-111675000D01*
D30*
%TO.N,/IO0*%
X87073750Y-112000000D02*
X87073750Y-113675000D01*
D31*
%TO.N,/DVDD_3V3*%
X87073750Y-118000000D02*
X87073750Y-115325000D01*
X87073750Y-118000000D02*
X81573750Y-118000000D01*
X81573750Y-118000000D02*
X81073750Y-117500000D01*
X74073750Y-110500000D02*
X70083750Y-106510000D01*
X70083750Y-106510000D02*
X70083750Y-103120000D01*
D30*
%TO.N,/EN*%
X74073750Y-129000000D02*
X68348750Y-129000000D01*
X54223750Y-135800000D02*
X47923750Y-135800000D01*
X80073750Y-129000000D02*
X74073750Y-129000000D01*
X74073750Y-129000000D02*
X69073750Y-134000000D01*
X69073750Y-134000000D02*
X56023750Y-134000000D01*
X56023750Y-134000000D02*
X54223750Y-135800000D01*
%TO.N,/IO0*%
X68723750Y-135700000D02*
X62423750Y-135700000D01*
X68723750Y-135700000D02*
X74423750Y-130000000D01*
X74423750Y-130000000D02*
X83573750Y-130000000D01*
X84073750Y-87500000D02*
X85323750Y-86250000D01*
X85323750Y-86250000D02*
X85323750Y-85620000D01*
X83573750Y-130000000D02*
X86073750Y-130000000D01*
X92723750Y-135500000D02*
X95723750Y-138500000D01*
X86073750Y-130000000D02*
X91573750Y-135500000D01*
X91573750Y-135500000D02*
X92723750Y-135500000D01*
%TO.N,/RXD0*%
X72446750Y-90000000D02*
X73893750Y-88553000D01*
X73893750Y-88553000D02*
X73893750Y-85620000D01*
%TO.N,/TXD0*%
X73073750Y-88000000D02*
X73073750Y-87500000D01*
X73073750Y-87500000D02*
X72623750Y-87050000D01*
X72623750Y-87050000D02*
X72623750Y-85620000D01*
%TO.N,/EN*%
X71573750Y-106000000D02*
X71573750Y-105500000D01*
X71573750Y-105500000D02*
X71353750Y-105280000D01*
X71353750Y-105280000D02*
X71353750Y-103120000D01*
%TO.N,/TXD0*%
X86073750Y-127000000D02*
X80073750Y-127000000D01*
X91573750Y-132500000D02*
X86073750Y-127000000D01*
%TO.N,/RXD0*%
X86073750Y-128000000D02*
X80073750Y-128000000D01*
X91573750Y-133500000D02*
X86073750Y-128000000D01*
%TO.N,/EN*%
X86073750Y-129000000D02*
X80073750Y-129000000D01*
X91573750Y-134500000D02*
X86073750Y-129000000D01*
%TO.N,/RX*%
X81513750Y-87440000D02*
X81573750Y-87500000D01*
%TO.N,/TX*%
X82783750Y-87290000D02*
X82573750Y-87500000D01*
X82783750Y-85620000D02*
X82783750Y-87290000D01*
%TO.N,/RX*%
X81513750Y-85620000D02*
X81513750Y-87440000D01*
%TO.N,/TXD0*%
X97343750Y-132500000D02*
X91573750Y-132500000D01*
X103343750Y-138500000D02*
X97343750Y-132500000D01*
%TO.N,/RXD0*%
X95803750Y-133500000D02*
X91573750Y-133500000D01*
X100803750Y-138500000D02*
X95803750Y-133500000D01*
%TO.N,/EN*%
X94263750Y-134500000D02*
X91573750Y-134500000D01*
X98263750Y-138500000D02*
X94263750Y-134500000D01*
%TO.N,/TX*%
X82073750Y-135730000D02*
X82073750Y-131000000D01*
X84843750Y-138500000D02*
X82073750Y-135730000D01*
%TO.N,/RX*%
X81073750Y-137270000D02*
X81073750Y-131000000D01*
X82303750Y-138500000D02*
X81073750Y-137270000D01*
D31*
%TO.N,/DVDD_3V3*%
X108423750Y-134575000D02*
X108423750Y-138500000D01*
X116898750Y-126100000D02*
X108423750Y-134575000D01*
D30*
%TO.N,/CS*%
X80573750Y-81500000D02*
X80243750Y-81830000D01*
X80243750Y-81830000D02*
X80243750Y-85620000D01*
%TO.N,/SCK*%
X79073750Y-81500000D02*
X78973750Y-81600000D01*
X78973750Y-81600000D02*
X78973750Y-85620000D01*
%TO.N,/CS*%
X93190696Y-125450000D02*
X93961250Y-125450000D01*
X80573750Y-78500000D02*
X86360684Y-78500000D01*
X86360684Y-78500000D02*
X91573750Y-83713066D01*
X91573750Y-83713066D02*
X91573750Y-123833054D01*
X91573750Y-123833054D02*
X93190696Y-125450000D01*
%TO.N,/SCK*%
X79573750Y-79500000D02*
X86717217Y-79500000D01*
X86717217Y-79500000D02*
X91073750Y-83856533D01*
X91073750Y-83856533D02*
X91073750Y-124024999D01*
X93148751Y-126100000D02*
X93961250Y-126100000D01*
X91073750Y-124024999D02*
X93148751Y-126100000D01*
%TO.N,/SDI*%
X87073750Y-80500000D02*
X74199750Y-80500000D01*
X74199750Y-80500000D02*
X70083750Y-84616000D01*
X70083750Y-84616000D02*
X70083750Y-85620000D01*
X90573750Y-84000000D02*
X87073750Y-80500000D01*
X90573750Y-124168466D02*
X90573750Y-84000000D01*
X93155284Y-126750000D02*
X90573750Y-124168466D01*
X93961250Y-126750000D02*
X93155284Y-126750000D01*
D32*
%TO.N,/DVDD_3V3*%
X115743750Y-113500000D02*
X115743750Y-119055000D01*
X115743750Y-113500000D02*
X105256250Y-113500000D01*
X105256250Y-113500000D02*
X99481250Y-119275000D01*
X115743750Y-99330000D02*
X111073750Y-94660000D01*
X115743750Y-119055000D02*
X115573750Y-119225000D01*
X115743750Y-99330000D02*
X115743750Y-113500000D01*
D30*
%TO.N,/DGND*%
X115540591Y-125808159D02*
X115540591Y-125983158D01*
X114773749Y-126750000D02*
X113961250Y-126750000D01*
X115540591Y-125983158D02*
X114773749Y-126750000D01*
X117248750Y-125450000D02*
X116573750Y-124775000D01*
X118186250Y-125450000D02*
X117248750Y-125450000D01*
X116573750Y-124775000D02*
X116606909Y-124741841D01*
D31*
%TO.N,/DVDD_3V3*%
X115573750Y-119225000D02*
X112748750Y-119225000D01*
X115573750Y-119225000D02*
X115573750Y-124775000D01*
X118073750Y-119225000D02*
X115573750Y-119225000D01*
X112748750Y-119225000D02*
X112573750Y-119050000D01*
D33*
%TO.N,Net-(U7-OUT+)*%
X126573750Y-127040000D02*
X118217250Y-127040000D01*
X118217250Y-127040000D02*
X118186250Y-127009000D01*
%TO.N,Net-(U7-OUT-)*%
X126573750Y-124500000D02*
X118227250Y-124500000D01*
X118227250Y-124500000D02*
X118186250Y-124541000D01*
D31*
%TO.N,/DVDD_3V3*%
X115573750Y-124775000D02*
X116898750Y-126100000D01*
D30*
X115548750Y-124800000D02*
X113961250Y-124800000D01*
X118186250Y-126100000D02*
X116898750Y-126100000D01*
X115573750Y-124775000D02*
X115548750Y-124800000D01*
D33*
%TO.N,Net-(U7-OUT-)*%
X126573750Y-124500000D02*
X126573750Y-124275000D01*
D31*
%TO.N,/DVDD_3V3*%
X105023750Y-119275000D02*
X99481250Y-119275000D01*
X99481250Y-119275000D02*
X93961250Y-124795000D01*
D30*
%TO.N,Net-(U7-IN+)*%
X108898750Y-126100000D02*
X107573750Y-124775000D01*
X113961250Y-126100000D02*
X108898750Y-126100000D01*
X107573750Y-124775000D02*
X106623750Y-124775000D01*
%TO.N,Net-(U6-VA)*%
X98186250Y-124800000D02*
X105048750Y-124800000D01*
X105048750Y-124800000D02*
X105073750Y-124775000D01*
D32*
%TO.N,/DVDD_3V3*%
X127073750Y-107655000D02*
X123043750Y-107655000D01*
X123043750Y-107655000D02*
X123043750Y-106630000D01*
X123043750Y-106630000D02*
X115743750Y-99330000D01*
%TO.N,/VBAT_PROT*%
X122543750Y-101155000D02*
X120108750Y-101155000D01*
X120108750Y-101155000D02*
X113613750Y-94660000D01*
X127073750Y-101155000D02*
X127073750Y-89080000D01*
X127073750Y-101155000D02*
X122543750Y-101155000D01*
%TO.N,Net-(D1-K)*%
X127073750Y-78930000D02*
X127073750Y-85780000D01*
%TO.N,/VBAT*%
X111573750Y-62155000D02*
X118908750Y-62155000D01*
X118908750Y-62155000D02*
X127073750Y-70320000D01*
%TO.N,Net-(BT1-+)*%
X101573750Y-62165000D02*
X91583750Y-62165000D01*
X91583750Y-62165000D02*
X91573750Y-62155000D01*
%TO.N,Net-(BT2-+)*%
X111573750Y-64695000D02*
X101583750Y-64695000D01*
X101583750Y-64695000D02*
X101573750Y-64705000D01*
%TD*%
%TA.AperFunction,Conductor*%
%TO.N,/DGND*%
G36*
X131016289Y-57519685D02*
G01*
X131062044Y-57572489D01*
X131073250Y-57624000D01*
X131073250Y-143876000D01*
X131053565Y-143943039D01*
X131000761Y-143988794D01*
X130949250Y-144000000D01*
X46698250Y-144000000D01*
X46631211Y-143980315D01*
X46585456Y-143927511D01*
X46574250Y-143876000D01*
X46574250Y-140598377D01*
X46593935Y-140531338D01*
X46646739Y-140485583D01*
X46715897Y-140475639D01*
X46772562Y-140499111D01*
X46831660Y-140543352D01*
X46831663Y-140543354D01*
X46966370Y-140593596D01*
X46966377Y-140593598D01*
X47025905Y-140599999D01*
X47025922Y-140600000D01*
X47673750Y-140600000D01*
X48173750Y-140600000D01*
X48821578Y-140600000D01*
X48821594Y-140599999D01*
X48881122Y-140593598D01*
X48881129Y-140593596D01*
X49015836Y-140543354D01*
X49015843Y-140543350D01*
X49130937Y-140457190D01*
X49130940Y-140457187D01*
X49217100Y-140342093D01*
X49217104Y-140342086D01*
X49267346Y-140207379D01*
X49267348Y-140207372D01*
X49273749Y-140147844D01*
X52873750Y-140147844D01*
X52880151Y-140207372D01*
X52880153Y-140207379D01*
X52930395Y-140342086D01*
X52930399Y-140342093D01*
X53016559Y-140457187D01*
X53016562Y-140457190D01*
X53131656Y-140543350D01*
X53131663Y-140543354D01*
X53266370Y-140593596D01*
X53266377Y-140593598D01*
X53325905Y-140599999D01*
X53325922Y-140600000D01*
X53973750Y-140600000D01*
X54473750Y-140600000D01*
X55121578Y-140600000D01*
X55121594Y-140599999D01*
X55181122Y-140593598D01*
X55181129Y-140593596D01*
X55315836Y-140543354D01*
X55315843Y-140543350D01*
X55430937Y-140457190D01*
X55430940Y-140457187D01*
X55517100Y-140342093D01*
X55517104Y-140342086D01*
X55567346Y-140207379D01*
X55567348Y-140207372D01*
X55573749Y-140147844D01*
X55573750Y-140147827D01*
X55573750Y-140047844D01*
X61073750Y-140047844D01*
X61080151Y-140107372D01*
X61080153Y-140107379D01*
X61130395Y-140242086D01*
X61130399Y-140242093D01*
X61216559Y-140357187D01*
X61216562Y-140357190D01*
X61331656Y-140443350D01*
X61331663Y-140443354D01*
X61466370Y-140493596D01*
X61466377Y-140493598D01*
X61525905Y-140499999D01*
X61525922Y-140500000D01*
X62173750Y-140500000D01*
X62673750Y-140500000D01*
X63321578Y-140500000D01*
X63321594Y-140499999D01*
X63381122Y-140493598D01*
X63381129Y-140493596D01*
X63515836Y-140443354D01*
X63515843Y-140443350D01*
X63630937Y-140357190D01*
X63630940Y-140357187D01*
X63717100Y-140242093D01*
X63717104Y-140242086D01*
X63767346Y-140107379D01*
X63767348Y-140107372D01*
X63773749Y-140047844D01*
X67373750Y-140047844D01*
X67380151Y-140107372D01*
X67380153Y-140107379D01*
X67430395Y-140242086D01*
X67430399Y-140242093D01*
X67516559Y-140357187D01*
X67516562Y-140357190D01*
X67631656Y-140443350D01*
X67631663Y-140443354D01*
X67766370Y-140493596D01*
X67766377Y-140493598D01*
X67825905Y-140499999D01*
X67825922Y-140500000D01*
X68473750Y-140500000D01*
X68973750Y-140500000D01*
X69621578Y-140500000D01*
X69621594Y-140499999D01*
X69681122Y-140493598D01*
X69681129Y-140493596D01*
X69815836Y-140443354D01*
X69815843Y-140443350D01*
X69930937Y-140357190D01*
X69930940Y-140357187D01*
X70017100Y-140242093D01*
X70017104Y-140242086D01*
X70067346Y-140107379D01*
X70067348Y-140107372D01*
X70073749Y-140047844D01*
X70073750Y-140047827D01*
X70073750Y-139750000D01*
X68973750Y-139750000D01*
X68973750Y-140500000D01*
X68473750Y-140500000D01*
X68473750Y-139750000D01*
X67373750Y-139750000D01*
X67373750Y-140047844D01*
X63773749Y-140047844D01*
X63773750Y-140047827D01*
X63773750Y-139750000D01*
X62673750Y-139750000D01*
X62673750Y-140500000D01*
X62173750Y-140500000D01*
X62173750Y-139750000D01*
X61073750Y-139750000D01*
X61073750Y-140047844D01*
X55573750Y-140047844D01*
X55573750Y-139850000D01*
X54473750Y-139850000D01*
X54473750Y-140600000D01*
X53973750Y-140600000D01*
X53973750Y-139850000D01*
X52873750Y-139850000D01*
X52873750Y-140147844D01*
X49273749Y-140147844D01*
X49273750Y-140147827D01*
X49273750Y-139850000D01*
X48173750Y-139850000D01*
X48173750Y-140600000D01*
X47673750Y-140600000D01*
X47673750Y-139350000D01*
X48173750Y-139350000D01*
X49273750Y-139350000D01*
X49273750Y-139052172D01*
X49273749Y-139052155D01*
X52873750Y-139052155D01*
X52873750Y-139350000D01*
X53973750Y-139350000D01*
X54473750Y-139350000D01*
X55573750Y-139350000D01*
X55573750Y-139052172D01*
X55573749Y-139052155D01*
X55567348Y-138992627D01*
X55567345Y-138992616D01*
X55567190Y-138992199D01*
X55567184Y-138992184D01*
X55552254Y-138952155D01*
X61073750Y-138952155D01*
X61073750Y-139250000D01*
X62173750Y-139250000D01*
X62673750Y-139250000D01*
X63773750Y-139250000D01*
X63773750Y-138952172D01*
X63773749Y-138952155D01*
X67373750Y-138952155D01*
X67373750Y-139250000D01*
X68473750Y-139250000D01*
X68973750Y-139250000D01*
X70073750Y-139250000D01*
X70073750Y-138952172D01*
X70073749Y-138952155D01*
X70067348Y-138892627D01*
X70067346Y-138892620D01*
X70017104Y-138757913D01*
X70017100Y-138757906D01*
X69930940Y-138642812D01*
X69930937Y-138642809D01*
X69815843Y-138556649D01*
X69815836Y-138556645D01*
X69681129Y-138506403D01*
X69681122Y-138506401D01*
X69621594Y-138500000D01*
X68973750Y-138500000D01*
X68973750Y-139250000D01*
X68473750Y-139250000D01*
X68473750Y-138500000D01*
X67825905Y-138500000D01*
X67766377Y-138506401D01*
X67766370Y-138506403D01*
X67631663Y-138556645D01*
X67631656Y-138556649D01*
X67516562Y-138642809D01*
X67516559Y-138642812D01*
X67430399Y-138757906D01*
X67430395Y-138757913D01*
X67380153Y-138892620D01*
X67380151Y-138892627D01*
X67373750Y-138952155D01*
X63773749Y-138952155D01*
X63767348Y-138892627D01*
X63767346Y-138892620D01*
X63717104Y-138757913D01*
X63717100Y-138757906D01*
X63630940Y-138642812D01*
X63630937Y-138642809D01*
X63515843Y-138556649D01*
X63515836Y-138556645D01*
X63381129Y-138506403D01*
X63381122Y-138506401D01*
X63321594Y-138500000D01*
X62673750Y-138500000D01*
X62673750Y-139250000D01*
X62173750Y-139250000D01*
X62173750Y-138500000D01*
X61525905Y-138500000D01*
X61466377Y-138506401D01*
X61466370Y-138506403D01*
X61331663Y-138556645D01*
X61331656Y-138556649D01*
X61216562Y-138642809D01*
X61216559Y-138642812D01*
X61130399Y-138757906D01*
X61130395Y-138757913D01*
X61080153Y-138892620D01*
X61080151Y-138892627D01*
X61073750Y-138952155D01*
X55552254Y-138952155D01*
X55517104Y-138857913D01*
X55517100Y-138857906D01*
X55430940Y-138742812D01*
X55430937Y-138742809D01*
X55315843Y-138656649D01*
X55315836Y-138656645D01*
X55181129Y-138606403D01*
X55181122Y-138606401D01*
X55121594Y-138600000D01*
X54473750Y-138600000D01*
X54473750Y-139350000D01*
X53973750Y-139350000D01*
X53973750Y-138600000D01*
X53325905Y-138600000D01*
X53266377Y-138606401D01*
X53266370Y-138606403D01*
X53131663Y-138656645D01*
X53131656Y-138656649D01*
X53016562Y-138742809D01*
X53016559Y-138742812D01*
X52930399Y-138857906D01*
X52930395Y-138857913D01*
X52880153Y-138992620D01*
X52880151Y-138992627D01*
X52873750Y-139052155D01*
X49273749Y-139052155D01*
X49267348Y-138992627D01*
X49267346Y-138992620D01*
X49217104Y-138857913D01*
X49217100Y-138857906D01*
X49130940Y-138742812D01*
X49130937Y-138742809D01*
X49015843Y-138656649D01*
X49015836Y-138656645D01*
X48881129Y-138606403D01*
X48881122Y-138606401D01*
X48821594Y-138600000D01*
X48173750Y-138600000D01*
X48173750Y-139350000D01*
X47673750Y-139350000D01*
X47673750Y-138600000D01*
X47025905Y-138600000D01*
X46966377Y-138606401D01*
X46966370Y-138606403D01*
X46831663Y-138656645D01*
X46831660Y-138656647D01*
X46772561Y-138700889D01*
X46707096Y-138725306D01*
X46638823Y-138710454D01*
X46589418Y-138661049D01*
X46574250Y-138601622D01*
X46574250Y-136799001D01*
X46593935Y-136731962D01*
X46646739Y-136686207D01*
X46715897Y-136676263D01*
X46772560Y-136699734D01*
X46815611Y-136731962D01*
X46831418Y-136743795D01*
X46831421Y-136743797D01*
X46966267Y-136794091D01*
X46966266Y-136794091D01*
X46973194Y-136794835D01*
X47025877Y-136800500D01*
X48821622Y-136800499D01*
X48881233Y-136794091D01*
X49016081Y-136743796D01*
X49131296Y-136657546D01*
X49217546Y-136542331D01*
X49230289Y-136508166D01*
X49272161Y-136452233D01*
X49337625Y-136427816D01*
X49346471Y-136427500D01*
X52801029Y-136427500D01*
X52868068Y-136447185D01*
X52913823Y-136499989D01*
X52917211Y-136508166D01*
X52929953Y-136542330D01*
X52929956Y-136542335D01*
X53016202Y-136657544D01*
X53016205Y-136657547D01*
X53131414Y-136743793D01*
X53131421Y-136743797D01*
X53266267Y-136794091D01*
X53266266Y-136794091D01*
X53273194Y-136794835D01*
X53325877Y-136800500D01*
X55121622Y-136800499D01*
X55181233Y-136794091D01*
X55316081Y-136743796D01*
X55431296Y-136657546D01*
X55517546Y-136542331D01*
X55567841Y-136407483D01*
X55574250Y-136347873D01*
X55574249Y-135388280D01*
X55593933Y-135321242D01*
X55610568Y-135300600D01*
X56247350Y-134663819D01*
X56308673Y-134630334D01*
X56335031Y-134627500D01*
X61131796Y-134627500D01*
X61198835Y-134647185D01*
X61244590Y-134699989D01*
X61254534Y-134769147D01*
X61225509Y-134832703D01*
X61219477Y-134839181D01*
X61216202Y-134842455D01*
X61129956Y-134957664D01*
X61129952Y-134957671D01*
X61079658Y-135092517D01*
X61073251Y-135152116D01*
X61073250Y-135152135D01*
X61073250Y-136247870D01*
X61073251Y-136247876D01*
X61079658Y-136307483D01*
X61129952Y-136442328D01*
X61129956Y-136442335D01*
X61216202Y-136557544D01*
X61216205Y-136557547D01*
X61331414Y-136643793D01*
X61331421Y-136643797D01*
X61466267Y-136694091D01*
X61466266Y-136694091D01*
X61473194Y-136694835D01*
X61525877Y-136700500D01*
X63321622Y-136700499D01*
X63381233Y-136694091D01*
X63516081Y-136643796D01*
X63631296Y-136557546D01*
X63717546Y-136442331D01*
X63730289Y-136408166D01*
X63772161Y-136352233D01*
X63837625Y-136327816D01*
X63846471Y-136327500D01*
X67301029Y-136327500D01*
X67368068Y-136347185D01*
X67413823Y-136399989D01*
X67417211Y-136408166D01*
X67429953Y-136442330D01*
X67429956Y-136442335D01*
X67516202Y-136557544D01*
X67516205Y-136557547D01*
X67631414Y-136643793D01*
X67631421Y-136643797D01*
X67766267Y-136694091D01*
X67766266Y-136694091D01*
X67773194Y-136694835D01*
X67825877Y-136700500D01*
X69621622Y-136700499D01*
X69681233Y-136694091D01*
X69816081Y-136643796D01*
X69931296Y-136557546D01*
X70017546Y-136442331D01*
X70067841Y-136307483D01*
X70074250Y-136247873D01*
X70074249Y-135288279D01*
X70093933Y-135221241D01*
X70110563Y-135200604D01*
X74647350Y-130663819D01*
X74708673Y-130630334D01*
X74735031Y-130627500D01*
X80180568Y-130627500D01*
X80247607Y-130647185D01*
X80293362Y-130699989D01*
X80303306Y-130769147D01*
X80302185Y-130775692D01*
X80273250Y-130921155D01*
X80273250Y-131078846D01*
X80304011Y-131233489D01*
X80304014Y-131233501D01*
X80364353Y-131379174D01*
X80364354Y-131379175D01*
X80364356Y-131379179D01*
X80425352Y-131470465D01*
X80446230Y-131537142D01*
X80446250Y-131539356D01*
X80446250Y-137331807D01*
X80470362Y-137453028D01*
X80470365Y-137453038D01*
X80477345Y-137469890D01*
X80489611Y-137499500D01*
X80517667Y-137567233D01*
X80553064Y-137620208D01*
X80556647Y-137625571D01*
X80556649Y-137625574D01*
X80586340Y-137670010D01*
X80586343Y-137670013D01*
X80960627Y-138044296D01*
X80994112Y-138105619D01*
X80990878Y-138170293D01*
X80986504Y-138183755D01*
X80986504Y-138183757D01*
X80953250Y-138393713D01*
X80953250Y-138606287D01*
X80959035Y-138642809D01*
X80974873Y-138742812D01*
X80986504Y-138816243D01*
X81043811Y-138992616D01*
X81052194Y-139018414D01*
X81148701Y-139207820D01*
X81273640Y-139379786D01*
X81423963Y-139530109D01*
X81595929Y-139655048D01*
X81595931Y-139655049D01*
X81595934Y-139655051D01*
X81785338Y-139751557D01*
X81987507Y-139817246D01*
X82197463Y-139850500D01*
X82197464Y-139850500D01*
X82410036Y-139850500D01*
X82410037Y-139850500D01*
X82619993Y-139817246D01*
X82822162Y-139751557D01*
X83011566Y-139655051D01*
X83097888Y-139592335D01*
X83183536Y-139530109D01*
X83183538Y-139530106D01*
X83183542Y-139530104D01*
X83333854Y-139379792D01*
X83333856Y-139379788D01*
X83333859Y-139379786D01*
X83458798Y-139207820D01*
X83458797Y-139207820D01*
X83458801Y-139207816D01*
X83463264Y-139199054D01*
X83511238Y-139148259D01*
X83579058Y-139131463D01*
X83645194Y-139153999D01*
X83684236Y-139199056D01*
X83688701Y-139207820D01*
X83813640Y-139379786D01*
X83963963Y-139530109D01*
X84135929Y-139655048D01*
X84135931Y-139655049D01*
X84135934Y-139655051D01*
X84325338Y-139751557D01*
X84527507Y-139817246D01*
X84737463Y-139850500D01*
X84737464Y-139850500D01*
X84950036Y-139850500D01*
X84950037Y-139850500D01*
X85159993Y-139817246D01*
X85362162Y-139751557D01*
X85551566Y-139655051D01*
X85638228Y-139592088D01*
X85723534Y-139530110D01*
X85723534Y-139530109D01*
X85723542Y-139530104D01*
X85837467Y-139416178D01*
X85898786Y-139382696D01*
X85968478Y-139387680D01*
X86024412Y-139429551D01*
X86041327Y-139460528D01*
X86090396Y-139592088D01*
X86090399Y-139592093D01*
X86176559Y-139707187D01*
X86176562Y-139707190D01*
X86291656Y-139793350D01*
X86291663Y-139793354D01*
X86426370Y-139843596D01*
X86426377Y-139843598D01*
X86485905Y-139849999D01*
X86485922Y-139850000D01*
X87133750Y-139850000D01*
X87133750Y-138933012D01*
X87190757Y-138965925D01*
X87317924Y-139000000D01*
X87449576Y-139000000D01*
X87576743Y-138965925D01*
X87633750Y-138933012D01*
X87633750Y-139850000D01*
X88281578Y-139850000D01*
X88281594Y-139849999D01*
X88341122Y-139843598D01*
X88341129Y-139843596D01*
X88475836Y-139793354D01*
X88475843Y-139793350D01*
X88590937Y-139707190D01*
X88590940Y-139707187D01*
X88677100Y-139592093D01*
X88677104Y-139592086D01*
X88727346Y-139457379D01*
X88727348Y-139457372D01*
X88733749Y-139397844D01*
X88733750Y-139397827D01*
X88733750Y-138750000D01*
X87816762Y-138750000D01*
X87849675Y-138692993D01*
X87883750Y-138565826D01*
X87883750Y-138434174D01*
X87849675Y-138307007D01*
X87816762Y-138250000D01*
X88733750Y-138250000D01*
X88733750Y-137602172D01*
X88733749Y-137602155D01*
X88727348Y-137542627D01*
X88727346Y-137542620D01*
X88677104Y-137407913D01*
X88677100Y-137407906D01*
X88590940Y-137292812D01*
X88590937Y-137292809D01*
X88475843Y-137206649D01*
X88475836Y-137206645D01*
X88341129Y-137156403D01*
X88341122Y-137156401D01*
X88281594Y-137150000D01*
X87633750Y-137150000D01*
X87633750Y-138066988D01*
X87576743Y-138034075D01*
X87449576Y-138000000D01*
X87317924Y-138000000D01*
X87190757Y-138034075D01*
X87133750Y-138066988D01*
X87133750Y-137150000D01*
X86485905Y-137150000D01*
X86426377Y-137156401D01*
X86426370Y-137156403D01*
X86291663Y-137206645D01*
X86291656Y-137206649D01*
X86176562Y-137292809D01*
X86176559Y-137292812D01*
X86090399Y-137407906D01*
X86090396Y-137407912D01*
X86041327Y-137539471D01*
X85999455Y-137595404D01*
X85933991Y-137619821D01*
X85865718Y-137604969D01*
X85837464Y-137583818D01*
X85723536Y-137469890D01*
X85551570Y-137344951D01*
X85362164Y-137248444D01*
X85362163Y-137248443D01*
X85362162Y-137248443D01*
X85159993Y-137182754D01*
X85159991Y-137182753D01*
X85159990Y-137182753D01*
X84996613Y-137156877D01*
X84950037Y-137149500D01*
X84737463Y-137149500D01*
X84690887Y-137156877D01*
X84527505Y-137182754D01*
X84514043Y-137187128D01*
X84444201Y-137189122D01*
X84388046Y-137156877D01*
X82737569Y-135506400D01*
X82704084Y-135445077D01*
X82701250Y-135418719D01*
X82701250Y-131539356D01*
X82720935Y-131472317D01*
X82722148Y-131470465D01*
X82783144Y-131379179D01*
X82843487Y-131233497D01*
X82874250Y-131078842D01*
X82874250Y-130921158D01*
X82874250Y-130921155D01*
X82845315Y-130775692D01*
X82847192Y-130754707D01*
X82844194Y-130733853D01*
X82850244Y-130720605D01*
X82851542Y-130706100D01*
X82864466Y-130689462D01*
X82873219Y-130670297D01*
X82885471Y-130662422D01*
X82894405Y-130650923D01*
X82914271Y-130643914D01*
X82931997Y-130632523D01*
X82956580Y-130628988D01*
X82960295Y-130627678D01*
X82966932Y-130627500D01*
X83034393Y-130627500D01*
X83101432Y-130647185D01*
X83103284Y-130648398D01*
X83194564Y-130709390D01*
X83194577Y-130709397D01*
X83340248Y-130769735D01*
X83340253Y-130769737D01*
X83494903Y-130800499D01*
X83494906Y-130800500D01*
X83494908Y-130800500D01*
X83652594Y-130800500D01*
X83652595Y-130800499D01*
X83807247Y-130769737D01*
X83952929Y-130709394D01*
X84044216Y-130648398D01*
X84110893Y-130627520D01*
X84113107Y-130627500D01*
X85762469Y-130627500D01*
X85829508Y-130647185D01*
X85850150Y-130663819D01*
X91086339Y-135900008D01*
X91173742Y-135987411D01*
X91173744Y-135987413D01*
X91173746Y-135987414D01*
X91276506Y-136056076D01*
X91276508Y-136056077D01*
X91276517Y-136056083D01*
X91301522Y-136066440D01*
X91323821Y-136075677D01*
X91366004Y-136093149D01*
X91390716Y-136103386D01*
X91511942Y-136127499D01*
X91511946Y-136127500D01*
X91511947Y-136127500D01*
X92412469Y-136127500D01*
X92479508Y-136147185D01*
X92500150Y-136163819D01*
X94380627Y-138044296D01*
X94414112Y-138105619D01*
X94410878Y-138170293D01*
X94406504Y-138183755D01*
X94406504Y-138183757D01*
X94373250Y-138393713D01*
X94373250Y-138606287D01*
X94379035Y-138642809D01*
X94394873Y-138742812D01*
X94406504Y-138816243D01*
X94463811Y-138992616D01*
X94472194Y-139018414D01*
X94568701Y-139207820D01*
X94693640Y-139379786D01*
X94843963Y-139530109D01*
X95015929Y-139655048D01*
X95015931Y-139655049D01*
X95015934Y-139655051D01*
X95205338Y-139751557D01*
X95407507Y-139817246D01*
X95617463Y-139850500D01*
X95617464Y-139850500D01*
X95830036Y-139850500D01*
X95830037Y-139850500D01*
X96039993Y-139817246D01*
X96242162Y-139751557D01*
X96431566Y-139655051D01*
X96517888Y-139592335D01*
X96603536Y-139530109D01*
X96603538Y-139530106D01*
X96603542Y-139530104D01*
X96753854Y-139379792D01*
X96753856Y-139379788D01*
X96753859Y-139379786D01*
X96878798Y-139207820D01*
X96878797Y-139207820D01*
X96878801Y-139207816D01*
X96883264Y-139199054D01*
X96931238Y-139148259D01*
X96999058Y-139131463D01*
X97065194Y-139153999D01*
X97104236Y-139199056D01*
X97108701Y-139207820D01*
X97233640Y-139379786D01*
X97383963Y-139530109D01*
X97555929Y-139655048D01*
X97555931Y-139655049D01*
X97555934Y-139655051D01*
X97745338Y-139751557D01*
X97947507Y-139817246D01*
X98157463Y-139850500D01*
X98157464Y-139850500D01*
X98370036Y-139850500D01*
X98370037Y-139850500D01*
X98579993Y-139817246D01*
X98782162Y-139751557D01*
X98971566Y-139655051D01*
X99057888Y-139592335D01*
X99143536Y-139530109D01*
X99143538Y-139530106D01*
X99143542Y-139530104D01*
X99293854Y-139379792D01*
X99293856Y-139379788D01*
X99293859Y-139379786D01*
X99418798Y-139207820D01*
X99418797Y-139207820D01*
X99418801Y-139207816D01*
X99423264Y-139199054D01*
X99471238Y-139148259D01*
X99539058Y-139131463D01*
X99605194Y-139153999D01*
X99644236Y-139199056D01*
X99648701Y-139207820D01*
X99773640Y-139379786D01*
X99923963Y-139530109D01*
X100095929Y-139655048D01*
X100095931Y-139655049D01*
X100095934Y-139655051D01*
X100285338Y-139751557D01*
X100487507Y-139817246D01*
X100697463Y-139850500D01*
X100697464Y-139850500D01*
X100910036Y-139850500D01*
X100910037Y-139850500D01*
X101119993Y-139817246D01*
X101322162Y-139751557D01*
X101511566Y-139655051D01*
X101597888Y-139592335D01*
X101683536Y-139530109D01*
X101683538Y-139530106D01*
X101683542Y-139530104D01*
X101833854Y-139379792D01*
X101833856Y-139379788D01*
X101833859Y-139379786D01*
X101958798Y-139207820D01*
X101958797Y-139207820D01*
X101958801Y-139207816D01*
X101963264Y-139199054D01*
X102011238Y-139148259D01*
X102079058Y-139131463D01*
X102145194Y-139153999D01*
X102184236Y-139199056D01*
X102188701Y-139207820D01*
X102313640Y-139379786D01*
X102463963Y-139530109D01*
X102635929Y-139655048D01*
X102635931Y-139655049D01*
X102635934Y-139655051D01*
X102825338Y-139751557D01*
X103027507Y-139817246D01*
X103237463Y-139850500D01*
X103237464Y-139850500D01*
X103450036Y-139850500D01*
X103450037Y-139850500D01*
X103659993Y-139817246D01*
X103862162Y-139751557D01*
X104051566Y-139655051D01*
X104137888Y-139592335D01*
X104223536Y-139530109D01*
X104223538Y-139530106D01*
X104223542Y-139530104D01*
X104373854Y-139379792D01*
X104373856Y-139379788D01*
X104373859Y-139379786D01*
X104441265Y-139287007D01*
X104498801Y-139207816D01*
X104503543Y-139198508D01*
X104551513Y-139147711D01*
X104619333Y-139130911D01*
X104685469Y-139153445D01*
X104724513Y-139198500D01*
X104729123Y-139207547D01*
X104768478Y-139261716D01*
X105400787Y-138629408D01*
X105417825Y-138692993D01*
X105483651Y-138807007D01*
X105576743Y-138900099D01*
X105690757Y-138965925D01*
X105754340Y-138982962D01*
X105122032Y-139615269D01*
X105122032Y-139615270D01*
X105176199Y-139654624D01*
X105365532Y-139751095D01*
X105567620Y-139816757D01*
X105777504Y-139850000D01*
X105989996Y-139850000D01*
X106199877Y-139816757D01*
X106199880Y-139816757D01*
X106401967Y-139751095D01*
X106591304Y-139654622D01*
X106645466Y-139615270D01*
X106645467Y-139615270D01*
X106013158Y-138982962D01*
X106076743Y-138965925D01*
X106190757Y-138900099D01*
X106283849Y-138807007D01*
X106349675Y-138692993D01*
X106366712Y-138629408D01*
X107036931Y-139299628D01*
X107070416Y-139360951D01*
X107073250Y-139387300D01*
X107073250Y-139397865D01*
X107073251Y-139397876D01*
X107079658Y-139457483D01*
X107129952Y-139592328D01*
X107129956Y-139592335D01*
X107216202Y-139707544D01*
X107216205Y-139707547D01*
X107331414Y-139793793D01*
X107331421Y-139793797D01*
X107466267Y-139844091D01*
X107466266Y-139844091D01*
X107473194Y-139844835D01*
X107525877Y-139850500D01*
X109321622Y-139850499D01*
X109381233Y-139844091D01*
X109516081Y-139793796D01*
X109631296Y-139707546D01*
X109717546Y-139592331D01*
X109767841Y-139457483D01*
X109774250Y-139397873D01*
X109774249Y-137602128D01*
X109767841Y-137542517D01*
X109734466Y-137453035D01*
X109717547Y-137407671D01*
X109717543Y-137407664D01*
X109631297Y-137292455D01*
X109631294Y-137292452D01*
X109516085Y-137206206D01*
X109516078Y-137206202D01*
X109381232Y-137155908D01*
X109381233Y-137155908D01*
X109321633Y-137149501D01*
X109321631Y-137149500D01*
X109321623Y-137149500D01*
X109321615Y-137149500D01*
X109302250Y-137149500D01*
X109235211Y-137129815D01*
X109189456Y-137077011D01*
X109178250Y-137025500D01*
X109178250Y-134938886D01*
X109197935Y-134871847D01*
X109214564Y-134851210D01*
X116833482Y-127232291D01*
X116894803Y-127198808D01*
X116964495Y-127203792D01*
X117019535Y-127244485D01*
X117045468Y-127278282D01*
X117170909Y-127374536D01*
X117170910Y-127374536D01*
X117170911Y-127374537D01*
X117214179Y-127392459D01*
X117268583Y-127436299D01*
X117281288Y-127459566D01*
X117292529Y-127486704D01*
X117292532Y-127486710D01*
X117402896Y-127651880D01*
X117402899Y-127651884D01*
X117574365Y-127823351D01*
X117574373Y-127823357D01*
X117739536Y-127933715D01*
X117739539Y-127933716D01*
X117739547Y-127933722D01*
X117847059Y-127978254D01*
X117923081Y-128009744D01*
X118050776Y-128035144D01*
X118117916Y-128048499D01*
X118117920Y-128048500D01*
X118117921Y-128048500D01*
X118117922Y-128048500D01*
X118316579Y-128048500D01*
X125623932Y-128048500D01*
X125690971Y-128068185D01*
X125696817Y-128072182D01*
X125841129Y-128177029D01*
X125865934Y-128195051D01*
X126055338Y-128291557D01*
X126257507Y-128357246D01*
X126467463Y-128390500D01*
X126467464Y-128390500D01*
X126680036Y-128390500D01*
X126680037Y-128390500D01*
X126889993Y-128357246D01*
X127092162Y-128291557D01*
X127281566Y-128195051D01*
X127306371Y-128177029D01*
X127453536Y-128070109D01*
X127453538Y-128070106D01*
X127453542Y-128070104D01*
X127603854Y-127919792D01*
X127603856Y-127919788D01*
X127603859Y-127919786D01*
X127728798Y-127747820D01*
X127728797Y-127747820D01*
X127728801Y-127747816D01*
X127825307Y-127558412D01*
X127890996Y-127356243D01*
X127924250Y-127146287D01*
X127924250Y-126933713D01*
X127890996Y-126723757D01*
X127825307Y-126521588D01*
X127728801Y-126332184D01*
X127728799Y-126332181D01*
X127728798Y-126332179D01*
X127603859Y-126160213D01*
X127490319Y-126046673D01*
X127456834Y-125985350D01*
X127461818Y-125915658D01*
X127503690Y-125859725D01*
X127534665Y-125842810D01*
X127666081Y-125793796D01*
X127781296Y-125707546D01*
X127867546Y-125592331D01*
X127917841Y-125457483D01*
X127924250Y-125397873D01*
X127924249Y-123602128D01*
X127919049Y-123553757D01*
X127917841Y-123542516D01*
X127867547Y-123407671D01*
X127867543Y-123407664D01*
X127781297Y-123292455D01*
X127781294Y-123292452D01*
X127666085Y-123206206D01*
X127666078Y-123206202D01*
X127531232Y-123155908D01*
X127531233Y-123155908D01*
X127471633Y-123149501D01*
X127471631Y-123149500D01*
X127471623Y-123149500D01*
X127471614Y-123149500D01*
X125675879Y-123149500D01*
X125675873Y-123149501D01*
X125616266Y-123155908D01*
X125481421Y-123206202D01*
X125481414Y-123206206D01*
X125366205Y-123292452D01*
X125366202Y-123292455D01*
X125279956Y-123407664D01*
X125279954Y-123407668D01*
X125278776Y-123410828D01*
X125276753Y-123413529D01*
X125275703Y-123415454D01*
X125275426Y-123415302D01*
X125236907Y-123466764D01*
X125171444Y-123491184D01*
X125162592Y-123491500D01*
X118127916Y-123491500D01*
X117933088Y-123530253D01*
X117933088Y-123530254D01*
X117933085Y-123530255D01*
X117933081Y-123530256D01*
X117857059Y-123561745D01*
X117857057Y-123561745D01*
X117749544Y-123606278D01*
X117584373Y-123716642D01*
X117584365Y-123716648D01*
X117402899Y-123898115D01*
X117402896Y-123898118D01*
X117292528Y-124063297D01*
X117281287Y-124090434D01*
X117237444Y-124144836D01*
X117214182Y-124157538D01*
X117170913Y-124175461D01*
X117170908Y-124175464D01*
X117045469Y-124271716D01*
X116949213Y-124397160D01*
X116888707Y-124543236D01*
X116888705Y-124543239D01*
X116873250Y-124660638D01*
X116873250Y-124708113D01*
X116853565Y-124775152D01*
X116800761Y-124820907D01*
X116731603Y-124830851D01*
X116668047Y-124801826D01*
X116661569Y-124795794D01*
X116364569Y-124498794D01*
X116331084Y-124437471D01*
X116328250Y-124411113D01*
X116328250Y-120103500D01*
X116347935Y-120036461D01*
X116400739Y-119990706D01*
X116452250Y-119979500D01*
X116990520Y-119979500D01*
X117057559Y-119999185D01*
X117078201Y-120015819D01*
X117130094Y-120067712D01*
X117279416Y-120159814D01*
X117445953Y-120214999D01*
X117548741Y-120225500D01*
X118598758Y-120225499D01*
X118598766Y-120225498D01*
X118598769Y-120225498D01*
X118655052Y-120219748D01*
X118701547Y-120214999D01*
X118868084Y-120159814D01*
X119017406Y-120067712D01*
X119141462Y-119943656D01*
X119233564Y-119794334D01*
X119288749Y-119627797D01*
X119299250Y-119525009D01*
X119299249Y-118924992D01*
X119294376Y-118877292D01*
X119288749Y-118822203D01*
X119288748Y-118822200D01*
X119269442Y-118763938D01*
X119233564Y-118655666D01*
X119141462Y-118506344D01*
X119017406Y-118382288D01*
X119014092Y-118380243D01*
X119012296Y-118378248D01*
X119011739Y-118377807D01*
X119011814Y-118377711D01*
X118967368Y-118328297D01*
X118956147Y-118259334D01*
X118983990Y-118195252D01*
X119014098Y-118169165D01*
X119017092Y-118167318D01*
X119141065Y-118043345D01*
X119233106Y-117894124D01*
X119233108Y-117894119D01*
X119288255Y-117727697D01*
X119288256Y-117727690D01*
X119298749Y-117624986D01*
X119298750Y-117624973D01*
X119298750Y-117575000D01*
X118197750Y-117575000D01*
X118130711Y-117555315D01*
X118084956Y-117502511D01*
X118073750Y-117451000D01*
X118073750Y-117325000D01*
X117947750Y-117325000D01*
X117880711Y-117305315D01*
X117834956Y-117252511D01*
X117823750Y-117201000D01*
X117823750Y-117075000D01*
X118323750Y-117075000D01*
X119298749Y-117075000D01*
X119298749Y-117025028D01*
X119298748Y-117025013D01*
X119288255Y-116922302D01*
X119233108Y-116755880D01*
X119233106Y-116755875D01*
X119141065Y-116606654D01*
X119017095Y-116482684D01*
X118867874Y-116390643D01*
X118867869Y-116390641D01*
X118701447Y-116335494D01*
X118701440Y-116335493D01*
X118598736Y-116325000D01*
X118323750Y-116325000D01*
X118323750Y-117075000D01*
X117823750Y-117075000D01*
X117823750Y-116325000D01*
X117548779Y-116325000D01*
X117548762Y-116325001D01*
X117446052Y-116335494D01*
X117279630Y-116390641D01*
X117279625Y-116390643D01*
X117130404Y-116482684D01*
X117006434Y-116606654D01*
X116914393Y-116755875D01*
X116914391Y-116755880D01*
X116866956Y-116899031D01*
X116827183Y-116956476D01*
X116762667Y-116983299D01*
X116693892Y-116970984D01*
X116642692Y-116923441D01*
X116625250Y-116860027D01*
X116625250Y-109478322D01*
X122068751Y-109478322D01*
X122078894Y-109577607D01*
X122132202Y-109738481D01*
X122132207Y-109738492D01*
X122221174Y-109882728D01*
X122221177Y-109882732D01*
X122341017Y-110002572D01*
X122341021Y-110002575D01*
X122485257Y-110091542D01*
X122485268Y-110091547D01*
X122646143Y-110144855D01*
X122745433Y-110154999D01*
X123293750Y-110154999D01*
X123342058Y-110154999D01*
X123342072Y-110154998D01*
X123441357Y-110144855D01*
X123602231Y-110091547D01*
X123602242Y-110091542D01*
X123746478Y-110002575D01*
X123746482Y-110002572D01*
X123866322Y-109882732D01*
X123866325Y-109882728D01*
X123955292Y-109738492D01*
X123955297Y-109738481D01*
X124008605Y-109577606D01*
X124018749Y-109478322D01*
X126098751Y-109478322D01*
X126108894Y-109577607D01*
X126162202Y-109738481D01*
X126162207Y-109738492D01*
X126251174Y-109882728D01*
X126251177Y-109882732D01*
X126371017Y-110002572D01*
X126371021Y-110002575D01*
X126515257Y-110091542D01*
X126515268Y-110091547D01*
X126676143Y-110144855D01*
X126775433Y-110154999D01*
X127323750Y-110154999D01*
X127372058Y-110154999D01*
X127372072Y-110154998D01*
X127471357Y-110144855D01*
X127632231Y-110091547D01*
X127632242Y-110091542D01*
X127776478Y-110002575D01*
X127776482Y-110002572D01*
X127896322Y-109882732D01*
X127896325Y-109882728D01*
X127985292Y-109738492D01*
X127985297Y-109738481D01*
X128038605Y-109577606D01*
X128048749Y-109478322D01*
X128048750Y-109478309D01*
X128048750Y-109455000D01*
X127323750Y-109455000D01*
X127323750Y-110154999D01*
X126775433Y-110154999D01*
X126823749Y-110154998D01*
X126823750Y-110154998D01*
X126823750Y-109455000D01*
X126098751Y-109455000D01*
X126098751Y-109478322D01*
X124018749Y-109478322D01*
X124018750Y-109478309D01*
X124018750Y-109455000D01*
X123293750Y-109455000D01*
X123293750Y-110154999D01*
X122745433Y-110154999D01*
X122793749Y-110154998D01*
X122793750Y-110154998D01*
X122793750Y-109455000D01*
X122068751Y-109455000D01*
X122068751Y-109478322D01*
X116625250Y-109478322D01*
X116625250Y-101757492D01*
X116644935Y-101690453D01*
X116697739Y-101644698D01*
X116766897Y-101634754D01*
X116830453Y-101663779D01*
X116836931Y-101669811D01*
X122122189Y-106955069D01*
X122155674Y-107016392D01*
X122150690Y-107086084D01*
X122140047Y-107107846D01*
X122131751Y-107121296D01*
X122131746Y-107121305D01*
X122078401Y-107282290D01*
X122068250Y-107381647D01*
X122068250Y-107928337D01*
X122068251Y-107928355D01*
X122078400Y-108027707D01*
X122078401Y-108027710D01*
X122131746Y-108188694D01*
X122131751Y-108188705D01*
X122220779Y-108333040D01*
X122220782Y-108333044D01*
X122230410Y-108342672D01*
X122263895Y-108403995D01*
X122258911Y-108473687D01*
X122230413Y-108518031D01*
X122221178Y-108527265D01*
X122221174Y-108527271D01*
X122132207Y-108671507D01*
X122132202Y-108671518D01*
X122078894Y-108832393D01*
X122068750Y-108931677D01*
X122068750Y-108955000D01*
X124018749Y-108955000D01*
X124018749Y-108931692D01*
X124018748Y-108931677D01*
X124008605Y-108832392D01*
X123964571Y-108699504D01*
X123962169Y-108629675D01*
X123997901Y-108569634D01*
X124060421Y-108538441D01*
X124082277Y-108536500D01*
X126035223Y-108536500D01*
X126102262Y-108556185D01*
X126148017Y-108608989D01*
X126157961Y-108678147D01*
X126152929Y-108699504D01*
X126108894Y-108832393D01*
X126098750Y-108931677D01*
X126098750Y-108955000D01*
X128048749Y-108955000D01*
X128048749Y-108931692D01*
X128048748Y-108931677D01*
X128038605Y-108832392D01*
X127985297Y-108671518D01*
X127985292Y-108671507D01*
X127896325Y-108527271D01*
X127896322Y-108527267D01*
X127887089Y-108518034D01*
X127853604Y-108456711D01*
X127858588Y-108387019D01*
X127887093Y-108342668D01*
X127896718Y-108333044D01*
X127985753Y-108188697D01*
X128039099Y-108027708D01*
X128049250Y-107928345D01*
X128049249Y-107381656D01*
X128039099Y-107282292D01*
X127985753Y-107121303D01*
X127985749Y-107121296D01*
X127985748Y-107121294D01*
X127896720Y-106976959D01*
X127896717Y-106976955D01*
X127776794Y-106857032D01*
X127776790Y-106857029D01*
X127632455Y-106768001D01*
X127632449Y-106767998D01*
X127632447Y-106767997D01*
X127589648Y-106753815D01*
X127471459Y-106714651D01*
X127372096Y-106704500D01*
X126775412Y-106704500D01*
X126775394Y-106704501D01*
X126676042Y-106714650D01*
X126676038Y-106714651D01*
X126517439Y-106767206D01*
X126478435Y-106773500D01*
X124049250Y-106773500D01*
X124043847Y-106771913D01*
X124038324Y-106773018D01*
X124010684Y-106762175D01*
X123982211Y-106753815D01*
X123978524Y-106749560D01*
X123973280Y-106747503D01*
X123955889Y-106723438D01*
X123936456Y-106701011D01*
X123934788Y-106694238D01*
X123932355Y-106690872D01*
X123928660Y-106669359D01*
X123925435Y-106656263D01*
X123925250Y-106652876D01*
X123925250Y-106543180D01*
X123918707Y-106510289D01*
X123891374Y-106372876D01*
X123891372Y-106372871D01*
X123824927Y-106212456D01*
X123728454Y-106068073D01*
X120638703Y-102978322D01*
X121568751Y-102978322D01*
X121578894Y-103077607D01*
X121632202Y-103238481D01*
X121632207Y-103238492D01*
X121721174Y-103382728D01*
X121721177Y-103382732D01*
X121841017Y-103502572D01*
X121841021Y-103502575D01*
X121985257Y-103591542D01*
X121985268Y-103591547D01*
X122146143Y-103644855D01*
X122245433Y-103654999D01*
X122793750Y-103654999D01*
X122842058Y-103654999D01*
X122842072Y-103654998D01*
X122941357Y-103644855D01*
X123102231Y-103591547D01*
X123102242Y-103591542D01*
X123246478Y-103502575D01*
X123246482Y-103502572D01*
X123366322Y-103382732D01*
X123366325Y-103382728D01*
X123455292Y-103238492D01*
X123455297Y-103238481D01*
X123508605Y-103077606D01*
X123518749Y-102978322D01*
X126098751Y-102978322D01*
X126108894Y-103077607D01*
X126162202Y-103238481D01*
X126162207Y-103238492D01*
X126251174Y-103382728D01*
X126251177Y-103382732D01*
X126371017Y-103502572D01*
X126371021Y-103502575D01*
X126515257Y-103591542D01*
X126515268Y-103591547D01*
X126676143Y-103644855D01*
X126775433Y-103654999D01*
X127323750Y-103654999D01*
X127372058Y-103654999D01*
X127372072Y-103654998D01*
X127471357Y-103644855D01*
X127632231Y-103591547D01*
X127632242Y-103591542D01*
X127776478Y-103502575D01*
X127776482Y-103502572D01*
X127896322Y-103382732D01*
X127896325Y-103382728D01*
X127985292Y-103238492D01*
X127985297Y-103238481D01*
X128038605Y-103077606D01*
X128048749Y-102978322D01*
X128048750Y-102978309D01*
X128048750Y-102955000D01*
X127323750Y-102955000D01*
X127323750Y-103654999D01*
X126775433Y-103654999D01*
X126823749Y-103654998D01*
X126823750Y-103654998D01*
X126823750Y-102955000D01*
X126098751Y-102955000D01*
X126098751Y-102978322D01*
X123518749Y-102978322D01*
X123518750Y-102978309D01*
X123518750Y-102955000D01*
X122793750Y-102955000D01*
X122793750Y-103654999D01*
X122245433Y-103654999D01*
X122293749Y-103654998D01*
X122293750Y-103654998D01*
X122293750Y-102955000D01*
X121568751Y-102955000D01*
X121568751Y-102978322D01*
X120638703Y-102978322D01*
X119905216Y-102244835D01*
X119871731Y-102183512D01*
X119876715Y-102113820D01*
X119918587Y-102057887D01*
X119984051Y-102033470D01*
X120017091Y-102035537D01*
X120021929Y-102036500D01*
X120021930Y-102036500D01*
X121505223Y-102036500D01*
X121572262Y-102056185D01*
X121618017Y-102108989D01*
X121627961Y-102178147D01*
X121622929Y-102199504D01*
X121578894Y-102332393D01*
X121568750Y-102431677D01*
X121568750Y-102455000D01*
X123518749Y-102455000D01*
X123518749Y-102431692D01*
X123518748Y-102431677D01*
X123508605Y-102332392D01*
X123464571Y-102199504D01*
X123462169Y-102129675D01*
X123497901Y-102069634D01*
X123560421Y-102038441D01*
X123582277Y-102036500D01*
X126035223Y-102036500D01*
X126102262Y-102056185D01*
X126148017Y-102108989D01*
X126157961Y-102178147D01*
X126152929Y-102199504D01*
X126108894Y-102332393D01*
X126098750Y-102431677D01*
X126098750Y-102455000D01*
X128048749Y-102455000D01*
X128048749Y-102431692D01*
X128048748Y-102431677D01*
X128038605Y-102332392D01*
X127985297Y-102171518D01*
X127985292Y-102171507D01*
X127896325Y-102027271D01*
X127896322Y-102027267D01*
X127887089Y-102018034D01*
X127853604Y-101956711D01*
X127858588Y-101887019D01*
X127887093Y-101842668D01*
X127896718Y-101833044D01*
X127985753Y-101688697D01*
X128039099Y-101527708D01*
X128049250Y-101428345D01*
X128049249Y-100881656D01*
X128039099Y-100782292D01*
X127985753Y-100621303D01*
X127979120Y-100610550D01*
X127973711Y-100601779D01*
X127955250Y-100536683D01*
X127955250Y-89875874D01*
X127974935Y-89808835D01*
X127991569Y-89788193D01*
X128021718Y-89758044D01*
X128110753Y-89613697D01*
X128164099Y-89452708D01*
X128174250Y-89353345D01*
X128174249Y-88806656D01*
X128164099Y-88707292D01*
X128110753Y-88546303D01*
X128110749Y-88546297D01*
X128110748Y-88546294D01*
X128021720Y-88401959D01*
X128021717Y-88401955D01*
X127901794Y-88282032D01*
X127901790Y-88282029D01*
X127757455Y-88193001D01*
X127757449Y-88192998D01*
X127757447Y-88192997D01*
X127634133Y-88152135D01*
X127596459Y-88139651D01*
X127497096Y-88129500D01*
X126650412Y-88129500D01*
X126650394Y-88129501D01*
X126551042Y-88139650D01*
X126551039Y-88139651D01*
X126390055Y-88192996D01*
X126390044Y-88193001D01*
X126245709Y-88282029D01*
X126245705Y-88282032D01*
X126125782Y-88401955D01*
X126125779Y-88401959D01*
X126036751Y-88546294D01*
X126036746Y-88546305D01*
X125983401Y-88707290D01*
X125973250Y-88806647D01*
X125973250Y-89353337D01*
X125973251Y-89353355D01*
X125983400Y-89452707D01*
X125983401Y-89452710D01*
X126036746Y-89613694D01*
X126036751Y-89613705D01*
X126125779Y-89758040D01*
X126125782Y-89758044D01*
X126155931Y-89788193D01*
X126189416Y-89849516D01*
X126192250Y-89875874D01*
X126192250Y-100149500D01*
X126172565Y-100216539D01*
X126119761Y-100262294D01*
X126068250Y-100273500D01*
X123139065Y-100273500D01*
X123100061Y-100267206D01*
X122941459Y-100214651D01*
X122842096Y-100204500D01*
X122245412Y-100204500D01*
X122245394Y-100204501D01*
X122146042Y-100214650D01*
X122146038Y-100214651D01*
X121987439Y-100267206D01*
X121948435Y-100273500D01*
X120525242Y-100273500D01*
X120458203Y-100253815D01*
X120437561Y-100237181D01*
X115103069Y-94902689D01*
X115069584Y-94841366D01*
X115066750Y-94815008D01*
X115066750Y-94498146D01*
X115052525Y-94408334D01*
X115030972Y-94272255D01*
X115030971Y-94272251D01*
X115030971Y-94272250D01*
X114960299Y-94054744D01*
X114960298Y-94054742D01*
X114856467Y-93850962D01*
X114722036Y-93665934D01*
X114560316Y-93504214D01*
X114375288Y-93369783D01*
X114243850Y-93302812D01*
X114171505Y-93265950D01*
X113953998Y-93195278D01*
X113771675Y-93166401D01*
X113728104Y-93159500D01*
X113499396Y-93159500D01*
X113455813Y-93166403D01*
X113273503Y-93195278D01*
X113273500Y-93195278D01*
X113055994Y-93265950D01*
X112852211Y-93369783D01*
X112785967Y-93417913D01*
X112667184Y-93504214D01*
X112667182Y-93504216D01*
X112667181Y-93504216D01*
X112505465Y-93665932D01*
X112444068Y-93750438D01*
X112388737Y-93793103D01*
X112319124Y-93799082D01*
X112257329Y-93766476D01*
X112243432Y-93750438D01*
X112232523Y-93735423D01*
X112182036Y-93665934D01*
X112020316Y-93504214D01*
X111835288Y-93369783D01*
X111703850Y-93302812D01*
X111631505Y-93265950D01*
X111413998Y-93195278D01*
X111231675Y-93166401D01*
X111188104Y-93159500D01*
X110959396Y-93159500D01*
X110915813Y-93166403D01*
X110733503Y-93195278D01*
X110733500Y-93195278D01*
X110515994Y-93265950D01*
X110312208Y-93369785D01*
X110129089Y-93502829D01*
X110063283Y-93526309D01*
X109995229Y-93510484D01*
X109946534Y-93460378D01*
X109940022Y-93445845D01*
X109929603Y-93417911D01*
X109929600Y-93417906D01*
X109843440Y-93302812D01*
X109843437Y-93302809D01*
X109728343Y-93216649D01*
X109728336Y-93216645D01*
X109593629Y-93166403D01*
X109593622Y-93166401D01*
X109534094Y-93160000D01*
X108783750Y-93160000D01*
X108783750Y-94169252D01*
X108746042Y-94147482D01*
X108606159Y-94110000D01*
X108461341Y-94110000D01*
X108321458Y-94147482D01*
X108283750Y-94169252D01*
X108283750Y-93160000D01*
X107533405Y-93160000D01*
X107473877Y-93166401D01*
X107473870Y-93166403D01*
X107339163Y-93216645D01*
X107339156Y-93216649D01*
X107224062Y-93302809D01*
X107224059Y-93302812D01*
X107137899Y-93417906D01*
X107137895Y-93417913D01*
X107087653Y-93552620D01*
X107087651Y-93552627D01*
X107081250Y-93612155D01*
X107081250Y-94410000D01*
X108043002Y-94410000D01*
X108021232Y-94447708D01*
X107983750Y-94587591D01*
X107983750Y-94732409D01*
X108021232Y-94872292D01*
X108043002Y-94910000D01*
X107081250Y-94910000D01*
X107081250Y-95707844D01*
X107087651Y-95767372D01*
X107087653Y-95767379D01*
X107137895Y-95902086D01*
X107137899Y-95902093D01*
X107224059Y-96017187D01*
X107224062Y-96017190D01*
X107339156Y-96103350D01*
X107339163Y-96103354D01*
X107473870Y-96153596D01*
X107473877Y-96153598D01*
X107533405Y-96159999D01*
X107533422Y-96160000D01*
X108283750Y-96160000D01*
X108283750Y-95150747D01*
X108321458Y-95172518D01*
X108461341Y-95210000D01*
X108606159Y-95210000D01*
X108746042Y-95172518D01*
X108783750Y-95150747D01*
X108783750Y-96160000D01*
X109534078Y-96160000D01*
X109534094Y-96159999D01*
X109593622Y-96153598D01*
X109593629Y-96153596D01*
X109728336Y-96103354D01*
X109728343Y-96103350D01*
X109843437Y-96017190D01*
X109843440Y-96017187D01*
X109929600Y-95902093D01*
X109929604Y-95902086D01*
X109940022Y-95874155D01*
X109981893Y-95818221D01*
X110047357Y-95793804D01*
X110115630Y-95808655D01*
X110129081Y-95817164D01*
X110312212Y-95950217D01*
X110443654Y-96017190D01*
X110515994Y-96054049D01*
X110733501Y-96124721D01*
X110733502Y-96124721D01*
X110733505Y-96124722D01*
X110959396Y-96160500D01*
X110959397Y-96160500D01*
X111188103Y-96160500D01*
X111188104Y-96160500D01*
X111246141Y-96151307D01*
X111315433Y-96160261D01*
X111353220Y-96186099D01*
X114825931Y-99658810D01*
X114859416Y-99720133D01*
X114862250Y-99746491D01*
X114862250Y-112494500D01*
X114842565Y-112561539D01*
X114789761Y-112607294D01*
X114738250Y-112618500D01*
X105169427Y-112618500D01*
X105008557Y-112650500D01*
X104999126Y-112652376D01*
X104999121Y-112652377D01*
X104838707Y-112718822D01*
X104838705Y-112718823D01*
X104745781Y-112780914D01*
X104745780Y-112780915D01*
X104694323Y-112815296D01*
X104694322Y-112815297D01*
X98796546Y-118713072D01*
X98796545Y-118713073D01*
X98700072Y-118857456D01*
X98633627Y-119017871D01*
X98633625Y-119017878D01*
X98631596Y-119028079D01*
X98599208Y-119089988D01*
X98597661Y-119091563D01*
X93626042Y-124063181D01*
X93564719Y-124096666D01*
X93538361Y-124099500D01*
X93209386Y-124099500D01*
X93091996Y-124114953D01*
X93091987Y-124114956D01*
X92945906Y-124175465D01*
X92938869Y-124179528D01*
X92937210Y-124176655D01*
X92886390Y-124196261D01*
X92817955Y-124182174D01*
X92788480Y-124160365D01*
X92237569Y-123609454D01*
X92204084Y-123548131D01*
X92201250Y-123521773D01*
X92201250Y-85506647D01*
X125973250Y-85506647D01*
X125973250Y-86053337D01*
X125973251Y-86053355D01*
X125983400Y-86152707D01*
X125983401Y-86152710D01*
X126036746Y-86313694D01*
X126036751Y-86313705D01*
X126125779Y-86458040D01*
X126125782Y-86458044D01*
X126245705Y-86577967D01*
X126245709Y-86577970D01*
X126390044Y-86666998D01*
X126390047Y-86666999D01*
X126390053Y-86667003D01*
X126551042Y-86720349D01*
X126650405Y-86730500D01*
X127497094Y-86730499D01*
X127497102Y-86730498D01*
X127497105Y-86730498D01*
X127551510Y-86724940D01*
X127596458Y-86720349D01*
X127757447Y-86667003D01*
X127901794Y-86577968D01*
X128021718Y-86458044D01*
X128110753Y-86313697D01*
X128164099Y-86152708D01*
X128174250Y-86053345D01*
X128174249Y-85506656D01*
X128164099Y-85407292D01*
X128110753Y-85246303D01*
X128110749Y-85246297D01*
X128110748Y-85246294D01*
X128021720Y-85101959D01*
X128021717Y-85101955D01*
X127991569Y-85071807D01*
X127958084Y-85010484D01*
X127955250Y-84984126D01*
X127955250Y-80438212D01*
X127973711Y-80373115D01*
X127976460Y-80368657D01*
X127976462Y-80368656D01*
X128068564Y-80219334D01*
X128123749Y-80052797D01*
X128134250Y-79950009D01*
X128134249Y-77909992D01*
X128132882Y-77896614D01*
X128123749Y-77807203D01*
X128123748Y-77807200D01*
X128098254Y-77730264D01*
X128068564Y-77640666D01*
X127976462Y-77491344D01*
X127852406Y-77367288D01*
X127703084Y-77275186D01*
X127536547Y-77220001D01*
X127536545Y-77220000D01*
X127433760Y-77209500D01*
X126713748Y-77209500D01*
X126713730Y-77209501D01*
X126610953Y-77220000D01*
X126610950Y-77220001D01*
X126444418Y-77275185D01*
X126444413Y-77275187D01*
X126295092Y-77367289D01*
X126171039Y-77491342D01*
X126078937Y-77640663D01*
X126078936Y-77640666D01*
X126023751Y-77807203D01*
X126023751Y-77807204D01*
X126023750Y-77807204D01*
X126013250Y-77909983D01*
X126013250Y-79950001D01*
X126013251Y-79950018D01*
X126023750Y-80052796D01*
X126023751Y-80052799D01*
X126078935Y-80219331D01*
X126078936Y-80219334D01*
X126171038Y-80368656D01*
X126171039Y-80368657D01*
X126173789Y-80373115D01*
X126192250Y-80438212D01*
X126192250Y-84984126D01*
X126172565Y-85051165D01*
X126155931Y-85071807D01*
X126125782Y-85101955D01*
X126125779Y-85101959D01*
X126036751Y-85246294D01*
X126036746Y-85246305D01*
X125983401Y-85407290D01*
X125973250Y-85506647D01*
X92201250Y-85506647D01*
X92201250Y-83651262D01*
X92201249Y-83651258D01*
X92177137Y-83530039D01*
X92177136Y-83530032D01*
X92132157Y-83421445D01*
X92130513Y-83416850D01*
X92061164Y-83313062D01*
X92061163Y-83313060D01*
X92061161Y-83313058D01*
X91973758Y-83225655D01*
X89875603Y-81127500D01*
X86760695Y-78012591D01*
X86760693Y-78012589D01*
X86747279Y-78003627D01*
X86733955Y-77994724D01*
X86693842Y-77967921D01*
X86657922Y-77943920D01*
X86657910Y-77943913D01*
X86624469Y-77930062D01*
X86543719Y-77896614D01*
X86543711Y-77896612D01*
X86422491Y-77872500D01*
X86422487Y-77872500D01*
X81113107Y-77872500D01*
X81100752Y-77868872D01*
X109073250Y-77868872D01*
X109073250Y-78131127D01*
X109091073Y-78266498D01*
X109107480Y-78391116D01*
X109175352Y-78644418D01*
X109175355Y-78644428D01*
X109275703Y-78886690D01*
X109275708Y-78886700D01*
X109406825Y-79113803D01*
X109566468Y-79321851D01*
X109566476Y-79321860D01*
X109751890Y-79507274D01*
X109751898Y-79507281D01*
X109959946Y-79666924D01*
X110187049Y-79798041D01*
X110187059Y-79798046D01*
X110425019Y-79896612D01*
X110429331Y-79898398D01*
X110682634Y-79966270D01*
X110942630Y-80000500D01*
X110942637Y-80000500D01*
X111204863Y-80000500D01*
X111204870Y-80000500D01*
X111464866Y-79966270D01*
X111718169Y-79898398D01*
X111960447Y-79798043D01*
X112187553Y-79666924D01*
X112395601Y-79507282D01*
X112395605Y-79507277D01*
X112395610Y-79507274D01*
X112581024Y-79321860D01*
X112581027Y-79321855D01*
X112581032Y-79321851D01*
X112740674Y-79113803D01*
X112871793Y-78886697D01*
X112875309Y-78878210D01*
X112936923Y-78729459D01*
X112972148Y-78644419D01*
X113040020Y-78391116D01*
X113074250Y-78131120D01*
X113074250Y-77868880D01*
X113040020Y-77608884D01*
X112972148Y-77355581D01*
X112938848Y-77275187D01*
X112871796Y-77113309D01*
X112871791Y-77113299D01*
X112740674Y-76886196D01*
X112581031Y-76678148D01*
X112581024Y-76678140D01*
X112395610Y-76492726D01*
X112395601Y-76492718D01*
X112187553Y-76333075D01*
X111960450Y-76201958D01*
X111960440Y-76201953D01*
X111718178Y-76101605D01*
X111718171Y-76101603D01*
X111718169Y-76101602D01*
X111464866Y-76033730D01*
X111407089Y-76026123D01*
X111204877Y-75999500D01*
X111204870Y-75999500D01*
X110942630Y-75999500D01*
X110942622Y-75999500D01*
X110711522Y-76029926D01*
X110682634Y-76033730D01*
X110429331Y-76101602D01*
X110429321Y-76101605D01*
X110187059Y-76201953D01*
X110187049Y-76201958D01*
X109959946Y-76333075D01*
X109751898Y-76492718D01*
X109566468Y-76678148D01*
X109406825Y-76886196D01*
X109275708Y-77113299D01*
X109275703Y-77113309D01*
X109175355Y-77355571D01*
X109175352Y-77355581D01*
X109107480Y-77608885D01*
X109073250Y-77868872D01*
X81100752Y-77868872D01*
X81046068Y-77852815D01*
X81044216Y-77851602D01*
X80952935Y-77790609D01*
X80952922Y-77790602D01*
X80807251Y-77730264D01*
X80807239Y-77730261D01*
X80652595Y-77699500D01*
X80652592Y-77699500D01*
X80494908Y-77699500D01*
X80494905Y-77699500D01*
X80340260Y-77730261D01*
X80340248Y-77730264D01*
X80194577Y-77790602D01*
X80194564Y-77790609D01*
X80063461Y-77878210D01*
X80063457Y-77878213D01*
X79951963Y-77989707D01*
X79951960Y-77989711D01*
X79864359Y-78120814D01*
X79864352Y-78120827D01*
X79804014Y-78266498D01*
X79804011Y-78266510D01*
X79773250Y-78421153D01*
X79773250Y-78575500D01*
X79753565Y-78642539D01*
X79700761Y-78688294D01*
X79649250Y-78699500D01*
X79494905Y-78699500D01*
X79340260Y-78730261D01*
X79340248Y-78730264D01*
X79194577Y-78790602D01*
X79194564Y-78790609D01*
X79063461Y-78878210D01*
X79063457Y-78878213D01*
X78951963Y-78989707D01*
X78951960Y-78989711D01*
X78864359Y-79120814D01*
X78864352Y-79120827D01*
X78804014Y-79266498D01*
X78804011Y-79266510D01*
X78773250Y-79421153D01*
X78773250Y-79421158D01*
X78773250Y-79578842D01*
X78773250Y-79578844D01*
X78773249Y-79578844D01*
X78802185Y-79724308D01*
X78795958Y-79793900D01*
X78753095Y-79849077D01*
X78687205Y-79872322D01*
X78680568Y-79872500D01*
X74137942Y-79872500D01*
X74016722Y-79896612D01*
X74016714Y-79896614D01*
X73935965Y-79930062D01*
X73902517Y-79943916D01*
X73810687Y-80005276D01*
X73810683Y-80005279D01*
X73799742Y-80012588D01*
X71722753Y-82089578D01*
X69683742Y-84128589D01*
X69596339Y-84215992D01*
X69545369Y-84292275D01*
X69527662Y-84318775D01*
X69527058Y-84319905D01*
X69526586Y-84320384D01*
X69524284Y-84323831D01*
X69523629Y-84323393D01*
X69478087Y-84369740D01*
X69409946Y-84385189D01*
X69374380Y-84377615D01*
X69371132Y-84376403D01*
X69371122Y-84376401D01*
X69311594Y-84370000D01*
X69063750Y-84370000D01*
X69063750Y-86870000D01*
X69311578Y-86870000D01*
X69311594Y-86869999D01*
X69371122Y-86863598D01*
X69371125Y-86863597D01*
X69404699Y-86851075D01*
X69474390Y-86846089D01*
X69491369Y-86851075D01*
X69526261Y-86864089D01*
X69526262Y-86864089D01*
X69526267Y-86864091D01*
X69585877Y-86870500D01*
X70581622Y-86870499D01*
X70641233Y-86864091D01*
X70675417Y-86851340D01*
X70745108Y-86846357D01*
X70762077Y-86851338D01*
X70796267Y-86864091D01*
X70855877Y-86870500D01*
X71851622Y-86870499D01*
X71851625Y-86870498D01*
X71851635Y-86870498D01*
X71858993Y-86869707D01*
X71927752Y-86882111D01*
X71978891Y-86929720D01*
X71996250Y-86992996D01*
X71996250Y-87111807D01*
X72020362Y-87233028D01*
X72020363Y-87233032D01*
X72020364Y-87233035D01*
X72052351Y-87310256D01*
X72067667Y-87347233D01*
X72088366Y-87378211D01*
X72091839Y-87383408D01*
X72136340Y-87450010D01*
X72289014Y-87602684D01*
X72322499Y-87664007D01*
X72317515Y-87733699D01*
X72315896Y-87737814D01*
X72304012Y-87766506D01*
X72304010Y-87766511D01*
X72273250Y-87921153D01*
X72273250Y-88078846D01*
X72304011Y-88233489D01*
X72304014Y-88233501D01*
X72364352Y-88379172D01*
X72364359Y-88379185D01*
X72451960Y-88510288D01*
X72451963Y-88510292D01*
X72563460Y-88621789D01*
X72662075Y-88687681D01*
X72706880Y-88741293D01*
X72715587Y-88810618D01*
X72685433Y-88873645D01*
X72680865Y-88878464D01*
X72384422Y-89174907D01*
X72323099Y-89208392D01*
X72320933Y-89208843D01*
X72213258Y-89230261D01*
X72213248Y-89230264D01*
X72067577Y-89290602D01*
X72067564Y-89290609D01*
X71936461Y-89378210D01*
X71936457Y-89378213D01*
X71824963Y-89489707D01*
X71824960Y-89489711D01*
X71737359Y-89620814D01*
X71737352Y-89620827D01*
X71677014Y-89766498D01*
X71677011Y-89766510D01*
X71646250Y-89921153D01*
X71646250Y-90078846D01*
X71677011Y-90233489D01*
X71677014Y-90233501D01*
X71737352Y-90379172D01*
X71737359Y-90379185D01*
X71824960Y-90510288D01*
X71824963Y-90510292D01*
X71936457Y-90621786D01*
X71936461Y-90621789D01*
X72067564Y-90709390D01*
X72067577Y-90709397D01*
X72213248Y-90769735D01*
X72213253Y-90769737D01*
X72367903Y-90800499D01*
X72367906Y-90800500D01*
X72367908Y-90800500D01*
X72525594Y-90800500D01*
X72525595Y-90800499D01*
X72680247Y-90769737D01*
X72825929Y-90709394D01*
X72957039Y-90621789D01*
X73068539Y-90510289D01*
X73156144Y-90379179D01*
X73216487Y-90233497D01*
X73237906Y-90125812D01*
X73270289Y-90063906D01*
X73271784Y-90062383D01*
X74381161Y-88953008D01*
X74449833Y-88850233D01*
X74467883Y-88806656D01*
X74497136Y-88736035D01*
X74521250Y-88614803D01*
X74521250Y-88491197D01*
X74521250Y-86992996D01*
X74540935Y-86925957D01*
X74593739Y-86880202D01*
X74658507Y-86869707D01*
X74665877Y-86870500D01*
X75661622Y-86870499D01*
X75721233Y-86864091D01*
X75755417Y-86851340D01*
X75825108Y-86846357D01*
X75842077Y-86851338D01*
X75876267Y-86864091D01*
X75935877Y-86870500D01*
X76931622Y-86870499D01*
X76991233Y-86864091D01*
X77025417Y-86851340D01*
X77095108Y-86846357D01*
X77112077Y-86851338D01*
X77146267Y-86864091D01*
X77205877Y-86870500D01*
X78201622Y-86870499D01*
X78261233Y-86864091D01*
X78295417Y-86851340D01*
X78365108Y-86846357D01*
X78382077Y-86851338D01*
X78416267Y-86864091D01*
X78475877Y-86870500D01*
X79471622Y-86870499D01*
X79531233Y-86864091D01*
X79565417Y-86851340D01*
X79635108Y-86846357D01*
X79652077Y-86851338D01*
X79686267Y-86864091D01*
X79745877Y-86870500D01*
X80741622Y-86870499D01*
X80741625Y-86870498D01*
X80741635Y-86870498D01*
X80748993Y-86869707D01*
X80764399Y-86872486D01*
X80779897Y-86870258D01*
X80798081Y-86878562D01*
X80817752Y-86882111D01*
X80829210Y-86892778D01*
X80843453Y-86899283D01*
X80854259Y-86916098D01*
X80868891Y-86929720D01*
X80873268Y-86945677D01*
X80881227Y-86958061D01*
X80886250Y-86992996D01*
X80886250Y-87050439D01*
X80867170Y-87115415D01*
X80867229Y-87115447D01*
X80867078Y-87115727D01*
X80866565Y-87117478D01*
X80865354Y-87119327D01*
X80864360Y-87120814D01*
X80864352Y-87120828D01*
X80804014Y-87266498D01*
X80804011Y-87266510D01*
X80773250Y-87421153D01*
X80773250Y-87578846D01*
X80804011Y-87733489D01*
X80804014Y-87733501D01*
X80864352Y-87879172D01*
X80864359Y-87879185D01*
X80951960Y-88010288D01*
X80951963Y-88010292D01*
X81063457Y-88121786D01*
X81063461Y-88121789D01*
X81194564Y-88209390D01*
X81194577Y-88209397D01*
X81340248Y-88269735D01*
X81340253Y-88269737D01*
X81494903Y-88300499D01*
X81494906Y-88300500D01*
X81494908Y-88300500D01*
X81652594Y-88300500D01*
X81652595Y-88300499D01*
X81807247Y-88269737D01*
X81952929Y-88209394D01*
X82004860Y-88174694D01*
X82071535Y-88153816D01*
X82138915Y-88172300D01*
X82142613Y-88174676D01*
X82194571Y-88209394D01*
X82194573Y-88209395D01*
X82194575Y-88209396D01*
X82340248Y-88269735D01*
X82340253Y-88269737D01*
X82494903Y-88300499D01*
X82494906Y-88300500D01*
X82494908Y-88300500D01*
X82652594Y-88300500D01*
X82652595Y-88300499D01*
X82807247Y-88269737D01*
X82952929Y-88209394D01*
X83084039Y-88121789D01*
X83195539Y-88010289D01*
X83202895Y-87999279D01*
X83220648Y-87972712D01*
X83274260Y-87927906D01*
X83343585Y-87919199D01*
X83406612Y-87949353D01*
X83426852Y-87972712D01*
X83451957Y-88010284D01*
X83451963Y-88010292D01*
X83563457Y-88121786D01*
X83563461Y-88121789D01*
X83694564Y-88209390D01*
X83694577Y-88209397D01*
X83840248Y-88269735D01*
X83840253Y-88269737D01*
X83994903Y-88300499D01*
X83994906Y-88300500D01*
X83994908Y-88300500D01*
X84152594Y-88300500D01*
X84152595Y-88300499D01*
X84307247Y-88269737D01*
X84452929Y-88209394D01*
X84538623Y-88152135D01*
X85323250Y-88152135D01*
X85323250Y-89147870D01*
X85323251Y-89147876D01*
X85329658Y-89207481D01*
X85342409Y-89241669D01*
X85347392Y-89311361D01*
X85342409Y-89328331D01*
X85329658Y-89362518D01*
X85327971Y-89378213D01*
X85323251Y-89422123D01*
X85323250Y-89422135D01*
X85323250Y-90417870D01*
X85323251Y-90417876D01*
X85329658Y-90477481D01*
X85342409Y-90511669D01*
X85347392Y-90581361D01*
X85342409Y-90598331D01*
X85329658Y-90632518D01*
X85323251Y-90692116D01*
X85323251Y-90692123D01*
X85323250Y-90692135D01*
X85323250Y-91687870D01*
X85323251Y-91687876D01*
X85329658Y-91747481D01*
X85342409Y-91781669D01*
X85347392Y-91851361D01*
X85342409Y-91868331D01*
X85329658Y-91902518D01*
X85323251Y-91962116D01*
X85323251Y-91962123D01*
X85323250Y-91962135D01*
X85323250Y-92957870D01*
X85323251Y-92957876D01*
X85329658Y-93017481D01*
X85342409Y-93051669D01*
X85347392Y-93121361D01*
X85342409Y-93138331D01*
X85329658Y-93172518D01*
X85324914Y-93216649D01*
X85323251Y-93232123D01*
X85323250Y-93232135D01*
X85323250Y-94227870D01*
X85323251Y-94227876D01*
X85329658Y-94287481D01*
X85342409Y-94321669D01*
X85347392Y-94391361D01*
X85342409Y-94408331D01*
X85329658Y-94442518D01*
X85323678Y-94498146D01*
X85323251Y-94502123D01*
X85323250Y-94502135D01*
X85323250Y-95497870D01*
X85323251Y-95497876D01*
X85329658Y-95557481D01*
X85342409Y-95591669D01*
X85347392Y-95661361D01*
X85342409Y-95678331D01*
X85329658Y-95712518D01*
X85323761Y-95767372D01*
X85323251Y-95772123D01*
X85323250Y-95772135D01*
X85323250Y-96767870D01*
X85323251Y-96767876D01*
X85329658Y-96827481D01*
X85342409Y-96861669D01*
X85347392Y-96931361D01*
X85342409Y-96948331D01*
X85329658Y-96982518D01*
X85325629Y-97020000D01*
X85323251Y-97042123D01*
X85323250Y-97042135D01*
X85323250Y-98037870D01*
X85323251Y-98037876D01*
X85329658Y-98097481D01*
X85342409Y-98131669D01*
X85347392Y-98201361D01*
X85342409Y-98218331D01*
X85329658Y-98252518D01*
X85323251Y-98312116D01*
X85323251Y-98312123D01*
X85323250Y-98312135D01*
X85323250Y-99307870D01*
X85323251Y-99307876D01*
X85329658Y-99367483D01*
X85342675Y-99402381D01*
X85347659Y-99472072D01*
X85342675Y-99489047D01*
X85330153Y-99522619D01*
X85330151Y-99522627D01*
X85323750Y-99582155D01*
X85323750Y-99830000D01*
X87823750Y-99830000D01*
X87823750Y-99582172D01*
X87823749Y-99582155D01*
X87817347Y-99522622D01*
X87817347Y-99522620D01*
X87804825Y-99489048D01*
X87799839Y-99419356D01*
X87804821Y-99402390D01*
X87817841Y-99367483D01*
X87824250Y-99307873D01*
X87824249Y-98312128D01*
X87817841Y-98252517D01*
X87805090Y-98218332D01*
X87800107Y-98148642D01*
X87805090Y-98131669D01*
X87817841Y-98097483D01*
X87824250Y-98037873D01*
X87824249Y-97042128D01*
X87817841Y-96982517D01*
X87805090Y-96948332D01*
X87800107Y-96878642D01*
X87805090Y-96861669D01*
X87817841Y-96827483D01*
X87824250Y-96767873D01*
X87824249Y-95772128D01*
X87817841Y-95712517D01*
X87805090Y-95678332D01*
X87800107Y-95608642D01*
X87805090Y-95591669D01*
X87817841Y-95557483D01*
X87824250Y-95497873D01*
X87824249Y-94502128D01*
X87817841Y-94442517D01*
X87805090Y-94408332D01*
X87800107Y-94338642D01*
X87805090Y-94321669D01*
X87817841Y-94287483D01*
X87824250Y-94227873D01*
X87824249Y-93232128D01*
X87817841Y-93172517D01*
X87805090Y-93138332D01*
X87800107Y-93068642D01*
X87805090Y-93051669D01*
X87817841Y-93017483D01*
X87824250Y-92957873D01*
X87824249Y-91962128D01*
X87817841Y-91902517D01*
X87805090Y-91868332D01*
X87800107Y-91798642D01*
X87805090Y-91781669D01*
X87817841Y-91747483D01*
X87824250Y-91687873D01*
X87824249Y-90692128D01*
X87817841Y-90632517D01*
X87805090Y-90598332D01*
X87800107Y-90528642D01*
X87805090Y-90511669D01*
X87817841Y-90477483D01*
X87824250Y-90417873D01*
X87824249Y-89422128D01*
X87817841Y-89362517D01*
X87805090Y-89328332D01*
X87800107Y-89258642D01*
X87805090Y-89241669D01*
X87817841Y-89207483D01*
X87824250Y-89147873D01*
X87824249Y-88152128D01*
X87817841Y-88092517D01*
X87767546Y-87957669D01*
X87767545Y-87957668D01*
X87767543Y-87957664D01*
X87681297Y-87842455D01*
X87681294Y-87842452D01*
X87566085Y-87756206D01*
X87566078Y-87756202D01*
X87431232Y-87705908D01*
X87431233Y-87705908D01*
X87371633Y-87699501D01*
X87371631Y-87699500D01*
X87371623Y-87699500D01*
X87371614Y-87699500D01*
X85775879Y-87699500D01*
X85775873Y-87699501D01*
X85716266Y-87705908D01*
X85581421Y-87756202D01*
X85581414Y-87756206D01*
X85466205Y-87842452D01*
X85466202Y-87842455D01*
X85379956Y-87957664D01*
X85379952Y-87957671D01*
X85329658Y-88092517D01*
X85324591Y-88139650D01*
X85323251Y-88152123D01*
X85323250Y-88152135D01*
X84538623Y-88152135D01*
X84584039Y-88121789D01*
X84613312Y-88092516D01*
X84644704Y-88061125D01*
X84695536Y-88010292D01*
X84695539Y-88010289D01*
X84783144Y-87879179D01*
X84843487Y-87733497D01*
X84864906Y-87625812D01*
X84897289Y-87563906D01*
X84898785Y-87562382D01*
X85554350Y-86906818D01*
X85615673Y-86873333D01*
X85642031Y-86870499D01*
X85821621Y-86870499D01*
X85821622Y-86870499D01*
X85881233Y-86864091D01*
X86016081Y-86813796D01*
X86131296Y-86727546D01*
X86217546Y-86612331D01*
X86267841Y-86477483D01*
X86274250Y-86417873D01*
X86274249Y-84822128D01*
X86267841Y-84762517D01*
X86217546Y-84627669D01*
X86217545Y-84627668D01*
X86217543Y-84627664D01*
X86131297Y-84512455D01*
X86131294Y-84512452D01*
X86016085Y-84426206D01*
X86016078Y-84426202D01*
X85881232Y-84375908D01*
X85881233Y-84375908D01*
X85821633Y-84369501D01*
X85821631Y-84369500D01*
X85821623Y-84369500D01*
X85821614Y-84369500D01*
X84825879Y-84369500D01*
X84825873Y-84369501D01*
X84766268Y-84375908D01*
X84732081Y-84388659D01*
X84662389Y-84393642D01*
X84645419Y-84388659D01*
X84615807Y-84377615D01*
X84611233Y-84375909D01*
X84611232Y-84375908D01*
X84551633Y-84369501D01*
X84551631Y-84369500D01*
X84551623Y-84369500D01*
X84551614Y-84369500D01*
X83555879Y-84369500D01*
X83555873Y-84369501D01*
X83496268Y-84375908D01*
X83462081Y-84388659D01*
X83392389Y-84393642D01*
X83375419Y-84388659D01*
X83345807Y-84377615D01*
X83341233Y-84375909D01*
X83341232Y-84375908D01*
X83281633Y-84369501D01*
X83281631Y-84369500D01*
X83281623Y-84369500D01*
X83281614Y-84369500D01*
X82285879Y-84369500D01*
X82285873Y-84369501D01*
X82226268Y-84375908D01*
X82192081Y-84388659D01*
X82122389Y-84393642D01*
X82105419Y-84388659D01*
X82075807Y-84377615D01*
X82071233Y-84375909D01*
X82071232Y-84375908D01*
X82011633Y-84369501D01*
X82011631Y-84369500D01*
X82011623Y-84369500D01*
X82011614Y-84369500D01*
X81015879Y-84369500D01*
X81015855Y-84369502D01*
X81008496Y-84370293D01*
X80939737Y-84357883D01*
X80888604Y-84310269D01*
X80871250Y-84247003D01*
X80871250Y-82326080D01*
X80890935Y-82259041D01*
X80943739Y-82213286D01*
X80947771Y-82211530D01*
X80952929Y-82209394D01*
X81084039Y-82121789D01*
X81195539Y-82010289D01*
X81283144Y-81879179D01*
X81343487Y-81733497D01*
X81374250Y-81578842D01*
X81374250Y-81421158D01*
X81374250Y-81421155D01*
X81345315Y-81275692D01*
X81351542Y-81206100D01*
X81394405Y-81150923D01*
X81460295Y-81127678D01*
X81466932Y-81127500D01*
X86762469Y-81127500D01*
X86829508Y-81147185D01*
X86850150Y-81163819D01*
X89909931Y-84223600D01*
X89943416Y-84284923D01*
X89946250Y-84311281D01*
X89946250Y-124230273D01*
X89970362Y-124351494D01*
X89970365Y-124351505D01*
X89983080Y-124382200D01*
X89991058Y-124401459D01*
X90017667Y-124465699D01*
X90069477Y-124543238D01*
X90072427Y-124547654D01*
X90072431Y-124547660D01*
X90086338Y-124568473D01*
X90086343Y-124568479D01*
X92755273Y-127237409D01*
X92844209Y-127296834D01*
X92850804Y-127301560D01*
X92922064Y-127356239D01*
X92945909Y-127374536D01*
X92945911Y-127374536D01*
X92945913Y-127374538D01*
X92989179Y-127392459D01*
X93091988Y-127435044D01*
X93209389Y-127450500D01*
X94713110Y-127450499D01*
X94713113Y-127450499D01*
X94830503Y-127435046D01*
X94830507Y-127435044D01*
X94830512Y-127435044D01*
X94976591Y-127374536D01*
X95102032Y-127278282D01*
X95198286Y-127152841D01*
X95258794Y-127006762D01*
X95274250Y-126889361D01*
X95274249Y-126610640D01*
X95271191Y-126587414D01*
X95269006Y-126570813D01*
X95258794Y-126493238D01*
X95257894Y-126491066D01*
X95250455Y-126473106D01*
X95250184Y-126472454D01*
X95242715Y-126402986D01*
X95250185Y-126377545D01*
X95252275Y-126372500D01*
X95258794Y-126356762D01*
X95274250Y-126239361D01*
X95274249Y-125960640D01*
X95274248Y-125960636D01*
X95266089Y-125898653D01*
X95258794Y-125843238D01*
X95254631Y-125833189D01*
X95250185Y-125822455D01*
X95242715Y-125752986D01*
X95250185Y-125727545D01*
X95253307Y-125720008D01*
X95258794Y-125706762D01*
X95274250Y-125589361D01*
X95274249Y-125310640D01*
X95258794Y-125193238D01*
X95250184Y-125172454D01*
X95242715Y-125102986D01*
X95250185Y-125077545D01*
X95258794Y-125056762D01*
X95274250Y-124939361D01*
X95274249Y-124660640D01*
X95269246Y-124622634D01*
X95280012Y-124553599D01*
X95304501Y-124518772D01*
X99664686Y-120158586D01*
X99704912Y-120131709D01*
X99716194Y-120127035D01*
X99738374Y-120122624D01*
X99898797Y-120056175D01*
X99917595Y-120043614D01*
X99928883Y-120038939D01*
X99951967Y-120036457D01*
X99974122Y-120029520D01*
X99976335Y-120029500D01*
X104225876Y-120029500D01*
X104292915Y-120049185D01*
X104313557Y-120065819D01*
X104345705Y-120097967D01*
X104345709Y-120097970D01*
X104490044Y-120186998D01*
X104490047Y-120186999D01*
X104490053Y-120187003D01*
X104651042Y-120240349D01*
X104750405Y-120250500D01*
X105297094Y-120250499D01*
X105297102Y-120250498D01*
X105297105Y-120250498D01*
X105351510Y-120244940D01*
X105396458Y-120240349D01*
X105557447Y-120187003D01*
X105701794Y-120097968D01*
X105711418Y-120088343D01*
X105772737Y-120054856D01*
X105842429Y-120059835D01*
X105886784Y-120088339D01*
X105896017Y-120097572D01*
X105896021Y-120097575D01*
X106040257Y-120186542D01*
X106040268Y-120186547D01*
X106201143Y-120239855D01*
X106300433Y-120249999D01*
X106823750Y-120249999D01*
X106847058Y-120249999D01*
X106847072Y-120249998D01*
X106946357Y-120239855D01*
X107107231Y-120186547D01*
X107107242Y-120186542D01*
X107251478Y-120097575D01*
X107251482Y-120097572D01*
X107371322Y-119977732D01*
X107371325Y-119977728D01*
X107460292Y-119833492D01*
X107460297Y-119833481D01*
X107513605Y-119672606D01*
X107523749Y-119573322D01*
X107523750Y-119573309D01*
X107523750Y-119525000D01*
X106823750Y-119525000D01*
X106823750Y-120249999D01*
X106300433Y-120249999D01*
X106323750Y-120249998D01*
X106323750Y-119025000D01*
X106823750Y-119025000D01*
X107523749Y-119025000D01*
X107523749Y-118976692D01*
X107523748Y-118976677D01*
X107513605Y-118877392D01*
X107460297Y-118716518D01*
X107460292Y-118716507D01*
X107371325Y-118572271D01*
X107371322Y-118572267D01*
X107251482Y-118452427D01*
X107251478Y-118452424D01*
X107107242Y-118363457D01*
X107107231Y-118363452D01*
X106946356Y-118310144D01*
X106847072Y-118300000D01*
X106823750Y-118300000D01*
X106823750Y-119025000D01*
X106323750Y-119025000D01*
X106323750Y-118299999D01*
X106300443Y-118300000D01*
X106300424Y-118300001D01*
X106201142Y-118310144D01*
X106040268Y-118363452D01*
X106040257Y-118363457D01*
X105896021Y-118452424D01*
X105896015Y-118452428D01*
X105886781Y-118461663D01*
X105825457Y-118495146D01*
X105755765Y-118490159D01*
X105711422Y-118461660D01*
X105701794Y-118452032D01*
X105701790Y-118452029D01*
X105557455Y-118363001D01*
X105557449Y-118362998D01*
X105557447Y-118362997D01*
X105555416Y-118362324D01*
X105396459Y-118309651D01*
X105297096Y-118299500D01*
X104750412Y-118299500D01*
X104750394Y-118299501D01*
X104651042Y-118309650D01*
X104651039Y-118309651D01*
X104490055Y-118362996D01*
X104490044Y-118363001D01*
X104345709Y-118452029D01*
X104345705Y-118452032D01*
X104313557Y-118484181D01*
X104252234Y-118517666D01*
X104225876Y-118520500D01*
X101781742Y-118520500D01*
X101714703Y-118500815D01*
X101668948Y-118448011D01*
X101659004Y-118378853D01*
X101688029Y-118315297D01*
X101694061Y-118308819D01*
X102776203Y-117226677D01*
X111598750Y-117226677D01*
X111598750Y-117250000D01*
X112323750Y-117250000D01*
X112823750Y-117250000D01*
X113548749Y-117250000D01*
X113548749Y-117226692D01*
X113548748Y-117226677D01*
X113538605Y-117127392D01*
X113485297Y-116966518D01*
X113485292Y-116966507D01*
X113396325Y-116822271D01*
X113396322Y-116822267D01*
X113276482Y-116702427D01*
X113276478Y-116702424D01*
X113132242Y-116613457D01*
X113132231Y-116613452D01*
X112971356Y-116560144D01*
X112872072Y-116550000D01*
X112823750Y-116550000D01*
X112823750Y-117250000D01*
X112323750Y-117250000D01*
X112323750Y-116550000D01*
X112323749Y-116549999D01*
X112275443Y-116550000D01*
X112275425Y-116550001D01*
X112176142Y-116560144D01*
X112015268Y-116613452D01*
X112015257Y-116613457D01*
X111871021Y-116702424D01*
X111871017Y-116702427D01*
X111751177Y-116822267D01*
X111751174Y-116822271D01*
X111662207Y-116966507D01*
X111662202Y-116966518D01*
X111608894Y-117127393D01*
X111598750Y-117226677D01*
X102776203Y-117226677D01*
X102867033Y-117135847D01*
X105585060Y-114417819D01*
X105646383Y-114384334D01*
X105672741Y-114381500D01*
X114738250Y-114381500D01*
X114805289Y-114401185D01*
X114851044Y-114453989D01*
X114862250Y-114505500D01*
X114862250Y-118346500D01*
X114842565Y-118413539D01*
X114789761Y-118459294D01*
X114738250Y-118470500D01*
X113526707Y-118470500D01*
X113521310Y-118468915D01*
X113515794Y-118470019D01*
X113488152Y-118459179D01*
X113459668Y-118450815D01*
X113454607Y-118446023D01*
X113450747Y-118444510D01*
X113437851Y-118430160D01*
X113426211Y-118419140D01*
X113423555Y-118415466D01*
X113396718Y-118371956D01*
X113380078Y-118355316D01*
X113374274Y-118347286D01*
X113365787Y-118323316D01*
X113353604Y-118301004D01*
X113354323Y-118290937D01*
X113350955Y-118281422D01*
X113356774Y-118256671D01*
X113358588Y-118231312D01*
X113365130Y-118221132D01*
X113366947Y-118213407D01*
X113375268Y-118205359D01*
X113387095Y-118186959D01*
X113396323Y-118177731D01*
X113485292Y-118033492D01*
X113485297Y-118033481D01*
X113538605Y-117872606D01*
X113548749Y-117773322D01*
X113548750Y-117773309D01*
X113548750Y-117750000D01*
X111598751Y-117750000D01*
X111598751Y-117773322D01*
X111608894Y-117872607D01*
X111662202Y-118033481D01*
X111662207Y-118033492D01*
X111751174Y-118177728D01*
X111751177Y-118177732D01*
X111760410Y-118186965D01*
X111793895Y-118248288D01*
X111788911Y-118317980D01*
X111760413Y-118362324D01*
X111750783Y-118371953D01*
X111750779Y-118371959D01*
X111661751Y-118516294D01*
X111661746Y-118516305D01*
X111608401Y-118677290D01*
X111598250Y-118776647D01*
X111598250Y-119323337D01*
X111598251Y-119323355D01*
X111608400Y-119422707D01*
X111608401Y-119422710D01*
X111661746Y-119583694D01*
X111661751Y-119583705D01*
X111750779Y-119728040D01*
X111750782Y-119728044D01*
X111870705Y-119847967D01*
X111870709Y-119847970D01*
X112015044Y-119936998D01*
X112015047Y-119936999D01*
X112015053Y-119937003D01*
X112176042Y-119990349D01*
X112275405Y-120000500D01*
X112872094Y-120000499D01*
X112872102Y-120000498D01*
X112872105Y-120000498D01*
X112926510Y-119994940D01*
X112971458Y-119990349D01*
X112980718Y-119987280D01*
X112985202Y-119985795D01*
X113024208Y-119979500D01*
X114695250Y-119979500D01*
X114762289Y-119999185D01*
X114808044Y-120051989D01*
X114819250Y-120103500D01*
X114819250Y-123975500D01*
X114799565Y-124042539D01*
X114746761Y-124088294D01*
X114695250Y-124099500D01*
X113209386Y-124099500D01*
X113091996Y-124114953D01*
X113091987Y-124114956D01*
X112945910Y-124175463D01*
X112820468Y-124271718D01*
X112724213Y-124397160D01*
X112663707Y-124543236D01*
X112663705Y-124543239D01*
X112648250Y-124660638D01*
X112648250Y-124939363D01*
X112663703Y-125056753D01*
X112663707Y-125056765D01*
X112672316Y-125077550D01*
X112680384Y-125143383D01*
X112678130Y-125158413D01*
X112663706Y-125193238D01*
X112648250Y-125310639D01*
X112648250Y-125357742D01*
X112646880Y-125366883D01*
X112635908Y-125390530D01*
X112628565Y-125415539D01*
X112621441Y-125421711D01*
X112617474Y-125430263D01*
X112595458Y-125444226D01*
X112575761Y-125461294D01*
X112564781Y-125463682D01*
X112558471Y-125467685D01*
X112546708Y-125467614D01*
X112524250Y-125472500D01*
X109210031Y-125472500D01*
X109142992Y-125452815D01*
X109122350Y-125436181D01*
X107973763Y-124287593D01*
X107973759Y-124287590D01*
X107973758Y-124287589D01*
X107950005Y-124271718D01*
X107950003Y-124271716D01*
X107870989Y-124218920D01*
X107870976Y-124218913D01*
X107817142Y-124196615D01*
X107817141Y-124196614D01*
X107817141Y-124196615D01*
X107756785Y-124171614D01*
X107756782Y-124171613D01*
X107756778Y-124171612D01*
X107635557Y-124147500D01*
X107635553Y-124147500D01*
X107537521Y-124147500D01*
X107470482Y-124127815D01*
X107431983Y-124088598D01*
X107421718Y-124071956D01*
X107301794Y-123952032D01*
X107301790Y-123952029D01*
X107157455Y-123863001D01*
X107157449Y-123862998D01*
X107157447Y-123862997D01*
X107157444Y-123862996D01*
X106996459Y-123809651D01*
X106897096Y-123799500D01*
X106350412Y-123799500D01*
X106350394Y-123799501D01*
X106251042Y-123809650D01*
X106251039Y-123809651D01*
X106090055Y-123862996D01*
X106090044Y-123863001D01*
X105945709Y-123952029D01*
X105945705Y-123952032D01*
X105936431Y-123961307D01*
X105875108Y-123994792D01*
X105805416Y-123989808D01*
X105761069Y-123961307D01*
X105751794Y-123952032D01*
X105751790Y-123952029D01*
X105607455Y-123863001D01*
X105607449Y-123862998D01*
X105607447Y-123862997D01*
X105607444Y-123862996D01*
X105446459Y-123809651D01*
X105347096Y-123799500D01*
X104800412Y-123799500D01*
X104800394Y-123799501D01*
X104701042Y-123809650D01*
X104701039Y-123809651D01*
X104540055Y-123862996D01*
X104540044Y-123863001D01*
X104395709Y-123952029D01*
X104395705Y-123952032D01*
X104275783Y-124071954D01*
X104275782Y-124071956D01*
X104250096Y-124113598D01*
X104198150Y-124160322D01*
X104144559Y-124172500D01*
X99219100Y-124172500D01*
X99171647Y-124163061D01*
X99165138Y-124160365D01*
X99055512Y-124114956D01*
X99055510Y-124114955D01*
X98938120Y-124099501D01*
X98938117Y-124099500D01*
X98938111Y-124099500D01*
X98938104Y-124099500D01*
X97434386Y-124099500D01*
X97316996Y-124114953D01*
X97316987Y-124114956D01*
X97170910Y-124175463D01*
X97045468Y-124271718D01*
X96949213Y-124397160D01*
X96888707Y-124543236D01*
X96888705Y-124543239D01*
X96873250Y-124660638D01*
X96873250Y-124939363D01*
X96888703Y-125056753D01*
X96888706Y-125056762D01*
X96897587Y-125078203D01*
X96905054Y-125147673D01*
X96897588Y-125173103D01*
X96889193Y-125193370D01*
X96881737Y-125250000D01*
X96924250Y-125250000D01*
X96953630Y-125258627D01*
X96983568Y-125265108D01*
X96987680Y-125268625D01*
X96991289Y-125269685D01*
X97011844Y-125286231D01*
X97017638Y-125292014D01*
X97045468Y-125328282D01*
X97082290Y-125356536D01*
X97087996Y-125362231D01*
X97101054Y-125386088D01*
X97117091Y-125408052D01*
X97117581Y-125416284D01*
X97121542Y-125423521D01*
X97119628Y-125450651D01*
X97121246Y-125477798D01*
X97117207Y-125484989D01*
X97116627Y-125493217D01*
X97100349Y-125515006D01*
X97087033Y-125538719D01*
X97075896Y-125548369D01*
X97045468Y-125571718D01*
X97045467Y-125571719D01*
X97045466Y-125571720D01*
X97022625Y-125601487D01*
X96966197Y-125642690D01*
X96924250Y-125650000D01*
X96881740Y-125650000D01*
X96881738Y-125650001D01*
X96889191Y-125706622D01*
X96889195Y-125706634D01*
X96897587Y-125726895D01*
X96905054Y-125796364D01*
X96897588Y-125821794D01*
X96888706Y-125843238D01*
X96888705Y-125843239D01*
X96873250Y-125960638D01*
X96873250Y-126239363D01*
X96888703Y-126356753D01*
X96888706Y-126356762D01*
X96897587Y-126378203D01*
X96905054Y-126447673D01*
X96897588Y-126473103D01*
X96889193Y-126493370D01*
X96881737Y-126550000D01*
X96924250Y-126550000D01*
X96991289Y-126569685D01*
X97005511Y-126580338D01*
X97014989Y-126588561D01*
X97045468Y-126628282D01*
X97170909Y-126724536D01*
X97172451Y-126725175D01*
X97180708Y-126732338D01*
X97197642Y-126758724D01*
X97216136Y-126784052D01*
X97216365Y-126787896D01*
X97218446Y-126791139D01*
X97218426Y-126822496D01*
X97220291Y-126853798D01*
X97218404Y-126857157D01*
X97218402Y-126861009D01*
X97201439Y-126887367D01*
X97186079Y-126914719D01*
X97182674Y-126916525D01*
X97180591Y-126919763D01*
X97152063Y-126932770D01*
X97124361Y-126947471D01*
X97118520Y-126948063D01*
X97117018Y-126948749D01*
X97114852Y-126948436D01*
X97099447Y-126950000D01*
X96881740Y-126950000D01*
X96881738Y-126950001D01*
X96889192Y-127006627D01*
X96889194Y-127006633D01*
X96949649Y-127152585D01*
X97045825Y-127277924D01*
X97171163Y-127374100D01*
X97317115Y-127434554D01*
X97317119Y-127434555D01*
X97434426Y-127449999D01*
X97986249Y-127449999D01*
X97986250Y-127449998D01*
X97986250Y-126924499D01*
X97988800Y-126915813D01*
X97987512Y-126906852D01*
X97998490Y-126882811D01*
X98005935Y-126857460D01*
X98012775Y-126851532D01*
X98016537Y-126843296D01*
X98038771Y-126829006D01*
X98058739Y-126811705D01*
X98069253Y-126809417D01*
X98075315Y-126805522D01*
X98110246Y-126800499D01*
X98262251Y-126800499D01*
X98329289Y-126820184D01*
X98375044Y-126872988D01*
X98386250Y-126924499D01*
X98386250Y-127449999D01*
X98938074Y-127449999D01*
X99055378Y-127434557D01*
X99055383Y-127434555D01*
X99201335Y-127374100D01*
X99326674Y-127277924D01*
X99422850Y-127152586D01*
X99483305Y-127006631D01*
X99490762Y-126950000D01*
X99273053Y-126950000D01*
X99247733Y-126942565D01*
X99221612Y-126938826D01*
X99214737Y-126932876D01*
X99206014Y-126930315D01*
X99188735Y-126910374D01*
X99168779Y-126893104D01*
X99166211Y-126884380D01*
X99160259Y-126877511D01*
X99156503Y-126851393D01*
X99149053Y-126826077D01*
X99151608Y-126817352D01*
X99150315Y-126808353D01*
X99161277Y-126784348D01*
X99168696Y-126759025D01*
X99176934Y-126750064D01*
X99179340Y-126744797D01*
X99191792Y-126732338D01*
X99200048Y-126725175D01*
X99201591Y-126724536D01*
X99327032Y-126628282D01*
X99357510Y-126588561D01*
X99366989Y-126580338D01*
X99387809Y-126570813D01*
X99406303Y-126557310D01*
X99424115Y-126554205D01*
X99430527Y-126551273D01*
X99436246Y-126552091D01*
X99448250Y-126550000D01*
X99490760Y-126550000D01*
X99490761Y-126549998D01*
X99483308Y-126493377D01*
X99483304Y-126493365D01*
X99474913Y-126473106D01*
X99467444Y-126403637D01*
X99474914Y-126378199D01*
X99475185Y-126377545D01*
X99483794Y-126356762D01*
X99499250Y-126239361D01*
X99499249Y-125960640D01*
X99499249Y-125960638D01*
X99499249Y-125960636D01*
X99483796Y-125843246D01*
X99483794Y-125843239D01*
X99483794Y-125843238D01*
X99474912Y-125821794D01*
X99465979Y-125785520D01*
X99445814Y-125562675D01*
X99451918Y-125531825D01*
X99456210Y-125500660D01*
X99458648Y-125497812D01*
X99459376Y-125494134D01*
X99481197Y-125471474D01*
X99501651Y-125447585D01*
X99505241Y-125446507D01*
X99507842Y-125443807D01*
X99538445Y-125436542D01*
X99568572Y-125427502D01*
X99569309Y-125427500D01*
X104175784Y-125427500D01*
X104242823Y-125447185D01*
X104273049Y-125474588D01*
X104275781Y-125478043D01*
X104395705Y-125597967D01*
X104395709Y-125597970D01*
X104540044Y-125686998D01*
X104540047Y-125686999D01*
X104540053Y-125687003D01*
X104701042Y-125740349D01*
X104800405Y-125750500D01*
X105347094Y-125750499D01*
X105347102Y-125750498D01*
X105347105Y-125750498D01*
X105401510Y-125744940D01*
X105446458Y-125740349D01*
X105607447Y-125687003D01*
X105751794Y-125597968D01*
X105761069Y-125588693D01*
X105822392Y-125555208D01*
X105892084Y-125560192D01*
X105936431Y-125588693D01*
X105945705Y-125597967D01*
X105945709Y-125597970D01*
X106090044Y-125686998D01*
X106090047Y-125686999D01*
X106090053Y-125687003D01*
X106251042Y-125740349D01*
X106350405Y-125750500D01*
X106897094Y-125750499D01*
X106897102Y-125750498D01*
X106897105Y-125750498D01*
X106951510Y-125744940D01*
X106996458Y-125740349D01*
X107157447Y-125687003D01*
X107301794Y-125597968D01*
X107317862Y-125581898D01*
X107379182Y-125548412D01*
X107448874Y-125553393D01*
X107493227Y-125581896D01*
X108411339Y-126500008D01*
X108461329Y-126549998D01*
X108498744Y-126587413D01*
X108498746Y-126587414D01*
X108559910Y-126628282D01*
X108601517Y-126656083D01*
X108634965Y-126669937D01*
X108715715Y-126703386D01*
X108822046Y-126724536D01*
X108836942Y-126727499D01*
X108836946Y-126727500D01*
X108836947Y-126727500D01*
X112578193Y-126727500D01*
X112645232Y-126747185D01*
X112690987Y-126799989D01*
X112700931Y-126869147D01*
X112671906Y-126932703D01*
X112671420Y-126933260D01*
X112656738Y-126950000D01*
X112664192Y-127006627D01*
X112664194Y-127006633D01*
X112724649Y-127152585D01*
X112820825Y-127277924D01*
X112946163Y-127374100D01*
X113092115Y-127434554D01*
X113092119Y-127434555D01*
X113209426Y-127449999D01*
X113761249Y-127449999D01*
X113761250Y-127449998D01*
X113761250Y-126924499D01*
X113763800Y-126915813D01*
X113762512Y-126906852D01*
X113773490Y-126882811D01*
X113780935Y-126857460D01*
X113787775Y-126851532D01*
X113791537Y-126843296D01*
X113813771Y-126829006D01*
X113833739Y-126811705D01*
X113844253Y-126809417D01*
X113850315Y-126805522D01*
X113885246Y-126800499D01*
X114037251Y-126800499D01*
X114104289Y-126820184D01*
X114150044Y-126872988D01*
X114161250Y-126924499D01*
X114161250Y-127449999D01*
X114182363Y-127449999D01*
X114249402Y-127469684D01*
X114295157Y-127522488D01*
X114305101Y-127591646D01*
X114276076Y-127655202D01*
X114270044Y-127661680D01*
X107837693Y-134094030D01*
X107837692Y-134094031D01*
X107755122Y-134217607D01*
X107755116Y-134217618D01*
X107698246Y-134354916D01*
X107698243Y-134354926D01*
X107669249Y-134500685D01*
X107669249Y-134655425D01*
X107669250Y-134655446D01*
X107669250Y-137025500D01*
X107649565Y-137092539D01*
X107596761Y-137138294D01*
X107545255Y-137149500D01*
X107525882Y-137149500D01*
X107525873Y-137149501D01*
X107466266Y-137155908D01*
X107331421Y-137206202D01*
X107331414Y-137206206D01*
X107216205Y-137292452D01*
X107216202Y-137292455D01*
X107129956Y-137407664D01*
X107129952Y-137407671D01*
X107079658Y-137542517D01*
X107073973Y-137595404D01*
X107073251Y-137602123D01*
X107073250Y-137602135D01*
X107073250Y-137612690D01*
X107053565Y-137679729D01*
X107036931Y-137700371D01*
X106366712Y-138370590D01*
X106349675Y-138307007D01*
X106283849Y-138192993D01*
X106190757Y-138099901D01*
X106076743Y-138034075D01*
X106013159Y-138017037D01*
X106645466Y-137384728D01*
X106591300Y-137345375D01*
X106401967Y-137248904D01*
X106199879Y-137183242D01*
X105989996Y-137150000D01*
X105777504Y-137150000D01*
X105567622Y-137183242D01*
X105567619Y-137183242D01*
X105365532Y-137248904D01*
X105176189Y-137345380D01*
X105122032Y-137384727D01*
X105122032Y-137384728D01*
X105754341Y-138017037D01*
X105690757Y-138034075D01*
X105576743Y-138099901D01*
X105483651Y-138192993D01*
X105417825Y-138307007D01*
X105400787Y-138370591D01*
X104768478Y-137738282D01*
X104768477Y-137738282D01*
X104729130Y-137792440D01*
X104729126Y-137792446D01*
X104724510Y-137801505D01*
X104676531Y-137852297D01*
X104608709Y-137869087D01*
X104542576Y-137846543D01*
X104503544Y-137801493D01*
X104498801Y-137792184D01*
X104498799Y-137792181D01*
X104498798Y-137792179D01*
X104373859Y-137620213D01*
X104223536Y-137469890D01*
X104051570Y-137344951D01*
X103862164Y-137248444D01*
X103862163Y-137248443D01*
X103862162Y-137248443D01*
X103659993Y-137182754D01*
X103659991Y-137182753D01*
X103659990Y-137182753D01*
X103496613Y-137156877D01*
X103450037Y-137149500D01*
X103237463Y-137149500D01*
X103190887Y-137156877D01*
X103027505Y-137182754D01*
X103014043Y-137187128D01*
X102944201Y-137189122D01*
X102888046Y-137156877D01*
X97743761Y-132012591D01*
X97743757Y-132012588D01*
X97640989Y-131943920D01*
X97640976Y-131943913D01*
X97607535Y-131930062D01*
X97526785Y-131896614D01*
X97526777Y-131896612D01*
X97405557Y-131872500D01*
X97405553Y-131872500D01*
X91885031Y-131872500D01*
X91817992Y-131852815D01*
X91797350Y-131836181D01*
X86473761Y-126512591D01*
X86473759Y-126512589D01*
X86449005Y-126496050D01*
X86444797Y-126493238D01*
X86370983Y-126443917D01*
X86337534Y-126430062D01*
X86329916Y-126426906D01*
X86329912Y-126426904D01*
X86256785Y-126396614D01*
X86256777Y-126396612D01*
X86135557Y-126372500D01*
X86135553Y-126372500D01*
X80613107Y-126372500D01*
X80546068Y-126352815D01*
X80544216Y-126351602D01*
X80452935Y-126290609D01*
X80452922Y-126290602D01*
X80307251Y-126230264D01*
X80307239Y-126230261D01*
X80152595Y-126199500D01*
X80152592Y-126199500D01*
X79994908Y-126199500D01*
X79994905Y-126199500D01*
X79840260Y-126230261D01*
X79840248Y-126230264D01*
X79694577Y-126290602D01*
X79694564Y-126290609D01*
X79563461Y-126378210D01*
X79563457Y-126378213D01*
X79451963Y-126489707D01*
X79451960Y-126489711D01*
X79364359Y-126620814D01*
X79364352Y-126620827D01*
X79304014Y-126766498D01*
X79304011Y-126766510D01*
X79273250Y-126921153D01*
X79273250Y-127078846D01*
X79304011Y-127233489D01*
X79304014Y-127233501D01*
X79364352Y-127379172D01*
X79364359Y-127379185D01*
X79399054Y-127431109D01*
X79419932Y-127497786D01*
X79401448Y-127565167D01*
X79399054Y-127568891D01*
X79364359Y-127620814D01*
X79364352Y-127620827D01*
X79304014Y-127766498D01*
X79304011Y-127766510D01*
X79273250Y-127921153D01*
X79273250Y-127921158D01*
X79273250Y-128078842D01*
X79273250Y-128078844D01*
X79273249Y-128078844D01*
X79302185Y-128224308D01*
X79295958Y-128293900D01*
X79253095Y-128349077D01*
X79187205Y-128372322D01*
X79180568Y-128372500D01*
X69262521Y-128372500D01*
X69195482Y-128352815D01*
X69156983Y-128313598D01*
X69146718Y-128296956D01*
X69026794Y-128177032D01*
X69026790Y-128177029D01*
X68882455Y-128088001D01*
X68882449Y-128087998D01*
X68882447Y-128087997D01*
X68822658Y-128068185D01*
X68721459Y-128034651D01*
X68622096Y-128024500D01*
X68075412Y-128024500D01*
X68075394Y-128024501D01*
X67976042Y-128034650D01*
X67976039Y-128034651D01*
X67815055Y-128087996D01*
X67815044Y-128088001D01*
X67670709Y-128177029D01*
X67670703Y-128177033D01*
X67661074Y-128186663D01*
X67599750Y-128220146D01*
X67530058Y-128215159D01*
X67485715Y-128186660D01*
X67476482Y-128177427D01*
X67476478Y-128177424D01*
X67332242Y-128088457D01*
X67332231Y-128088452D01*
X67171356Y-128035144D01*
X67072072Y-128025000D01*
X67048750Y-128025000D01*
X67048750Y-129974999D01*
X67072058Y-129974999D01*
X67072072Y-129974998D01*
X67171357Y-129964855D01*
X67332231Y-129911547D01*
X67332242Y-129911542D01*
X67476481Y-129822573D01*
X67485709Y-129813345D01*
X67547029Y-129779856D01*
X67616721Y-129784835D01*
X67661077Y-129813339D01*
X67670705Y-129822967D01*
X67670709Y-129822970D01*
X67815044Y-129911998D01*
X67815047Y-129911999D01*
X67815053Y-129912003D01*
X67976042Y-129965349D01*
X68075405Y-129975500D01*
X68622094Y-129975499D01*
X68622102Y-129975498D01*
X68622105Y-129975498D01*
X68676510Y-129969940D01*
X68721458Y-129965349D01*
X68882447Y-129912003D01*
X69026794Y-129822968D01*
X69146718Y-129703044D01*
X69156983Y-129686402D01*
X69208931Y-129639678D01*
X69262521Y-129627500D01*
X72259469Y-129627500D01*
X72326508Y-129647185D01*
X72372263Y-129699989D01*
X72382207Y-129769147D01*
X72353182Y-129832703D01*
X72347150Y-129839181D01*
X68850150Y-133336181D01*
X68788827Y-133369666D01*
X68762469Y-133372500D01*
X55961944Y-133372500D01*
X55840720Y-133396613D01*
X55840710Y-133396616D01*
X55726523Y-133443913D01*
X55726510Y-133443920D01*
X55623742Y-133512588D01*
X55623738Y-133512591D01*
X54373148Y-134763181D01*
X54311825Y-134796666D01*
X54285467Y-134799500D01*
X53325879Y-134799500D01*
X53325873Y-134799501D01*
X53266266Y-134805908D01*
X53131421Y-134856202D01*
X53131414Y-134856206D01*
X53016205Y-134942452D01*
X53016202Y-134942455D01*
X52929956Y-135057664D01*
X52929953Y-135057669D01*
X52917211Y-135091834D01*
X52875339Y-135147767D01*
X52809875Y-135172184D01*
X52801029Y-135172500D01*
X49346471Y-135172500D01*
X49279432Y-135152815D01*
X49233677Y-135100011D01*
X49230289Y-135091834D01*
X49217546Y-135057669D01*
X49217543Y-135057664D01*
X49131297Y-134942455D01*
X49131294Y-134942452D01*
X49016085Y-134856206D01*
X49016078Y-134856202D01*
X48881232Y-134805908D01*
X48881233Y-134805908D01*
X48821633Y-134799501D01*
X48821631Y-134799500D01*
X48821623Y-134799500D01*
X48821614Y-134799500D01*
X47025879Y-134799500D01*
X47025873Y-134799501D01*
X46966266Y-134805908D01*
X46831421Y-134856202D01*
X46831418Y-134856204D01*
X46772561Y-134900265D01*
X46707097Y-134924682D01*
X46638824Y-134909830D01*
X46589418Y-134860425D01*
X46574250Y-134800998D01*
X46574250Y-129298322D01*
X65848751Y-129298322D01*
X65858894Y-129397607D01*
X65912202Y-129558481D01*
X65912207Y-129558492D01*
X66001174Y-129702728D01*
X66001177Y-129702732D01*
X66121017Y-129822572D01*
X66121021Y-129822575D01*
X66265257Y-129911542D01*
X66265268Y-129911547D01*
X66426143Y-129964855D01*
X66525433Y-129974999D01*
X66548750Y-129974998D01*
X66548750Y-129250000D01*
X65848751Y-129250000D01*
X65848751Y-129298322D01*
X46574250Y-129298322D01*
X46574250Y-128701677D01*
X65848750Y-128701677D01*
X65848750Y-128750000D01*
X66548750Y-128750000D01*
X66548750Y-128024999D01*
X66525443Y-128025000D01*
X66525424Y-128025001D01*
X66426142Y-128035144D01*
X66265268Y-128088452D01*
X66265257Y-128088457D01*
X66121021Y-128177424D01*
X66121017Y-128177427D01*
X66001177Y-128297267D01*
X66001174Y-128297271D01*
X65912207Y-128441507D01*
X65912202Y-128441518D01*
X65858894Y-128602393D01*
X65848750Y-128701677D01*
X46574250Y-128701677D01*
X46574250Y-120124000D01*
X46593935Y-120056961D01*
X46646739Y-120011206D01*
X46698250Y-120000000D01*
X68073750Y-120000000D01*
X68073750Y-117421153D01*
X80273250Y-117421153D01*
X80273250Y-117578846D01*
X80304011Y-117733489D01*
X80304014Y-117733501D01*
X80364352Y-117879172D01*
X80364359Y-117879185D01*
X80451960Y-118010288D01*
X80451963Y-118010292D01*
X80563460Y-118121789D01*
X80651065Y-118180324D01*
X80694571Y-118209394D01*
X80704260Y-118213407D01*
X80708565Y-118215190D01*
X80748798Y-118242072D01*
X80987689Y-118480963D01*
X80987691Y-118480966D01*
X81092784Y-118586059D01*
X81150316Y-118624500D01*
X81157132Y-118629054D01*
X81157134Y-118629056D01*
X81216356Y-118668627D01*
X81216357Y-118668627D01*
X81216361Y-118668630D01*
X81265397Y-118688941D01*
X81353670Y-118725505D01*
X81377855Y-118730315D01*
X81386778Y-118732090D01*
X81499436Y-118754501D01*
X81499438Y-118754501D01*
X81654176Y-118754501D01*
X81654196Y-118754500D01*
X86778803Y-118754500D01*
X86826251Y-118763937D01*
X86840253Y-118769737D01*
X86840258Y-118769738D01*
X86840261Y-118769739D01*
X86994903Y-118800499D01*
X86994906Y-118800500D01*
X86994908Y-118800500D01*
X87152594Y-118800500D01*
X87152595Y-118800499D01*
X87307247Y-118769737D01*
X87444047Y-118713073D01*
X87452922Y-118709397D01*
X87452922Y-118709396D01*
X87452929Y-118709394D01*
X87584039Y-118621789D01*
X87695539Y-118510289D01*
X87783144Y-118379179D01*
X87843487Y-118233497D01*
X87874250Y-118078842D01*
X87874250Y-117921158D01*
X87874250Y-117921155D01*
X87874249Y-117921153D01*
X87843489Y-117766511D01*
X87843488Y-117766508D01*
X87843487Y-117766503D01*
X87837687Y-117752501D01*
X87828250Y-117705053D01*
X87828250Y-116087519D01*
X87847935Y-116020480D01*
X87864570Y-115999837D01*
X87904222Y-115960185D01*
X87992228Y-115814606D01*
X88042836Y-115652196D01*
X88049250Y-115581616D01*
X88049250Y-115068384D01*
X88042836Y-114997804D01*
X87992228Y-114835394D01*
X87904222Y-114689815D01*
X87904220Y-114689813D01*
X87904219Y-114689811D01*
X87802089Y-114587681D01*
X87768604Y-114526358D01*
X87773588Y-114456666D01*
X87802089Y-114412319D01*
X87904218Y-114310189D01*
X87904219Y-114310188D01*
X87904222Y-114310185D01*
X87992228Y-114164606D01*
X88042836Y-114002196D01*
X88049250Y-113931616D01*
X88049250Y-113418384D01*
X88042836Y-113347804D01*
X87992228Y-113185394D01*
X87904222Y-113039815D01*
X87904220Y-113039813D01*
X87904219Y-113039811D01*
X87783938Y-112919530D01*
X87783936Y-112919529D01*
X87783935Y-112919528D01*
X87761098Y-112905722D01*
X87713912Y-112854193D01*
X87701250Y-112799606D01*
X87701250Y-112539356D01*
X87720935Y-112472317D01*
X87722148Y-112470465D01*
X87731368Y-112456666D01*
X87783144Y-112379179D01*
X87843487Y-112233497D01*
X87874250Y-112078842D01*
X87874250Y-111921158D01*
X87874250Y-111921155D01*
X87874249Y-111921153D01*
X87843488Y-111766510D01*
X87843487Y-111766503D01*
X87843485Y-111766498D01*
X87783147Y-111620827D01*
X87783140Y-111620814D01*
X87695539Y-111489711D01*
X87695536Y-111489707D01*
X87584042Y-111378213D01*
X87584038Y-111378210D01*
X87452935Y-111290609D01*
X87452922Y-111290602D01*
X87307251Y-111230264D01*
X87307239Y-111230261D01*
X87152595Y-111199500D01*
X87152592Y-111199500D01*
X86994908Y-111199500D01*
X86994905Y-111199500D01*
X86840260Y-111230261D01*
X86840248Y-111230264D01*
X86694577Y-111290602D01*
X86694564Y-111290609D01*
X86563461Y-111378210D01*
X86563457Y-111378213D01*
X86451963Y-111489707D01*
X86451960Y-111489711D01*
X86364359Y-111620814D01*
X86364352Y-111620827D01*
X86304014Y-111766498D01*
X86304011Y-111766510D01*
X86273250Y-111921153D01*
X86273250Y-112078846D01*
X86304011Y-112233489D01*
X86304014Y-112233501D01*
X86364353Y-112379174D01*
X86364354Y-112379175D01*
X86364356Y-112379179D01*
X86416132Y-112456666D01*
X86425352Y-112470465D01*
X86446230Y-112537142D01*
X86446250Y-112539356D01*
X86446250Y-112799606D01*
X86426565Y-112866645D01*
X86386402Y-112905722D01*
X86363563Y-112919529D01*
X86363561Y-112919530D01*
X86243280Y-113039811D01*
X86155272Y-113185393D01*
X86104663Y-113347807D01*
X86098250Y-113418386D01*
X86098250Y-113931613D01*
X86104663Y-114002192D01*
X86104663Y-114002194D01*
X86104664Y-114002196D01*
X86155272Y-114164606D01*
X86176905Y-114200392D01*
X86243280Y-114310188D01*
X86345411Y-114412319D01*
X86378896Y-114473642D01*
X86373912Y-114543334D01*
X86345411Y-114587681D01*
X86243281Y-114689810D01*
X86243280Y-114689811D01*
X86155272Y-114835393D01*
X86104663Y-114997807D01*
X86098250Y-115068386D01*
X86098250Y-115581613D01*
X86104663Y-115652192D01*
X86104663Y-115652194D01*
X86104664Y-115652196D01*
X86155272Y-115814606D01*
X86243280Y-115960188D01*
X86282930Y-115999837D01*
X86316416Y-116061160D01*
X86319250Y-116087519D01*
X86319250Y-117121500D01*
X86299565Y-117188539D01*
X86246761Y-117234294D01*
X86195250Y-117245500D01*
X81937636Y-117245500D01*
X81908195Y-117236855D01*
X81878209Y-117230332D01*
X81873193Y-117226577D01*
X81870597Y-117225815D01*
X81849955Y-117209181D01*
X81815822Y-117175048D01*
X81788940Y-117134815D01*
X81785866Y-117127393D01*
X81783144Y-117120821D01*
X81719127Y-117025013D01*
X81695539Y-116989710D01*
X81584042Y-116878213D01*
X81584038Y-116878210D01*
X81452935Y-116790609D01*
X81452922Y-116790602D01*
X81307251Y-116730264D01*
X81307239Y-116730261D01*
X81152595Y-116699500D01*
X81152592Y-116699500D01*
X80994908Y-116699500D01*
X80994905Y-116699500D01*
X80840260Y-116730261D01*
X80840248Y-116730264D01*
X80694577Y-116790602D01*
X80694564Y-116790609D01*
X80563461Y-116878210D01*
X80563457Y-116878213D01*
X80451963Y-116989707D01*
X80451960Y-116989711D01*
X80364359Y-117120814D01*
X80364352Y-117120827D01*
X80304014Y-117266498D01*
X80304011Y-117266510D01*
X80273250Y-117421153D01*
X68073750Y-117421153D01*
X68073750Y-104474076D01*
X68093435Y-104407037D01*
X68146239Y-104361282D01*
X68215397Y-104351338D01*
X68241088Y-104357896D01*
X68256371Y-104363597D01*
X68256377Y-104363598D01*
X68315905Y-104369999D01*
X68315922Y-104370000D01*
X68563750Y-104370000D01*
X68563750Y-101870000D01*
X69063750Y-101870000D01*
X69063750Y-104370000D01*
X69205250Y-104370000D01*
X69272289Y-104389685D01*
X69318044Y-104442489D01*
X69329250Y-104494000D01*
X69329250Y-106383198D01*
X69329119Y-106388900D01*
X69328689Y-106398228D01*
X69319249Y-106445688D01*
X69319249Y-106594312D01*
X69319250Y-106594317D01*
X69319250Y-106603302D01*
X69319250Y-110912480D01*
X69299565Y-110979519D01*
X69282931Y-111000161D01*
X69243281Y-111039810D01*
X69243280Y-111039811D01*
X69155272Y-111185393D01*
X69104663Y-111347807D01*
X69098250Y-111418386D01*
X69098250Y-111931613D01*
X69104663Y-112002192D01*
X69104663Y-112002194D01*
X69104664Y-112002196D01*
X69155272Y-112164606D01*
X69196913Y-112233489D01*
X69243280Y-112310188D01*
X69345411Y-112412319D01*
X69378896Y-112473642D01*
X69373912Y-112543334D01*
X69345411Y-112587681D01*
X69243281Y-112689810D01*
X69243280Y-112689811D01*
X69155272Y-112835393D01*
X69104663Y-112997807D01*
X69098250Y-113068386D01*
X69098250Y-113581613D01*
X69104663Y-113652192D01*
X69104663Y-113652194D01*
X69104664Y-113652196D01*
X69155272Y-113814606D01*
X69226007Y-113931616D01*
X69243280Y-113960188D01*
X69363561Y-114080469D01*
X69363563Y-114080470D01*
X69363565Y-114080472D01*
X69386400Y-114094276D01*
X69433587Y-114145801D01*
X69446250Y-114200392D01*
X69446250Y-114460642D01*
X69426565Y-114527681D01*
X69425352Y-114529533D01*
X69364359Y-114620814D01*
X69364352Y-114620827D01*
X69304014Y-114766498D01*
X69304011Y-114766510D01*
X69273250Y-114921153D01*
X69273250Y-115078846D01*
X69304011Y-115233489D01*
X69304014Y-115233501D01*
X69364352Y-115379172D01*
X69364359Y-115379185D01*
X69451960Y-115510288D01*
X69451963Y-115510292D01*
X69563457Y-115621786D01*
X69563461Y-115621789D01*
X69694564Y-115709390D01*
X69694577Y-115709397D01*
X69840248Y-115769735D01*
X69840253Y-115769737D01*
X69994903Y-115800499D01*
X69994906Y-115800500D01*
X69994908Y-115800500D01*
X70152594Y-115800500D01*
X70152595Y-115800499D01*
X70307247Y-115769737D01*
X70452929Y-115709394D01*
X70584039Y-115621789D01*
X70695539Y-115510289D01*
X70783144Y-115379179D01*
X70843487Y-115233497D01*
X70874250Y-115078842D01*
X70874250Y-114921158D01*
X70874250Y-114921155D01*
X70874249Y-114921153D01*
X70843488Y-114766510D01*
X70843487Y-114766503D01*
X70811722Y-114689815D01*
X70783147Y-114620827D01*
X70783140Y-114620814D01*
X70722148Y-114529533D01*
X70701270Y-114462855D01*
X70701250Y-114460642D01*
X70701250Y-114200392D01*
X70720935Y-114133353D01*
X70761099Y-114094276D01*
X70783935Y-114080472D01*
X70904222Y-113960185D01*
X70992228Y-113814606D01*
X71042836Y-113652196D01*
X71049250Y-113581616D01*
X71049250Y-113068384D01*
X71042836Y-112997804D01*
X70992228Y-112835394D01*
X70904222Y-112689815D01*
X70904220Y-112689813D01*
X70904219Y-112689811D01*
X70802089Y-112587681D01*
X70768604Y-112526358D01*
X70773588Y-112456666D01*
X70802089Y-112412319D01*
X70904218Y-112310189D01*
X70904219Y-112310188D01*
X70904222Y-112310185D01*
X70992228Y-112164606D01*
X71042836Y-112002196D01*
X71049250Y-111931616D01*
X71049250Y-111418384D01*
X71042836Y-111347804D01*
X70992228Y-111185394D01*
X70904222Y-111039815D01*
X70904220Y-111039813D01*
X70904219Y-111039811D01*
X70864569Y-111000161D01*
X70831084Y-110938838D01*
X70828250Y-110912480D01*
X70828250Y-108620887D01*
X70847935Y-108553848D01*
X70900739Y-108508093D01*
X70969897Y-108498149D01*
X71033453Y-108527174D01*
X71039931Y-108533206D01*
X73331677Y-110824952D01*
X73358556Y-110865178D01*
X73364353Y-110879172D01*
X73364356Y-110879178D01*
X73364359Y-110879185D01*
X73451960Y-111010288D01*
X73451963Y-111010292D01*
X73563457Y-111121786D01*
X73563461Y-111121789D01*
X73694564Y-111209390D01*
X73694577Y-111209397D01*
X73840248Y-111269735D01*
X73840253Y-111269737D01*
X73994903Y-111300499D01*
X73994906Y-111300500D01*
X73994908Y-111300500D01*
X74152594Y-111300500D01*
X74152595Y-111300499D01*
X74307247Y-111269737D01*
X74452929Y-111209394D01*
X74584039Y-111121789D01*
X74695539Y-111010289D01*
X74783144Y-110879179D01*
X74843487Y-110733497D01*
X74874250Y-110578842D01*
X74874250Y-110421158D01*
X74874250Y-110421155D01*
X74874249Y-110421153D01*
X74843488Y-110266510D01*
X74843487Y-110266503D01*
X74797301Y-110154999D01*
X74783147Y-110120827D01*
X74783140Y-110120814D01*
X74695539Y-109989711D01*
X74695536Y-109989707D01*
X74584042Y-109878213D01*
X74584038Y-109878210D01*
X74452935Y-109790609D01*
X74452930Y-109790607D01*
X74452929Y-109790606D01*
X74438928Y-109784806D01*
X74398702Y-109757927D01*
X71640374Y-106999599D01*
X71606889Y-106938276D01*
X71611873Y-106868584D01*
X71653745Y-106812651D01*
X71703860Y-106790301D01*
X71807247Y-106769737D01*
X71919916Y-106723067D01*
X71952922Y-106709397D01*
X71952922Y-106709396D01*
X71952929Y-106709394D01*
X72084039Y-106621789D01*
X72195539Y-106510289D01*
X72195541Y-106510287D01*
X72283140Y-106379185D01*
X72283140Y-106379184D01*
X72283144Y-106379179D01*
X72343487Y-106233497D01*
X72374250Y-106078842D01*
X72374250Y-105921158D01*
X72374250Y-105921155D01*
X72374249Y-105921153D01*
X72343488Y-105766510D01*
X72343487Y-105766503D01*
X72309250Y-105683846D01*
X72283147Y-105620827D01*
X72283140Y-105620814D01*
X72222148Y-105529533D01*
X72201270Y-105462855D01*
X72201250Y-105460642D01*
X72201250Y-105438196D01*
X72201249Y-105438192D01*
X72177137Y-105316972D01*
X72177136Y-105316965D01*
X72129833Y-105202768D01*
X72129833Y-105202767D01*
X72061161Y-105099992D01*
X72010941Y-105049772D01*
X72005383Y-105042220D01*
X71996515Y-105017841D01*
X71984084Y-104995076D01*
X71982342Y-104978881D01*
X71981498Y-104976559D01*
X71981901Y-104974775D01*
X71981250Y-104968718D01*
X71981250Y-104492996D01*
X72000935Y-104425957D01*
X72053739Y-104380202D01*
X72118507Y-104369707D01*
X72125877Y-104370500D01*
X73121622Y-104370499D01*
X73181233Y-104364091D01*
X73215417Y-104351340D01*
X73285108Y-104346357D01*
X73302077Y-104351338D01*
X73336267Y-104364091D01*
X73395877Y-104370500D01*
X74391622Y-104370499D01*
X74451233Y-104364091D01*
X74485417Y-104351340D01*
X74555108Y-104346357D01*
X74572077Y-104351338D01*
X74606267Y-104364091D01*
X74665877Y-104370500D01*
X75661622Y-104370499D01*
X75721233Y-104364091D01*
X75755417Y-104351340D01*
X75825108Y-104346357D01*
X75842077Y-104351338D01*
X75876267Y-104364091D01*
X75935877Y-104370500D01*
X76931622Y-104370499D01*
X76991233Y-104364091D01*
X77025417Y-104351340D01*
X77095108Y-104346357D01*
X77112077Y-104351338D01*
X77146267Y-104364091D01*
X77205877Y-104370500D01*
X78201622Y-104370499D01*
X78261233Y-104364091D01*
X78295417Y-104351340D01*
X78365108Y-104346357D01*
X78382077Y-104351338D01*
X78416267Y-104364091D01*
X78475877Y-104370500D01*
X79471622Y-104370499D01*
X79531233Y-104364091D01*
X79565417Y-104351340D01*
X79635108Y-104346357D01*
X79652077Y-104351338D01*
X79686267Y-104364091D01*
X79745877Y-104370500D01*
X80741622Y-104370499D01*
X80801233Y-104364091D01*
X80835417Y-104351340D01*
X80905108Y-104346357D01*
X80922077Y-104351338D01*
X80956267Y-104364091D01*
X81015877Y-104370500D01*
X82011622Y-104370499D01*
X82071233Y-104364091D01*
X82105417Y-104351340D01*
X82175108Y-104346357D01*
X82192077Y-104351338D01*
X82226267Y-104364091D01*
X82285877Y-104370500D01*
X83281622Y-104370499D01*
X83341233Y-104364091D01*
X83375417Y-104351340D01*
X83445108Y-104346357D01*
X83462077Y-104351338D01*
X83496267Y-104364091D01*
X83555877Y-104370500D01*
X84551622Y-104370499D01*
X84611233Y-104364091D01*
X84645417Y-104351340D01*
X84715108Y-104346357D01*
X84732077Y-104351338D01*
X84766267Y-104364091D01*
X84825877Y-104370500D01*
X85821622Y-104370499D01*
X85881233Y-104364091D01*
X86016081Y-104313796D01*
X86131296Y-104227546D01*
X86217546Y-104112331D01*
X86267841Y-103977483D01*
X86274250Y-103917873D01*
X86274249Y-102322128D01*
X86267841Y-102262517D01*
X86233896Y-102171507D01*
X86217547Y-102127671D01*
X86217543Y-102127664D01*
X86131297Y-102012455D01*
X86131294Y-102012452D01*
X86016085Y-101926206D01*
X86016078Y-101926202D01*
X85881232Y-101875908D01*
X85881233Y-101875908D01*
X85821633Y-101869501D01*
X85821631Y-101869500D01*
X85821623Y-101869500D01*
X85821614Y-101869500D01*
X84825879Y-101869500D01*
X84825873Y-101869501D01*
X84766268Y-101875908D01*
X84732081Y-101888659D01*
X84662389Y-101893642D01*
X84645419Y-101888659D01*
X84627849Y-101882106D01*
X84611233Y-101875909D01*
X84611232Y-101875908D01*
X84551633Y-101869501D01*
X84551631Y-101869500D01*
X84551623Y-101869500D01*
X84551614Y-101869500D01*
X83555879Y-101869500D01*
X83555873Y-101869501D01*
X83496268Y-101875908D01*
X83462081Y-101888659D01*
X83392389Y-101893642D01*
X83375419Y-101888659D01*
X83357849Y-101882106D01*
X83341233Y-101875909D01*
X83341232Y-101875908D01*
X83281633Y-101869501D01*
X83281631Y-101869500D01*
X83281623Y-101869500D01*
X83281614Y-101869500D01*
X82285879Y-101869500D01*
X82285873Y-101869501D01*
X82226268Y-101875908D01*
X82192081Y-101888659D01*
X82122389Y-101893642D01*
X82105419Y-101888659D01*
X82087849Y-101882106D01*
X82071233Y-101875909D01*
X82071232Y-101875908D01*
X82011633Y-101869501D01*
X82011631Y-101869500D01*
X82011623Y-101869500D01*
X82011614Y-101869500D01*
X81015879Y-101869500D01*
X81015873Y-101869501D01*
X80956268Y-101875908D01*
X80922081Y-101888659D01*
X80852389Y-101893642D01*
X80835419Y-101888659D01*
X80817849Y-101882106D01*
X80801233Y-101875909D01*
X80801232Y-101875908D01*
X80741633Y-101869501D01*
X80741631Y-101869500D01*
X80741623Y-101869500D01*
X80741614Y-101869500D01*
X79745879Y-101869500D01*
X79745873Y-101869501D01*
X79686268Y-101875908D01*
X79652081Y-101888659D01*
X79582389Y-101893642D01*
X79565419Y-101888659D01*
X79547849Y-101882106D01*
X79531233Y-101875909D01*
X79531232Y-101875908D01*
X79471633Y-101869501D01*
X79471631Y-101869500D01*
X79471623Y-101869500D01*
X79471614Y-101869500D01*
X78475879Y-101869500D01*
X78475873Y-101869501D01*
X78416268Y-101875908D01*
X78382081Y-101888659D01*
X78312389Y-101893642D01*
X78295419Y-101888659D01*
X78277849Y-101882106D01*
X78261233Y-101875909D01*
X78261232Y-101875908D01*
X78201633Y-101869501D01*
X78201631Y-101869500D01*
X78201623Y-101869500D01*
X78201614Y-101869500D01*
X77205879Y-101869500D01*
X77205873Y-101869501D01*
X77146268Y-101875908D01*
X77112081Y-101888659D01*
X77042389Y-101893642D01*
X77025419Y-101888659D01*
X77007849Y-101882106D01*
X76991233Y-101875909D01*
X76991232Y-101875908D01*
X76931633Y-101869501D01*
X76931631Y-101869500D01*
X76931623Y-101869500D01*
X76931614Y-101869500D01*
X75935879Y-101869500D01*
X75935873Y-101869501D01*
X75876268Y-101875908D01*
X75842081Y-101888659D01*
X75772389Y-101893642D01*
X75755419Y-101888659D01*
X75737849Y-101882106D01*
X75721233Y-101875909D01*
X75721232Y-101875908D01*
X75661633Y-101869501D01*
X75661631Y-101869500D01*
X75661623Y-101869500D01*
X75661614Y-101869500D01*
X74665879Y-101869500D01*
X74665873Y-101869501D01*
X74606268Y-101875908D01*
X74572081Y-101888659D01*
X74502389Y-101893642D01*
X74485419Y-101888659D01*
X74467849Y-101882106D01*
X74451233Y-101875909D01*
X74451232Y-101875908D01*
X74391633Y-101869501D01*
X74391631Y-101869500D01*
X74391623Y-101869500D01*
X74391614Y-101869500D01*
X73395879Y-101869500D01*
X73395873Y-101869501D01*
X73336268Y-101875908D01*
X73302081Y-101888659D01*
X73232389Y-101893642D01*
X73215419Y-101888659D01*
X73197849Y-101882106D01*
X73181233Y-101875909D01*
X73181232Y-101875908D01*
X73121633Y-101869501D01*
X73121631Y-101869500D01*
X73121623Y-101869500D01*
X73121614Y-101869500D01*
X72125879Y-101869500D01*
X72125873Y-101869501D01*
X72066268Y-101875908D01*
X72032081Y-101888659D01*
X71962389Y-101893642D01*
X71945419Y-101888659D01*
X71927849Y-101882106D01*
X71911233Y-101875909D01*
X71911232Y-101875908D01*
X71851633Y-101869501D01*
X71851631Y-101869500D01*
X71851623Y-101869500D01*
X71851614Y-101869500D01*
X70855879Y-101869500D01*
X70855873Y-101869501D01*
X70796268Y-101875908D01*
X70762081Y-101888659D01*
X70692389Y-101893642D01*
X70675419Y-101888659D01*
X70657849Y-101882106D01*
X70641233Y-101875909D01*
X70641232Y-101875908D01*
X70581633Y-101869501D01*
X70581631Y-101869500D01*
X70581623Y-101869500D01*
X70581614Y-101869500D01*
X69585879Y-101869500D01*
X69585873Y-101869501D01*
X69526270Y-101875908D01*
X69526267Y-101875908D01*
X69526267Y-101875909D01*
X69491370Y-101888925D01*
X69491367Y-101888926D01*
X69421675Y-101893909D01*
X69404702Y-101888925D01*
X69371129Y-101876403D01*
X69371122Y-101876401D01*
X69311594Y-101870000D01*
X69063750Y-101870000D01*
X68563750Y-101870000D01*
X68315905Y-101870000D01*
X68256377Y-101876401D01*
X68256371Y-101876402D01*
X68241079Y-101882106D01*
X68171387Y-101887087D01*
X68110065Y-101853600D01*
X68076583Y-101792275D01*
X68073750Y-101765922D01*
X68073750Y-100577844D01*
X85323750Y-100577844D01*
X85330151Y-100637372D01*
X85330153Y-100637379D01*
X85380395Y-100772086D01*
X85380399Y-100772093D01*
X85466559Y-100887187D01*
X85466562Y-100887190D01*
X85581656Y-100973350D01*
X85581663Y-100973354D01*
X85716370Y-101023596D01*
X85716377Y-101023598D01*
X85775905Y-101029999D01*
X85775922Y-101030000D01*
X86323750Y-101030000D01*
X86823750Y-101030000D01*
X87371578Y-101030000D01*
X87371594Y-101029999D01*
X87431122Y-101023598D01*
X87431129Y-101023596D01*
X87565836Y-100973354D01*
X87565843Y-100973350D01*
X87680937Y-100887190D01*
X87680940Y-100887187D01*
X87767100Y-100772093D01*
X87767104Y-100772086D01*
X87817346Y-100637379D01*
X87817348Y-100637372D01*
X87823749Y-100577844D01*
X87823750Y-100577827D01*
X87823750Y-100330000D01*
X86823750Y-100330000D01*
X86823750Y-101030000D01*
X86323750Y-101030000D01*
X86323750Y-100330000D01*
X85323750Y-100330000D01*
X85323750Y-100577844D01*
X68073750Y-100577844D01*
X68073750Y-97767844D01*
X74183750Y-97767844D01*
X74190151Y-97827372D01*
X74190153Y-97827379D01*
X74240395Y-97962086D01*
X74240399Y-97962093D01*
X74326559Y-98077187D01*
X74326562Y-98077190D01*
X74441656Y-98163350D01*
X74441663Y-98163354D01*
X74576370Y-98213596D01*
X74576377Y-98213598D01*
X74635905Y-98219999D01*
X74635922Y-98220000D01*
X74883750Y-98220000D01*
X75383750Y-98220000D01*
X75631578Y-98220000D01*
X75631594Y-98219999D01*
X75691122Y-98213598D01*
X75691126Y-98213597D01*
X75790416Y-98176564D01*
X75860108Y-98171580D01*
X75877084Y-98176564D01*
X75976373Y-98213597D01*
X75976377Y-98213598D01*
X76035905Y-98219999D01*
X76035922Y-98220000D01*
X76283750Y-98220000D01*
X76783750Y-98220000D01*
X77031578Y-98220000D01*
X77031594Y-98219999D01*
X77091122Y-98213598D01*
X77091126Y-98213597D01*
X77190416Y-98176564D01*
X77260108Y-98171580D01*
X77277084Y-98176564D01*
X77376373Y-98213597D01*
X77376377Y-98213598D01*
X77435905Y-98219999D01*
X77435922Y-98220000D01*
X77683750Y-98220000D01*
X78183750Y-98220000D01*
X78431578Y-98220000D01*
X78431594Y-98219999D01*
X78491122Y-98213598D01*
X78491129Y-98213596D01*
X78625836Y-98163354D01*
X78625843Y-98163350D01*
X78740937Y-98077190D01*
X78740940Y-98077187D01*
X78827100Y-97962093D01*
X78827104Y-97962086D01*
X78877346Y-97827379D01*
X78877348Y-97827372D01*
X78883749Y-97767844D01*
X78883750Y-97767827D01*
X78883750Y-97520000D01*
X78183750Y-97520000D01*
X78183750Y-98220000D01*
X77683750Y-98220000D01*
X77683750Y-97520000D01*
X76783750Y-97520000D01*
X76783750Y-98220000D01*
X76283750Y-98220000D01*
X76283750Y-97520000D01*
X75383750Y-97520000D01*
X75383750Y-98220000D01*
X74883750Y-98220000D01*
X74883750Y-97520000D01*
X74183750Y-97520000D01*
X74183750Y-97767844D01*
X68073750Y-97767844D01*
X68073750Y-96367844D01*
X74183750Y-96367844D01*
X74190151Y-96427372D01*
X74190153Y-96427383D01*
X74227184Y-96526668D01*
X74232168Y-96596360D01*
X74227184Y-96613332D01*
X74190153Y-96712616D01*
X74190151Y-96712627D01*
X74183750Y-96772155D01*
X74183750Y-97020000D01*
X74883750Y-97020000D01*
X75383750Y-97020000D01*
X76283750Y-97020000D01*
X76783750Y-97020000D01*
X77683750Y-97020000D01*
X78183750Y-97020000D01*
X78883750Y-97020000D01*
X78883750Y-96772172D01*
X78883749Y-96772155D01*
X78877348Y-96712627D01*
X78877347Y-96712623D01*
X78840314Y-96613334D01*
X78835330Y-96543642D01*
X78840314Y-96526666D01*
X78877347Y-96427376D01*
X78877348Y-96427372D01*
X78883749Y-96367844D01*
X78883750Y-96367827D01*
X78883750Y-96120000D01*
X78183750Y-96120000D01*
X78183750Y-97020000D01*
X77683750Y-97020000D01*
X77683750Y-96120000D01*
X76783750Y-96120000D01*
X76783750Y-97020000D01*
X76283750Y-97020000D01*
X76283750Y-96120000D01*
X75383750Y-96120000D01*
X75383750Y-97020000D01*
X74883750Y-97020000D01*
X74883750Y-96120000D01*
X74183750Y-96120000D01*
X74183750Y-96367844D01*
X68073750Y-96367844D01*
X68073750Y-94967844D01*
X74183750Y-94967844D01*
X74190151Y-95027372D01*
X74190153Y-95027383D01*
X74227184Y-95126668D01*
X74232168Y-95196360D01*
X74227184Y-95213332D01*
X74190153Y-95312616D01*
X74190151Y-95312627D01*
X74183750Y-95372155D01*
X74183750Y-95620000D01*
X74883750Y-95620000D01*
X75383750Y-95620000D01*
X76283750Y-95620000D01*
X76783750Y-95620000D01*
X77683750Y-95620000D01*
X78183750Y-95620000D01*
X78883750Y-95620000D01*
X78883750Y-95372172D01*
X78883749Y-95372155D01*
X78877348Y-95312627D01*
X78877347Y-95312623D01*
X78840314Y-95213334D01*
X78835330Y-95143642D01*
X78840314Y-95126666D01*
X78877347Y-95027376D01*
X78877348Y-95027372D01*
X78883749Y-94967844D01*
X78883750Y-94967827D01*
X78883750Y-94720000D01*
X78183750Y-94720000D01*
X78183750Y-95620000D01*
X77683750Y-95620000D01*
X77683750Y-94720000D01*
X76783750Y-94720000D01*
X76783750Y-95620000D01*
X76283750Y-95620000D01*
X76283750Y-94720000D01*
X75383750Y-94720000D01*
X75383750Y-95620000D01*
X74883750Y-95620000D01*
X74883750Y-94720000D01*
X74183750Y-94720000D01*
X74183750Y-94967844D01*
X68073750Y-94967844D01*
X68073750Y-93972155D01*
X74183750Y-93972155D01*
X74183750Y-94220000D01*
X74883750Y-94220000D01*
X75383750Y-94220000D01*
X76283750Y-94220000D01*
X76783750Y-94220000D01*
X77683750Y-94220000D01*
X78183750Y-94220000D01*
X78883750Y-94220000D01*
X78883750Y-93972172D01*
X78883749Y-93972155D01*
X78877348Y-93912627D01*
X78877346Y-93912620D01*
X78827104Y-93777913D01*
X78827100Y-93777906D01*
X78740940Y-93662812D01*
X78740937Y-93662809D01*
X78625843Y-93576649D01*
X78625836Y-93576645D01*
X78491129Y-93526403D01*
X78491122Y-93526401D01*
X78431594Y-93520000D01*
X78183750Y-93520000D01*
X78183750Y-94220000D01*
X77683750Y-94220000D01*
X77683750Y-93520000D01*
X77435905Y-93520000D01*
X77376377Y-93526401D01*
X77376366Y-93526403D01*
X77277082Y-93563434D01*
X77207390Y-93568418D01*
X77190418Y-93563434D01*
X77091133Y-93526403D01*
X77091122Y-93526401D01*
X77031594Y-93520000D01*
X76783750Y-93520000D01*
X76783750Y-94220000D01*
X76283750Y-94220000D01*
X76283750Y-93520000D01*
X76035905Y-93520000D01*
X75976377Y-93526401D01*
X75976366Y-93526403D01*
X75877082Y-93563434D01*
X75807390Y-93568418D01*
X75790418Y-93563434D01*
X75691133Y-93526403D01*
X75691122Y-93526401D01*
X75631594Y-93520000D01*
X75383750Y-93520000D01*
X75383750Y-94220000D01*
X74883750Y-94220000D01*
X74883750Y-93520000D01*
X74635905Y-93520000D01*
X74576377Y-93526401D01*
X74576370Y-93526403D01*
X74441663Y-93576645D01*
X74441656Y-93576649D01*
X74326562Y-93662809D01*
X74326559Y-93662812D01*
X74240399Y-93777906D01*
X74240395Y-93777913D01*
X74190153Y-93912620D01*
X74190151Y-93912627D01*
X74183750Y-93972155D01*
X68073750Y-93972155D01*
X68073750Y-86974076D01*
X68093435Y-86907037D01*
X68146239Y-86861282D01*
X68215397Y-86851338D01*
X68241088Y-86857896D01*
X68256371Y-86863597D01*
X68256377Y-86863598D01*
X68315905Y-86869999D01*
X68315922Y-86870000D01*
X68563750Y-86870000D01*
X68563750Y-84370000D01*
X68315905Y-84370000D01*
X68256377Y-84376401D01*
X68256371Y-84376402D01*
X68241079Y-84382106D01*
X68171387Y-84387087D01*
X68110065Y-84353600D01*
X68076583Y-84292275D01*
X68073750Y-84265922D01*
X68073750Y-61257135D01*
X90223250Y-61257135D01*
X90223250Y-63052870D01*
X90223251Y-63052876D01*
X90229658Y-63112483D01*
X90279952Y-63247328D01*
X90279956Y-63247335D01*
X90366202Y-63362544D01*
X90366205Y-63362547D01*
X90481414Y-63448793D01*
X90481421Y-63448797D01*
X90526368Y-63465561D01*
X90616267Y-63499091D01*
X90675877Y-63505500D01*
X90686435Y-63505499D01*
X90753473Y-63525179D01*
X90774122Y-63541818D01*
X91444341Y-64212037D01*
X91380757Y-64229075D01*
X91266743Y-64294901D01*
X91173651Y-64387993D01*
X91107825Y-64502007D01*
X91090787Y-64565591D01*
X90458478Y-63933282D01*
X90458477Y-63933282D01*
X90419130Y-63987439D01*
X90322654Y-64176782D01*
X90256992Y-64378869D01*
X90256992Y-64378872D01*
X90223750Y-64588753D01*
X90223750Y-64801246D01*
X90256992Y-65011127D01*
X90256992Y-65011130D01*
X90322654Y-65213217D01*
X90419125Y-65402550D01*
X90458478Y-65456716D01*
X91090787Y-64824408D01*
X91107825Y-64887993D01*
X91173651Y-65002007D01*
X91266743Y-65095099D01*
X91380757Y-65160925D01*
X91444340Y-65177962D01*
X90812032Y-65810269D01*
X90812032Y-65810270D01*
X90866199Y-65849624D01*
X91055532Y-65946095D01*
X91257620Y-66011757D01*
X91467504Y-66045000D01*
X91679996Y-66045000D01*
X91889877Y-66011757D01*
X91889880Y-66011757D01*
X92091967Y-65946095D01*
X92281304Y-65849622D01*
X92335466Y-65810270D01*
X92335467Y-65810270D01*
X91703158Y-65177962D01*
X91766743Y-65160925D01*
X91880757Y-65095099D01*
X91973849Y-65002007D01*
X92039675Y-64887993D01*
X92056712Y-64824408D01*
X92689020Y-65456717D01*
X92689020Y-65456716D01*
X92728372Y-65402554D01*
X92824845Y-65213217D01*
X92890507Y-65011130D01*
X92890507Y-65011127D01*
X92923750Y-64801246D01*
X92923750Y-64588753D01*
X92890507Y-64378872D01*
X92890507Y-64378869D01*
X92824845Y-64176782D01*
X92728374Y-63987449D01*
X92689020Y-63933282D01*
X92689019Y-63933282D01*
X92056712Y-64565590D01*
X92039675Y-64502007D01*
X91973849Y-64387993D01*
X91880757Y-64294901D01*
X91766743Y-64229075D01*
X91703159Y-64212037D01*
X92373377Y-63541818D01*
X92434700Y-63508333D01*
X92461057Y-63505499D01*
X92471622Y-63505499D01*
X92531233Y-63499091D01*
X92666081Y-63448796D01*
X92781296Y-63362546D01*
X92867546Y-63247331D01*
X92912364Y-63127166D01*
X92954235Y-63071234D01*
X93019699Y-63046816D01*
X93028546Y-63046500D01*
X100493992Y-63046500D01*
X100523432Y-63055144D01*
X100553419Y-63061668D01*
X100558434Y-63065422D01*
X100561031Y-63066185D01*
X100581673Y-63082819D01*
X100657180Y-63158326D01*
X100690665Y-63219649D01*
X100685681Y-63289341D01*
X100643809Y-63345274D01*
X100612833Y-63362189D01*
X100481419Y-63411203D01*
X100481414Y-63411206D01*
X100366205Y-63497452D01*
X100366202Y-63497455D01*
X100279956Y-63612664D01*
X100279952Y-63612671D01*
X100229658Y-63747517D01*
X100223251Y-63807116D01*
X100223250Y-63807135D01*
X100223250Y-65602870D01*
X100223251Y-65602876D01*
X100229658Y-65662483D01*
X100279952Y-65797328D01*
X100279956Y-65797335D01*
X100366202Y-65912544D01*
X100366205Y-65912547D01*
X100481414Y-65998793D01*
X100481421Y-65998797D01*
X100616267Y-66049091D01*
X100616266Y-66049091D01*
X100623194Y-66049835D01*
X100675877Y-66055500D01*
X102471622Y-66055499D01*
X102531233Y-66049091D01*
X102666081Y-65998796D01*
X102781296Y-65912546D01*
X102867546Y-65797331D01*
X102917841Y-65662483D01*
X102917840Y-65662483D01*
X102919824Y-65657167D01*
X102961695Y-65601233D01*
X103027159Y-65576816D01*
X103036006Y-65576500D01*
X110493992Y-65576500D01*
X110561031Y-65596185D01*
X110581673Y-65612819D01*
X110693963Y-65725109D01*
X110865929Y-65850048D01*
X110865931Y-65850049D01*
X110865934Y-65850051D01*
X111055338Y-65946557D01*
X111257507Y-66012246D01*
X111467463Y-66045500D01*
X111467464Y-66045500D01*
X111680036Y-66045500D01*
X111680037Y-66045500D01*
X111889993Y-66012246D01*
X112092162Y-65946557D01*
X112281566Y-65850051D01*
X112354124Y-65797335D01*
X112453536Y-65725109D01*
X112453538Y-65725106D01*
X112453542Y-65725104D01*
X112603854Y-65574792D01*
X112603856Y-65574788D01*
X112603859Y-65574786D01*
X112728798Y-65402820D01*
X112728797Y-65402820D01*
X112728801Y-65402816D01*
X112825307Y-65213412D01*
X112890996Y-65011243D01*
X112924250Y-64801287D01*
X112924250Y-64588713D01*
X112890996Y-64378757D01*
X112825307Y-64176588D01*
X112728801Y-63987184D01*
X112728799Y-63987181D01*
X112728798Y-63987179D01*
X112603859Y-63815213D01*
X112490319Y-63701673D01*
X112456834Y-63640350D01*
X112461818Y-63570658D01*
X112503690Y-63514725D01*
X112534665Y-63497810D01*
X112666081Y-63448796D01*
X112781296Y-63362546D01*
X112867546Y-63247331D01*
X112916094Y-63117167D01*
X112957965Y-63061233D01*
X113023429Y-63036816D01*
X113032276Y-63036500D01*
X118492258Y-63036500D01*
X118559297Y-63056185D01*
X118579939Y-63072819D01*
X125976931Y-70469810D01*
X126010416Y-70531133D01*
X126013250Y-70557491D01*
X126013250Y-71340001D01*
X126013251Y-71340019D01*
X126023750Y-71442796D01*
X126023751Y-71442799D01*
X126078935Y-71609331D01*
X126078936Y-71609334D01*
X126171038Y-71758656D01*
X126295094Y-71882712D01*
X126444416Y-71974814D01*
X126610953Y-72029999D01*
X126713741Y-72040500D01*
X127433758Y-72040499D01*
X127433766Y-72040498D01*
X127433769Y-72040498D01*
X127490052Y-72034748D01*
X127536547Y-72029999D01*
X127703084Y-71974814D01*
X127852406Y-71882712D01*
X127976462Y-71758656D01*
X128068564Y-71609334D01*
X128123749Y-71442797D01*
X128134250Y-71340009D01*
X128134249Y-69299992D01*
X128123749Y-69197203D01*
X128068564Y-69030666D01*
X127976462Y-68881344D01*
X127852406Y-68757288D01*
X127703084Y-68665186D01*
X127536547Y-68610001D01*
X127536545Y-68610000D01*
X127433760Y-68599500D01*
X126713748Y-68599500D01*
X126713730Y-68599501D01*
X126669050Y-68604066D01*
X126600357Y-68591296D01*
X126568768Y-68568389D01*
X119470677Y-61470296D01*
X119470676Y-61470295D01*
X119326293Y-61373822D01*
X119165878Y-61307377D01*
X119165868Y-61307374D01*
X118995573Y-61273500D01*
X118995571Y-61273500D01*
X118995570Y-61273500D01*
X113032276Y-61273500D01*
X112965237Y-61253815D01*
X112919482Y-61201011D01*
X112916094Y-61192833D01*
X112867547Y-61062671D01*
X112867543Y-61062664D01*
X112781297Y-60947455D01*
X112781294Y-60947452D01*
X112666085Y-60861206D01*
X112666078Y-60861202D01*
X112531232Y-60810908D01*
X112531233Y-60810908D01*
X112471633Y-60804501D01*
X112471631Y-60804500D01*
X112471623Y-60804500D01*
X112471614Y-60804500D01*
X110675879Y-60804500D01*
X110675873Y-60804501D01*
X110616266Y-60810908D01*
X110481421Y-60861202D01*
X110481414Y-60861206D01*
X110366205Y-60947452D01*
X110366202Y-60947455D01*
X110279956Y-61062664D01*
X110279952Y-61062671D01*
X110229658Y-61197517D01*
X110223251Y-61257116D01*
X110223250Y-61257135D01*
X110223250Y-63052870D01*
X110223251Y-63052876D01*
X110229658Y-63112483D01*
X110279952Y-63247328D01*
X110279956Y-63247335D01*
X110366202Y-63362544D01*
X110366205Y-63362547D01*
X110481414Y-63448793D01*
X110481421Y-63448797D01*
X110612832Y-63497810D01*
X110668766Y-63539681D01*
X110693183Y-63605145D01*
X110678332Y-63673418D01*
X110657181Y-63701673D01*
X110581671Y-63777182D01*
X110520351Y-63810666D01*
X110493992Y-63813500D01*
X103028546Y-63813500D01*
X102961507Y-63793815D01*
X102915752Y-63741011D01*
X102912364Y-63732833D01*
X102867547Y-63612671D01*
X102867543Y-63612664D01*
X102781297Y-63497455D01*
X102781294Y-63497452D01*
X102666085Y-63411206D01*
X102666078Y-63411202D01*
X102534667Y-63362189D01*
X102478733Y-63320318D01*
X102454316Y-63254853D01*
X102469168Y-63186580D01*
X102490313Y-63158332D01*
X102603854Y-63044792D01*
X102609879Y-63036500D01*
X102728798Y-62872820D01*
X102728797Y-62872820D01*
X102728801Y-62872816D01*
X102825307Y-62683412D01*
X102890996Y-62481243D01*
X102924250Y-62271287D01*
X102924250Y-62058713D01*
X102890996Y-61848757D01*
X102825307Y-61646588D01*
X102728801Y-61457184D01*
X102728799Y-61457181D01*
X102728798Y-61457179D01*
X102603859Y-61285213D01*
X102453536Y-61134890D01*
X102281570Y-61009951D01*
X102092164Y-60913444D01*
X102092163Y-60913443D01*
X102092162Y-60913443D01*
X101889993Y-60847754D01*
X101889991Y-60847753D01*
X101889990Y-60847753D01*
X101728707Y-60822208D01*
X101680037Y-60814500D01*
X101467463Y-60814500D01*
X101418792Y-60822208D01*
X101257510Y-60847753D01*
X101055335Y-60913444D01*
X100865929Y-61009951D01*
X100693963Y-61134890D01*
X100693959Y-61134894D01*
X100581673Y-61247181D01*
X100520350Y-61280666D01*
X100493992Y-61283500D01*
X93036006Y-61283500D01*
X92968967Y-61263815D01*
X92923212Y-61211011D01*
X92919824Y-61202833D01*
X92867547Y-61062671D01*
X92867543Y-61062664D01*
X92781297Y-60947455D01*
X92781294Y-60947452D01*
X92666085Y-60861206D01*
X92666078Y-60861202D01*
X92531232Y-60810908D01*
X92531233Y-60810908D01*
X92471633Y-60804501D01*
X92471631Y-60804500D01*
X92471623Y-60804500D01*
X92471614Y-60804500D01*
X90675879Y-60804500D01*
X90675873Y-60804501D01*
X90616266Y-60810908D01*
X90481421Y-60861202D01*
X90481414Y-60861206D01*
X90366205Y-60947452D01*
X90366202Y-60947455D01*
X90279956Y-61062664D01*
X90279952Y-61062671D01*
X90229658Y-61197517D01*
X90223251Y-61257116D01*
X90223250Y-61257135D01*
X68073750Y-61257135D01*
X68073750Y-57624000D01*
X68093435Y-57556961D01*
X68146239Y-57511206D01*
X68197750Y-57500000D01*
X130949250Y-57500000D01*
X131016289Y-57519685D01*
G37*
%TD.AperFunction*%
%TA.AperFunction,Conductor*%
G36*
X115449753Y-125721604D02*
G01*
X115469158Y-125737433D01*
X115744043Y-126012318D01*
X115777528Y-126073641D01*
X115772544Y-126143333D01*
X115744043Y-126187680D01*
X115469158Y-126462565D01*
X115407835Y-126496050D01*
X115338143Y-126491066D01*
X115282210Y-126449194D01*
X115257793Y-126383730D01*
X115258538Y-126358698D01*
X115258792Y-126356765D01*
X115258794Y-126356762D01*
X115274250Y-126239361D01*
X115274249Y-125960640D01*
X115274248Y-125960636D01*
X115266089Y-125898653D01*
X115258794Y-125843238D01*
X115258792Y-125843235D01*
X115258538Y-125841299D01*
X115269304Y-125772264D01*
X115315684Y-125720008D01*
X115382953Y-125701123D01*
X115449753Y-125721604D01*
G37*
%TD.AperFunction*%
%TD*%
M02*
