%TF.GenerationSoftware,KiCad,Pcbnew,9.0.7*%
%TF.CreationDate,2026-04-05T23:58:25-05:00*%
%TF.ProjectId,audio_and_power,61756469-6f5f-4616-9e64-5f706f776572,rev?*%
%TF.SameCoordinates,Original*%
%TF.FileFunction,Copper,L2,Bot*%
%TF.FilePolarity,Positive*%
%FSLAX46Y46*%
G04 Gerber Fmt 4.6, Leading zero omitted, Abs format (unit mm)*
G04 Created by KiCad (PCBNEW 9.0.7) date 2026-04-05 23:58:25*
%MOMM*%
%LPD*%
G01*
G04 APERTURE LIST*
%TA.AperFunction,ComponentPad*%
%ADD10R,1.700000X1.700000*%
%TD*%
%TA.AperFunction,ComponentPad*%
%ADD11C,1.700000*%
%TD*%
%TA.AperFunction,HeatsinkPad*%
%ADD12C,0.600000*%
%TD*%
%TA.AperFunction,ComponentPad*%
%ADD13R,1.905000X2.000000*%
%TD*%
%TA.AperFunction,ComponentPad*%
%ADD14O,1.905000X2.000000*%
%TD*%
%TA.AperFunction,ViaPad*%
%ADD15C,0.600000*%
%TD*%
%TA.AperFunction,Conductor*%
%ADD16C,0.254000*%
%TD*%
%TA.AperFunction,Conductor*%
%ADD17C,0.508000*%
%TD*%
G04 APERTURE END LIST*
D10*
%TO.P,J6,1,Pin_1*%
%TO.N,/DVDD_3V3*%
X108423750Y-138500000D03*
D11*
%TO.P,J6,2,Pin_2*%
%TO.N,/DGND*%
X105883750Y-138500000D03*
%TO.P,J6,3,Pin_3*%
%TO.N,/TXD0*%
X103343750Y-138500000D03*
%TO.P,J6,4,Pin_4*%
%TO.N,/RXD0*%
X100803750Y-138500000D03*
%TO.P,J6,5,Pin_5*%
%TO.N,/EN*%
X98263750Y-138500000D03*
%TO.P,J6,6,Pin_6*%
%TO.N,/IO0*%
X95723750Y-138500000D03*
%TD*%
D10*
%TO.P,BT3,1,+*%
%TO.N,/VBAT*%
X113500000Y-76030000D03*
D11*
%TO.P,BT3,2,-*%
%TO.N,Net-(BT2-+)*%
X113500000Y-78570000D03*
%TD*%
D12*
%TO.P,U2,39,GND*%
%TO.N,/DGND*%
X75833750Y-97270000D03*
X77933750Y-96570000D03*
X76563750Y-95870000D03*
X75133750Y-95170000D03*
X77233750Y-94470000D03*
%TD*%
D13*
%TO.P,U8,1,GND*%
%TO.N,/DGND*%
X103460000Y-105230000D03*
D14*
%TO.P,U8,2,VO*%
%TO.N,/DVDD_3V3*%
X106000000Y-105230000D03*
%TO.P,U8,3,VI*%
%TO.N,/VBAT_PROT*%
X108540000Y-105230000D03*
%TD*%
D10*
%TO.P,BT1,1,+*%
%TO.N,Net-(BT1-+)*%
X93500000Y-76030000D03*
D11*
%TO.P,BT1,2,-*%
%TO.N,/DGND*%
X93500000Y-78570000D03*
%TD*%
D10*
%TO.P,BT2,1,+*%
%TO.N,Net-(BT2-+)*%
X103500000Y-78580000D03*
D11*
%TO.P,BT2,2,-*%
%TO.N,Net-(BT1-+)*%
X103500000Y-76040000D03*
%TD*%
D10*
%TO.P,J5,1,Pin_1*%
%TO.N,/DGND*%
X87383750Y-138500000D03*
D11*
%TO.P,J5,2,Pin_2*%
%TO.N,/TX*%
X84843750Y-138500000D03*
%TO.P,J5,3,Pin_3*%
%TO.N,/RX*%
X82303750Y-138500000D03*
%TD*%
D10*
%TO.P,LS1,1,1*%
%TO.N,Net-(U7-OUT-)*%
X126573750Y-124500000D03*
D11*
%TO.P,LS1,2,2*%
%TO.N,Net-(U7-OUT+)*%
X126573750Y-127040000D03*
%TD*%
D15*
%TO.N,/DGND*%
X116606909Y-124741841D03*
X115540591Y-125808159D03*
%TO.N,/DVDD_3V3*%
X87073750Y-118000000D03*
X81073750Y-117500000D03*
X99481250Y-119275000D03*
X74073750Y-110500000D03*
%TO.N,/EN*%
X71573750Y-106000000D03*
X70073750Y-115000000D03*
X80073750Y-129000000D03*
%TO.N,/TX*%
X82573750Y-87500000D03*
X82073750Y-131000000D03*
%TO.N,/RX*%
X81573750Y-87500000D03*
X81073750Y-131000000D03*
%TO.N,/IO0*%
X83573750Y-130000000D03*
X84073750Y-87500000D03*
X87073750Y-112000000D03*
%TO.N,/RXD0*%
X80073750Y-128000000D03*
X72446750Y-90000000D03*
%TO.N,/TXD0*%
X73073750Y-88000000D03*
X80073750Y-127000000D03*
%TO.N,/SCK*%
X79573750Y-79500000D03*
X79073750Y-81500000D03*
%TO.N,/CS*%
X80573750Y-81500000D03*
X80573750Y-78500000D03*
%TD*%
D16*
%TO.N,/DGND*%
X116606909Y-124741841D02*
X115540591Y-125808159D01*
D17*
%TO.N,/DVDD_3V3*%
X88348750Y-119275000D02*
X99481250Y-119275000D01*
X81073750Y-117500000D02*
X74073750Y-110500000D01*
X87073750Y-118000000D02*
X88348750Y-119275000D01*
D16*
%TO.N,/EN*%
X71573750Y-116500000D02*
X71573750Y-106000000D01*
X71573750Y-120500000D02*
X71573750Y-116500000D01*
X71573750Y-116500000D02*
X70073750Y-115000000D01*
X80073750Y-129000000D02*
X71573750Y-120500000D01*
%TO.N,/TX*%
X82573750Y-130500000D02*
X82073750Y-131000000D01*
X82573750Y-87500000D02*
X82573750Y-130500000D01*
%TO.N,/RX*%
X81073750Y-131000000D02*
X82118750Y-129955000D01*
X82118750Y-129955000D02*
X82118750Y-88045000D01*
X82118750Y-88045000D02*
X81573750Y-87500000D01*
%TO.N,/IO0*%
X83073750Y-129500000D02*
X83073750Y-111500000D01*
X83073750Y-88500000D02*
X84073750Y-87500000D01*
X86573750Y-111500000D02*
X87073750Y-112000000D01*
X83573750Y-130000000D02*
X83073750Y-129500000D01*
X83073750Y-111500000D02*
X83073750Y-88500000D01*
X83073750Y-111500000D02*
X86573750Y-111500000D01*
%TO.N,/RXD0*%
X72201750Y-120128000D02*
X72201750Y-90128000D01*
X72201750Y-90128000D02*
X72329750Y-90000000D01*
X80073750Y-128000000D02*
X72201750Y-120128000D01*
X72329750Y-90000000D02*
X72446750Y-90000000D01*
%TO.N,/TXD0*%
X80073750Y-127000000D02*
X73073750Y-120000000D01*
X73073750Y-120000000D02*
X73073750Y-88000000D01*
%TO.N,/SCK*%
X79073750Y-80000000D02*
X79073750Y-81500000D01*
X79573750Y-79500000D02*
X79073750Y-80000000D01*
%TO.N,/CS*%
X80573750Y-78500000D02*
X80573750Y-81500000D01*
%TD*%
%TA.AperFunction,Conductor*%
%TO.N,/DGND*%
G36*
X131016289Y-72519685D02*
G01*
X131062044Y-72572489D01*
X131073250Y-72624000D01*
X131073250Y-143876000D01*
X131053565Y-143943039D01*
X131000761Y-143988794D01*
X130949250Y-144000000D01*
X46698250Y-144000000D01*
X46631211Y-143980315D01*
X46585456Y-143927511D01*
X46574250Y-143876000D01*
X46574250Y-138393713D01*
X80953250Y-138393713D01*
X80953250Y-138606286D01*
X80986503Y-138816239D01*
X81052194Y-139018414D01*
X81148701Y-139207820D01*
X81273640Y-139379786D01*
X81423963Y-139530109D01*
X81595929Y-139655048D01*
X81595931Y-139655049D01*
X81595934Y-139655051D01*
X81785338Y-139751557D01*
X81987507Y-139817246D01*
X82197463Y-139850500D01*
X82197464Y-139850500D01*
X82410036Y-139850500D01*
X82410037Y-139850500D01*
X82619993Y-139817246D01*
X82822162Y-139751557D01*
X83011566Y-139655051D01*
X83097888Y-139592335D01*
X83183536Y-139530109D01*
X83183538Y-139530106D01*
X83183542Y-139530104D01*
X83333854Y-139379792D01*
X83333856Y-139379788D01*
X83333859Y-139379786D01*
X83458798Y-139207820D01*
X83458797Y-139207820D01*
X83458801Y-139207816D01*
X83463264Y-139199054D01*
X83511238Y-139148259D01*
X83579058Y-139131463D01*
X83645194Y-139153999D01*
X83684236Y-139199056D01*
X83688701Y-139207820D01*
X83813640Y-139379786D01*
X83963963Y-139530109D01*
X84135929Y-139655048D01*
X84135931Y-139655049D01*
X84135934Y-139655051D01*
X84325338Y-139751557D01*
X84527507Y-139817246D01*
X84737463Y-139850500D01*
X84737464Y-139850500D01*
X84950036Y-139850500D01*
X84950037Y-139850500D01*
X85159993Y-139817246D01*
X85362162Y-139751557D01*
X85551566Y-139655051D01*
X85638228Y-139592088D01*
X85723534Y-139530110D01*
X85723534Y-139530109D01*
X85723542Y-139530104D01*
X85837467Y-139416178D01*
X85898786Y-139382696D01*
X85968478Y-139387680D01*
X86024412Y-139429551D01*
X86041327Y-139460528D01*
X86090396Y-139592088D01*
X86090399Y-139592093D01*
X86176559Y-139707187D01*
X86176562Y-139707190D01*
X86291656Y-139793350D01*
X86291663Y-139793354D01*
X86426370Y-139843596D01*
X86426377Y-139843598D01*
X86485905Y-139849999D01*
X86485922Y-139850000D01*
X87133750Y-139850000D01*
X87133750Y-138933012D01*
X87190757Y-138965925D01*
X87317924Y-139000000D01*
X87449576Y-139000000D01*
X87576743Y-138965925D01*
X87633750Y-138933012D01*
X87633750Y-139850000D01*
X88281578Y-139850000D01*
X88281594Y-139849999D01*
X88341122Y-139843598D01*
X88341129Y-139843596D01*
X88475836Y-139793354D01*
X88475843Y-139793350D01*
X88590937Y-139707190D01*
X88590940Y-139707187D01*
X88677100Y-139592093D01*
X88677104Y-139592086D01*
X88727346Y-139457379D01*
X88727348Y-139457372D01*
X88733749Y-139397844D01*
X88733750Y-139397827D01*
X88733750Y-138750000D01*
X87816762Y-138750000D01*
X87849675Y-138692993D01*
X87883750Y-138565826D01*
X87883750Y-138434174D01*
X87872908Y-138393713D01*
X94373250Y-138393713D01*
X94373250Y-138606286D01*
X94406503Y-138816239D01*
X94472194Y-139018414D01*
X94568701Y-139207820D01*
X94693640Y-139379786D01*
X94843963Y-139530109D01*
X95015929Y-139655048D01*
X95015931Y-139655049D01*
X95015934Y-139655051D01*
X95205338Y-139751557D01*
X95407507Y-139817246D01*
X95617463Y-139850500D01*
X95617464Y-139850500D01*
X95830036Y-139850500D01*
X95830037Y-139850500D01*
X96039993Y-139817246D01*
X96242162Y-139751557D01*
X96431566Y-139655051D01*
X96517888Y-139592335D01*
X96603536Y-139530109D01*
X96603538Y-139530106D01*
X96603542Y-139530104D01*
X96753854Y-139379792D01*
X96753856Y-139379788D01*
X96753859Y-139379786D01*
X96878798Y-139207820D01*
X96878797Y-139207820D01*
X96878801Y-139207816D01*
X96883264Y-139199054D01*
X96931238Y-139148259D01*
X96999058Y-139131463D01*
X97065194Y-139153999D01*
X97104236Y-139199056D01*
X97108701Y-139207820D01*
X97233640Y-139379786D01*
X97383963Y-139530109D01*
X97555929Y-139655048D01*
X97555931Y-139655049D01*
X97555934Y-139655051D01*
X97745338Y-139751557D01*
X97947507Y-139817246D01*
X98157463Y-139850500D01*
X98157464Y-139850500D01*
X98370036Y-139850500D01*
X98370037Y-139850500D01*
X98579993Y-139817246D01*
X98782162Y-139751557D01*
X98971566Y-139655051D01*
X99057888Y-139592335D01*
X99143536Y-139530109D01*
X99143538Y-139530106D01*
X99143542Y-139530104D01*
X99293854Y-139379792D01*
X99293856Y-139379788D01*
X99293859Y-139379786D01*
X99418798Y-139207820D01*
X99418797Y-139207820D01*
X99418801Y-139207816D01*
X99423264Y-139199054D01*
X99471238Y-139148259D01*
X99539058Y-139131463D01*
X99605194Y-139153999D01*
X99644236Y-139199056D01*
X99648701Y-139207820D01*
X99773640Y-139379786D01*
X99923963Y-139530109D01*
X100095929Y-139655048D01*
X100095931Y-139655049D01*
X100095934Y-139655051D01*
X100285338Y-139751557D01*
X100487507Y-139817246D01*
X100697463Y-139850500D01*
X100697464Y-139850500D01*
X100910036Y-139850500D01*
X100910037Y-139850500D01*
X101119993Y-139817246D01*
X101322162Y-139751557D01*
X101511566Y-139655051D01*
X101597888Y-139592335D01*
X101683536Y-139530109D01*
X101683538Y-139530106D01*
X101683542Y-139530104D01*
X101833854Y-139379792D01*
X101833856Y-139379788D01*
X101833859Y-139379786D01*
X101958798Y-139207820D01*
X101958797Y-139207820D01*
X101958801Y-139207816D01*
X101963264Y-139199054D01*
X102011238Y-139148259D01*
X102079058Y-139131463D01*
X102145194Y-139153999D01*
X102184236Y-139199056D01*
X102188701Y-139207820D01*
X102313640Y-139379786D01*
X102463963Y-139530109D01*
X102635929Y-139655048D01*
X102635931Y-139655049D01*
X102635934Y-139655051D01*
X102825338Y-139751557D01*
X103027507Y-139817246D01*
X103237463Y-139850500D01*
X103237464Y-139850500D01*
X103450036Y-139850500D01*
X103450037Y-139850500D01*
X103659993Y-139817246D01*
X103862162Y-139751557D01*
X104051566Y-139655051D01*
X104137888Y-139592335D01*
X104223536Y-139530109D01*
X104223538Y-139530106D01*
X104223542Y-139530104D01*
X104373854Y-139379792D01*
X104373856Y-139379788D01*
X104373859Y-139379786D01*
X104441265Y-139287007D01*
X104498801Y-139207816D01*
X104503543Y-139198508D01*
X104551513Y-139147711D01*
X104619333Y-139130911D01*
X104685469Y-139153445D01*
X104724513Y-139198500D01*
X104729123Y-139207547D01*
X104768478Y-139261716D01*
X105400787Y-138629408D01*
X105417825Y-138692993D01*
X105483651Y-138807007D01*
X105576743Y-138900099D01*
X105690757Y-138965925D01*
X105754340Y-138982962D01*
X105122032Y-139615269D01*
X105122032Y-139615270D01*
X105176199Y-139654624D01*
X105365532Y-139751095D01*
X105567620Y-139816757D01*
X105777504Y-139850000D01*
X105989996Y-139850000D01*
X106199877Y-139816757D01*
X106199880Y-139816757D01*
X106401967Y-139751095D01*
X106591304Y-139654622D01*
X106645466Y-139615270D01*
X106645467Y-139615270D01*
X106013158Y-138982962D01*
X106076743Y-138965925D01*
X106190757Y-138900099D01*
X106283849Y-138807007D01*
X106349675Y-138692993D01*
X106366712Y-138629408D01*
X107036931Y-139299628D01*
X107070416Y-139360951D01*
X107073250Y-139387300D01*
X107073250Y-139397865D01*
X107073251Y-139397876D01*
X107079658Y-139457483D01*
X107129952Y-139592328D01*
X107129956Y-139592335D01*
X107216202Y-139707544D01*
X107216205Y-139707547D01*
X107331414Y-139793793D01*
X107331421Y-139793797D01*
X107466267Y-139844091D01*
X107466266Y-139844091D01*
X107473194Y-139844835D01*
X107525877Y-139850500D01*
X109321622Y-139850499D01*
X109381233Y-139844091D01*
X109516081Y-139793796D01*
X109631296Y-139707546D01*
X109717546Y-139592331D01*
X109767841Y-139457483D01*
X109774250Y-139397873D01*
X109774249Y-137602128D01*
X109767841Y-137542517D01*
X109717634Y-137407906D01*
X109717547Y-137407671D01*
X109717543Y-137407664D01*
X109631297Y-137292455D01*
X109631294Y-137292452D01*
X109516085Y-137206206D01*
X109516078Y-137206202D01*
X109381232Y-137155908D01*
X109381233Y-137155908D01*
X109321633Y-137149501D01*
X109321631Y-137149500D01*
X109321623Y-137149500D01*
X109321614Y-137149500D01*
X107525879Y-137149500D01*
X107525873Y-137149501D01*
X107466266Y-137155908D01*
X107331421Y-137206202D01*
X107331414Y-137206206D01*
X107216205Y-137292452D01*
X107216202Y-137292455D01*
X107129956Y-137407664D01*
X107129952Y-137407671D01*
X107079658Y-137542517D01*
X107073973Y-137595404D01*
X107073251Y-137602123D01*
X107073250Y-137602135D01*
X107073250Y-137612690D01*
X107053565Y-137679729D01*
X107036931Y-137700371D01*
X106366712Y-138370590D01*
X106349675Y-138307007D01*
X106283849Y-138192993D01*
X106190757Y-138099901D01*
X106076743Y-138034075D01*
X106013159Y-138017037D01*
X106645466Y-137384728D01*
X106591300Y-137345375D01*
X106401967Y-137248904D01*
X106199879Y-137183242D01*
X105989996Y-137150000D01*
X105777504Y-137150000D01*
X105567622Y-137183242D01*
X105567619Y-137183242D01*
X105365532Y-137248904D01*
X105176189Y-137345380D01*
X105122032Y-137384727D01*
X105122032Y-137384728D01*
X105754341Y-138017037D01*
X105690757Y-138034075D01*
X105576743Y-138099901D01*
X105483651Y-138192993D01*
X105417825Y-138307007D01*
X105400787Y-138370591D01*
X104768478Y-137738282D01*
X104768477Y-137738282D01*
X104729130Y-137792440D01*
X104729126Y-137792446D01*
X104724510Y-137801505D01*
X104676531Y-137852297D01*
X104608709Y-137869087D01*
X104542576Y-137846543D01*
X104503544Y-137801493D01*
X104498801Y-137792184D01*
X104498799Y-137792181D01*
X104498798Y-137792179D01*
X104373859Y-137620213D01*
X104223536Y-137469890D01*
X104051570Y-137344951D01*
X103862164Y-137248444D01*
X103862163Y-137248443D01*
X103862162Y-137248443D01*
X103659993Y-137182754D01*
X103659991Y-137182753D01*
X103659990Y-137182753D01*
X103498707Y-137157208D01*
X103450037Y-137149500D01*
X103237463Y-137149500D01*
X103188792Y-137157208D01*
X103027510Y-137182753D01*
X102825335Y-137248444D01*
X102635929Y-137344951D01*
X102463963Y-137469890D01*
X102313640Y-137620213D01*
X102188699Y-137792182D01*
X102184234Y-137800946D01*
X102136259Y-137851742D01*
X102068438Y-137868536D01*
X102002303Y-137845998D01*
X101963266Y-137800946D01*
X101958800Y-137792182D01*
X101833859Y-137620213D01*
X101683536Y-137469890D01*
X101511570Y-137344951D01*
X101322164Y-137248444D01*
X101322163Y-137248443D01*
X101322162Y-137248443D01*
X101119993Y-137182754D01*
X101119991Y-137182753D01*
X101119990Y-137182753D01*
X100958707Y-137157208D01*
X100910037Y-137149500D01*
X100697463Y-137149500D01*
X100648792Y-137157208D01*
X100487510Y-137182753D01*
X100285335Y-137248444D01*
X100095929Y-137344951D01*
X99923963Y-137469890D01*
X99773640Y-137620213D01*
X99648699Y-137792182D01*
X99644234Y-137800946D01*
X99596259Y-137851742D01*
X99528438Y-137868536D01*
X99462303Y-137845998D01*
X99423266Y-137800946D01*
X99418800Y-137792182D01*
X99293859Y-137620213D01*
X99143536Y-137469890D01*
X98971570Y-137344951D01*
X98782164Y-137248444D01*
X98782163Y-137248443D01*
X98782162Y-137248443D01*
X98579993Y-137182754D01*
X98579991Y-137182753D01*
X98579990Y-137182753D01*
X98418707Y-137157208D01*
X98370037Y-137149500D01*
X98157463Y-137149500D01*
X98108792Y-137157208D01*
X97947510Y-137182753D01*
X97745335Y-137248444D01*
X97555929Y-137344951D01*
X97383963Y-137469890D01*
X97233640Y-137620213D01*
X97108699Y-137792182D01*
X97104234Y-137800946D01*
X97056259Y-137851742D01*
X96988438Y-137868536D01*
X96922303Y-137845998D01*
X96883266Y-137800946D01*
X96878800Y-137792182D01*
X96753859Y-137620213D01*
X96603536Y-137469890D01*
X96431570Y-137344951D01*
X96242164Y-137248444D01*
X96242163Y-137248443D01*
X96242162Y-137248443D01*
X96039993Y-137182754D01*
X96039991Y-137182753D01*
X96039990Y-137182753D01*
X95878707Y-137157208D01*
X95830037Y-137149500D01*
X95617463Y-137149500D01*
X95568792Y-137157208D01*
X95407510Y-137182753D01*
X95205335Y-137248444D01*
X95015929Y-137344951D01*
X94843963Y-137469890D01*
X94693640Y-137620213D01*
X94568701Y-137792179D01*
X94472194Y-137981585D01*
X94406503Y-138183760D01*
X94373250Y-138393713D01*
X87872908Y-138393713D01*
X87849675Y-138307007D01*
X87816762Y-138250000D01*
X88733750Y-138250000D01*
X88733750Y-137602172D01*
X88733749Y-137602155D01*
X88727348Y-137542627D01*
X88727346Y-137542620D01*
X88677104Y-137407913D01*
X88677100Y-137407906D01*
X88590940Y-137292812D01*
X88590937Y-137292809D01*
X88475843Y-137206649D01*
X88475836Y-137206645D01*
X88341129Y-137156403D01*
X88341122Y-137156401D01*
X88281594Y-137150000D01*
X87633750Y-137150000D01*
X87633750Y-138066988D01*
X87576743Y-138034075D01*
X87449576Y-138000000D01*
X87317924Y-138000000D01*
X87190757Y-138034075D01*
X87133750Y-138066988D01*
X87133750Y-137150000D01*
X86485905Y-137150000D01*
X86426377Y-137156401D01*
X86426370Y-137156403D01*
X86291663Y-137206645D01*
X86291656Y-137206649D01*
X86176562Y-137292809D01*
X86176559Y-137292812D01*
X86090399Y-137407906D01*
X86090396Y-137407912D01*
X86041327Y-137539471D01*
X85999455Y-137595404D01*
X85933991Y-137619821D01*
X85865718Y-137604969D01*
X85837464Y-137583818D01*
X85723536Y-137469890D01*
X85551570Y-137344951D01*
X85362164Y-137248444D01*
X85362163Y-137248443D01*
X85362162Y-137248443D01*
X85159993Y-137182754D01*
X85159991Y-137182753D01*
X85159990Y-137182753D01*
X84998707Y-137157208D01*
X84950037Y-137149500D01*
X84737463Y-137149500D01*
X84688792Y-137157208D01*
X84527510Y-137182753D01*
X84325335Y-137248444D01*
X84135929Y-137344951D01*
X83963963Y-137469890D01*
X83813640Y-137620213D01*
X83688699Y-137792182D01*
X83684234Y-137800946D01*
X83636259Y-137851742D01*
X83568438Y-137868536D01*
X83502303Y-137845998D01*
X83463266Y-137800946D01*
X83458800Y-137792182D01*
X83333859Y-137620213D01*
X83183536Y-137469890D01*
X83011570Y-137344951D01*
X82822164Y-137248444D01*
X82822163Y-137248443D01*
X82822162Y-137248443D01*
X82619993Y-137182754D01*
X82619991Y-137182753D01*
X82619990Y-137182753D01*
X82458707Y-137157208D01*
X82410037Y-137149500D01*
X82197463Y-137149500D01*
X82148792Y-137157208D01*
X81987510Y-137182753D01*
X81785335Y-137248444D01*
X81595929Y-137344951D01*
X81423963Y-137469890D01*
X81273640Y-137620213D01*
X81148701Y-137792179D01*
X81052194Y-137981585D01*
X80986503Y-138183760D01*
X80953250Y-138393713D01*
X46574250Y-138393713D01*
X46574250Y-120124000D01*
X46593935Y-120056961D01*
X46646739Y-120011206D01*
X46698250Y-120000000D01*
X68073750Y-120000000D01*
X68073750Y-114921153D01*
X69273250Y-114921153D01*
X69273250Y-115078846D01*
X69304011Y-115233489D01*
X69304014Y-115233501D01*
X69364352Y-115379172D01*
X69364359Y-115379185D01*
X69451960Y-115510288D01*
X69451963Y-115510292D01*
X69563457Y-115621786D01*
X69563461Y-115621789D01*
X69694564Y-115709390D01*
X69694577Y-115709397D01*
X69762711Y-115737618D01*
X69840253Y-115769737D01*
X69947935Y-115791156D01*
X70009842Y-115823539D01*
X70011422Y-115825091D01*
X70909931Y-116723600D01*
X70943416Y-116784923D01*
X70946250Y-116811281D01*
X70946250Y-120561807D01*
X70970362Y-120683028D01*
X70970365Y-120683038D01*
X70990391Y-120731382D01*
X70990392Y-120731386D01*
X71017663Y-120797226D01*
X71017670Y-120797239D01*
X71086338Y-120900007D01*
X71086341Y-120900011D01*
X79248657Y-129062326D01*
X79282142Y-129123649D01*
X79282593Y-129125815D01*
X79304011Y-129233491D01*
X79304014Y-129233501D01*
X79364352Y-129379172D01*
X79364359Y-129379185D01*
X79451960Y-129510288D01*
X79451963Y-129510292D01*
X79563457Y-129621786D01*
X79563461Y-129621789D01*
X79694564Y-129709390D01*
X79694577Y-129709397D01*
X79832433Y-129766498D01*
X79840253Y-129769737D01*
X79994903Y-129800499D01*
X79994906Y-129800500D01*
X79994908Y-129800500D01*
X80152594Y-129800500D01*
X80152595Y-129800499D01*
X80307247Y-129769737D01*
X80419916Y-129723067D01*
X80452922Y-129709397D01*
X80452922Y-129709396D01*
X80452929Y-129709394D01*
X80584039Y-129621789D01*
X80695539Y-129510289D01*
X80783144Y-129379179D01*
X80843487Y-129233497D01*
X80874250Y-129078842D01*
X80874250Y-128921158D01*
X80874250Y-128921155D01*
X80874249Y-128921153D01*
X80843488Y-128766510D01*
X80843487Y-128766503D01*
X80783144Y-128620821D01*
X80748444Y-128568889D01*
X80727566Y-128502215D01*
X80746050Y-128434835D01*
X80748426Y-128431136D01*
X80783144Y-128379179D01*
X80843487Y-128233497D01*
X80874250Y-128078842D01*
X80874250Y-127921158D01*
X80874250Y-127921155D01*
X80874249Y-127921153D01*
X80843488Y-127766510D01*
X80843487Y-127766503D01*
X80783144Y-127620821D01*
X80748444Y-127568889D01*
X80727566Y-127502215D01*
X80746050Y-127434835D01*
X80748426Y-127431136D01*
X80783144Y-127379179D01*
X80843487Y-127233497D01*
X80874250Y-127078842D01*
X80874250Y-126921158D01*
X80874250Y-126921155D01*
X80874249Y-126921153D01*
X80843488Y-126766510D01*
X80843487Y-126766503D01*
X80843485Y-126766498D01*
X80783147Y-126620827D01*
X80783140Y-126620814D01*
X80695539Y-126489711D01*
X80695536Y-126489707D01*
X80584042Y-126378213D01*
X80584038Y-126378210D01*
X80452935Y-126290609D01*
X80452922Y-126290602D01*
X80307251Y-126230264D01*
X80307241Y-126230261D01*
X80199565Y-126208843D01*
X80137654Y-126176458D01*
X80136076Y-126174907D01*
X73737569Y-119776400D01*
X73704084Y-119715077D01*
X73701250Y-119688719D01*
X73701250Y-111493887D01*
X73720935Y-111426848D01*
X73773739Y-111381093D01*
X73842897Y-111371149D01*
X73906453Y-111400174D01*
X73912931Y-111406206D01*
X80331677Y-117824952D01*
X80358557Y-117865179D01*
X80364356Y-117879178D01*
X80364359Y-117879185D01*
X80451960Y-118010288D01*
X80451963Y-118010292D01*
X80563457Y-118121786D01*
X80563461Y-118121789D01*
X80694564Y-118209390D01*
X80694577Y-118209397D01*
X80827704Y-118264539D01*
X80840253Y-118269737D01*
X80994903Y-118300499D01*
X80994906Y-118300500D01*
X80994908Y-118300500D01*
X81152594Y-118300500D01*
X81152595Y-118300499D01*
X81307247Y-118269737D01*
X81319796Y-118264538D01*
X81389264Y-118257069D01*
X81451744Y-118288342D01*
X81487398Y-118348431D01*
X81491250Y-118379099D01*
X81491250Y-129643718D01*
X81471565Y-129710757D01*
X81454931Y-129731399D01*
X81011422Y-130174907D01*
X80950099Y-130208392D01*
X80947933Y-130208843D01*
X80840258Y-130230261D01*
X80840248Y-130230264D01*
X80694577Y-130290602D01*
X80694564Y-130290609D01*
X80563461Y-130378210D01*
X80563457Y-130378213D01*
X80451963Y-130489707D01*
X80451960Y-130489711D01*
X80364359Y-130620814D01*
X80364352Y-130620827D01*
X80304014Y-130766498D01*
X80304011Y-130766510D01*
X80273250Y-130921153D01*
X80273250Y-131078846D01*
X80304011Y-131233489D01*
X80304014Y-131233501D01*
X80364352Y-131379172D01*
X80364359Y-131379185D01*
X80451960Y-131510288D01*
X80451963Y-131510292D01*
X80563457Y-131621786D01*
X80563461Y-131621789D01*
X80694564Y-131709390D01*
X80694577Y-131709397D01*
X80840248Y-131769735D01*
X80840253Y-131769737D01*
X80994903Y-131800499D01*
X80994906Y-131800500D01*
X80994908Y-131800500D01*
X81152594Y-131800500D01*
X81152595Y-131800499D01*
X81307247Y-131769737D01*
X81452929Y-131709394D01*
X81504860Y-131674694D01*
X81571535Y-131653816D01*
X81638915Y-131672300D01*
X81642613Y-131674676D01*
X81694571Y-131709394D01*
X81694573Y-131709395D01*
X81694575Y-131709396D01*
X81840248Y-131769735D01*
X81840253Y-131769737D01*
X81994903Y-131800499D01*
X81994906Y-131800500D01*
X81994908Y-131800500D01*
X82152594Y-131800500D01*
X82152595Y-131800499D01*
X82307247Y-131769737D01*
X82452929Y-131709394D01*
X82584039Y-131621789D01*
X82695539Y-131510289D01*
X82783144Y-131379179D01*
X82843487Y-131233497D01*
X82864906Y-131125812D01*
X82897289Y-131063906D01*
X82898778Y-131062389D01*
X83061161Y-130900008D01*
X83096923Y-130846486D01*
X83133218Y-130792168D01*
X83135644Y-130793789D01*
X83175717Y-130752787D01*
X83243815Y-130737154D01*
X83283837Y-130746369D01*
X83340253Y-130769737D01*
X83461170Y-130793789D01*
X83494903Y-130800499D01*
X83494906Y-130800500D01*
X83494908Y-130800500D01*
X83652594Y-130800500D01*
X83652595Y-130800499D01*
X83807247Y-130769737D01*
X83952929Y-130709394D01*
X84084039Y-130621789D01*
X84195539Y-130510289D01*
X84283144Y-130379179D01*
X84343487Y-130233497D01*
X84374250Y-130078842D01*
X84374250Y-129921158D01*
X84374250Y-129921155D01*
X84374249Y-129921153D01*
X84343488Y-129766510D01*
X84343487Y-129766503D01*
X84328947Y-129731399D01*
X84283147Y-129620827D01*
X84283140Y-129620814D01*
X84195539Y-129489711D01*
X84195536Y-129489707D01*
X84084042Y-129378213D01*
X84084038Y-129378210D01*
X83952935Y-129290609D01*
X83952922Y-129290602D01*
X83807249Y-129230263D01*
X83807245Y-129230262D01*
X83801055Y-129229031D01*
X83739145Y-129196643D01*
X83704573Y-129135926D01*
X83701250Y-129107414D01*
X83701250Y-123602135D01*
X125223250Y-123602135D01*
X125223250Y-125397870D01*
X125223251Y-125397876D01*
X125229658Y-125457483D01*
X125279952Y-125592328D01*
X125279956Y-125592335D01*
X125366202Y-125707544D01*
X125366205Y-125707547D01*
X125481414Y-125793793D01*
X125481421Y-125793797D01*
X125612832Y-125842810D01*
X125668766Y-125884681D01*
X125693183Y-125950145D01*
X125678332Y-126018418D01*
X125657181Y-126046673D01*
X125543639Y-126160215D01*
X125418701Y-126332179D01*
X125322194Y-126521585D01*
X125256503Y-126723760D01*
X125223250Y-126933713D01*
X125223250Y-127146286D01*
X125237061Y-127233489D01*
X125256504Y-127356243D01*
X125303933Y-127502215D01*
X125322194Y-127558414D01*
X125418701Y-127747820D01*
X125543640Y-127919786D01*
X125693963Y-128070109D01*
X125865929Y-128195048D01*
X125865931Y-128195049D01*
X125865934Y-128195051D01*
X126055338Y-128291557D01*
X126257507Y-128357246D01*
X126467463Y-128390500D01*
X126467464Y-128390500D01*
X126680036Y-128390500D01*
X126680037Y-128390500D01*
X126889993Y-128357246D01*
X127092162Y-128291557D01*
X127281566Y-128195051D01*
X127441510Y-128078846D01*
X127453536Y-128070109D01*
X127453538Y-128070106D01*
X127453542Y-128070104D01*
X127603854Y-127919792D01*
X127603856Y-127919788D01*
X127603859Y-127919786D01*
X127728798Y-127747820D01*
X127728797Y-127747820D01*
X127728801Y-127747816D01*
X127825307Y-127558412D01*
X127890996Y-127356243D01*
X127924250Y-127146287D01*
X127924250Y-126933713D01*
X127890996Y-126723757D01*
X127825307Y-126521588D01*
X127728801Y-126332184D01*
X127728799Y-126332181D01*
X127728798Y-126332179D01*
X127603859Y-126160213D01*
X127490319Y-126046673D01*
X127456834Y-125985350D01*
X127461818Y-125915658D01*
X127503690Y-125859725D01*
X127534665Y-125842810D01*
X127666081Y-125793796D01*
X127781296Y-125707546D01*
X127867546Y-125592331D01*
X127917841Y-125457483D01*
X127924250Y-125397873D01*
X127924249Y-123602128D01*
X127917841Y-123542517D01*
X127867546Y-123407669D01*
X127867545Y-123407668D01*
X127867543Y-123407664D01*
X127781297Y-123292455D01*
X127781294Y-123292452D01*
X127666085Y-123206206D01*
X127666078Y-123206202D01*
X127531232Y-123155908D01*
X127531233Y-123155908D01*
X127471633Y-123149501D01*
X127471631Y-123149500D01*
X127471623Y-123149500D01*
X127471614Y-123149500D01*
X125675879Y-123149500D01*
X125675873Y-123149501D01*
X125616266Y-123155908D01*
X125481421Y-123206202D01*
X125481414Y-123206206D01*
X125366205Y-123292452D01*
X125366202Y-123292455D01*
X125279956Y-123407664D01*
X125279952Y-123407671D01*
X125229658Y-123542517D01*
X125223251Y-123602116D01*
X125223251Y-123602123D01*
X125223250Y-123602135D01*
X83701250Y-123602135D01*
X83701250Y-117921153D01*
X86273250Y-117921153D01*
X86273250Y-118078846D01*
X86304011Y-118233489D01*
X86304014Y-118233501D01*
X86364352Y-118379172D01*
X86364359Y-118379185D01*
X86451960Y-118510288D01*
X86451963Y-118510292D01*
X86563460Y-118621789D01*
X86610487Y-118653211D01*
X86694571Y-118709394D01*
X86708509Y-118715167D01*
X86708569Y-118715192D01*
X86748797Y-118742072D01*
X87758350Y-119751624D01*
X87758371Y-119751647D01*
X87867778Y-119861054D01*
X87867785Y-119861060D01*
X87991358Y-119943628D01*
X87991359Y-119943628D01*
X87991360Y-119943629D01*
X88128670Y-120000505D01*
X88274433Y-120029499D01*
X88274437Y-120029500D01*
X88274438Y-120029500D01*
X88423062Y-120029500D01*
X99186303Y-120029500D01*
X99233751Y-120038937D01*
X99247753Y-120044737D01*
X99247758Y-120044738D01*
X99247761Y-120044739D01*
X99402403Y-120075499D01*
X99402406Y-120075500D01*
X99402408Y-120075500D01*
X99560094Y-120075500D01*
X99560095Y-120075499D01*
X99714747Y-120044737D01*
X99860429Y-119984394D01*
X99991539Y-119896789D01*
X100103039Y-119785289D01*
X100190644Y-119654179D01*
X100250987Y-119508497D01*
X100281750Y-119353842D01*
X100281750Y-119196158D01*
X100281750Y-119196155D01*
X100281749Y-119196153D01*
X100250988Y-119041510D01*
X100250987Y-119041503D01*
X100250985Y-119041498D01*
X100190647Y-118895827D01*
X100190640Y-118895814D01*
X100103039Y-118764711D01*
X100103036Y-118764707D01*
X99991542Y-118653213D01*
X99991538Y-118653210D01*
X99860435Y-118565609D01*
X99860422Y-118565602D01*
X99714751Y-118505264D01*
X99714739Y-118505261D01*
X99560095Y-118474500D01*
X99560092Y-118474500D01*
X99402408Y-118474500D01*
X99402405Y-118474500D01*
X99247761Y-118505260D01*
X99247756Y-118505262D01*
X99247754Y-118505262D01*
X99247753Y-118505263D01*
X99233751Y-118511062D01*
X99186303Y-118520500D01*
X88712636Y-118520500D01*
X88645597Y-118500815D01*
X88624955Y-118484181D01*
X87815822Y-117675047D01*
X87788942Y-117634819D01*
X87783146Y-117620827D01*
X87783144Y-117620821D01*
X87783139Y-117620814D01*
X87695539Y-117489710D01*
X87584042Y-117378213D01*
X87584038Y-117378210D01*
X87452935Y-117290609D01*
X87452922Y-117290602D01*
X87307251Y-117230264D01*
X87307239Y-117230261D01*
X87152595Y-117199500D01*
X87152592Y-117199500D01*
X86994908Y-117199500D01*
X86994905Y-117199500D01*
X86840260Y-117230261D01*
X86840248Y-117230264D01*
X86694577Y-117290602D01*
X86694564Y-117290609D01*
X86563461Y-117378210D01*
X86563457Y-117378213D01*
X86451963Y-117489707D01*
X86451960Y-117489711D01*
X86364359Y-117620814D01*
X86364352Y-117620827D01*
X86304014Y-117766498D01*
X86304011Y-117766510D01*
X86273250Y-117921153D01*
X83701250Y-117921153D01*
X83701250Y-112251500D01*
X83720935Y-112184461D01*
X83773739Y-112138706D01*
X83825250Y-112127500D01*
X86181165Y-112127500D01*
X86248204Y-112147185D01*
X86293959Y-112199989D01*
X86302783Y-112227312D01*
X86304012Y-112233494D01*
X86304013Y-112233498D01*
X86364352Y-112379172D01*
X86364359Y-112379185D01*
X86451960Y-112510288D01*
X86451963Y-112510292D01*
X86563457Y-112621786D01*
X86563461Y-112621789D01*
X86694564Y-112709390D01*
X86694577Y-112709397D01*
X86840248Y-112769735D01*
X86840253Y-112769737D01*
X86994903Y-112800499D01*
X86994906Y-112800500D01*
X86994908Y-112800500D01*
X87152594Y-112800500D01*
X87152595Y-112800499D01*
X87307247Y-112769737D01*
X87452929Y-112709394D01*
X87584039Y-112621789D01*
X87695539Y-112510289D01*
X87783144Y-112379179D01*
X87843487Y-112233497D01*
X87874250Y-112078842D01*
X87874250Y-111921158D01*
X87874250Y-111921155D01*
X87874249Y-111921153D01*
X87843488Y-111766510D01*
X87843487Y-111766503D01*
X87843485Y-111766498D01*
X87783147Y-111620827D01*
X87783140Y-111620814D01*
X87695539Y-111489711D01*
X87695536Y-111489707D01*
X87584042Y-111378213D01*
X87584038Y-111378210D01*
X87452935Y-111290609D01*
X87452922Y-111290602D01*
X87307251Y-111230264D01*
X87307241Y-111230261D01*
X87199565Y-111208843D01*
X87137654Y-111176458D01*
X87136076Y-111174907D01*
X86973758Y-111012589D01*
X86962813Y-111005276D01*
X86870983Y-110943917D01*
X86837534Y-110930062D01*
X86829454Y-110926715D01*
X86829449Y-110926712D01*
X86756785Y-110896614D01*
X86756777Y-110896612D01*
X86635557Y-110872500D01*
X86635553Y-110872500D01*
X83825250Y-110872500D01*
X83758211Y-110852815D01*
X83712456Y-110800011D01*
X83701250Y-110748500D01*
X83701250Y-104182155D01*
X102007500Y-104182155D01*
X102007500Y-104980000D01*
X102969252Y-104980000D01*
X102947482Y-105017708D01*
X102910000Y-105157591D01*
X102910000Y-105302409D01*
X102947482Y-105442292D01*
X102969252Y-105480000D01*
X102007500Y-105480000D01*
X102007500Y-106277844D01*
X102013901Y-106337372D01*
X102013903Y-106337379D01*
X102064145Y-106472086D01*
X102064149Y-106472093D01*
X102150309Y-106587187D01*
X102150312Y-106587190D01*
X102265406Y-106673350D01*
X102265413Y-106673354D01*
X102400120Y-106723596D01*
X102400127Y-106723598D01*
X102459655Y-106729999D01*
X102459672Y-106730000D01*
X103210000Y-106730000D01*
X103210000Y-105720747D01*
X103247708Y-105742518D01*
X103387591Y-105780000D01*
X103532409Y-105780000D01*
X103672292Y-105742518D01*
X103710000Y-105720747D01*
X103710000Y-106730000D01*
X104460328Y-106730000D01*
X104460344Y-106729999D01*
X104519872Y-106723598D01*
X104519879Y-106723596D01*
X104654586Y-106673354D01*
X104654593Y-106673350D01*
X104769687Y-106587190D01*
X104769690Y-106587187D01*
X104855850Y-106472093D01*
X104855854Y-106472086D01*
X104866272Y-106444155D01*
X104908143Y-106388221D01*
X104973607Y-106363804D01*
X105041880Y-106378655D01*
X105055331Y-106387164D01*
X105238462Y-106520217D01*
X105369904Y-106587190D01*
X105442244Y-106624049D01*
X105659751Y-106694721D01*
X105659752Y-106694721D01*
X105659755Y-106694722D01*
X105885646Y-106730500D01*
X105885647Y-106730500D01*
X106114353Y-106730500D01*
X106114354Y-106730500D01*
X106340245Y-106694722D01*
X106340248Y-106694721D01*
X106340249Y-106694721D01*
X106557755Y-106624049D01*
X106557755Y-106624048D01*
X106557758Y-106624048D01*
X106761538Y-106520217D01*
X106946566Y-106385786D01*
X107108286Y-106224066D01*
X107169683Y-106139559D01*
X107225012Y-106096896D01*
X107294625Y-106090917D01*
X107356420Y-106123523D01*
X107370314Y-106139556D01*
X107431714Y-106224066D01*
X107593434Y-106385786D01*
X107778462Y-106520217D01*
X107909904Y-106587190D01*
X107982244Y-106624049D01*
X108199751Y-106694721D01*
X108199752Y-106694721D01*
X108199755Y-106694722D01*
X108425646Y-106730500D01*
X108425647Y-106730500D01*
X108654353Y-106730500D01*
X108654354Y-106730500D01*
X108880245Y-106694722D01*
X108880248Y-106694721D01*
X108880249Y-106694721D01*
X109097755Y-106624049D01*
X109097755Y-106624048D01*
X109097758Y-106624048D01*
X109301538Y-106520217D01*
X109486566Y-106385786D01*
X109648286Y-106224066D01*
X109782717Y-106039038D01*
X109886548Y-105835258D01*
X109904502Y-105780000D01*
X109957221Y-105617749D01*
X109957221Y-105617748D01*
X109957222Y-105617745D01*
X109993000Y-105391854D01*
X109993000Y-105068146D01*
X109957222Y-104842255D01*
X109957221Y-104842251D01*
X109957221Y-104842250D01*
X109886549Y-104624744D01*
X109886548Y-104624742D01*
X109782717Y-104420962D01*
X109648286Y-104235934D01*
X109486566Y-104074214D01*
X109301538Y-103939783D01*
X109170100Y-103872812D01*
X109097755Y-103835950D01*
X108880248Y-103765278D01*
X108697925Y-103736401D01*
X108654354Y-103729500D01*
X108425646Y-103729500D01*
X108382063Y-103736403D01*
X108199753Y-103765278D01*
X108199750Y-103765278D01*
X107982244Y-103835950D01*
X107778461Y-103939783D01*
X107712217Y-103987913D01*
X107593434Y-104074214D01*
X107593432Y-104074216D01*
X107593431Y-104074216D01*
X107431715Y-104235932D01*
X107370318Y-104320438D01*
X107314987Y-104363103D01*
X107245374Y-104369082D01*
X107183579Y-104336476D01*
X107169682Y-104320438D01*
X107158773Y-104305423D01*
X107108286Y-104235934D01*
X106946566Y-104074214D01*
X106761538Y-103939783D01*
X106630100Y-103872812D01*
X106557755Y-103835950D01*
X106340248Y-103765278D01*
X106157925Y-103736401D01*
X106114354Y-103729500D01*
X105885646Y-103729500D01*
X105842063Y-103736403D01*
X105659753Y-103765278D01*
X105659750Y-103765278D01*
X105442244Y-103835950D01*
X105238458Y-103939785D01*
X105055339Y-104072829D01*
X104989533Y-104096309D01*
X104921479Y-104080484D01*
X104872784Y-104030378D01*
X104866272Y-104015845D01*
X104855853Y-103987911D01*
X104855850Y-103987906D01*
X104769690Y-103872812D01*
X104769687Y-103872809D01*
X104654593Y-103786649D01*
X104654586Y-103786645D01*
X104519879Y-103736403D01*
X104519872Y-103736401D01*
X104460344Y-103730000D01*
X103710000Y-103730000D01*
X103710000Y-104739252D01*
X103672292Y-104717482D01*
X103532409Y-104680000D01*
X103387591Y-104680000D01*
X103247708Y-104717482D01*
X103210000Y-104739252D01*
X103210000Y-103730000D01*
X102459655Y-103730000D01*
X102400127Y-103736401D01*
X102400120Y-103736403D01*
X102265413Y-103786645D01*
X102265406Y-103786649D01*
X102150312Y-103872809D01*
X102150309Y-103872812D01*
X102064149Y-103987906D01*
X102064145Y-103987913D01*
X102013903Y-104122620D01*
X102013901Y-104122627D01*
X102007500Y-104182155D01*
X83701250Y-104182155D01*
X83701250Y-88811280D01*
X83720935Y-88744241D01*
X83737565Y-88723603D01*
X84022295Y-88438872D01*
X103999500Y-88438872D01*
X103999500Y-88701127D01*
X104007241Y-88759919D01*
X104033730Y-88961116D01*
X104101602Y-89214418D01*
X104101605Y-89214428D01*
X104201953Y-89456690D01*
X104201958Y-89456700D01*
X104333075Y-89683803D01*
X104492718Y-89891851D01*
X104492726Y-89891860D01*
X104678140Y-90077274D01*
X104678148Y-90077281D01*
X104886196Y-90236924D01*
X105113299Y-90368041D01*
X105113309Y-90368046D01*
X105355571Y-90468394D01*
X105355581Y-90468398D01*
X105608884Y-90536270D01*
X105868880Y-90570500D01*
X105868887Y-90570500D01*
X106131113Y-90570500D01*
X106131120Y-90570500D01*
X106391116Y-90536270D01*
X106644419Y-90468398D01*
X106886697Y-90368043D01*
X107113803Y-90236924D01*
X107321851Y-90077282D01*
X107321855Y-90077277D01*
X107321860Y-90077274D01*
X107507274Y-89891860D01*
X107507277Y-89891855D01*
X107507282Y-89891851D01*
X107666924Y-89683803D01*
X107798043Y-89456697D01*
X107898398Y-89214419D01*
X107966270Y-88961116D01*
X108000500Y-88701120D01*
X108000500Y-88438880D01*
X107966270Y-88178884D01*
X107898398Y-87925581D01*
X107818836Y-87733501D01*
X107798046Y-87683309D01*
X107798041Y-87683299D01*
X107666924Y-87456196D01*
X107521371Y-87266510D01*
X107507282Y-87248149D01*
X107507281Y-87248148D01*
X107507274Y-87248140D01*
X107321860Y-87062726D01*
X107321851Y-87062718D01*
X107113803Y-86903075D01*
X106886700Y-86771958D01*
X106886690Y-86771953D01*
X106644428Y-86671605D01*
X106644421Y-86671603D01*
X106644419Y-86671602D01*
X106391116Y-86603730D01*
X106333339Y-86596123D01*
X106131127Y-86569500D01*
X106131120Y-86569500D01*
X105868880Y-86569500D01*
X105868872Y-86569500D01*
X105637772Y-86599926D01*
X105608884Y-86603730D01*
X105355581Y-86671602D01*
X105355571Y-86671605D01*
X105113309Y-86771953D01*
X105113299Y-86771958D01*
X104886196Y-86903075D01*
X104678148Y-87062718D01*
X104492718Y-87248148D01*
X104333075Y-87456196D01*
X104201958Y-87683299D01*
X104201953Y-87683309D01*
X104101605Y-87925571D01*
X104101602Y-87925581D01*
X104049029Y-88121789D01*
X104033730Y-88178885D01*
X103999500Y-88438872D01*
X84022295Y-88438872D01*
X84136078Y-88325089D01*
X84197399Y-88291606D01*
X84199398Y-88291189D01*
X84307247Y-88269737D01*
X84452929Y-88209394D01*
X84584039Y-88121789D01*
X84695539Y-88010289D01*
X84783144Y-87879179D01*
X84843487Y-87733497D01*
X84874250Y-87578842D01*
X84874250Y-87421158D01*
X84874250Y-87421155D01*
X84874249Y-87421153D01*
X84848281Y-87290606D01*
X84843487Y-87266503D01*
X84835881Y-87248140D01*
X84783147Y-87120827D01*
X84783140Y-87120814D01*
X84695539Y-86989711D01*
X84695536Y-86989707D01*
X84584042Y-86878213D01*
X84584038Y-86878210D01*
X84452935Y-86790609D01*
X84452922Y-86790602D01*
X84307251Y-86730264D01*
X84307239Y-86730261D01*
X84152595Y-86699500D01*
X84152592Y-86699500D01*
X83994908Y-86699500D01*
X83994905Y-86699500D01*
X83840260Y-86730261D01*
X83840248Y-86730264D01*
X83694577Y-86790602D01*
X83694564Y-86790609D01*
X83563461Y-86878210D01*
X83563457Y-86878213D01*
X83451963Y-86989707D01*
X83426852Y-87027289D01*
X83373239Y-87072093D01*
X83303914Y-87080800D01*
X83240887Y-87050645D01*
X83220648Y-87027289D01*
X83195536Y-86989707D01*
X83084042Y-86878213D01*
X83084038Y-86878210D01*
X82952935Y-86790609D01*
X82952922Y-86790602D01*
X82807251Y-86730264D01*
X82807239Y-86730261D01*
X82652595Y-86699500D01*
X82652592Y-86699500D01*
X82494908Y-86699500D01*
X82494905Y-86699500D01*
X82340260Y-86730261D01*
X82340248Y-86730264D01*
X82194577Y-86790602D01*
X82194564Y-86790609D01*
X82142641Y-86825304D01*
X82075964Y-86846182D01*
X82008583Y-86827698D01*
X82004859Y-86825304D01*
X81952935Y-86790609D01*
X81952922Y-86790602D01*
X81807251Y-86730264D01*
X81807239Y-86730261D01*
X81652595Y-86699500D01*
X81652592Y-86699500D01*
X81494908Y-86699500D01*
X81494905Y-86699500D01*
X81340260Y-86730261D01*
X81340248Y-86730264D01*
X81194577Y-86790602D01*
X81194564Y-86790609D01*
X81063461Y-86878210D01*
X81063457Y-86878213D01*
X80951963Y-86989707D01*
X80951960Y-86989711D01*
X80864359Y-87120814D01*
X80864352Y-87120827D01*
X80804014Y-87266498D01*
X80804011Y-87266510D01*
X80773250Y-87421153D01*
X80773250Y-87578846D01*
X80804011Y-87733489D01*
X80804014Y-87733501D01*
X80864352Y-87879172D01*
X80864359Y-87879185D01*
X80951960Y-88010288D01*
X80951963Y-88010292D01*
X81063457Y-88121786D01*
X81063461Y-88121789D01*
X81194564Y-88209390D01*
X81194577Y-88209397D01*
X81252742Y-88233489D01*
X81340253Y-88269737D01*
X81391442Y-88279919D01*
X81453352Y-88312303D01*
X81487926Y-88373019D01*
X81491250Y-88401536D01*
X81491250Y-116551113D01*
X81471565Y-116618152D01*
X81418761Y-116663907D01*
X81349603Y-116673851D01*
X81286047Y-116644826D01*
X81279569Y-116638794D01*
X74815822Y-110175047D01*
X74788942Y-110134819D01*
X74788917Y-110134759D01*
X74783144Y-110120821D01*
X74783140Y-110120815D01*
X74695539Y-109989710D01*
X74584042Y-109878213D01*
X74584038Y-109878210D01*
X74452935Y-109790609D01*
X74452922Y-109790602D01*
X74307251Y-109730264D01*
X74307239Y-109730261D01*
X74152595Y-109699500D01*
X74152592Y-109699500D01*
X73994908Y-109699500D01*
X73994903Y-109699500D01*
X73849441Y-109728434D01*
X73779849Y-109722207D01*
X73724672Y-109679343D01*
X73701428Y-109613454D01*
X73701250Y-109606817D01*
X73701250Y-88539356D01*
X73720935Y-88472317D01*
X73722148Y-88470465D01*
X73783144Y-88379179D01*
X73843487Y-88233497D01*
X73874250Y-88078842D01*
X73874250Y-87921158D01*
X73874250Y-87921155D01*
X73874249Y-87921153D01*
X73843488Y-87766510D01*
X73843487Y-87766503D01*
X73829812Y-87733489D01*
X73783147Y-87620827D01*
X73783140Y-87620814D01*
X73695539Y-87489711D01*
X73695536Y-87489707D01*
X73584042Y-87378213D01*
X73584038Y-87378210D01*
X73452935Y-87290609D01*
X73452922Y-87290602D01*
X73307251Y-87230264D01*
X73307239Y-87230261D01*
X73152595Y-87199500D01*
X73152592Y-87199500D01*
X72994908Y-87199500D01*
X72994905Y-87199500D01*
X72840260Y-87230261D01*
X72840248Y-87230264D01*
X72694577Y-87290602D01*
X72694564Y-87290609D01*
X72563461Y-87378210D01*
X72563457Y-87378213D01*
X72451963Y-87489707D01*
X72451960Y-87489711D01*
X72364359Y-87620814D01*
X72364352Y-87620827D01*
X72304014Y-87766498D01*
X72304011Y-87766510D01*
X72273250Y-87921153D01*
X72273250Y-88078846D01*
X72304011Y-88233489D01*
X72304014Y-88233501D01*
X72364353Y-88379174D01*
X72364354Y-88379175D01*
X72364356Y-88379179D01*
X72425352Y-88470465D01*
X72446230Y-88537142D01*
X72446250Y-88539356D01*
X72446250Y-89082152D01*
X72426565Y-89149191D01*
X72373761Y-89194946D01*
X72346442Y-89203769D01*
X72213258Y-89230261D01*
X72213248Y-89230264D01*
X72067577Y-89290602D01*
X72067564Y-89290609D01*
X71936461Y-89378210D01*
X71936457Y-89378213D01*
X71824963Y-89489707D01*
X71824960Y-89489711D01*
X71737359Y-89620814D01*
X71737352Y-89620827D01*
X71677014Y-89766498D01*
X71677012Y-89766506D01*
X71676907Y-89767035D01*
X71676620Y-89767799D01*
X71675784Y-89770555D01*
X71675848Y-89771850D01*
X71670585Y-89783871D01*
X71662788Y-89804638D01*
X71660704Y-89808261D01*
X71645667Y-89830767D01*
X71645667Y-89830768D01*
X71640272Y-89843792D01*
X71640263Y-89843808D01*
X71598365Y-89944960D01*
X71598364Y-89944964D01*
X71598364Y-89944965D01*
X71575124Y-90061803D01*
X71575123Y-90061809D01*
X71574250Y-90066196D01*
X71574250Y-105081953D01*
X71554565Y-105148992D01*
X71501761Y-105194747D01*
X71474442Y-105203570D01*
X71340258Y-105230261D01*
X71340248Y-105230264D01*
X71194577Y-105290602D01*
X71194564Y-105290609D01*
X71063461Y-105378210D01*
X71063457Y-105378213D01*
X70951963Y-105489707D01*
X70951960Y-105489711D01*
X70864359Y-105620814D01*
X70864352Y-105620827D01*
X70804014Y-105766498D01*
X70804011Y-105766510D01*
X70773250Y-105921153D01*
X70773250Y-106078846D01*
X70804011Y-106233489D01*
X70804014Y-106233501D01*
X70864353Y-106379174D01*
X70864354Y-106379175D01*
X70864356Y-106379179D01*
X70870398Y-106388221D01*
X70925352Y-106470465D01*
X70946230Y-106537142D01*
X70946250Y-106539356D01*
X70946250Y-114456152D01*
X70926565Y-114523191D01*
X70873761Y-114568946D01*
X70804603Y-114578890D01*
X70741047Y-114549865D01*
X70719148Y-114525044D01*
X70695536Y-114489707D01*
X70584042Y-114378213D01*
X70584038Y-114378210D01*
X70452935Y-114290609D01*
X70452922Y-114290602D01*
X70307251Y-114230264D01*
X70307239Y-114230261D01*
X70152595Y-114199500D01*
X70152592Y-114199500D01*
X69994908Y-114199500D01*
X69994905Y-114199500D01*
X69840260Y-114230261D01*
X69840248Y-114230264D01*
X69694577Y-114290602D01*
X69694564Y-114290609D01*
X69563461Y-114378210D01*
X69563457Y-114378213D01*
X69451963Y-114489707D01*
X69451960Y-114489711D01*
X69364359Y-114620814D01*
X69364352Y-114620827D01*
X69304014Y-114766498D01*
X69304011Y-114766510D01*
X69273250Y-114921153D01*
X68073750Y-114921153D01*
X68073750Y-81421153D01*
X78273250Y-81421153D01*
X78273250Y-81578846D01*
X78304011Y-81733489D01*
X78304014Y-81733501D01*
X78364352Y-81879172D01*
X78364359Y-81879185D01*
X78451960Y-82010288D01*
X78451963Y-82010292D01*
X78563457Y-82121786D01*
X78563461Y-82121789D01*
X78694564Y-82209390D01*
X78694577Y-82209397D01*
X78840248Y-82269735D01*
X78840253Y-82269737D01*
X78994903Y-82300499D01*
X78994906Y-82300500D01*
X78994908Y-82300500D01*
X79152594Y-82300500D01*
X79152595Y-82300499D01*
X79307247Y-82269737D01*
X79452929Y-82209394D01*
X79584039Y-82121789D01*
X79695539Y-82010289D01*
X79702895Y-81999279D01*
X79720648Y-81972712D01*
X79774260Y-81927906D01*
X79843585Y-81919199D01*
X79906612Y-81949353D01*
X79926852Y-81972712D01*
X79951957Y-82010284D01*
X79951963Y-82010292D01*
X80063457Y-82121786D01*
X80063461Y-82121789D01*
X80194564Y-82209390D01*
X80194577Y-82209397D01*
X80340248Y-82269735D01*
X80340253Y-82269737D01*
X80494903Y-82300499D01*
X80494906Y-82300500D01*
X80494908Y-82300500D01*
X80652594Y-82300500D01*
X80652595Y-82300499D01*
X80807247Y-82269737D01*
X80952929Y-82209394D01*
X81084039Y-82121789D01*
X81195539Y-82010289D01*
X81283144Y-81879179D01*
X81343487Y-81733497D01*
X81374250Y-81578842D01*
X81374250Y-81421158D01*
X81374250Y-81421155D01*
X81374249Y-81421153D01*
X81343488Y-81266510D01*
X81343487Y-81266503D01*
X81323750Y-81218853D01*
X81283147Y-81120827D01*
X81283140Y-81120814D01*
X81222148Y-81029533D01*
X81201270Y-80962855D01*
X81201250Y-80960642D01*
X81201250Y-79039356D01*
X81220935Y-78972317D01*
X81222148Y-78970465D01*
X81222393Y-78970099D01*
X81283144Y-78879179D01*
X81343487Y-78733497D01*
X81374250Y-78578842D01*
X81374250Y-78421158D01*
X81374250Y-78421155D01*
X81374249Y-78421153D01*
X81343488Y-78266510D01*
X81343487Y-78266503D01*
X81338209Y-78253760D01*
X81283147Y-78120827D01*
X81283140Y-78120814D01*
X81195539Y-77989711D01*
X81195536Y-77989707D01*
X81084042Y-77878213D01*
X81084038Y-77878210D01*
X80952935Y-77790609D01*
X80952922Y-77790602D01*
X80807251Y-77730264D01*
X80807239Y-77730261D01*
X80652595Y-77699500D01*
X80652592Y-77699500D01*
X80494908Y-77699500D01*
X80494905Y-77699500D01*
X80340260Y-77730261D01*
X80340248Y-77730264D01*
X80194577Y-77790602D01*
X80194564Y-77790609D01*
X80063461Y-77878210D01*
X80063457Y-77878213D01*
X79951963Y-77989707D01*
X79951960Y-77989711D01*
X79864359Y-78120814D01*
X79864352Y-78120827D01*
X79804014Y-78266498D01*
X79804011Y-78266510D01*
X79773250Y-78421153D01*
X79773250Y-78575500D01*
X79753565Y-78642539D01*
X79700761Y-78688294D01*
X79649250Y-78699500D01*
X79494905Y-78699500D01*
X79340260Y-78730261D01*
X79340248Y-78730264D01*
X79194577Y-78790602D01*
X79194564Y-78790609D01*
X79063461Y-78878210D01*
X79063457Y-78878213D01*
X78951963Y-78989707D01*
X78951960Y-78989711D01*
X78864359Y-79120814D01*
X78864352Y-79120827D01*
X78804014Y-79266498D01*
X78804011Y-79266508D01*
X78782593Y-79374182D01*
X78773828Y-79390937D01*
X78769809Y-79409415D01*
X78751065Y-79434454D01*
X78750208Y-79436093D01*
X78748658Y-79437670D01*
X78673742Y-79512588D01*
X78673741Y-79512589D01*
X78586341Y-79599988D01*
X78586335Y-79599996D01*
X78517458Y-79703078D01*
X78517157Y-79703997D01*
X78470364Y-79816965D01*
X78456385Y-79887246D01*
X78454941Y-79894504D01*
X78454938Y-79894514D01*
X78446250Y-79938192D01*
X78446250Y-80960642D01*
X78426565Y-81027681D01*
X78425352Y-81029533D01*
X78364359Y-81120814D01*
X78364352Y-81120827D01*
X78304014Y-81266498D01*
X78304011Y-81266510D01*
X78273250Y-81421153D01*
X68073750Y-81421153D01*
X68073750Y-75132135D01*
X92149500Y-75132135D01*
X92149500Y-76927870D01*
X92149501Y-76927876D01*
X92155908Y-76987483D01*
X92206202Y-77122328D01*
X92206206Y-77122335D01*
X92292452Y-77237544D01*
X92292455Y-77237547D01*
X92407664Y-77323793D01*
X92407671Y-77323797D01*
X92452618Y-77340561D01*
X92542517Y-77374091D01*
X92602127Y-77380500D01*
X92612685Y-77380499D01*
X92679723Y-77400179D01*
X92700372Y-77416818D01*
X93370591Y-78087037D01*
X93307007Y-78104075D01*
X93192993Y-78169901D01*
X93099901Y-78262993D01*
X93034075Y-78377007D01*
X93017037Y-78440591D01*
X92384728Y-77808282D01*
X92384727Y-77808282D01*
X92345380Y-77862439D01*
X92248904Y-78051782D01*
X92183242Y-78253869D01*
X92183242Y-78253872D01*
X92150000Y-78463753D01*
X92150000Y-78676246D01*
X92183242Y-78886127D01*
X92183242Y-78886130D01*
X92248904Y-79088217D01*
X92345375Y-79277550D01*
X92384728Y-79331716D01*
X93017036Y-78699407D01*
X93034075Y-78762993D01*
X93099901Y-78877007D01*
X93192993Y-78970099D01*
X93307007Y-79035925D01*
X93370590Y-79052962D01*
X92738282Y-79685269D01*
X92738282Y-79685270D01*
X92792449Y-79724624D01*
X92981782Y-79821095D01*
X93183870Y-79886757D01*
X93393754Y-79920000D01*
X93606246Y-79920000D01*
X93816127Y-79886757D01*
X93816130Y-79886757D01*
X94018217Y-79821095D01*
X94207554Y-79724622D01*
X94261716Y-79685270D01*
X94261717Y-79685270D01*
X93629408Y-79052962D01*
X93692993Y-79035925D01*
X93807007Y-78970099D01*
X93900099Y-78877007D01*
X93965925Y-78762993D01*
X93982962Y-78699408D01*
X94615270Y-79331717D01*
X94615270Y-79331716D01*
X94654622Y-79277554D01*
X94751095Y-79088217D01*
X94816757Y-78886130D01*
X94816757Y-78886127D01*
X94850000Y-78676246D01*
X94850000Y-78463753D01*
X94816757Y-78253872D01*
X94816757Y-78253869D01*
X94751095Y-78051782D01*
X94654624Y-77862449D01*
X94615270Y-77808282D01*
X94615269Y-77808282D01*
X93982962Y-78440590D01*
X93965925Y-78377007D01*
X93900099Y-78262993D01*
X93807007Y-78169901D01*
X93692993Y-78104075D01*
X93629409Y-78087037D01*
X94299627Y-77416818D01*
X94360950Y-77383333D01*
X94387307Y-77380499D01*
X94397872Y-77380499D01*
X94457483Y-77374091D01*
X94592331Y-77323796D01*
X94707546Y-77237546D01*
X94793796Y-77122331D01*
X94844091Y-76987483D01*
X94850500Y-76927873D01*
X94850499Y-75933713D01*
X102149500Y-75933713D01*
X102149500Y-76146286D01*
X102182753Y-76356239D01*
X102248444Y-76558414D01*
X102344951Y-76747820D01*
X102469890Y-76919786D01*
X102583430Y-77033326D01*
X102616915Y-77094649D01*
X102611931Y-77164341D01*
X102570059Y-77220274D01*
X102539083Y-77237189D01*
X102407669Y-77286203D01*
X102407664Y-77286206D01*
X102292455Y-77372452D01*
X102292452Y-77372455D01*
X102206206Y-77487664D01*
X102206202Y-77487671D01*
X102155908Y-77622517D01*
X102149501Y-77682116D01*
X102149501Y-77682123D01*
X102149500Y-77682135D01*
X102149500Y-79477870D01*
X102149501Y-79477876D01*
X102155908Y-79537483D01*
X102206202Y-79672328D01*
X102206206Y-79672335D01*
X102292452Y-79787544D01*
X102292455Y-79787547D01*
X102407664Y-79873793D01*
X102407671Y-79873797D01*
X102542517Y-79924091D01*
X102542516Y-79924091D01*
X102549444Y-79924835D01*
X102602127Y-79930500D01*
X104397872Y-79930499D01*
X104457483Y-79924091D01*
X104592331Y-79873796D01*
X104707546Y-79787546D01*
X104793796Y-79672331D01*
X104844091Y-79537483D01*
X104850500Y-79477873D01*
X104850499Y-77682128D01*
X104844091Y-77622517D01*
X104826992Y-77576673D01*
X104793797Y-77487671D01*
X104793793Y-77487664D01*
X104707547Y-77372455D01*
X104707544Y-77372452D01*
X104592335Y-77286206D01*
X104592328Y-77286202D01*
X104460917Y-77237189D01*
X104404983Y-77195318D01*
X104380566Y-77129853D01*
X104395418Y-77061580D01*
X104416563Y-77033332D01*
X104530104Y-76919792D01*
X104655051Y-76747816D01*
X104751557Y-76558412D01*
X104817246Y-76356243D01*
X104850500Y-76146287D01*
X104850500Y-75933713D01*
X104817246Y-75723757D01*
X104751557Y-75521588D01*
X104655051Y-75332184D01*
X104655049Y-75332181D01*
X104655048Y-75332179D01*
X104560244Y-75201691D01*
X104530109Y-75160214D01*
X104530105Y-75160209D01*
X104502031Y-75132135D01*
X112149500Y-75132135D01*
X112149500Y-76927870D01*
X112149501Y-76927876D01*
X112155908Y-76987483D01*
X112206202Y-77122328D01*
X112206206Y-77122335D01*
X112292452Y-77237544D01*
X112292455Y-77237547D01*
X112407664Y-77323793D01*
X112407671Y-77323797D01*
X112539082Y-77372810D01*
X112595016Y-77414681D01*
X112619433Y-77480145D01*
X112604582Y-77548418D01*
X112583431Y-77576673D01*
X112469889Y-77690215D01*
X112344951Y-77862179D01*
X112248444Y-78051585D01*
X112182753Y-78253760D01*
X112149500Y-78463713D01*
X112149500Y-78676286D01*
X112182735Y-78886127D01*
X112182754Y-78886243D01*
X112210721Y-78972317D01*
X112248444Y-79088414D01*
X112344951Y-79277820D01*
X112469890Y-79449786D01*
X112620213Y-79600109D01*
X112792179Y-79725048D01*
X112792181Y-79725049D01*
X112792184Y-79725051D01*
X112981588Y-79821557D01*
X113183757Y-79887246D01*
X113393713Y-79920500D01*
X113393714Y-79920500D01*
X113606286Y-79920500D01*
X113606287Y-79920500D01*
X113816243Y-79887246D01*
X114018412Y-79821557D01*
X114207816Y-79725051D01*
X114229789Y-79709086D01*
X114379786Y-79600109D01*
X114379788Y-79600106D01*
X114379792Y-79600104D01*
X114530104Y-79449792D01*
X114530106Y-79449788D01*
X114530109Y-79449786D01*
X114655048Y-79277820D01*
X114655047Y-79277820D01*
X114655051Y-79277816D01*
X114751557Y-79088412D01*
X114817246Y-78886243D01*
X114850500Y-78676287D01*
X114850500Y-78463713D01*
X114817246Y-78253757D01*
X114751557Y-78051588D01*
X114655051Y-77862184D01*
X114655049Y-77862181D01*
X114655048Y-77862179D01*
X114530109Y-77690213D01*
X114416569Y-77576673D01*
X114383084Y-77515350D01*
X114388068Y-77445658D01*
X114429940Y-77389725D01*
X114460915Y-77372810D01*
X114592331Y-77323796D01*
X114707546Y-77237546D01*
X114793796Y-77122331D01*
X114844091Y-76987483D01*
X114850500Y-76927873D01*
X114850499Y-75132128D01*
X114844091Y-75072517D01*
X114793796Y-74937669D01*
X114793795Y-74937668D01*
X114793793Y-74937664D01*
X114707547Y-74822455D01*
X114707544Y-74822452D01*
X114592335Y-74736206D01*
X114592328Y-74736202D01*
X114457482Y-74685908D01*
X114457483Y-74685908D01*
X114397883Y-74679501D01*
X114397881Y-74679500D01*
X114397873Y-74679500D01*
X114397864Y-74679500D01*
X112602129Y-74679500D01*
X112602123Y-74679501D01*
X112542516Y-74685908D01*
X112407671Y-74736202D01*
X112407664Y-74736206D01*
X112292455Y-74822452D01*
X112292452Y-74822455D01*
X112206206Y-74937664D01*
X112206202Y-74937671D01*
X112155908Y-75072517D01*
X112149501Y-75132116D01*
X112149501Y-75132123D01*
X112149500Y-75132135D01*
X104502031Y-75132135D01*
X104379786Y-75009890D01*
X104207820Y-74884951D01*
X104018414Y-74788444D01*
X104018413Y-74788443D01*
X104018412Y-74788443D01*
X103816243Y-74722754D01*
X103816241Y-74722753D01*
X103816240Y-74722753D01*
X103654957Y-74697208D01*
X103606287Y-74689500D01*
X103393713Y-74689500D01*
X103345042Y-74697208D01*
X103183760Y-74722753D01*
X102981585Y-74788444D01*
X102792179Y-74884951D01*
X102620213Y-75009890D01*
X102469890Y-75160213D01*
X102344951Y-75332179D01*
X102248444Y-75521585D01*
X102182753Y-75723760D01*
X102149500Y-75933713D01*
X94850499Y-75933713D01*
X94850499Y-75132128D01*
X94844091Y-75072517D01*
X94793796Y-74937669D01*
X94793795Y-74937668D01*
X94793793Y-74937664D01*
X94707547Y-74822455D01*
X94707544Y-74822452D01*
X94592335Y-74736206D01*
X94592328Y-74736202D01*
X94457482Y-74685908D01*
X94457483Y-74685908D01*
X94397883Y-74679501D01*
X94397881Y-74679500D01*
X94397873Y-74679500D01*
X94397864Y-74679500D01*
X92602129Y-74679500D01*
X92602123Y-74679501D01*
X92542516Y-74685908D01*
X92407671Y-74736202D01*
X92407664Y-74736206D01*
X92292455Y-74822452D01*
X92292452Y-74822455D01*
X92206206Y-74937664D01*
X92206202Y-74937671D01*
X92155908Y-75072517D01*
X92149501Y-75132116D01*
X92149501Y-75132123D01*
X92149500Y-75132135D01*
X68073750Y-75132135D01*
X68073750Y-72624000D01*
X68093435Y-72556961D01*
X68146239Y-72511206D01*
X68197750Y-72500000D01*
X130949250Y-72500000D01*
X131016289Y-72519685D01*
G37*
%TD.AperFunction*%
%TD*%
M02*
