M48
; DRILL file {KiCad 9.0.7} date 2026-04-09T15:46:19-0500
; FORMAT={-:-/ absolute / metric / decimal}
; #@! TF.CreationDate,2026-04-09T15:46:19-05:00
; #@! TF.GenerationSoftware,Kicad,Pcbnew,9.0.7
; #@! TF.FileFunction,Plated,1,2,PTH
FMAT,2
METRIC
; #@! TA.AperFunction,Plated,PTH,ViaDrill
T1C0.300
; #@! TA.AperFunction,Plated,PTH,ComponentDrill
T2C0.300
; #@! TA.AperFunction,Plated,PTH,ComponentDrill
T3C1.000
; #@! TA.AperFunction,Plated,PTH,ComponentDrill
T4C1.100
%
G90
G05
T1
X57.0Y-121.0
X67.5Y-121.5
X70.074Y-115.0
X71.574Y-106.0
X71.574Y-120.5
X72.447Y-90.0
X73.074Y-88.0
X74.0Y-107.0
X79.074Y-81.5
X79.574Y-79.5
X80.574Y-78.5
X80.574Y-81.5
X81.0Y-106.5
X81.492Y-119.5
X81.492Y-120.5
X81.492Y-121.5
X81.492Y-122.5
X81.5Y-124.0
X81.574Y-87.5
X82.574Y-87.5
X83.201Y-122.5
X83.5Y-124.0
X84.074Y-87.5
X84.5Y-106.5
X85.0Y-111.5
X94.5Y-112.0
X100.045Y-106.275
X109.967Y-115.533
X111.033Y-114.467
T2
X75.134Y-95.17
X75.834Y-97.27
X76.564Y-95.87
X77.234Y-94.47
X77.934Y-96.57
T3
X81.5Y-126.0
X84.04Y-126.0
X86.58Y-126.0
X100.5Y-74.725
X100.5Y-77.265
X103.84Y-123.5
X106.38Y-123.5
X107.0Y-74.735
X107.0Y-77.275
X108.92Y-123.5
X111.46Y-123.5
X113.5Y-74.725
X113.5Y-77.265
X114.0Y-123.5
X116.54Y-123.5
X121.0Y-114.225
X121.0Y-116.765
T4
X95.46Y-104.23
X98.0Y-104.23
X100.54Y-104.23
M30
