%TF.GenerationSoftware,KiCad,Pcbnew,9.0.7*%
%TF.CreationDate,2026-04-05T23:58:25-05:00*%
%TF.ProjectId,audio_and_power,61756469-6f5f-4616-9e64-5f706f776572,rev?*%
%TF.SameCoordinates,Original*%
%TF.FileFunction,Legend,Top*%
%TF.FilePolarity,Positive*%
%FSLAX46Y46*%
G04 Gerber Fmt 4.6, Leading zero omitted, Abs format (unit mm)*
G04 Created by KiCad (PCBNEW 9.0.7) date 2026-04-05 23:58:25*
%MOMM*%
%LPD*%
G01*
G04 APERTURE LIST*
%ADD10C,0.100000*%
%ADD11C,0.150000*%
%ADD12C,0.120000*%
G04 APERTURE END LIST*
D10*
X54661027Y-64542587D02*
X55232455Y-64542587D01*
X54946741Y-65542587D02*
X54946741Y-64542587D01*
X55946741Y-65494968D02*
X55851503Y-65542587D01*
X55851503Y-65542587D02*
X55661027Y-65542587D01*
X55661027Y-65542587D02*
X55565789Y-65494968D01*
X55565789Y-65494968D02*
X55518170Y-65399729D01*
X55518170Y-65399729D02*
X55518170Y-65018777D01*
X55518170Y-65018777D02*
X55565789Y-64923539D01*
X55565789Y-64923539D02*
X55661027Y-64875920D01*
X55661027Y-64875920D02*
X55851503Y-64875920D01*
X55851503Y-64875920D02*
X55946741Y-64923539D01*
X55946741Y-64923539D02*
X55994360Y-65018777D01*
X55994360Y-65018777D02*
X55994360Y-65114015D01*
X55994360Y-65114015D02*
X55518170Y-65209253D01*
X56851503Y-65542587D02*
X56851503Y-65018777D01*
X56851503Y-65018777D02*
X56803884Y-64923539D01*
X56803884Y-64923539D02*
X56708646Y-64875920D01*
X56708646Y-64875920D02*
X56518170Y-64875920D01*
X56518170Y-64875920D02*
X56422932Y-64923539D01*
X56851503Y-65494968D02*
X56756265Y-65542587D01*
X56756265Y-65542587D02*
X56518170Y-65542587D01*
X56518170Y-65542587D02*
X56422932Y-65494968D01*
X56422932Y-65494968D02*
X56375313Y-65399729D01*
X56375313Y-65399729D02*
X56375313Y-65304491D01*
X56375313Y-65304491D02*
X56422932Y-65209253D01*
X56422932Y-65209253D02*
X56518170Y-65161634D01*
X56518170Y-65161634D02*
X56756265Y-65161634D01*
X56756265Y-65161634D02*
X56851503Y-65114015D01*
X57327694Y-65542587D02*
X57327694Y-64875920D01*
X57327694Y-64971158D02*
X57375313Y-64923539D01*
X57375313Y-64923539D02*
X57470551Y-64875920D01*
X57470551Y-64875920D02*
X57613408Y-64875920D01*
X57613408Y-64875920D02*
X57708646Y-64923539D01*
X57708646Y-64923539D02*
X57756265Y-65018777D01*
X57756265Y-65018777D02*
X57756265Y-65542587D01*
X57756265Y-65018777D02*
X57803884Y-64923539D01*
X57803884Y-64923539D02*
X57899122Y-64875920D01*
X57899122Y-64875920D02*
X58041979Y-64875920D01*
X58041979Y-64875920D02*
X58137218Y-64923539D01*
X58137218Y-64923539D02*
X58184837Y-65018777D01*
X58184837Y-65018777D02*
X58184837Y-65542587D01*
X59946741Y-65542587D02*
X59375313Y-65542587D01*
X59661027Y-65542587D02*
X59661027Y-64542587D01*
X59661027Y-64542587D02*
X59565789Y-64685444D01*
X59565789Y-64685444D02*
X59470551Y-64780682D01*
X59470551Y-64780682D02*
X59375313Y-64828301D01*
X60518170Y-64971158D02*
X60422932Y-64923539D01*
X60422932Y-64923539D02*
X60375313Y-64875920D01*
X60375313Y-64875920D02*
X60327694Y-64780682D01*
X60327694Y-64780682D02*
X60327694Y-64733063D01*
X60327694Y-64733063D02*
X60375313Y-64637825D01*
X60375313Y-64637825D02*
X60422932Y-64590206D01*
X60422932Y-64590206D02*
X60518170Y-64542587D01*
X60518170Y-64542587D02*
X60708646Y-64542587D01*
X60708646Y-64542587D02*
X60803884Y-64590206D01*
X60803884Y-64590206D02*
X60851503Y-64637825D01*
X60851503Y-64637825D02*
X60899122Y-64733063D01*
X60899122Y-64733063D02*
X60899122Y-64780682D01*
X60899122Y-64780682D02*
X60851503Y-64875920D01*
X60851503Y-64875920D02*
X60803884Y-64923539D01*
X60803884Y-64923539D02*
X60708646Y-64971158D01*
X60708646Y-64971158D02*
X60518170Y-64971158D01*
X60518170Y-64971158D02*
X60422932Y-65018777D01*
X60422932Y-65018777D02*
X60375313Y-65066396D01*
X60375313Y-65066396D02*
X60327694Y-65161634D01*
X60327694Y-65161634D02*
X60327694Y-65352110D01*
X60327694Y-65352110D02*
X60375313Y-65447348D01*
X60375313Y-65447348D02*
X60422932Y-65494968D01*
X60422932Y-65494968D02*
X60518170Y-65542587D01*
X60518170Y-65542587D02*
X60708646Y-65542587D01*
X60708646Y-65542587D02*
X60803884Y-65494968D01*
X60803884Y-65494968D02*
X60851503Y-65447348D01*
X60851503Y-65447348D02*
X60899122Y-65352110D01*
X60899122Y-65352110D02*
X60899122Y-65161634D01*
X60899122Y-65161634D02*
X60851503Y-65066396D01*
X60851503Y-65066396D02*
X60803884Y-65018777D01*
X60803884Y-65018777D02*
X60708646Y-64971158D01*
X55137217Y-66628721D02*
X55280074Y-66676340D01*
X55280074Y-66676340D02*
X55327693Y-66723959D01*
X55327693Y-66723959D02*
X55375312Y-66819197D01*
X55375312Y-66819197D02*
X55375312Y-66962054D01*
X55375312Y-66962054D02*
X55327693Y-67057292D01*
X55327693Y-67057292D02*
X55280074Y-67104912D01*
X55280074Y-67104912D02*
X55184836Y-67152531D01*
X55184836Y-67152531D02*
X54803884Y-67152531D01*
X54803884Y-67152531D02*
X54803884Y-66152531D01*
X54803884Y-66152531D02*
X55137217Y-66152531D01*
X55137217Y-66152531D02*
X55232455Y-66200150D01*
X55232455Y-66200150D02*
X55280074Y-66247769D01*
X55280074Y-66247769D02*
X55327693Y-66343007D01*
X55327693Y-66343007D02*
X55327693Y-66438245D01*
X55327693Y-66438245D02*
X55280074Y-66533483D01*
X55280074Y-66533483D02*
X55232455Y-66581102D01*
X55232455Y-66581102D02*
X55137217Y-66628721D01*
X55137217Y-66628721D02*
X54803884Y-66628721D01*
X56232455Y-67152531D02*
X56232455Y-66628721D01*
X56232455Y-66628721D02*
X56184836Y-66533483D01*
X56184836Y-66533483D02*
X56089598Y-66485864D01*
X56089598Y-66485864D02*
X55899122Y-66485864D01*
X55899122Y-66485864D02*
X55803884Y-66533483D01*
X56232455Y-67104912D02*
X56137217Y-67152531D01*
X56137217Y-67152531D02*
X55899122Y-67152531D01*
X55899122Y-67152531D02*
X55803884Y-67104912D01*
X55803884Y-67104912D02*
X55756265Y-67009673D01*
X55756265Y-67009673D02*
X55756265Y-66914435D01*
X55756265Y-66914435D02*
X55803884Y-66819197D01*
X55803884Y-66819197D02*
X55899122Y-66771578D01*
X55899122Y-66771578D02*
X56137217Y-66771578D01*
X56137217Y-66771578D02*
X56232455Y-66723959D01*
X56708646Y-67152531D02*
X56708646Y-66152531D01*
X56803884Y-66771578D02*
X57089598Y-67152531D01*
X57089598Y-66485864D02*
X56708646Y-66866816D01*
X57518170Y-67152531D02*
X57518170Y-66485864D01*
X57518170Y-66676340D02*
X57565789Y-66581102D01*
X57565789Y-66581102D02*
X57613408Y-66533483D01*
X57613408Y-66533483D02*
X57708646Y-66485864D01*
X57708646Y-66485864D02*
X57803884Y-66485864D01*
X58041980Y-66485864D02*
X58280075Y-67152531D01*
X58518170Y-66485864D02*
X58280075Y-67152531D01*
X58280075Y-67152531D02*
X58184837Y-67390626D01*
X58184837Y-67390626D02*
X58137218Y-67438245D01*
X58137218Y-67438245D02*
X58041980Y-67485864D01*
X59613409Y-66866816D02*
X60089599Y-66866816D01*
X59518171Y-67152531D02*
X59851504Y-66152531D01*
X59851504Y-66152531D02*
X60184837Y-67152531D01*
X60518171Y-67152531D02*
X60518171Y-66152531D01*
X60518171Y-66533483D02*
X60613409Y-66485864D01*
X60613409Y-66485864D02*
X60803885Y-66485864D01*
X60803885Y-66485864D02*
X60899123Y-66533483D01*
X60899123Y-66533483D02*
X60946742Y-66581102D01*
X60946742Y-66581102D02*
X60994361Y-66676340D01*
X60994361Y-66676340D02*
X60994361Y-66962054D01*
X60994361Y-66962054D02*
X60946742Y-67057292D01*
X60946742Y-67057292D02*
X60899123Y-67104912D01*
X60899123Y-67104912D02*
X60803885Y-67152531D01*
X60803885Y-67152531D02*
X60613409Y-67152531D01*
X60613409Y-67152531D02*
X60518171Y-67104912D01*
X61851504Y-67152531D02*
X61851504Y-66152531D01*
X61851504Y-67104912D02*
X61756266Y-67152531D01*
X61756266Y-67152531D02*
X61565790Y-67152531D01*
X61565790Y-67152531D02*
X61470552Y-67104912D01*
X61470552Y-67104912D02*
X61422933Y-67057292D01*
X61422933Y-67057292D02*
X61375314Y-66962054D01*
X61375314Y-66962054D02*
X61375314Y-66676340D01*
X61375314Y-66676340D02*
X61422933Y-66581102D01*
X61422933Y-66581102D02*
X61470552Y-66533483D01*
X61470552Y-66533483D02*
X61565790Y-66485864D01*
X61565790Y-66485864D02*
X61756266Y-66485864D01*
X61756266Y-66485864D02*
X61851504Y-66533483D01*
X62756266Y-67152531D02*
X62756266Y-66628721D01*
X62756266Y-66628721D02*
X62708647Y-66533483D01*
X62708647Y-66533483D02*
X62613409Y-66485864D01*
X62613409Y-66485864D02*
X62422933Y-66485864D01*
X62422933Y-66485864D02*
X62327695Y-66533483D01*
X62756266Y-67104912D02*
X62661028Y-67152531D01*
X62661028Y-67152531D02*
X62422933Y-67152531D01*
X62422933Y-67152531D02*
X62327695Y-67104912D01*
X62327695Y-67104912D02*
X62280076Y-67009673D01*
X62280076Y-67009673D02*
X62280076Y-66914435D01*
X62280076Y-66914435D02*
X62327695Y-66819197D01*
X62327695Y-66819197D02*
X62422933Y-66771578D01*
X62422933Y-66771578D02*
X62661028Y-66771578D01*
X62661028Y-66771578D02*
X62756266Y-66723959D01*
X63375314Y-67152531D02*
X63280076Y-67104912D01*
X63280076Y-67104912D02*
X63232457Y-67009673D01*
X63232457Y-67009673D02*
X63232457Y-66152531D01*
X63899124Y-67152531D02*
X63803886Y-67104912D01*
X63803886Y-67104912D02*
X63756267Y-67009673D01*
X63756267Y-67009673D02*
X63756267Y-66152531D01*
X64708648Y-67152531D02*
X64708648Y-66628721D01*
X64708648Y-66628721D02*
X64661029Y-66533483D01*
X64661029Y-66533483D02*
X64565791Y-66485864D01*
X64565791Y-66485864D02*
X64375315Y-66485864D01*
X64375315Y-66485864D02*
X64280077Y-66533483D01*
X64708648Y-67104912D02*
X64613410Y-67152531D01*
X64613410Y-67152531D02*
X64375315Y-67152531D01*
X64375315Y-67152531D02*
X64280077Y-67104912D01*
X64280077Y-67104912D02*
X64232458Y-67009673D01*
X64232458Y-67009673D02*
X64232458Y-66914435D01*
X64232458Y-66914435D02*
X64280077Y-66819197D01*
X64280077Y-66819197D02*
X64375315Y-66771578D01*
X64375315Y-66771578D02*
X64613410Y-66771578D01*
X64613410Y-66771578D02*
X64708648Y-66723959D01*
X65232458Y-67104912D02*
X65232458Y-67152531D01*
X65232458Y-67152531D02*
X65184839Y-67247769D01*
X65184839Y-67247769D02*
X65137220Y-67295388D01*
X66375315Y-67104912D02*
X66518172Y-67152531D01*
X66518172Y-67152531D02*
X66756267Y-67152531D01*
X66756267Y-67152531D02*
X66851505Y-67104912D01*
X66851505Y-67104912D02*
X66899124Y-67057292D01*
X66899124Y-67057292D02*
X66946743Y-66962054D01*
X66946743Y-66962054D02*
X66946743Y-66866816D01*
X66946743Y-66866816D02*
X66899124Y-66771578D01*
X66899124Y-66771578D02*
X66851505Y-66723959D01*
X66851505Y-66723959D02*
X66756267Y-66676340D01*
X66756267Y-66676340D02*
X66565791Y-66628721D01*
X66565791Y-66628721D02*
X66470553Y-66581102D01*
X66470553Y-66581102D02*
X66422934Y-66533483D01*
X66422934Y-66533483D02*
X66375315Y-66438245D01*
X66375315Y-66438245D02*
X66375315Y-66343007D01*
X66375315Y-66343007D02*
X66422934Y-66247769D01*
X66422934Y-66247769D02*
X66470553Y-66200150D01*
X66470553Y-66200150D02*
X66565791Y-66152531D01*
X66565791Y-66152531D02*
X66803886Y-66152531D01*
X66803886Y-66152531D02*
X66946743Y-66200150D01*
X67375315Y-67152531D02*
X67375315Y-66485864D01*
X67375315Y-66152531D02*
X67327696Y-66200150D01*
X67327696Y-66200150D02*
X67375315Y-66247769D01*
X67375315Y-66247769D02*
X67422934Y-66200150D01*
X67422934Y-66200150D02*
X67375315Y-66152531D01*
X67375315Y-66152531D02*
X67375315Y-66247769D01*
X68280076Y-67152531D02*
X68280076Y-66152531D01*
X68280076Y-67104912D02*
X68184838Y-67152531D01*
X68184838Y-67152531D02*
X67994362Y-67152531D01*
X67994362Y-67152531D02*
X67899124Y-67104912D01*
X67899124Y-67104912D02*
X67851505Y-67057292D01*
X67851505Y-67057292D02*
X67803886Y-66962054D01*
X67803886Y-66962054D02*
X67803886Y-66676340D01*
X67803886Y-66676340D02*
X67851505Y-66581102D01*
X67851505Y-66581102D02*
X67899124Y-66533483D01*
X67899124Y-66533483D02*
X67994362Y-66485864D01*
X67994362Y-66485864D02*
X68184838Y-66485864D01*
X68184838Y-66485864D02*
X68280076Y-66533483D01*
X70041981Y-66200150D02*
X69946743Y-66152531D01*
X69946743Y-66152531D02*
X69803886Y-66152531D01*
X69803886Y-66152531D02*
X69661029Y-66200150D01*
X69661029Y-66200150D02*
X69565791Y-66295388D01*
X69565791Y-66295388D02*
X69518172Y-66390626D01*
X69518172Y-66390626D02*
X69470553Y-66581102D01*
X69470553Y-66581102D02*
X69470553Y-66723959D01*
X69470553Y-66723959D02*
X69518172Y-66914435D01*
X69518172Y-66914435D02*
X69565791Y-67009673D01*
X69565791Y-67009673D02*
X69661029Y-67104912D01*
X69661029Y-67104912D02*
X69803886Y-67152531D01*
X69803886Y-67152531D02*
X69899124Y-67152531D01*
X69899124Y-67152531D02*
X70041981Y-67104912D01*
X70041981Y-67104912D02*
X70089600Y-67057292D01*
X70089600Y-67057292D02*
X70089600Y-66723959D01*
X70089600Y-66723959D02*
X69899124Y-66723959D01*
X70946743Y-66485864D02*
X70946743Y-67152531D01*
X70518172Y-66485864D02*
X70518172Y-67009673D01*
X70518172Y-67009673D02*
X70565791Y-67104912D01*
X70565791Y-67104912D02*
X70661029Y-67152531D01*
X70661029Y-67152531D02*
X70803886Y-67152531D01*
X70803886Y-67152531D02*
X70899124Y-67104912D01*
X70899124Y-67104912D02*
X70946743Y-67057292D01*
X71422934Y-67152531D02*
X71422934Y-66485864D01*
X71422934Y-66676340D02*
X71470553Y-66581102D01*
X71470553Y-66581102D02*
X71518172Y-66533483D01*
X71518172Y-66533483D02*
X71613410Y-66485864D01*
X71613410Y-66485864D02*
X71708648Y-66485864D01*
X72470553Y-66485864D02*
X72470553Y-67152531D01*
X72041982Y-66485864D02*
X72041982Y-67009673D01*
X72041982Y-67009673D02*
X72089601Y-67104912D01*
X72089601Y-67104912D02*
X72184839Y-67152531D01*
X72184839Y-67152531D02*
X72327696Y-67152531D01*
X72327696Y-67152531D02*
X72422934Y-67104912D01*
X72422934Y-67104912D02*
X72470553Y-67057292D01*
X72946744Y-67152531D02*
X72946744Y-66485864D01*
X72946744Y-66581102D02*
X72994363Y-66533483D01*
X72994363Y-66533483D02*
X73089601Y-66485864D01*
X73089601Y-66485864D02*
X73232458Y-66485864D01*
X73232458Y-66485864D02*
X73327696Y-66533483D01*
X73327696Y-66533483D02*
X73375315Y-66628721D01*
X73375315Y-66628721D02*
X73375315Y-67152531D01*
X73375315Y-66628721D02*
X73422934Y-66533483D01*
X73422934Y-66533483D02*
X73518172Y-66485864D01*
X73518172Y-66485864D02*
X73661029Y-66485864D01*
X73661029Y-66485864D02*
X73756268Y-66533483D01*
X73756268Y-66533483D02*
X73803887Y-66628721D01*
X73803887Y-66628721D02*
X73803887Y-67152531D01*
X74708648Y-66485864D02*
X74708648Y-67152531D01*
X74280077Y-66485864D02*
X74280077Y-67009673D01*
X74280077Y-67009673D02*
X74327696Y-67104912D01*
X74327696Y-67104912D02*
X74422934Y-67152531D01*
X74422934Y-67152531D02*
X74565791Y-67152531D01*
X74565791Y-67152531D02*
X74661029Y-67104912D01*
X74661029Y-67104912D02*
X74708648Y-67057292D01*
X75184839Y-67152531D02*
X75184839Y-66485864D01*
X75184839Y-66676340D02*
X75232458Y-66581102D01*
X75232458Y-66581102D02*
X75280077Y-66533483D01*
X75280077Y-66533483D02*
X75375315Y-66485864D01*
X75375315Y-66485864D02*
X75470553Y-66485864D01*
X75661030Y-66485864D02*
X76041982Y-66485864D01*
X75803887Y-66152531D02*
X75803887Y-67009673D01*
X75803887Y-67009673D02*
X75851506Y-67104912D01*
X75851506Y-67104912D02*
X75946744Y-67152531D01*
X75946744Y-67152531D02*
X76041982Y-67152531D01*
X76375316Y-67152531D02*
X76375316Y-66152531D01*
X76803887Y-67152531D02*
X76803887Y-66628721D01*
X76803887Y-66628721D02*
X76756268Y-66533483D01*
X76756268Y-66533483D02*
X76661030Y-66485864D01*
X76661030Y-66485864D02*
X76518173Y-66485864D01*
X76518173Y-66485864D02*
X76422935Y-66533483D01*
X76422935Y-66533483D02*
X76375316Y-66581102D01*
X77280078Y-67152531D02*
X77280078Y-66485864D01*
X77280078Y-66152531D02*
X77232459Y-66200150D01*
X77232459Y-66200150D02*
X77280078Y-66247769D01*
X77280078Y-66247769D02*
X77327697Y-66200150D01*
X77327697Y-66200150D02*
X77280078Y-66152531D01*
X77280078Y-66152531D02*
X77280078Y-66247769D01*
X77803887Y-67104912D02*
X77803887Y-67152531D01*
X77803887Y-67152531D02*
X77756268Y-67247769D01*
X77756268Y-67247769D02*
X77708649Y-67295388D01*
X79280077Y-66152531D02*
X79280077Y-66866816D01*
X79280077Y-66866816D02*
X79232458Y-67009673D01*
X79232458Y-67009673D02*
X79137220Y-67104912D01*
X79137220Y-67104912D02*
X78994363Y-67152531D01*
X78994363Y-67152531D02*
X78899125Y-67152531D01*
X79899125Y-67152531D02*
X79803887Y-67104912D01*
X79803887Y-67104912D02*
X79756268Y-67057292D01*
X79756268Y-67057292D02*
X79708649Y-66962054D01*
X79708649Y-66962054D02*
X79708649Y-66676340D01*
X79708649Y-66676340D02*
X79756268Y-66581102D01*
X79756268Y-66581102D02*
X79803887Y-66533483D01*
X79803887Y-66533483D02*
X79899125Y-66485864D01*
X79899125Y-66485864D02*
X80041982Y-66485864D01*
X80041982Y-66485864D02*
X80137220Y-66533483D01*
X80137220Y-66533483D02*
X80184839Y-66581102D01*
X80184839Y-66581102D02*
X80232458Y-66676340D01*
X80232458Y-66676340D02*
X80232458Y-66962054D01*
X80232458Y-66962054D02*
X80184839Y-67057292D01*
X80184839Y-67057292D02*
X80137220Y-67104912D01*
X80137220Y-67104912D02*
X80041982Y-67152531D01*
X80041982Y-67152531D02*
X79899125Y-67152531D01*
X80661030Y-67152531D02*
X80661030Y-66152531D01*
X81089601Y-67152531D02*
X81089601Y-66628721D01*
X81089601Y-66628721D02*
X81041982Y-66533483D01*
X81041982Y-66533483D02*
X80946744Y-66485864D01*
X80946744Y-66485864D02*
X80803887Y-66485864D01*
X80803887Y-66485864D02*
X80708649Y-66533483D01*
X80708649Y-66533483D02*
X80661030Y-66581102D01*
X81565792Y-66485864D02*
X81565792Y-67152531D01*
X81565792Y-66581102D02*
X81613411Y-66533483D01*
X81613411Y-66533483D02*
X81708649Y-66485864D01*
X81708649Y-66485864D02*
X81851506Y-66485864D01*
X81851506Y-66485864D02*
X81946744Y-66533483D01*
X81946744Y-66533483D02*
X81994363Y-66628721D01*
X81994363Y-66628721D02*
X81994363Y-67152531D01*
X83708649Y-67152531D02*
X83232459Y-67152531D01*
X83232459Y-67152531D02*
X83232459Y-66152531D01*
X84470554Y-66485864D02*
X84470554Y-67152531D01*
X84041983Y-66485864D02*
X84041983Y-67009673D01*
X84041983Y-67009673D02*
X84089602Y-67104912D01*
X84089602Y-67104912D02*
X84184840Y-67152531D01*
X84184840Y-67152531D02*
X84327697Y-67152531D01*
X84327697Y-67152531D02*
X84422935Y-67104912D01*
X84422935Y-67104912D02*
X84470554Y-67057292D01*
X85375316Y-67152531D02*
X85375316Y-66152531D01*
X85375316Y-67104912D02*
X85280078Y-67152531D01*
X85280078Y-67152531D02*
X85089602Y-67152531D01*
X85089602Y-67152531D02*
X84994364Y-67104912D01*
X84994364Y-67104912D02*
X84946745Y-67057292D01*
X84946745Y-67057292D02*
X84899126Y-66962054D01*
X84899126Y-66962054D02*
X84899126Y-66676340D01*
X84899126Y-66676340D02*
X84946745Y-66581102D01*
X84946745Y-66581102D02*
X84994364Y-66533483D01*
X84994364Y-66533483D02*
X85089602Y-66485864D01*
X85089602Y-66485864D02*
X85280078Y-66485864D01*
X85280078Y-66485864D02*
X85375316Y-66533483D01*
X86232459Y-67104912D02*
X86137221Y-67152531D01*
X86137221Y-67152531D02*
X85946745Y-67152531D01*
X85946745Y-67152531D02*
X85851507Y-67104912D01*
X85851507Y-67104912D02*
X85803888Y-67009673D01*
X85803888Y-67009673D02*
X85803888Y-66628721D01*
X85803888Y-66628721D02*
X85851507Y-66533483D01*
X85851507Y-66533483D02*
X85946745Y-66485864D01*
X85946745Y-66485864D02*
X86137221Y-66485864D01*
X86137221Y-66485864D02*
X86232459Y-66533483D01*
X86232459Y-66533483D02*
X86280078Y-66628721D01*
X86280078Y-66628721D02*
X86280078Y-66723959D01*
X86280078Y-66723959D02*
X85803888Y-66819197D01*
X86708650Y-67152531D02*
X86708650Y-66152531D01*
X86803888Y-66771578D02*
X87089602Y-67152531D01*
X87089602Y-66485864D02*
X86708650Y-66866816D01*
X87899126Y-67104912D02*
X87803888Y-67152531D01*
X87803888Y-67152531D02*
X87613412Y-67152531D01*
X87613412Y-67152531D02*
X87518174Y-67104912D01*
X87518174Y-67104912D02*
X87470555Y-67009673D01*
X87470555Y-67009673D02*
X87470555Y-66628721D01*
X87470555Y-66628721D02*
X87518174Y-66533483D01*
X87518174Y-66533483D02*
X87613412Y-66485864D01*
X87613412Y-66485864D02*
X87803888Y-66485864D01*
X87803888Y-66485864D02*
X87899126Y-66533483D01*
X87899126Y-66533483D02*
X87946745Y-66628721D01*
X87946745Y-66628721D02*
X87946745Y-66723959D01*
X87946745Y-66723959D02*
X87470555Y-66819197D01*
X54756265Y-68476760D02*
X55232455Y-68476760D01*
X54661027Y-68762475D02*
X54994360Y-67762475D01*
X54994360Y-67762475D02*
X55327693Y-68762475D01*
X56089598Y-68095808D02*
X56089598Y-68762475D01*
X55661027Y-68095808D02*
X55661027Y-68619617D01*
X55661027Y-68619617D02*
X55708646Y-68714856D01*
X55708646Y-68714856D02*
X55803884Y-68762475D01*
X55803884Y-68762475D02*
X55946741Y-68762475D01*
X55946741Y-68762475D02*
X56041979Y-68714856D01*
X56041979Y-68714856D02*
X56089598Y-68667236D01*
X56994360Y-68762475D02*
X56994360Y-67762475D01*
X56994360Y-68714856D02*
X56899122Y-68762475D01*
X56899122Y-68762475D02*
X56708646Y-68762475D01*
X56708646Y-68762475D02*
X56613408Y-68714856D01*
X56613408Y-68714856D02*
X56565789Y-68667236D01*
X56565789Y-68667236D02*
X56518170Y-68571998D01*
X56518170Y-68571998D02*
X56518170Y-68286284D01*
X56518170Y-68286284D02*
X56565789Y-68191046D01*
X56565789Y-68191046D02*
X56613408Y-68143427D01*
X56613408Y-68143427D02*
X56708646Y-68095808D01*
X56708646Y-68095808D02*
X56899122Y-68095808D01*
X56899122Y-68095808D02*
X56994360Y-68143427D01*
X57470551Y-68762475D02*
X57470551Y-68095808D01*
X57470551Y-67762475D02*
X57422932Y-67810094D01*
X57422932Y-67810094D02*
X57470551Y-67857713D01*
X57470551Y-67857713D02*
X57518170Y-67810094D01*
X57518170Y-67810094D02*
X57470551Y-67762475D01*
X57470551Y-67762475D02*
X57470551Y-67857713D01*
X58089598Y-68762475D02*
X57994360Y-68714856D01*
X57994360Y-68714856D02*
X57946741Y-68667236D01*
X57946741Y-68667236D02*
X57899122Y-68571998D01*
X57899122Y-68571998D02*
X57899122Y-68286284D01*
X57899122Y-68286284D02*
X57946741Y-68191046D01*
X57946741Y-68191046D02*
X57994360Y-68143427D01*
X57994360Y-68143427D02*
X58089598Y-68095808D01*
X58089598Y-68095808D02*
X58232455Y-68095808D01*
X58232455Y-68095808D02*
X58327693Y-68143427D01*
X58327693Y-68143427D02*
X58375312Y-68191046D01*
X58375312Y-68191046D02*
X58422931Y-68286284D01*
X58422931Y-68286284D02*
X58422931Y-68571998D01*
X58422931Y-68571998D02*
X58375312Y-68667236D01*
X58375312Y-68667236D02*
X58327693Y-68714856D01*
X58327693Y-68714856D02*
X58232455Y-68762475D01*
X58232455Y-68762475D02*
X58089598Y-68762475D01*
X59613408Y-68762475D02*
X59613408Y-67762475D01*
X59613408Y-67762475D02*
X59994360Y-67762475D01*
X59994360Y-67762475D02*
X60089598Y-67810094D01*
X60089598Y-67810094D02*
X60137217Y-67857713D01*
X60137217Y-67857713D02*
X60184836Y-67952951D01*
X60184836Y-67952951D02*
X60184836Y-68095808D01*
X60184836Y-68095808D02*
X60137217Y-68191046D01*
X60137217Y-68191046D02*
X60089598Y-68238665D01*
X60089598Y-68238665D02*
X59994360Y-68286284D01*
X59994360Y-68286284D02*
X59613408Y-68286284D01*
X60613408Y-68762475D02*
X60613408Y-68095808D01*
X60613408Y-68286284D02*
X60661027Y-68191046D01*
X60661027Y-68191046D02*
X60708646Y-68143427D01*
X60708646Y-68143427D02*
X60803884Y-68095808D01*
X60803884Y-68095808D02*
X60899122Y-68095808D01*
X61375313Y-68762475D02*
X61280075Y-68714856D01*
X61280075Y-68714856D02*
X61232456Y-68667236D01*
X61232456Y-68667236D02*
X61184837Y-68571998D01*
X61184837Y-68571998D02*
X61184837Y-68286284D01*
X61184837Y-68286284D02*
X61232456Y-68191046D01*
X61232456Y-68191046D02*
X61280075Y-68143427D01*
X61280075Y-68143427D02*
X61375313Y-68095808D01*
X61375313Y-68095808D02*
X61518170Y-68095808D01*
X61518170Y-68095808D02*
X61613408Y-68143427D01*
X61613408Y-68143427D02*
X61661027Y-68191046D01*
X61661027Y-68191046D02*
X61708646Y-68286284D01*
X61708646Y-68286284D02*
X61708646Y-68571998D01*
X61708646Y-68571998D02*
X61661027Y-68667236D01*
X61661027Y-68667236D02*
X61613408Y-68714856D01*
X61613408Y-68714856D02*
X61518170Y-68762475D01*
X61518170Y-68762475D02*
X61375313Y-68762475D01*
X62565789Y-68714856D02*
X62470551Y-68762475D01*
X62470551Y-68762475D02*
X62280075Y-68762475D01*
X62280075Y-68762475D02*
X62184837Y-68714856D01*
X62184837Y-68714856D02*
X62137218Y-68667236D01*
X62137218Y-68667236D02*
X62089599Y-68571998D01*
X62089599Y-68571998D02*
X62089599Y-68286284D01*
X62089599Y-68286284D02*
X62137218Y-68191046D01*
X62137218Y-68191046D02*
X62184837Y-68143427D01*
X62184837Y-68143427D02*
X62280075Y-68095808D01*
X62280075Y-68095808D02*
X62470551Y-68095808D01*
X62470551Y-68095808D02*
X62565789Y-68143427D01*
X63375313Y-68714856D02*
X63280075Y-68762475D01*
X63280075Y-68762475D02*
X63089599Y-68762475D01*
X63089599Y-68762475D02*
X62994361Y-68714856D01*
X62994361Y-68714856D02*
X62946742Y-68619617D01*
X62946742Y-68619617D02*
X62946742Y-68238665D01*
X62946742Y-68238665D02*
X62994361Y-68143427D01*
X62994361Y-68143427D02*
X63089599Y-68095808D01*
X63089599Y-68095808D02*
X63280075Y-68095808D01*
X63280075Y-68095808D02*
X63375313Y-68143427D01*
X63375313Y-68143427D02*
X63422932Y-68238665D01*
X63422932Y-68238665D02*
X63422932Y-68333903D01*
X63422932Y-68333903D02*
X62946742Y-68429141D01*
X63803885Y-68714856D02*
X63899123Y-68762475D01*
X63899123Y-68762475D02*
X64089599Y-68762475D01*
X64089599Y-68762475D02*
X64184837Y-68714856D01*
X64184837Y-68714856D02*
X64232456Y-68619617D01*
X64232456Y-68619617D02*
X64232456Y-68571998D01*
X64232456Y-68571998D02*
X64184837Y-68476760D01*
X64184837Y-68476760D02*
X64089599Y-68429141D01*
X64089599Y-68429141D02*
X63946742Y-68429141D01*
X63946742Y-68429141D02*
X63851504Y-68381522D01*
X63851504Y-68381522D02*
X63803885Y-68286284D01*
X63803885Y-68286284D02*
X63803885Y-68238665D01*
X63803885Y-68238665D02*
X63851504Y-68143427D01*
X63851504Y-68143427D02*
X63946742Y-68095808D01*
X63946742Y-68095808D02*
X64089599Y-68095808D01*
X64089599Y-68095808D02*
X64184837Y-68143427D01*
X64613409Y-68714856D02*
X64708647Y-68762475D01*
X64708647Y-68762475D02*
X64899123Y-68762475D01*
X64899123Y-68762475D02*
X64994361Y-68714856D01*
X64994361Y-68714856D02*
X65041980Y-68619617D01*
X65041980Y-68619617D02*
X65041980Y-68571998D01*
X65041980Y-68571998D02*
X64994361Y-68476760D01*
X64994361Y-68476760D02*
X64899123Y-68429141D01*
X64899123Y-68429141D02*
X64756266Y-68429141D01*
X64756266Y-68429141D02*
X64661028Y-68381522D01*
X64661028Y-68381522D02*
X64613409Y-68286284D01*
X64613409Y-68286284D02*
X64613409Y-68238665D01*
X64613409Y-68238665D02*
X64661028Y-68143427D01*
X64661028Y-68143427D02*
X64756266Y-68095808D01*
X64756266Y-68095808D02*
X64899123Y-68095808D01*
X64899123Y-68095808D02*
X64994361Y-68143427D01*
X65470552Y-68762475D02*
X65470552Y-68095808D01*
X65470552Y-67762475D02*
X65422933Y-67810094D01*
X65422933Y-67810094D02*
X65470552Y-67857713D01*
X65470552Y-67857713D02*
X65518171Y-67810094D01*
X65518171Y-67810094D02*
X65470552Y-67762475D01*
X65470552Y-67762475D02*
X65470552Y-67857713D01*
X65946742Y-68095808D02*
X65946742Y-68762475D01*
X65946742Y-68191046D02*
X65994361Y-68143427D01*
X65994361Y-68143427D02*
X66089599Y-68095808D01*
X66089599Y-68095808D02*
X66232456Y-68095808D01*
X66232456Y-68095808D02*
X66327694Y-68143427D01*
X66327694Y-68143427D02*
X66375313Y-68238665D01*
X66375313Y-68238665D02*
X66375313Y-68762475D01*
X67280075Y-68095808D02*
X67280075Y-68905332D01*
X67280075Y-68905332D02*
X67232456Y-69000570D01*
X67232456Y-69000570D02*
X67184837Y-69048189D01*
X67184837Y-69048189D02*
X67089599Y-69095808D01*
X67089599Y-69095808D02*
X66946742Y-69095808D01*
X66946742Y-69095808D02*
X66851504Y-69048189D01*
X67280075Y-68714856D02*
X67184837Y-68762475D01*
X67184837Y-68762475D02*
X66994361Y-68762475D01*
X66994361Y-68762475D02*
X66899123Y-68714856D01*
X66899123Y-68714856D02*
X66851504Y-68667236D01*
X66851504Y-68667236D02*
X66803885Y-68571998D01*
X66803885Y-68571998D02*
X66803885Y-68286284D01*
X66803885Y-68286284D02*
X66851504Y-68191046D01*
X66851504Y-68191046D02*
X66899123Y-68143427D01*
X66899123Y-68143427D02*
X66994361Y-68095808D01*
X66994361Y-68095808D02*
X67184837Y-68095808D01*
X67184837Y-68095808D02*
X67280075Y-68143427D01*
X68851504Y-68238665D02*
X68994361Y-68286284D01*
X68994361Y-68286284D02*
X69041980Y-68333903D01*
X69041980Y-68333903D02*
X69089599Y-68429141D01*
X69089599Y-68429141D02*
X69089599Y-68571998D01*
X69089599Y-68571998D02*
X69041980Y-68667236D01*
X69041980Y-68667236D02*
X68994361Y-68714856D01*
X68994361Y-68714856D02*
X68899123Y-68762475D01*
X68899123Y-68762475D02*
X68518171Y-68762475D01*
X68518171Y-68762475D02*
X68518171Y-67762475D01*
X68518171Y-67762475D02*
X68851504Y-67762475D01*
X68851504Y-67762475D02*
X68946742Y-67810094D01*
X68946742Y-67810094D02*
X68994361Y-67857713D01*
X68994361Y-67857713D02*
X69041980Y-67952951D01*
X69041980Y-67952951D02*
X69041980Y-68048189D01*
X69041980Y-68048189D02*
X68994361Y-68143427D01*
X68994361Y-68143427D02*
X68946742Y-68191046D01*
X68946742Y-68191046D02*
X68851504Y-68238665D01*
X68851504Y-68238665D02*
X68518171Y-68238665D01*
X69661028Y-68762475D02*
X69565790Y-68714856D01*
X69565790Y-68714856D02*
X69518171Y-68667236D01*
X69518171Y-68667236D02*
X69470552Y-68571998D01*
X69470552Y-68571998D02*
X69470552Y-68286284D01*
X69470552Y-68286284D02*
X69518171Y-68191046D01*
X69518171Y-68191046D02*
X69565790Y-68143427D01*
X69565790Y-68143427D02*
X69661028Y-68095808D01*
X69661028Y-68095808D02*
X69803885Y-68095808D01*
X69803885Y-68095808D02*
X69899123Y-68143427D01*
X69899123Y-68143427D02*
X69946742Y-68191046D01*
X69946742Y-68191046D02*
X69994361Y-68286284D01*
X69994361Y-68286284D02*
X69994361Y-68571998D01*
X69994361Y-68571998D02*
X69946742Y-68667236D01*
X69946742Y-68667236D02*
X69899123Y-68714856D01*
X69899123Y-68714856D02*
X69803885Y-68762475D01*
X69803885Y-68762475D02*
X69661028Y-68762475D01*
X70851504Y-68762475D02*
X70851504Y-68238665D01*
X70851504Y-68238665D02*
X70803885Y-68143427D01*
X70803885Y-68143427D02*
X70708647Y-68095808D01*
X70708647Y-68095808D02*
X70518171Y-68095808D01*
X70518171Y-68095808D02*
X70422933Y-68143427D01*
X70851504Y-68714856D02*
X70756266Y-68762475D01*
X70756266Y-68762475D02*
X70518171Y-68762475D01*
X70518171Y-68762475D02*
X70422933Y-68714856D01*
X70422933Y-68714856D02*
X70375314Y-68619617D01*
X70375314Y-68619617D02*
X70375314Y-68524379D01*
X70375314Y-68524379D02*
X70422933Y-68429141D01*
X70422933Y-68429141D02*
X70518171Y-68381522D01*
X70518171Y-68381522D02*
X70756266Y-68381522D01*
X70756266Y-68381522D02*
X70851504Y-68333903D01*
X71327695Y-68762475D02*
X71327695Y-68095808D01*
X71327695Y-68286284D02*
X71375314Y-68191046D01*
X71375314Y-68191046D02*
X71422933Y-68143427D01*
X71422933Y-68143427D02*
X71518171Y-68095808D01*
X71518171Y-68095808D02*
X71613409Y-68095808D01*
X72375314Y-68762475D02*
X72375314Y-67762475D01*
X72375314Y-68714856D02*
X72280076Y-68762475D01*
X72280076Y-68762475D02*
X72089600Y-68762475D01*
X72089600Y-68762475D02*
X71994362Y-68714856D01*
X71994362Y-68714856D02*
X71946743Y-68667236D01*
X71946743Y-68667236D02*
X71899124Y-68571998D01*
X71899124Y-68571998D02*
X71899124Y-68286284D01*
X71899124Y-68286284D02*
X71946743Y-68191046D01*
X71946743Y-68191046D02*
X71994362Y-68143427D01*
X71994362Y-68143427D02*
X72089600Y-68095808D01*
X72089600Y-68095808D02*
X72280076Y-68095808D01*
X72280076Y-68095808D02*
X72375314Y-68143427D01*
X72899124Y-68714856D02*
X72899124Y-68762475D01*
X72899124Y-68762475D02*
X72851505Y-68857713D01*
X72851505Y-68857713D02*
X72803886Y-68905332D01*
X74661028Y-68762475D02*
X74327695Y-68286284D01*
X74089600Y-68762475D02*
X74089600Y-67762475D01*
X74089600Y-67762475D02*
X74470552Y-67762475D01*
X74470552Y-67762475D02*
X74565790Y-67810094D01*
X74565790Y-67810094D02*
X74613409Y-67857713D01*
X74613409Y-67857713D02*
X74661028Y-67952951D01*
X74661028Y-67952951D02*
X74661028Y-68095808D01*
X74661028Y-68095808D02*
X74613409Y-68191046D01*
X74613409Y-68191046D02*
X74565790Y-68238665D01*
X74565790Y-68238665D02*
X74470552Y-68286284D01*
X74470552Y-68286284D02*
X74089600Y-68286284D01*
X75470552Y-68714856D02*
X75375314Y-68762475D01*
X75375314Y-68762475D02*
X75184838Y-68762475D01*
X75184838Y-68762475D02*
X75089600Y-68714856D01*
X75089600Y-68714856D02*
X75041981Y-68619617D01*
X75041981Y-68619617D02*
X75041981Y-68238665D01*
X75041981Y-68238665D02*
X75089600Y-68143427D01*
X75089600Y-68143427D02*
X75184838Y-68095808D01*
X75184838Y-68095808D02*
X75375314Y-68095808D01*
X75375314Y-68095808D02*
X75470552Y-68143427D01*
X75470552Y-68143427D02*
X75518171Y-68238665D01*
X75518171Y-68238665D02*
X75518171Y-68333903D01*
X75518171Y-68333903D02*
X75041981Y-68429141D01*
X75851505Y-68095808D02*
X76089600Y-68762475D01*
X76089600Y-68762475D02*
X76327695Y-68095808D01*
X77994362Y-68762475D02*
X77422934Y-68762475D01*
X77708648Y-68762475D02*
X77708648Y-67762475D01*
X77708648Y-67762475D02*
X77613410Y-67905332D01*
X77613410Y-67905332D02*
X77518172Y-68000570D01*
X77518172Y-68000570D02*
X77422934Y-68048189D01*
X54994360Y-69372419D02*
X55089598Y-69372419D01*
X55089598Y-69372419D02*
X55184836Y-69420038D01*
X55184836Y-69420038D02*
X55232455Y-69467657D01*
X55232455Y-69467657D02*
X55280074Y-69562895D01*
X55280074Y-69562895D02*
X55327693Y-69753371D01*
X55327693Y-69753371D02*
X55327693Y-69991466D01*
X55327693Y-69991466D02*
X55280074Y-70181942D01*
X55280074Y-70181942D02*
X55232455Y-70277180D01*
X55232455Y-70277180D02*
X55184836Y-70324800D01*
X55184836Y-70324800D02*
X55089598Y-70372419D01*
X55089598Y-70372419D02*
X54994360Y-70372419D01*
X54994360Y-70372419D02*
X54899122Y-70324800D01*
X54899122Y-70324800D02*
X54851503Y-70277180D01*
X54851503Y-70277180D02*
X54803884Y-70181942D01*
X54803884Y-70181942D02*
X54756265Y-69991466D01*
X54756265Y-69991466D02*
X54756265Y-69753371D01*
X54756265Y-69753371D02*
X54803884Y-69562895D01*
X54803884Y-69562895D02*
X54851503Y-69467657D01*
X54851503Y-69467657D02*
X54899122Y-69420038D01*
X54899122Y-69420038D02*
X54994360Y-69372419D01*
X56184836Y-69705752D02*
X56184836Y-70372419D01*
X55946741Y-69324800D02*
X55708646Y-70039085D01*
X55708646Y-70039085D02*
X56327693Y-70039085D01*
X57422931Y-69324800D02*
X56565789Y-70610514D01*
X57946741Y-69372419D02*
X58041979Y-69372419D01*
X58041979Y-69372419D02*
X58137217Y-69420038D01*
X58137217Y-69420038D02*
X58184836Y-69467657D01*
X58184836Y-69467657D02*
X58232455Y-69562895D01*
X58232455Y-69562895D02*
X58280074Y-69753371D01*
X58280074Y-69753371D02*
X58280074Y-69991466D01*
X58280074Y-69991466D02*
X58232455Y-70181942D01*
X58232455Y-70181942D02*
X58184836Y-70277180D01*
X58184836Y-70277180D02*
X58137217Y-70324800D01*
X58137217Y-70324800D02*
X58041979Y-70372419D01*
X58041979Y-70372419D02*
X57946741Y-70372419D01*
X57946741Y-70372419D02*
X57851503Y-70324800D01*
X57851503Y-70324800D02*
X57803884Y-70277180D01*
X57803884Y-70277180D02*
X57756265Y-70181942D01*
X57756265Y-70181942D02*
X57708646Y-69991466D01*
X57708646Y-69991466D02*
X57708646Y-69753371D01*
X57708646Y-69753371D02*
X57756265Y-69562895D01*
X57756265Y-69562895D02*
X57803884Y-69467657D01*
X57803884Y-69467657D02*
X57851503Y-69420038D01*
X57851503Y-69420038D02*
X57946741Y-69372419D01*
X59184836Y-69372419D02*
X58708646Y-69372419D01*
X58708646Y-69372419D02*
X58661027Y-69848609D01*
X58661027Y-69848609D02*
X58708646Y-69800990D01*
X58708646Y-69800990D02*
X58803884Y-69753371D01*
X58803884Y-69753371D02*
X59041979Y-69753371D01*
X59041979Y-69753371D02*
X59137217Y-69800990D01*
X59137217Y-69800990D02*
X59184836Y-69848609D01*
X59184836Y-69848609D02*
X59232455Y-69943847D01*
X59232455Y-69943847D02*
X59232455Y-70181942D01*
X59232455Y-70181942D02*
X59184836Y-70277180D01*
X59184836Y-70277180D02*
X59137217Y-70324800D01*
X59137217Y-70324800D02*
X59041979Y-70372419D01*
X59041979Y-70372419D02*
X58803884Y-70372419D01*
X58803884Y-70372419D02*
X58708646Y-70324800D01*
X58708646Y-70324800D02*
X58661027Y-70277180D01*
X60375312Y-69324800D02*
X59518170Y-70610514D01*
X60661027Y-69467657D02*
X60708646Y-69420038D01*
X60708646Y-69420038D02*
X60803884Y-69372419D01*
X60803884Y-69372419D02*
X61041979Y-69372419D01*
X61041979Y-69372419D02*
X61137217Y-69420038D01*
X61137217Y-69420038D02*
X61184836Y-69467657D01*
X61184836Y-69467657D02*
X61232455Y-69562895D01*
X61232455Y-69562895D02*
X61232455Y-69658133D01*
X61232455Y-69658133D02*
X61184836Y-69800990D01*
X61184836Y-69800990D02*
X60613408Y-70372419D01*
X60613408Y-70372419D02*
X61232455Y-70372419D01*
X62089598Y-69372419D02*
X61899122Y-69372419D01*
X61899122Y-69372419D02*
X61803884Y-69420038D01*
X61803884Y-69420038D02*
X61756265Y-69467657D01*
X61756265Y-69467657D02*
X61661027Y-69610514D01*
X61661027Y-69610514D02*
X61613408Y-69800990D01*
X61613408Y-69800990D02*
X61613408Y-70181942D01*
X61613408Y-70181942D02*
X61661027Y-70277180D01*
X61661027Y-70277180D02*
X61708646Y-70324800D01*
X61708646Y-70324800D02*
X61803884Y-70372419D01*
X61803884Y-70372419D02*
X61994360Y-70372419D01*
X61994360Y-70372419D02*
X62089598Y-70324800D01*
X62089598Y-70324800D02*
X62137217Y-70277180D01*
X62137217Y-70277180D02*
X62184836Y-70181942D01*
X62184836Y-70181942D02*
X62184836Y-69943847D01*
X62184836Y-69943847D02*
X62137217Y-69848609D01*
X62137217Y-69848609D02*
X62089598Y-69800990D01*
X62089598Y-69800990D02*
X61994360Y-69753371D01*
X61994360Y-69753371D02*
X61803884Y-69753371D01*
X61803884Y-69753371D02*
X61708646Y-69800990D01*
X61708646Y-69800990D02*
X61661027Y-69848609D01*
X61661027Y-69848609D02*
X61613408Y-69943847D01*
D11*
X127238095Y-62804819D02*
X127238095Y-61804819D01*
X127238095Y-62281009D02*
X127809523Y-62281009D01*
X127809523Y-62804819D02*
X127809523Y-61804819D01*
X128238095Y-61900057D02*
X128285714Y-61852438D01*
X128285714Y-61852438D02*
X128380952Y-61804819D01*
X128380952Y-61804819D02*
X128619047Y-61804819D01*
X128619047Y-61804819D02*
X128714285Y-61852438D01*
X128714285Y-61852438D02*
X128761904Y-61900057D01*
X128761904Y-61900057D02*
X128809523Y-61995295D01*
X128809523Y-61995295D02*
X128809523Y-62090533D01*
X128809523Y-62090533D02*
X128761904Y-62233390D01*
X128761904Y-62233390D02*
X128190476Y-62804819D01*
X128190476Y-62804819D02*
X128809523Y-62804819D01*
X95311845Y-122779819D02*
X95311845Y-123589342D01*
X95311845Y-123589342D02*
X95359464Y-123684580D01*
X95359464Y-123684580D02*
X95407083Y-123732200D01*
X95407083Y-123732200D02*
X95502321Y-123779819D01*
X95502321Y-123779819D02*
X95692797Y-123779819D01*
X95692797Y-123779819D02*
X95788035Y-123732200D01*
X95788035Y-123732200D02*
X95835654Y-123684580D01*
X95835654Y-123684580D02*
X95883273Y-123589342D01*
X95883273Y-123589342D02*
X95883273Y-122779819D01*
X96788035Y-122779819D02*
X96597559Y-122779819D01*
X96597559Y-122779819D02*
X96502321Y-122827438D01*
X96502321Y-122827438D02*
X96454702Y-122875057D01*
X96454702Y-122875057D02*
X96359464Y-123017914D01*
X96359464Y-123017914D02*
X96311845Y-123208390D01*
X96311845Y-123208390D02*
X96311845Y-123589342D01*
X96311845Y-123589342D02*
X96359464Y-123684580D01*
X96359464Y-123684580D02*
X96407083Y-123732200D01*
X96407083Y-123732200D02*
X96502321Y-123779819D01*
X96502321Y-123779819D02*
X96692797Y-123779819D01*
X96692797Y-123779819D02*
X96788035Y-123732200D01*
X96788035Y-123732200D02*
X96835654Y-123684580D01*
X96835654Y-123684580D02*
X96883273Y-123589342D01*
X96883273Y-123589342D02*
X96883273Y-123351247D01*
X96883273Y-123351247D02*
X96835654Y-123256009D01*
X96835654Y-123256009D02*
X96788035Y-123208390D01*
X96788035Y-123208390D02*
X96692797Y-123160771D01*
X96692797Y-123160771D02*
X96502321Y-123160771D01*
X96502321Y-123160771D02*
X96407083Y-123208390D01*
X96407083Y-123208390D02*
X96359464Y-123256009D01*
X96359464Y-123256009D02*
X96311845Y-123351247D01*
X130590950Y-85833332D02*
X130638569Y-85690475D01*
X130638569Y-85690475D02*
X130638569Y-85452380D01*
X130638569Y-85452380D02*
X130590950Y-85357142D01*
X130590950Y-85357142D02*
X130543330Y-85309523D01*
X130543330Y-85309523D02*
X130448092Y-85261904D01*
X130448092Y-85261904D02*
X130352854Y-85261904D01*
X130352854Y-85261904D02*
X130257616Y-85309523D01*
X130257616Y-85309523D02*
X130209997Y-85357142D01*
X130209997Y-85357142D02*
X130162378Y-85452380D01*
X130162378Y-85452380D02*
X130114759Y-85642856D01*
X130114759Y-85642856D02*
X130067140Y-85738094D01*
X130067140Y-85738094D02*
X130019521Y-85785713D01*
X130019521Y-85785713D02*
X129924283Y-85833332D01*
X129924283Y-85833332D02*
X129829045Y-85833332D01*
X129829045Y-85833332D02*
X129733807Y-85785713D01*
X129733807Y-85785713D02*
X129686188Y-85738094D01*
X129686188Y-85738094D02*
X129638569Y-85642856D01*
X129638569Y-85642856D02*
X129638569Y-85404761D01*
X129638569Y-85404761D02*
X129686188Y-85261904D01*
X129638569Y-84928570D02*
X130638569Y-84690475D01*
X130638569Y-84690475D02*
X129924283Y-84499999D01*
X129924283Y-84499999D02*
X130638569Y-84309523D01*
X130638569Y-84309523D02*
X129638569Y-84071428D01*
X130638569Y-83166666D02*
X130638569Y-83738094D01*
X130638569Y-83452380D02*
X129638569Y-83452380D01*
X129638569Y-83452380D02*
X129781426Y-83547618D01*
X129781426Y-83547618D02*
X129876664Y-83642856D01*
X129876664Y-83642856D02*
X129924283Y-83738094D01*
X110258569Y-138833333D02*
X110972854Y-138833333D01*
X110972854Y-138833333D02*
X111115711Y-138880952D01*
X111115711Y-138880952D02*
X111210950Y-138976190D01*
X111210950Y-138976190D02*
X111258569Y-139119047D01*
X111258569Y-139119047D02*
X111258569Y-139214285D01*
X110258569Y-137928571D02*
X110258569Y-138119047D01*
X110258569Y-138119047D02*
X110306188Y-138214285D01*
X110306188Y-138214285D02*
X110353807Y-138261904D01*
X110353807Y-138261904D02*
X110496664Y-138357142D01*
X110496664Y-138357142D02*
X110687140Y-138404761D01*
X110687140Y-138404761D02*
X111068092Y-138404761D01*
X111068092Y-138404761D02*
X111163330Y-138357142D01*
X111163330Y-138357142D02*
X111210950Y-138309523D01*
X111210950Y-138309523D02*
X111258569Y-138214285D01*
X111258569Y-138214285D02*
X111258569Y-138023809D01*
X111258569Y-138023809D02*
X111210950Y-137928571D01*
X111210950Y-137928571D02*
X111163330Y-137880952D01*
X111163330Y-137880952D02*
X111068092Y-137833333D01*
X111068092Y-137833333D02*
X110829997Y-137833333D01*
X110829997Y-137833333D02*
X110734759Y-137880952D01*
X110734759Y-137880952D02*
X110687140Y-137928571D01*
X110687140Y-137928571D02*
X110639521Y-138023809D01*
X110639521Y-138023809D02*
X110639521Y-138214285D01*
X110639521Y-138214285D02*
X110687140Y-138309523D01*
X110687140Y-138309523D02*
X110734759Y-138357142D01*
X110734759Y-138357142D02*
X110829997Y-138404761D01*
X124333330Y-107142857D02*
X124380950Y-107190476D01*
X124380950Y-107190476D02*
X124428569Y-107333333D01*
X124428569Y-107333333D02*
X124428569Y-107428571D01*
X124428569Y-107428571D02*
X124380950Y-107571428D01*
X124380950Y-107571428D02*
X124285711Y-107666666D01*
X124285711Y-107666666D02*
X124190473Y-107714285D01*
X124190473Y-107714285D02*
X123999997Y-107761904D01*
X123999997Y-107761904D02*
X123857140Y-107761904D01*
X123857140Y-107761904D02*
X123666664Y-107714285D01*
X123666664Y-107714285D02*
X123571426Y-107666666D01*
X123571426Y-107666666D02*
X123476188Y-107571428D01*
X123476188Y-107571428D02*
X123428569Y-107428571D01*
X123428569Y-107428571D02*
X123428569Y-107333333D01*
X123428569Y-107333333D02*
X123476188Y-107190476D01*
X123476188Y-107190476D02*
X123523807Y-107142857D01*
X124428569Y-106190476D02*
X124428569Y-106761904D01*
X124428569Y-106476190D02*
X123428569Y-106476190D01*
X123428569Y-106476190D02*
X123571426Y-106571428D01*
X123571426Y-106571428D02*
X123666664Y-106666666D01*
X123666664Y-106666666D02*
X123714283Y-106761904D01*
X123428569Y-105857142D02*
X123428569Y-105190476D01*
X123428569Y-105190476D02*
X124428569Y-105619047D01*
X49740417Y-134357200D02*
X49883274Y-134404819D01*
X49883274Y-134404819D02*
X50121369Y-134404819D01*
X50121369Y-134404819D02*
X50216607Y-134357200D01*
X50216607Y-134357200D02*
X50264226Y-134309580D01*
X50264226Y-134309580D02*
X50311845Y-134214342D01*
X50311845Y-134214342D02*
X50311845Y-134119104D01*
X50311845Y-134119104D02*
X50264226Y-134023866D01*
X50264226Y-134023866D02*
X50216607Y-133976247D01*
X50216607Y-133976247D02*
X50121369Y-133928628D01*
X50121369Y-133928628D02*
X49930893Y-133881009D01*
X49930893Y-133881009D02*
X49835655Y-133833390D01*
X49835655Y-133833390D02*
X49788036Y-133785771D01*
X49788036Y-133785771D02*
X49740417Y-133690533D01*
X49740417Y-133690533D02*
X49740417Y-133595295D01*
X49740417Y-133595295D02*
X49788036Y-133500057D01*
X49788036Y-133500057D02*
X49835655Y-133452438D01*
X49835655Y-133452438D02*
X49930893Y-133404819D01*
X49930893Y-133404819D02*
X50168988Y-133404819D01*
X50168988Y-133404819D02*
X50311845Y-133452438D01*
X50645179Y-133404819D02*
X50883274Y-134404819D01*
X50883274Y-134404819D02*
X51073750Y-133690533D01*
X51073750Y-133690533D02*
X51264226Y-134404819D01*
X51264226Y-134404819D02*
X51502322Y-133404819D01*
X52311845Y-133738152D02*
X52311845Y-134404819D01*
X52073750Y-133357200D02*
X51835655Y-134071485D01*
X51835655Y-134071485D02*
X52454702Y-134071485D01*
X112714285Y-73581009D02*
X112857142Y-73628628D01*
X112857142Y-73628628D02*
X112904761Y-73676247D01*
X112904761Y-73676247D02*
X112952380Y-73771485D01*
X112952380Y-73771485D02*
X112952380Y-73914342D01*
X112952380Y-73914342D02*
X112904761Y-74009580D01*
X112904761Y-74009580D02*
X112857142Y-74057200D01*
X112857142Y-74057200D02*
X112761904Y-74104819D01*
X112761904Y-74104819D02*
X112380952Y-74104819D01*
X112380952Y-74104819D02*
X112380952Y-73104819D01*
X112380952Y-73104819D02*
X112714285Y-73104819D01*
X112714285Y-73104819D02*
X112809523Y-73152438D01*
X112809523Y-73152438D02*
X112857142Y-73200057D01*
X112857142Y-73200057D02*
X112904761Y-73295295D01*
X112904761Y-73295295D02*
X112904761Y-73390533D01*
X112904761Y-73390533D02*
X112857142Y-73485771D01*
X112857142Y-73485771D02*
X112809523Y-73533390D01*
X112809523Y-73533390D02*
X112714285Y-73581009D01*
X112714285Y-73581009D02*
X112380952Y-73581009D01*
X113238095Y-73104819D02*
X113809523Y-73104819D01*
X113523809Y-74104819D02*
X113523809Y-73104819D01*
X114047619Y-73104819D02*
X114666666Y-73104819D01*
X114666666Y-73104819D02*
X114333333Y-73485771D01*
X114333333Y-73485771D02*
X114476190Y-73485771D01*
X114476190Y-73485771D02*
X114571428Y-73533390D01*
X114571428Y-73533390D02*
X114619047Y-73581009D01*
X114619047Y-73581009D02*
X114666666Y-73676247D01*
X114666666Y-73676247D02*
X114666666Y-73914342D01*
X114666666Y-73914342D02*
X114619047Y-74009580D01*
X114619047Y-74009580D02*
X114571428Y-74057200D01*
X114571428Y-74057200D02*
X114476190Y-74104819D01*
X114476190Y-74104819D02*
X114190476Y-74104819D01*
X114190476Y-74104819D02*
X114095238Y-74057200D01*
X114095238Y-74057200D02*
X114047619Y-74009580D01*
X84731845Y-104434819D02*
X84731845Y-105244342D01*
X84731845Y-105244342D02*
X84779464Y-105339580D01*
X84779464Y-105339580D02*
X84827083Y-105387200D01*
X84827083Y-105387200D02*
X84922321Y-105434819D01*
X84922321Y-105434819D02*
X85112797Y-105434819D01*
X85112797Y-105434819D02*
X85208035Y-105387200D01*
X85208035Y-105387200D02*
X85255654Y-105339580D01*
X85255654Y-105339580D02*
X85303273Y-105244342D01*
X85303273Y-105244342D02*
X85303273Y-104434819D01*
X85731845Y-104530057D02*
X85779464Y-104482438D01*
X85779464Y-104482438D02*
X85874702Y-104434819D01*
X85874702Y-104434819D02*
X86112797Y-104434819D01*
X86112797Y-104434819D02*
X86208035Y-104482438D01*
X86208035Y-104482438D02*
X86255654Y-104530057D01*
X86255654Y-104530057D02*
X86303273Y-104625295D01*
X86303273Y-104625295D02*
X86303273Y-104720533D01*
X86303273Y-104720533D02*
X86255654Y-104863390D01*
X86255654Y-104863390D02*
X85684226Y-105434819D01*
X85684226Y-105434819D02*
X86303273Y-105434819D01*
X67407083Y-127929580D02*
X67359464Y-127977200D01*
X67359464Y-127977200D02*
X67216607Y-128024819D01*
X67216607Y-128024819D02*
X67121369Y-128024819D01*
X67121369Y-128024819D02*
X66978512Y-127977200D01*
X66978512Y-127977200D02*
X66883274Y-127881961D01*
X66883274Y-127881961D02*
X66835655Y-127786723D01*
X66835655Y-127786723D02*
X66788036Y-127596247D01*
X66788036Y-127596247D02*
X66788036Y-127453390D01*
X66788036Y-127453390D02*
X66835655Y-127262914D01*
X66835655Y-127262914D02*
X66883274Y-127167676D01*
X66883274Y-127167676D02*
X66978512Y-127072438D01*
X66978512Y-127072438D02*
X67121369Y-127024819D01*
X67121369Y-127024819D02*
X67216607Y-127024819D01*
X67216607Y-127024819D02*
X67359464Y-127072438D01*
X67359464Y-127072438D02*
X67407083Y-127120057D01*
X67740417Y-127024819D02*
X68407083Y-127024819D01*
X68407083Y-127024819D02*
X67978512Y-128024819D01*
X48811845Y-62804819D02*
X48811845Y-61804819D01*
X48811845Y-62281009D02*
X49383273Y-62281009D01*
X49383273Y-62804819D02*
X49383273Y-61804819D01*
X50383273Y-62804819D02*
X49811845Y-62804819D01*
X50097559Y-62804819D02*
X50097559Y-61804819D01*
X50097559Y-61804819D02*
X50002321Y-61947676D01*
X50002321Y-61947676D02*
X49907083Y-62042914D01*
X49907083Y-62042914D02*
X49811845Y-62090533D01*
X69098569Y-112666666D02*
X68622378Y-112999999D01*
X69098569Y-113238094D02*
X68098569Y-113238094D01*
X68098569Y-113238094D02*
X68098569Y-112857142D01*
X68098569Y-112857142D02*
X68146188Y-112761904D01*
X68146188Y-112761904D02*
X68193807Y-112714285D01*
X68193807Y-112714285D02*
X68289045Y-112666666D01*
X68289045Y-112666666D02*
X68431902Y-112666666D01*
X68431902Y-112666666D02*
X68527140Y-112714285D01*
X68527140Y-112714285D02*
X68574759Y-112761904D01*
X68574759Y-112761904D02*
X68622378Y-112857142D01*
X68622378Y-112857142D02*
X68622378Y-113238094D01*
X68098569Y-111809523D02*
X68098569Y-111999999D01*
X68098569Y-111999999D02*
X68146188Y-112095237D01*
X68146188Y-112095237D02*
X68193807Y-112142856D01*
X68193807Y-112142856D02*
X68336664Y-112238094D01*
X68336664Y-112238094D02*
X68527140Y-112285713D01*
X68527140Y-112285713D02*
X68908092Y-112285713D01*
X68908092Y-112285713D02*
X69003330Y-112238094D01*
X69003330Y-112238094D02*
X69050950Y-112190475D01*
X69050950Y-112190475D02*
X69098569Y-112095237D01*
X69098569Y-112095237D02*
X69098569Y-111904761D01*
X69098569Y-111904761D02*
X69050950Y-111809523D01*
X69050950Y-111809523D02*
X69003330Y-111761904D01*
X69003330Y-111761904D02*
X68908092Y-111714285D01*
X68908092Y-111714285D02*
X68669997Y-111714285D01*
X68669997Y-111714285D02*
X68574759Y-111761904D01*
X68574759Y-111761904D02*
X68527140Y-111809523D01*
X68527140Y-111809523D02*
X68479521Y-111904761D01*
X68479521Y-111904761D02*
X68479521Y-112095237D01*
X68479521Y-112095237D02*
X68527140Y-112190475D01*
X68527140Y-112190475D02*
X68574759Y-112238094D01*
X68574759Y-112238094D02*
X68669997Y-112285713D01*
X64240417Y-134257200D02*
X64383274Y-134304819D01*
X64383274Y-134304819D02*
X64621369Y-134304819D01*
X64621369Y-134304819D02*
X64716607Y-134257200D01*
X64716607Y-134257200D02*
X64764226Y-134209580D01*
X64764226Y-134209580D02*
X64811845Y-134114342D01*
X64811845Y-134114342D02*
X64811845Y-134019104D01*
X64811845Y-134019104D02*
X64764226Y-133923866D01*
X64764226Y-133923866D02*
X64716607Y-133876247D01*
X64716607Y-133876247D02*
X64621369Y-133828628D01*
X64621369Y-133828628D02*
X64430893Y-133781009D01*
X64430893Y-133781009D02*
X64335655Y-133733390D01*
X64335655Y-133733390D02*
X64288036Y-133685771D01*
X64288036Y-133685771D02*
X64240417Y-133590533D01*
X64240417Y-133590533D02*
X64240417Y-133495295D01*
X64240417Y-133495295D02*
X64288036Y-133400057D01*
X64288036Y-133400057D02*
X64335655Y-133352438D01*
X64335655Y-133352438D02*
X64430893Y-133304819D01*
X64430893Y-133304819D02*
X64668988Y-133304819D01*
X64668988Y-133304819D02*
X64811845Y-133352438D01*
X65145179Y-133304819D02*
X65383274Y-134304819D01*
X65383274Y-134304819D02*
X65573750Y-133590533D01*
X65573750Y-133590533D02*
X65764226Y-134304819D01*
X65764226Y-134304819D02*
X66002322Y-133304819D01*
X66859464Y-133304819D02*
X66383274Y-133304819D01*
X66383274Y-133304819D02*
X66335655Y-133781009D01*
X66335655Y-133781009D02*
X66383274Y-133733390D01*
X66383274Y-133733390D02*
X66478512Y-133685771D01*
X66478512Y-133685771D02*
X66716607Y-133685771D01*
X66716607Y-133685771D02*
X66811845Y-133733390D01*
X66811845Y-133733390D02*
X66859464Y-133781009D01*
X66859464Y-133781009D02*
X66907083Y-133876247D01*
X66907083Y-133876247D02*
X66907083Y-134114342D01*
X66907083Y-134114342D02*
X66859464Y-134209580D01*
X66859464Y-134209580D02*
X66811845Y-134257200D01*
X66811845Y-134257200D02*
X66716607Y-134304819D01*
X66716607Y-134304819D02*
X66478512Y-134304819D01*
X66478512Y-134304819D02*
X66383274Y-134257200D01*
X66383274Y-134257200D02*
X66335655Y-134209580D01*
X105238095Y-84274819D02*
X105238095Y-85084342D01*
X105238095Y-85084342D02*
X105285714Y-85179580D01*
X105285714Y-85179580D02*
X105333333Y-85227200D01*
X105333333Y-85227200D02*
X105428571Y-85274819D01*
X105428571Y-85274819D02*
X105619047Y-85274819D01*
X105619047Y-85274819D02*
X105714285Y-85227200D01*
X105714285Y-85227200D02*
X105761904Y-85179580D01*
X105761904Y-85179580D02*
X105809523Y-85084342D01*
X105809523Y-85084342D02*
X105809523Y-84274819D01*
X106428571Y-84703390D02*
X106333333Y-84655771D01*
X106333333Y-84655771D02*
X106285714Y-84608152D01*
X106285714Y-84608152D02*
X106238095Y-84512914D01*
X106238095Y-84512914D02*
X106238095Y-84465295D01*
X106238095Y-84465295D02*
X106285714Y-84370057D01*
X106285714Y-84370057D02*
X106333333Y-84322438D01*
X106333333Y-84322438D02*
X106428571Y-84274819D01*
X106428571Y-84274819D02*
X106619047Y-84274819D01*
X106619047Y-84274819D02*
X106714285Y-84322438D01*
X106714285Y-84322438D02*
X106761904Y-84370057D01*
X106761904Y-84370057D02*
X106809523Y-84465295D01*
X106809523Y-84465295D02*
X106809523Y-84512914D01*
X106809523Y-84512914D02*
X106761904Y-84608152D01*
X106761904Y-84608152D02*
X106714285Y-84655771D01*
X106714285Y-84655771D02*
X106619047Y-84703390D01*
X106619047Y-84703390D02*
X106428571Y-84703390D01*
X106428571Y-84703390D02*
X106333333Y-84751009D01*
X106333333Y-84751009D02*
X106285714Y-84798628D01*
X106285714Y-84798628D02*
X106238095Y-84893866D01*
X106238095Y-84893866D02*
X106238095Y-85084342D01*
X106238095Y-85084342D02*
X106285714Y-85179580D01*
X106285714Y-85179580D02*
X106333333Y-85227200D01*
X106333333Y-85227200D02*
X106428571Y-85274819D01*
X106428571Y-85274819D02*
X106619047Y-85274819D01*
X106619047Y-85274819D02*
X106714285Y-85227200D01*
X106714285Y-85227200D02*
X106761904Y-85179580D01*
X106761904Y-85179580D02*
X106809523Y-85084342D01*
X106809523Y-85084342D02*
X106809523Y-84893866D01*
X106809523Y-84893866D02*
X106761904Y-84798628D01*
X106761904Y-84798628D02*
X106714285Y-84751009D01*
X106714285Y-84751009D02*
X106619047Y-84703390D01*
X129528569Y-98043094D02*
X128528569Y-98043094D01*
X128528569Y-98043094D02*
X128528569Y-97804999D01*
X128528569Y-97804999D02*
X128576188Y-97662142D01*
X128576188Y-97662142D02*
X128671426Y-97566904D01*
X128671426Y-97566904D02*
X128766664Y-97519285D01*
X128766664Y-97519285D02*
X128957140Y-97471666D01*
X128957140Y-97471666D02*
X129099997Y-97471666D01*
X129099997Y-97471666D02*
X129290473Y-97519285D01*
X129290473Y-97519285D02*
X129385711Y-97566904D01*
X129385711Y-97566904D02*
X129480950Y-97662142D01*
X129480950Y-97662142D02*
X129528569Y-97804999D01*
X129528569Y-97804999D02*
X129528569Y-98043094D01*
X129528569Y-96519285D02*
X129528569Y-97090713D01*
X129528569Y-96804999D02*
X128528569Y-96804999D01*
X128528569Y-96804999D02*
X128671426Y-96900237D01*
X128671426Y-96900237D02*
X128766664Y-96995475D01*
X128766664Y-96995475D02*
X128814283Y-97090713D01*
X92714285Y-73581009D02*
X92857142Y-73628628D01*
X92857142Y-73628628D02*
X92904761Y-73676247D01*
X92904761Y-73676247D02*
X92952380Y-73771485D01*
X92952380Y-73771485D02*
X92952380Y-73914342D01*
X92952380Y-73914342D02*
X92904761Y-74009580D01*
X92904761Y-74009580D02*
X92857142Y-74057200D01*
X92857142Y-74057200D02*
X92761904Y-74104819D01*
X92761904Y-74104819D02*
X92380952Y-74104819D01*
X92380952Y-74104819D02*
X92380952Y-73104819D01*
X92380952Y-73104819D02*
X92714285Y-73104819D01*
X92714285Y-73104819D02*
X92809523Y-73152438D01*
X92809523Y-73152438D02*
X92857142Y-73200057D01*
X92857142Y-73200057D02*
X92904761Y-73295295D01*
X92904761Y-73295295D02*
X92904761Y-73390533D01*
X92904761Y-73390533D02*
X92857142Y-73485771D01*
X92857142Y-73485771D02*
X92809523Y-73533390D01*
X92809523Y-73533390D02*
X92714285Y-73581009D01*
X92714285Y-73581009D02*
X92380952Y-73581009D01*
X93238095Y-73104819D02*
X93809523Y-73104819D01*
X93523809Y-74104819D02*
X93523809Y-73104819D01*
X94666666Y-74104819D02*
X94095238Y-74104819D01*
X94380952Y-74104819D02*
X94380952Y-73104819D01*
X94380952Y-73104819D02*
X94285714Y-73247676D01*
X94285714Y-73247676D02*
X94190476Y-73342914D01*
X94190476Y-73342914D02*
X94095238Y-73390533D01*
X105155892Y-118204580D02*
X105108273Y-118252200D01*
X105108273Y-118252200D02*
X104965416Y-118299819D01*
X104965416Y-118299819D02*
X104870178Y-118299819D01*
X104870178Y-118299819D02*
X104727321Y-118252200D01*
X104727321Y-118252200D02*
X104632083Y-118156961D01*
X104632083Y-118156961D02*
X104584464Y-118061723D01*
X104584464Y-118061723D02*
X104536845Y-117871247D01*
X104536845Y-117871247D02*
X104536845Y-117728390D01*
X104536845Y-117728390D02*
X104584464Y-117537914D01*
X104584464Y-117537914D02*
X104632083Y-117442676D01*
X104632083Y-117442676D02*
X104727321Y-117347438D01*
X104727321Y-117347438D02*
X104870178Y-117299819D01*
X104870178Y-117299819D02*
X104965416Y-117299819D01*
X104965416Y-117299819D02*
X105108273Y-117347438D01*
X105108273Y-117347438D02*
X105155892Y-117395057D01*
X105489226Y-117299819D02*
X106108273Y-117299819D01*
X106108273Y-117299819D02*
X105774940Y-117680771D01*
X105774940Y-117680771D02*
X105917797Y-117680771D01*
X105917797Y-117680771D02*
X106013035Y-117728390D01*
X106013035Y-117728390D02*
X106060654Y-117776009D01*
X106060654Y-117776009D02*
X106108273Y-117871247D01*
X106108273Y-117871247D02*
X106108273Y-118109342D01*
X106108273Y-118109342D02*
X106060654Y-118204580D01*
X106060654Y-118204580D02*
X106013035Y-118252200D01*
X106013035Y-118252200D02*
X105917797Y-118299819D01*
X105917797Y-118299819D02*
X105632083Y-118299819D01*
X105632083Y-118299819D02*
X105536845Y-118252200D01*
X105536845Y-118252200D02*
X105489226Y-118204580D01*
X106584464Y-118299819D02*
X106774940Y-118299819D01*
X106774940Y-118299819D02*
X106870178Y-118252200D01*
X106870178Y-118252200D02*
X106917797Y-118204580D01*
X106917797Y-118204580D02*
X107013035Y-118061723D01*
X107013035Y-118061723D02*
X107060654Y-117871247D01*
X107060654Y-117871247D02*
X107060654Y-117490295D01*
X107060654Y-117490295D02*
X107013035Y-117395057D01*
X107013035Y-117395057D02*
X106965416Y-117347438D01*
X106965416Y-117347438D02*
X106870178Y-117299819D01*
X106870178Y-117299819D02*
X106679702Y-117299819D01*
X106679702Y-117299819D02*
X106584464Y-117347438D01*
X106584464Y-117347438D02*
X106536845Y-117395057D01*
X106536845Y-117395057D02*
X106489226Y-117490295D01*
X106489226Y-117490295D02*
X106489226Y-117728390D01*
X106489226Y-117728390D02*
X106536845Y-117823628D01*
X106536845Y-117823628D02*
X106584464Y-117871247D01*
X106584464Y-117871247D02*
X106679702Y-117918866D01*
X106679702Y-117918866D02*
X106870178Y-117918866D01*
X106870178Y-117918866D02*
X106965416Y-117871247D01*
X106965416Y-117871247D02*
X107013035Y-117823628D01*
X107013035Y-117823628D02*
X107060654Y-117728390D01*
X115311845Y-122779819D02*
X115311845Y-123589342D01*
X115311845Y-123589342D02*
X115359464Y-123684580D01*
X115359464Y-123684580D02*
X115407083Y-123732200D01*
X115407083Y-123732200D02*
X115502321Y-123779819D01*
X115502321Y-123779819D02*
X115692797Y-123779819D01*
X115692797Y-123779819D02*
X115788035Y-123732200D01*
X115788035Y-123732200D02*
X115835654Y-123684580D01*
X115835654Y-123684580D02*
X115883273Y-123589342D01*
X115883273Y-123589342D02*
X115883273Y-122779819D01*
X116264226Y-122779819D02*
X116930892Y-122779819D01*
X116930892Y-122779819D02*
X116502321Y-123779819D01*
X48811845Y-144304819D02*
X48811845Y-143304819D01*
X48811845Y-143781009D02*
X49383273Y-143781009D01*
X49383273Y-144304819D02*
X49383273Y-143304819D01*
X49764226Y-143304819D02*
X50383273Y-143304819D01*
X50383273Y-143304819D02*
X50049940Y-143685771D01*
X50049940Y-143685771D02*
X50192797Y-143685771D01*
X50192797Y-143685771D02*
X50288035Y-143733390D01*
X50288035Y-143733390D02*
X50335654Y-143781009D01*
X50335654Y-143781009D02*
X50383273Y-143876247D01*
X50383273Y-143876247D02*
X50383273Y-144114342D01*
X50383273Y-144114342D02*
X50335654Y-144209580D01*
X50335654Y-144209580D02*
X50288035Y-144257200D01*
X50288035Y-144257200D02*
X50192797Y-144304819D01*
X50192797Y-144304819D02*
X49907083Y-144304819D01*
X49907083Y-144304819D02*
X49811845Y-144257200D01*
X49811845Y-144257200D02*
X49764226Y-144209580D01*
X105205892Y-123704580D02*
X105158273Y-123752200D01*
X105158273Y-123752200D02*
X105015416Y-123799819D01*
X105015416Y-123799819D02*
X104920178Y-123799819D01*
X104920178Y-123799819D02*
X104777321Y-123752200D01*
X104777321Y-123752200D02*
X104682083Y-123656961D01*
X104682083Y-123656961D02*
X104634464Y-123561723D01*
X104634464Y-123561723D02*
X104586845Y-123371247D01*
X104586845Y-123371247D02*
X104586845Y-123228390D01*
X104586845Y-123228390D02*
X104634464Y-123037914D01*
X104634464Y-123037914D02*
X104682083Y-122942676D01*
X104682083Y-122942676D02*
X104777321Y-122847438D01*
X104777321Y-122847438D02*
X104920178Y-122799819D01*
X104920178Y-122799819D02*
X105015416Y-122799819D01*
X105015416Y-122799819D02*
X105158273Y-122847438D01*
X105158273Y-122847438D02*
X105205892Y-122895057D01*
X106063035Y-123133152D02*
X106063035Y-123799819D01*
X105824940Y-122752200D02*
X105586845Y-123466485D01*
X105586845Y-123466485D02*
X106205892Y-123466485D01*
X106777321Y-122799819D02*
X106872559Y-122799819D01*
X106872559Y-122799819D02*
X106967797Y-122847438D01*
X106967797Y-122847438D02*
X107015416Y-122895057D01*
X107015416Y-122895057D02*
X107063035Y-122990295D01*
X107063035Y-122990295D02*
X107110654Y-123180771D01*
X107110654Y-123180771D02*
X107110654Y-123418866D01*
X107110654Y-123418866D02*
X107063035Y-123609342D01*
X107063035Y-123609342D02*
X107015416Y-123704580D01*
X107015416Y-123704580D02*
X106967797Y-123752200D01*
X106967797Y-123752200D02*
X106872559Y-123799819D01*
X106872559Y-123799819D02*
X106777321Y-123799819D01*
X106777321Y-123799819D02*
X106682083Y-123752200D01*
X106682083Y-123752200D02*
X106634464Y-123704580D01*
X106634464Y-123704580D02*
X106586845Y-123609342D01*
X106586845Y-123609342D02*
X106539226Y-123418866D01*
X106539226Y-123418866D02*
X106539226Y-123180771D01*
X106539226Y-123180771D02*
X106586845Y-122990295D01*
X106586845Y-122990295D02*
X106634464Y-122895057D01*
X106634464Y-122895057D02*
X106682083Y-122847438D01*
X106682083Y-122847438D02*
X106777321Y-122799819D01*
X88958569Y-114666666D02*
X88482378Y-114999999D01*
X88958569Y-115238094D02*
X87958569Y-115238094D01*
X87958569Y-115238094D02*
X87958569Y-114857142D01*
X87958569Y-114857142D02*
X88006188Y-114761904D01*
X88006188Y-114761904D02*
X88053807Y-114714285D01*
X88053807Y-114714285D02*
X88149045Y-114666666D01*
X88149045Y-114666666D02*
X88291902Y-114666666D01*
X88291902Y-114666666D02*
X88387140Y-114714285D01*
X88387140Y-114714285D02*
X88434759Y-114761904D01*
X88434759Y-114761904D02*
X88482378Y-114857142D01*
X88482378Y-114857142D02*
X88482378Y-115238094D01*
X87958569Y-114333332D02*
X87958569Y-113666666D01*
X87958569Y-113666666D02*
X88958569Y-114095237D01*
X128863330Y-113166666D02*
X128910950Y-113214285D01*
X128910950Y-113214285D02*
X128958569Y-113357142D01*
X128958569Y-113357142D02*
X128958569Y-113452380D01*
X128958569Y-113452380D02*
X128910950Y-113595237D01*
X128910950Y-113595237D02*
X128815711Y-113690475D01*
X128815711Y-113690475D02*
X128720473Y-113738094D01*
X128720473Y-113738094D02*
X128529997Y-113785713D01*
X128529997Y-113785713D02*
X128387140Y-113785713D01*
X128387140Y-113785713D02*
X128196664Y-113738094D01*
X128196664Y-113738094D02*
X128101426Y-113690475D01*
X128101426Y-113690475D02*
X128006188Y-113595237D01*
X128006188Y-113595237D02*
X127958569Y-113452380D01*
X127958569Y-113452380D02*
X127958569Y-113357142D01*
X127958569Y-113357142D02*
X128006188Y-113214285D01*
X128006188Y-113214285D02*
X128053807Y-113166666D01*
X128291902Y-112309523D02*
X128958569Y-112309523D01*
X127910950Y-112547618D02*
X128625235Y-112785713D01*
X128625235Y-112785713D02*
X128625235Y-112166666D01*
X116753330Y-118917857D02*
X116800950Y-118965476D01*
X116800950Y-118965476D02*
X116848569Y-119108333D01*
X116848569Y-119108333D02*
X116848569Y-119203571D01*
X116848569Y-119203571D02*
X116800950Y-119346428D01*
X116800950Y-119346428D02*
X116705711Y-119441666D01*
X116705711Y-119441666D02*
X116610473Y-119489285D01*
X116610473Y-119489285D02*
X116419997Y-119536904D01*
X116419997Y-119536904D02*
X116277140Y-119536904D01*
X116277140Y-119536904D02*
X116086664Y-119489285D01*
X116086664Y-119489285D02*
X115991426Y-119441666D01*
X115991426Y-119441666D02*
X115896188Y-119346428D01*
X115896188Y-119346428D02*
X115848569Y-119203571D01*
X115848569Y-119203571D02*
X115848569Y-119108333D01*
X115848569Y-119108333D02*
X115896188Y-118965476D01*
X115896188Y-118965476D02*
X115943807Y-118917857D01*
X115848569Y-118584523D02*
X115848569Y-117965476D01*
X115848569Y-117965476D02*
X116229521Y-118298809D01*
X116229521Y-118298809D02*
X116229521Y-118155952D01*
X116229521Y-118155952D02*
X116277140Y-118060714D01*
X116277140Y-118060714D02*
X116324759Y-118013095D01*
X116324759Y-118013095D02*
X116419997Y-117965476D01*
X116419997Y-117965476D02*
X116658092Y-117965476D01*
X116658092Y-117965476D02*
X116753330Y-118013095D01*
X116753330Y-118013095D02*
X116800950Y-118060714D01*
X116800950Y-118060714D02*
X116848569Y-118155952D01*
X116848569Y-118155952D02*
X116848569Y-118441666D01*
X116848569Y-118441666D02*
X116800950Y-118536904D01*
X116800950Y-118536904D02*
X116753330Y-118584523D01*
X116277140Y-117394047D02*
X116229521Y-117489285D01*
X116229521Y-117489285D02*
X116181902Y-117536904D01*
X116181902Y-117536904D02*
X116086664Y-117584523D01*
X116086664Y-117584523D02*
X116039045Y-117584523D01*
X116039045Y-117584523D02*
X115943807Y-117536904D01*
X115943807Y-117536904D02*
X115896188Y-117489285D01*
X115896188Y-117489285D02*
X115848569Y-117394047D01*
X115848569Y-117394047D02*
X115848569Y-117203571D01*
X115848569Y-117203571D02*
X115896188Y-117108333D01*
X115896188Y-117108333D02*
X115943807Y-117060714D01*
X115943807Y-117060714D02*
X116039045Y-117013095D01*
X116039045Y-117013095D02*
X116086664Y-117013095D01*
X116086664Y-117013095D02*
X116181902Y-117060714D01*
X116181902Y-117060714D02*
X116229521Y-117108333D01*
X116229521Y-117108333D02*
X116277140Y-117203571D01*
X116277140Y-117203571D02*
X116277140Y-117394047D01*
X116277140Y-117394047D02*
X116324759Y-117489285D01*
X116324759Y-117489285D02*
X116372378Y-117536904D01*
X116372378Y-117536904D02*
X116467616Y-117584523D01*
X116467616Y-117584523D02*
X116658092Y-117584523D01*
X116658092Y-117584523D02*
X116753330Y-117536904D01*
X116753330Y-117536904D02*
X116800950Y-117489285D01*
X116800950Y-117489285D02*
X116848569Y-117394047D01*
X116848569Y-117394047D02*
X116848569Y-117203571D01*
X116848569Y-117203571D02*
X116800950Y-117108333D01*
X116800950Y-117108333D02*
X116753330Y-117060714D01*
X116753330Y-117060714D02*
X116658092Y-117013095D01*
X116658092Y-117013095D02*
X116467616Y-117013095D01*
X116467616Y-117013095D02*
X116372378Y-117060714D01*
X116372378Y-117060714D02*
X116324759Y-117108333D01*
X116324759Y-117108333D02*
X116277140Y-117203571D01*
X127311845Y-144304819D02*
X127311845Y-143304819D01*
X127311845Y-143781009D02*
X127883273Y-143781009D01*
X127883273Y-144304819D02*
X127883273Y-143304819D01*
X128788035Y-143638152D02*
X128788035Y-144304819D01*
X128549940Y-143257200D02*
X128311845Y-143971485D01*
X128311845Y-143971485D02*
X128930892Y-143971485D01*
X102714285Y-80891009D02*
X102857142Y-80938628D01*
X102857142Y-80938628D02*
X102904761Y-80986247D01*
X102904761Y-80986247D02*
X102952380Y-81081485D01*
X102952380Y-81081485D02*
X102952380Y-81224342D01*
X102952380Y-81224342D02*
X102904761Y-81319580D01*
X102904761Y-81319580D02*
X102857142Y-81367200D01*
X102857142Y-81367200D02*
X102761904Y-81414819D01*
X102761904Y-81414819D02*
X102380952Y-81414819D01*
X102380952Y-81414819D02*
X102380952Y-80414819D01*
X102380952Y-80414819D02*
X102714285Y-80414819D01*
X102714285Y-80414819D02*
X102809523Y-80462438D01*
X102809523Y-80462438D02*
X102857142Y-80510057D01*
X102857142Y-80510057D02*
X102904761Y-80605295D01*
X102904761Y-80605295D02*
X102904761Y-80700533D01*
X102904761Y-80700533D02*
X102857142Y-80795771D01*
X102857142Y-80795771D02*
X102809523Y-80843390D01*
X102809523Y-80843390D02*
X102714285Y-80891009D01*
X102714285Y-80891009D02*
X102380952Y-80891009D01*
X103238095Y-80414819D02*
X103809523Y-80414819D01*
X103523809Y-81414819D02*
X103523809Y-80414819D01*
X104095238Y-80510057D02*
X104142857Y-80462438D01*
X104142857Y-80462438D02*
X104238095Y-80414819D01*
X104238095Y-80414819D02*
X104476190Y-80414819D01*
X104476190Y-80414819D02*
X104571428Y-80462438D01*
X104571428Y-80462438D02*
X104619047Y-80510057D01*
X104619047Y-80510057D02*
X104666666Y-80605295D01*
X104666666Y-80605295D02*
X104666666Y-80700533D01*
X104666666Y-80700533D02*
X104619047Y-80843390D01*
X104619047Y-80843390D02*
X104047619Y-81414819D01*
X104047619Y-81414819D02*
X104666666Y-81414819D01*
X89218569Y-138833333D02*
X89932854Y-138833333D01*
X89932854Y-138833333D02*
X90075711Y-138880952D01*
X90075711Y-138880952D02*
X90170950Y-138976190D01*
X90170950Y-138976190D02*
X90218569Y-139119047D01*
X90218569Y-139119047D02*
X90218569Y-139214285D01*
X89218569Y-137880952D02*
X89218569Y-138357142D01*
X89218569Y-138357142D02*
X89694759Y-138404761D01*
X89694759Y-138404761D02*
X89647140Y-138357142D01*
X89647140Y-138357142D02*
X89599521Y-138261904D01*
X89599521Y-138261904D02*
X89599521Y-138023809D01*
X89599521Y-138023809D02*
X89647140Y-137928571D01*
X89647140Y-137928571D02*
X89694759Y-137880952D01*
X89694759Y-137880952D02*
X89789997Y-137833333D01*
X89789997Y-137833333D02*
X90028092Y-137833333D01*
X90028092Y-137833333D02*
X90123330Y-137880952D01*
X90123330Y-137880952D02*
X90170950Y-137928571D01*
X90170950Y-137928571D02*
X90218569Y-138023809D01*
X90218569Y-138023809D02*
X90218569Y-138261904D01*
X90218569Y-138261904D02*
X90170950Y-138357142D01*
X90170950Y-138357142D02*
X90123330Y-138404761D01*
X124833330Y-113642857D02*
X124880950Y-113690476D01*
X124880950Y-113690476D02*
X124928569Y-113833333D01*
X124928569Y-113833333D02*
X124928569Y-113928571D01*
X124928569Y-113928571D02*
X124880950Y-114071428D01*
X124880950Y-114071428D02*
X124785711Y-114166666D01*
X124785711Y-114166666D02*
X124690473Y-114214285D01*
X124690473Y-114214285D02*
X124499997Y-114261904D01*
X124499997Y-114261904D02*
X124357140Y-114261904D01*
X124357140Y-114261904D02*
X124166664Y-114214285D01*
X124166664Y-114214285D02*
X124071426Y-114166666D01*
X124071426Y-114166666D02*
X123976188Y-114071428D01*
X123976188Y-114071428D02*
X123928569Y-113928571D01*
X123928569Y-113928571D02*
X123928569Y-113833333D01*
X123928569Y-113833333D02*
X123976188Y-113690476D01*
X123976188Y-113690476D02*
X124023807Y-113642857D01*
X124928569Y-112690476D02*
X124928569Y-113261904D01*
X124928569Y-112976190D02*
X123928569Y-112976190D01*
X123928569Y-112976190D02*
X124071426Y-113071428D01*
X124071426Y-113071428D02*
X124166664Y-113166666D01*
X124166664Y-113166666D02*
X124214283Y-113261904D01*
X124357140Y-112119047D02*
X124309521Y-112214285D01*
X124309521Y-112214285D02*
X124261902Y-112261904D01*
X124261902Y-112261904D02*
X124166664Y-112309523D01*
X124166664Y-112309523D02*
X124119045Y-112309523D01*
X124119045Y-112309523D02*
X124023807Y-112261904D01*
X124023807Y-112261904D02*
X123976188Y-112214285D01*
X123976188Y-112214285D02*
X123928569Y-112119047D01*
X123928569Y-112119047D02*
X123928569Y-111928571D01*
X123928569Y-111928571D02*
X123976188Y-111833333D01*
X123976188Y-111833333D02*
X124023807Y-111785714D01*
X124023807Y-111785714D02*
X124119045Y-111738095D01*
X124119045Y-111738095D02*
X124166664Y-111738095D01*
X124166664Y-111738095D02*
X124261902Y-111785714D01*
X124261902Y-111785714D02*
X124309521Y-111833333D01*
X124309521Y-111833333D02*
X124357140Y-111928571D01*
X124357140Y-111928571D02*
X124357140Y-112119047D01*
X124357140Y-112119047D02*
X124404759Y-112214285D01*
X124404759Y-112214285D02*
X124452378Y-112261904D01*
X124452378Y-112261904D02*
X124547616Y-112309523D01*
X124547616Y-112309523D02*
X124738092Y-112309523D01*
X124738092Y-112309523D02*
X124833330Y-112261904D01*
X124833330Y-112261904D02*
X124880950Y-112214285D01*
X124880950Y-112214285D02*
X124928569Y-112119047D01*
X124928569Y-112119047D02*
X124928569Y-111928571D01*
X124928569Y-111928571D02*
X124880950Y-111833333D01*
X124880950Y-111833333D02*
X124833330Y-111785714D01*
X124833330Y-111785714D02*
X124738092Y-111738095D01*
X124738092Y-111738095D02*
X124547616Y-111738095D01*
X124547616Y-111738095D02*
X124452378Y-111785714D01*
X124452378Y-111785714D02*
X124404759Y-111833333D01*
X124404759Y-111833333D02*
X124357140Y-111928571D01*
X128863330Y-106666666D02*
X128910950Y-106714285D01*
X128910950Y-106714285D02*
X128958569Y-106857142D01*
X128958569Y-106857142D02*
X128958569Y-106952380D01*
X128958569Y-106952380D02*
X128910950Y-107095237D01*
X128910950Y-107095237D02*
X128815711Y-107190475D01*
X128815711Y-107190475D02*
X128720473Y-107238094D01*
X128720473Y-107238094D02*
X128529997Y-107285713D01*
X128529997Y-107285713D02*
X128387140Y-107285713D01*
X128387140Y-107285713D02*
X128196664Y-107238094D01*
X128196664Y-107238094D02*
X128101426Y-107190475D01*
X128101426Y-107190475D02*
X128006188Y-107095237D01*
X128006188Y-107095237D02*
X127958569Y-106952380D01*
X127958569Y-106952380D02*
X127958569Y-106857142D01*
X127958569Y-106857142D02*
X128006188Y-106714285D01*
X128006188Y-106714285D02*
X128053807Y-106666666D01*
X127958569Y-106333332D02*
X127958569Y-105714285D01*
X127958569Y-105714285D02*
X128339521Y-106047618D01*
X128339521Y-106047618D02*
X128339521Y-105904761D01*
X128339521Y-105904761D02*
X128387140Y-105809523D01*
X128387140Y-105809523D02*
X128434759Y-105761904D01*
X128434759Y-105761904D02*
X128529997Y-105714285D01*
X128529997Y-105714285D02*
X128768092Y-105714285D01*
X128768092Y-105714285D02*
X128863330Y-105761904D01*
X128863330Y-105761904D02*
X128910950Y-105809523D01*
X128910950Y-105809523D02*
X128958569Y-105904761D01*
X128958569Y-105904761D02*
X128958569Y-106190475D01*
X128958569Y-106190475D02*
X128910950Y-106285713D01*
X128910950Y-106285713D02*
X128863330Y-106333332D01*
X125930892Y-122574819D02*
X125454702Y-122574819D01*
X125454702Y-122574819D02*
X125454702Y-121574819D01*
X126216607Y-122527200D02*
X126359464Y-122574819D01*
X126359464Y-122574819D02*
X126597559Y-122574819D01*
X126597559Y-122574819D02*
X126692797Y-122527200D01*
X126692797Y-122527200D02*
X126740416Y-122479580D01*
X126740416Y-122479580D02*
X126788035Y-122384342D01*
X126788035Y-122384342D02*
X126788035Y-122289104D01*
X126788035Y-122289104D02*
X126740416Y-122193866D01*
X126740416Y-122193866D02*
X126692797Y-122146247D01*
X126692797Y-122146247D02*
X126597559Y-122098628D01*
X126597559Y-122098628D02*
X126407083Y-122051009D01*
X126407083Y-122051009D02*
X126311845Y-122003390D01*
X126311845Y-122003390D02*
X126264226Y-121955771D01*
X126264226Y-121955771D02*
X126216607Y-121860533D01*
X126216607Y-121860533D02*
X126216607Y-121765295D01*
X126216607Y-121765295D02*
X126264226Y-121670057D01*
X126264226Y-121670057D02*
X126311845Y-121622438D01*
X126311845Y-121622438D02*
X126407083Y-121574819D01*
X126407083Y-121574819D02*
X126645178Y-121574819D01*
X126645178Y-121574819D02*
X126788035Y-121622438D01*
X127740416Y-122574819D02*
X127168988Y-122574819D01*
X127454702Y-122574819D02*
X127454702Y-121574819D01*
X127454702Y-121574819D02*
X127359464Y-121717676D01*
X127359464Y-121717676D02*
X127264226Y-121812914D01*
X127264226Y-121812914D02*
X127168988Y-121860533D01*
X111503330Y-118917857D02*
X111550950Y-118965476D01*
X111550950Y-118965476D02*
X111598569Y-119108333D01*
X111598569Y-119108333D02*
X111598569Y-119203571D01*
X111598569Y-119203571D02*
X111550950Y-119346428D01*
X111550950Y-119346428D02*
X111455711Y-119441666D01*
X111455711Y-119441666D02*
X111360473Y-119489285D01*
X111360473Y-119489285D02*
X111169997Y-119536904D01*
X111169997Y-119536904D02*
X111027140Y-119536904D01*
X111027140Y-119536904D02*
X110836664Y-119489285D01*
X110836664Y-119489285D02*
X110741426Y-119441666D01*
X110741426Y-119441666D02*
X110646188Y-119346428D01*
X110646188Y-119346428D02*
X110598569Y-119203571D01*
X110598569Y-119203571D02*
X110598569Y-119108333D01*
X110598569Y-119108333D02*
X110646188Y-118965476D01*
X110646188Y-118965476D02*
X110693807Y-118917857D01*
X110598569Y-118584523D02*
X110598569Y-117965476D01*
X110598569Y-117965476D02*
X110979521Y-118298809D01*
X110979521Y-118298809D02*
X110979521Y-118155952D01*
X110979521Y-118155952D02*
X111027140Y-118060714D01*
X111027140Y-118060714D02*
X111074759Y-118013095D01*
X111074759Y-118013095D02*
X111169997Y-117965476D01*
X111169997Y-117965476D02*
X111408092Y-117965476D01*
X111408092Y-117965476D02*
X111503330Y-118013095D01*
X111503330Y-118013095D02*
X111550950Y-118060714D01*
X111550950Y-118060714D02*
X111598569Y-118155952D01*
X111598569Y-118155952D02*
X111598569Y-118441666D01*
X111598569Y-118441666D02*
X111550950Y-118536904D01*
X111550950Y-118536904D02*
X111503330Y-118584523D01*
X110598569Y-117632142D02*
X110598569Y-116965476D01*
X110598569Y-116965476D02*
X111598569Y-117394047D01*
D12*
%TO.C,U6*%
X94463750Y-124165000D02*
X97683750Y-124165000D01*
X94463750Y-124340000D02*
X94463750Y-124165000D01*
X94463750Y-127385000D02*
X94463750Y-127210000D01*
X97683750Y-124165000D02*
X97683750Y-124340000D01*
X97683750Y-127210000D02*
X97683750Y-127385000D01*
X97683750Y-127385000D02*
X94463750Y-127385000D01*
X93913750Y-124335000D02*
X93673750Y-124005000D01*
X94153750Y-124005000D01*
X93913750Y-124335000D01*
G36*
X93913750Y-124335000D02*
G01*
X93673750Y-124005000D01*
X94153750Y-124005000D01*
X93913750Y-124335000D01*
G37*
%TO.C,SW1*%
X124963750Y-81090000D02*
X124963750Y-87910000D01*
X126273750Y-81090000D02*
X124963750Y-81090000D01*
X126273750Y-87910000D02*
X124963750Y-87910000D01*
X127708750Y-83896667D02*
X126438750Y-83896667D01*
X129183750Y-81090000D02*
X127873750Y-81090000D01*
X129183750Y-81090000D02*
X129183750Y-87910000D01*
X129183750Y-87910000D02*
X127873750Y-87910000D01*
X129423750Y-80850000D02*
X128040750Y-80850000D01*
X129423750Y-80850000D02*
X129423750Y-82233000D01*
X127708750Y-82690000D02*
X126438750Y-82690000D01*
X126438750Y-83896667D01*
X127708750Y-83896667D01*
X127708750Y-82690000D01*
G36*
X127708750Y-82690000D02*
G01*
X126438750Y-82690000D01*
X126438750Y-83896667D01*
X127708750Y-83896667D01*
X127708750Y-82690000D01*
G37*
X127708750Y-82690000D02*
X126438750Y-82690000D01*
X126438750Y-86310000D01*
X127708750Y-86310000D01*
X127708750Y-82690000D01*
%TO.C,J6*%
X94343750Y-137120000D02*
X94343750Y-139880000D01*
X107153750Y-137120000D02*
X94343750Y-137120000D01*
X107153750Y-137120000D02*
X107153750Y-139880000D01*
X107153750Y-139880000D02*
X94343750Y-139880000D01*
X108423750Y-137120000D02*
X109803750Y-137120000D01*
X109803750Y-137120000D02*
X109803750Y-138500000D01*
%TO.C,C17*%
X122033750Y-106359420D02*
X122033750Y-106640580D01*
X123053750Y-106359420D02*
X123053750Y-106640580D01*
%TO.C,SW4*%
X48323750Y-136700000D02*
X48323750Y-138700000D01*
X49373750Y-135400000D02*
X49823750Y-134950000D01*
X49373750Y-140000000D02*
X49823750Y-140450000D01*
X49823750Y-134950000D02*
X52323750Y-134950000D01*
X49823750Y-140450000D02*
X52323750Y-140450000D01*
X52773750Y-135400000D02*
X52323750Y-134950000D01*
X52773750Y-140000000D02*
X52323750Y-140450000D01*
X53823750Y-136700000D02*
X53823750Y-138700000D01*
%TO.C,BT3*%
X112120000Y-74650000D02*
X113500000Y-74650000D01*
X112120000Y-76030000D02*
X112120000Y-74650000D01*
X112120000Y-77300000D02*
X112120000Y-79950000D01*
X112120000Y-77300000D02*
X114880000Y-77300000D01*
X112120000Y-79950000D02*
X114880000Y-79950000D01*
X114880000Y-77300000D02*
X114880000Y-79950000D01*
%TO.C,U2*%
X61203750Y-85250000D02*
X67618750Y-85250000D01*
X61203750Y-103490000D02*
X61203750Y-85250000D01*
X61203750Y-103490000D02*
X67363750Y-103490000D01*
X86163750Y-85250000D02*
X86943750Y-85250000D01*
X86163750Y-103490000D02*
X86943750Y-103490000D01*
X86943750Y-85250000D02*
X86943750Y-86250000D01*
X86943750Y-103490000D02*
X86943750Y-102490000D01*
X68088750Y-103995000D02*
X67588750Y-103495000D01*
X68088750Y-103495000D01*
X68088750Y-103995000D01*
G36*
X68088750Y-103995000D02*
G01*
X67588750Y-103495000D01*
X68088750Y-103495000D01*
X68088750Y-103995000D01*
G37*
%TO.C,C7*%
X67433170Y-128490000D02*
X67714330Y-128490000D01*
X67433170Y-129510000D02*
X67714330Y-129510000D01*
%TO.C,R6*%
X69551250Y-112737258D02*
X69551250Y-112262742D01*
X70596250Y-112737258D02*
X70596250Y-112262742D01*
%TO.C,SW5*%
X62823750Y-136600000D02*
X62823750Y-138600000D01*
X63873750Y-135300000D02*
X64323750Y-134850000D01*
X63873750Y-139900000D02*
X64323750Y-140350000D01*
X64323750Y-134850000D02*
X66823750Y-134850000D01*
X64323750Y-140350000D02*
X66823750Y-140350000D01*
X67273750Y-135300000D02*
X66823750Y-134850000D01*
X67273750Y-139900000D02*
X66823750Y-140350000D01*
X68323750Y-136600000D02*
X68323750Y-138600000D01*
%TO.C,U8*%
X100890000Y-85660000D02*
X111110000Y-85660000D01*
X100890000Y-101530000D02*
X100890000Y-85660000D01*
X100890000Y-101530000D02*
X111110000Y-101530000D01*
X102975000Y-101530000D02*
X102975000Y-103970000D01*
X103945000Y-101530000D02*
X103945000Y-103970000D01*
X105515000Y-101530000D02*
X105515000Y-103970000D01*
X106485000Y-101530000D02*
X106485000Y-103970000D01*
X108055000Y-101530000D02*
X108055000Y-103970000D01*
X109025000Y-101530000D02*
X109025000Y-103970000D01*
X111110000Y-101530000D02*
X111110000Y-85660000D01*
%TO.C,D1*%
X126073750Y-94945000D02*
X126073750Y-98955000D01*
X128073750Y-94945000D02*
X126073750Y-94945000D01*
X128073750Y-94945000D02*
X128073750Y-98955000D01*
%TO.C,BT1*%
X92120000Y-74650000D02*
X93500000Y-74650000D01*
X92120000Y-76030000D02*
X92120000Y-74650000D01*
X92120000Y-77300000D02*
X92120000Y-79950000D01*
X92120000Y-77300000D02*
X94880000Y-77300000D01*
X92120000Y-79950000D02*
X94880000Y-79950000D01*
X94880000Y-77300000D02*
X94880000Y-79950000D01*
%TO.C,C39*%
X105658170Y-118765000D02*
X105939330Y-118765000D01*
X105658170Y-119785000D02*
X105939330Y-119785000D01*
%TO.C,U7*%
X114463750Y-124165000D02*
X117683750Y-124165000D01*
X114463750Y-124340000D02*
X114463750Y-124165000D01*
X114463750Y-127385000D02*
X114463750Y-127210000D01*
X117683750Y-124165000D02*
X117683750Y-124340000D01*
X117683750Y-127210000D02*
X117683750Y-127385000D01*
X117683750Y-127385000D02*
X114463750Y-127385000D01*
X113913750Y-124335000D02*
X113673750Y-124005000D01*
X114153750Y-124005000D01*
X113913750Y-124335000D01*
G36*
X113913750Y-124335000D02*
G01*
X113673750Y-124005000D01*
X114153750Y-124005000D01*
X113913750Y-124335000D01*
G37*
%TO.C,C40*%
X105708170Y-124265000D02*
X105989330Y-124265000D01*
X105708170Y-125285000D02*
X105989330Y-125285000D01*
%TO.C,R7*%
X86551250Y-114262742D02*
X86551250Y-114737258D01*
X87596250Y-114262742D02*
X87596250Y-114737258D01*
%TO.C,C4*%
X126563750Y-112859420D02*
X126563750Y-113140580D01*
X127583750Y-112859420D02*
X127583750Y-113140580D01*
%TO.C,C38*%
X117338750Y-118536252D02*
X117338750Y-118013748D01*
X118808750Y-118536252D02*
X118808750Y-118013748D01*
%TO.C,BT2*%
X102120000Y-77310000D02*
X102120000Y-74660000D01*
X104880000Y-74660000D02*
X102120000Y-74660000D01*
X104880000Y-77310000D02*
X102120000Y-77310000D01*
X104880000Y-77310000D02*
X104880000Y-74660000D01*
X104880000Y-78580000D02*
X104880000Y-79960000D01*
X104880000Y-79960000D02*
X103500000Y-79960000D01*
%TO.C,J5*%
X80923750Y-137120000D02*
X80923750Y-139880000D01*
X86113750Y-137120000D02*
X80923750Y-137120000D01*
X86113750Y-137120000D02*
X86113750Y-139880000D01*
X86113750Y-139880000D02*
X80923750Y-139880000D01*
X87383750Y-137120000D02*
X88763750Y-137120000D01*
X88763750Y-137120000D02*
X88763750Y-138500000D01*
%TO.C,C18*%
X122533750Y-112859420D02*
X122533750Y-113140580D01*
X123553750Y-112859420D02*
X123553750Y-113140580D01*
%TO.C,C3*%
X126563750Y-106359420D02*
X126563750Y-106640580D01*
X127583750Y-106359420D02*
X127583750Y-106640580D01*
%TO.C,LS1*%
X125193750Y-123120000D02*
X126573750Y-123120000D01*
X125193750Y-124500000D02*
X125193750Y-123120000D01*
X125193750Y-125770000D02*
X125193750Y-128420000D01*
X125193750Y-125770000D02*
X127953750Y-125770000D01*
X125193750Y-128420000D02*
X127953750Y-128420000D01*
X127953750Y-125770000D02*
X127953750Y-128420000D01*
%TO.C,C37*%
X112063750Y-118415580D02*
X112063750Y-118134420D01*
X113083750Y-118415580D02*
X113083750Y-118134420D01*
%TD*%
M02*
